<svg xmlns="http://www.w3.org/2000/svg" width="109" height="109"><path d="M45 7.5c5.8 2.21 12.03 5.51 17 9.38M29 33.22c3.12 1.53 5.62 1.58 8.81.98 7.72-1.47 24.61-5.65 27.91-6.52 3.86-1.01 5.65 1.54 3.41 4.61C59.75 45.12 42.5 63 24.91 74.62m28.51-21.25c.92.92 1.02 2.27 1.02 4.14 0 7.13-.04 24.19-.06 34.37-.01 3.38-.01 6-.01 7.25m3.13-45.38C73 61.62 80.62 68 84.88 75.62" style="fill:none;stroke:#000;stroke-width:3;stroke-linecap:round;stroke-linejoin:round"/><g style="font-size:8;fill:gray"><text transform="translate(37.38 8.25)">1</text><text transform="translate(20 31.43)">2</text><text transform="translate(47.38 67.73)">3</text><text transform="translate(62.25 52.25)">4</text></g></svg>