<svg xmlns="http://www.w3.org/2000/svg" width="109" height="109"><path d="M40.96 17.88c.44 1.9.39 4.42-.59 6.5C35.55 34.69 31.16 44.05 21.5 55m16.38-17.38c2.12.88 4.15 1.04 6.62.5 12.62-2.75 25.5-4.88 35.75-6.5 3.61-.57 6.25-.75 9.25-.5m-25.04 7.76c.44 1.9.5 4.27-.08 6.5-3.63 13.75-9.25 31.25-24.63 43.87m43.87-75.31c2.95 1.81 6.43 5.57 8.3 8.81m-1.8-13.63c3.02 1.63 6.58 5 8.5 7.9" style="fill:none;stroke:#000;stroke-width:3;stroke-linecap:round;stroke-linejoin:round"/><g style="font-size:8;fill:gray"><text transform="translate(32.5 17.38)">1</text><text transform="translate(41.5 34.75)">2</text><text transform="translate(56.25 44)">3</text><text transform="translate(76.5 12.75)">4</text><text transform="translate(82.63 7.88)">5</text></g></svg>