<svg xmlns="http://www.w3.org/2000/svg" width="109" height="109"><path d="M21.5 24.12c1.5 1.25 2.16 3.14 2.38 5.38.96 10.07.89 8.17 1.89 19.38.31 3.4.59 6.58.86 9.38m-2.38-31.38c3.12.38 5.16.22 8.23-.06 13.76-1.28 27.14-2.31 41.64-3.69 8.04-.76 9.44.51 8.38 6.62C77.75 57 61.88 77.38 38.62 91.25M85.5 12.38c2.61 1.93 5.7 5.93 7.36 9.37m-1.3-14.5c2.82 1.78 6.15 5.48 7.94 8.66" style="fill:none;stroke:#000;stroke-width:3;stroke-linecap:round;stroke-linejoin:round"/><g style="font-size:8;fill:gray"><text transform="translate(15.63 27.38)">1</text><text transform="translate(28.63 21.63)">2</text><text transform="translate(80.13 11.63)">3</text><text transform="translate(85.13 6.38)">4</text></g></svg>