<svg xmlns="http://www.w3.org/2000/svg" width="109" height="109"><path d="M50.65 16.5c1.3 1.3 1.42 2.5 1.42 4.52 0 3.9-.06 12.06-.06 15.6M23.58 41.5c2.54 1.13 5.41.73 8.07.26 10.23-1.81 30.92-5.79 38.18-7.01 5.92-1 7.65 2.76 2.5 6.5C55.62 53.38 41.5 62 24 71.25m-9.25 1.25c2.75-.25 5.37.07 7.17.37 18.58 3.13 33.83 10 50.39 14.99C78.76 89.81 81.5 90.38 87 91" style="fill:none;stroke:#000;stroke-width:3;stroke-linecap:round;stroke-linejoin:round"/><g style="font-size:8;fill:gray"><text transform="translate(40.75 18.13)">1</text><text transform="translate(16.25 42.05)">2</text><text transform="translate(7.25 74.25)">3</text></g></svg>