<svg xmlns="http://www.w3.org/2000/svg" width="109" height="109"><g style="fill:none;stroke:#000;stroke-width:3;stroke-linecap:round;stroke-linejoin:round"><path d="M35.27 13.73c.75.75 1.16 1.9 1.16 3.12 0 .76-.06 32.95-.06 41.78m1.25-23.38c4.52-1.16 7.75-2 11.88-2.96.97-.17 1.96-.21 2.95-.12m-31.65.84c.97.97 1.08 2.36 1.08 3.9 0 4.49.05 22.54.05 28.45"/><path d="M15.6 66.64c1.03.98 2.45 1.12 3.53.64 10.24-4.53 19.87-9.03 33.66-15.7m35.5-30.39c-.04 1.06-.64 2.34-1.18 2.81-4.49 3.88-11.11 8.62-21.73 14"/><path d="M60.96 12.25c.89.89 1.23 2 1.23 3.1s-.07 26.02-.07 33.15c0 10.46 2.53 12.83 15.87 12.83 13.13 0 14.16-2.49 14.16-7.48m-60.4 22.32c3.12.52 6.21.21 9.38-.13 8.62-.91 19.27-2.22 27.88-2.63 2.99-.33 5.97-.27 8.93.19M17.75 95.04c5.5 1.33 12.23.39 17.52-.14 17.61-1.78 28.98-2.4 43.1-3.58 5.58-.46 11.36-.16 16.88.93"/></g><g style="font-size:8;fill:gray"><text transform="translate(25.5 13.5)">1</text><text transform="translate(41.25 30.5)">2</text><text transform="translate(11.5 33.5)">3</text><text transform="translate(7.25 67.4)">4</text><text transform="translate(79.5 20.5)">5</text><text transform="translate(52.5 9.5)">6</text><text transform="translate(25.5 77.5)">7</text><text transform="translate(10.5 96.5)">8</text></g></svg>