<svg xmlns="http://www.w3.org/2000/svg" width="109" height="109"><g style="fill:none;stroke:#000;stroke-width:3;stroke-linecap:round;stroke-linejoin:round"><path d="M52.76 12.99c1.19 1.19 1.6 2.51 1.6 4.73 0 4.26-.11 7.35-.11 11.28m-37.5 3.64c3.88.61 7.28.37 11.25-.02 13.25-1.3 38.83-3.5 54.12-4.53 3.55-.24 7.45-.96 10.88.32m-43.52 5.21c.15 1.26-.27 2.33-1.49 3.47-3.48 3.28-7.11 6.66-12.81 11.19-.9.71-.95 2.83 0 3.07 5.06 1.23 10.82 2.9 16.18 5.27"/><path d="M67.98 40.5c.11.82-.21 2.21-.96 3.04C57.5 54 45.75 64.75 27 74.54m44.93-17.29c0 1.38-.61 2.53-1.52 3.51-11.87 12.82-26.79 25.62-50.66 35.78M58 77c9.9 3.26 25.58 13.4 28.06 18.47"/></g><g style="font-size:8;fill:gray"><text transform="translate(43.25 13.25)">1</text><text transform="translate(8.25 32.25)">2</text><text transform="translate(36.25 41.25)">3</text><text transform="translate(59.25 43.25)">4</text><text transform="translate(63.25 59.25)">5</text><text transform="translate(68.25 78.25)">6</text></g></svg>