<svg xmlns="http://www.w3.org/2000/svg" width="109" height="109"><path d="M52.79 9.61c1.13 1.13 1.34 2.32 1.34 3.27 0 3.49.09 4.25.09 7.31M22 23.83c2.62.67 5.28.72 8.13.4 11.13-1.23 35.9-3.83 48.5-4.39 2.66-.12 5.09-.2 7.62.75m-50.61 12.8c.82.51 1.52 1.25 1.59 2.24.82 2.52 1.95 6.15 2.67 9.4.21.95.41 1.87.61 2.72m-2.95-13.62c6.53-.88 21.98-3.2 29.69-4.19 3.62-.46 5.6-.24 4.46 3.99-.58 2.14-1.3 4.11-2.54 8.02m-28.2 3.74c5.75-.77 18.06-2.32 25.78-3.18 1.71-.19 3.22-.35 4.42-.45M22.29 55.69c-.11 3.81-2.82 13.79-3.79 16.06m4.72-14C34 57 67.48 51.96 85.19 51.5c9.56-.25 4.06 5.75-.69 9.5m-55.23 9.84c2.15.84 5.32.46 7.53.21 9.47-1.07 24.6-3.02 35.21-3.79 2.58-.19 5.18-.24 7.73.36m-24.73 3.17c.85.85 1.08 1.96 1.08 3.44 0 9.74-.09 17.33-.09 20.64 0 9.3-5.88 1.12-7.36-.75" style="fill:none;stroke:#000;stroke-width:3;stroke-linecap:round;stroke-linejoin:round"/><g style="font-size:8;fill:gray"><text transform="translate(43.5 9.13)">1</text><text transform="translate(23.5 21.5)">2</text><text transform="translate(29.5 40.55)">3</text><text transform="translate(38.5 31.63)">4</text><text transform="translate(44.25 42.05)">5</text><text transform="translate(15.5 59.5)">6</text><text transform="translate(26.5 54.5)">7</text><text transform="translate(28.5 68.5)">8</text><text transform="translate(48.5 79.63)">9</text></g></svg>