<svg xmlns="http://www.w3.org/2000/svg" width="109" height="109"><path d="M31.5 17.39c.13 1.05.23 2.38-.12 3.67-2.19 8.2-10.64 24.04-20.82 35.15M26.03 40c.59.61.76 1.97.76 3.23 0 13.02-.29 42.15-.29 50.9m36.02-81.88c.07.95.25 2.5-.15 3.83-2.44 8.24-12.46 26.47-25.87 36.7m26.54-35.73c5.75 7.42 19.95 21.89 27.35 27.81 1.63 1.31 3.55 2.03 5.11 2.43m-43.52-.6c.41 1.29 1 2.31 1 3.92 0 14.75.37 33.43-12.33 43.61M75.7 43.77c.76.49 1.22 2.22 1.38 3.2.15.99 0 43.63-.15 49.79" style="fill:none;stroke:#000;stroke-width:3;stroke-linecap:round;stroke-linejoin:round"/><g style="font-size:8;fill:gray"><text transform="translate(22.5 16.5)">1</text><text transform="translate(19.5 55.5)">2</text><text transform="translate(53.5 12.5)">3</text><text transform="translate(69.5 21.5)">4</text><text transform="translate(44.5 54.5)">5</text><text transform="translate(65.25 44.5)">6</text></g></svg>