<svg xmlns="http://www.w3.org/2000/svg" width="109" height="109"><path d="M52 11.75c.11 1.07-.06 2.59-.72 4.05C47 25.25 31.5 45.75 11.5 56.75M51.5 16c6.09 6.96 32.31 29.69 39.02 34.79 2.28 1.73 5.2 2.47 7.48 2.96M53.12 44c.88 1.25 1.29 3 1.29 4.72 0 8.03.05 35.78.05 40.65m1.21-24.01c6.5-.51 11.6-1.71 18.44-2.05 1.59-.08 1.99-.17 2.98 0m-46.06 2.01c.72.93 1.04 2.3 1.04 3.97 0 4.46.05 16.96.05 21.93m-13.45.89c3.25.94 6.53.59 9.83.33 12.47-.95 35.87-2.57 49-3.03 3.45-.12 6.91-.08 10.33.58" style="fill:none;stroke:#000;stroke-width:3;stroke-linecap:round;stroke-linejoin:round"/><g style="font-size:8;fill:gray"><text transform="translate(43.5 14.5)">1</text><text transform="translate(63.5 22.63)">2</text><text transform="translate(42.5 46.5)">3</text><text transform="translate(59.25 61.5)">4</text><text transform="translate(20.5 67.63)">5</text><text transform="translate(15.75 88.55)">6</text></g></svg>