<svg xmlns="http://www.w3.org/2000/svg" width="109" height="109"><path d="M32.26 17.5c.22 2-.06 4.62-.76 6.33C27.06 34.75 21.43 45 11.25 58.29M26.03 42c1.18 9.11-.82 43.75-.28 51.75m30.63-79c5.89 3.52 11.04 9.38 13.25 15.25m-29.54 9.81c.95.3 2.06.34 3 .3 5.35-.26 35.69-4.63 43.77-4.85 1.58-.04 2.53.14 3.31.29m-40.25 8.97c3.51 14.41 5.1 29.14 5.42 38.64m24.23-44.12c.75 1.39.84 2.1.75 3.25-.6 7.89-6.14 32.94-7.64 38.97M35.5 86.34c1.19.36 2.58.5 3.76.36 12.93-1.54 39.61-3.91 54.59-4.64 1.98-.1 3.17.17 4.16.35" style="fill:none;stroke:#000;stroke-width:3;stroke-linecap:round;stroke-linejoin:round"/><g style="font-size:8;fill:gray"><text transform="translate(23.5 16.5)">1</text><text transform="translate(19.5 58.5)">2</text><text transform="translate(50.5 15.5)">3</text><text transform="translate(37.5 36.13)">4</text><text transform="translate(42.5 50.5)">5</text><text transform="translate(72.5 45.5)">6</text><text transform="translate(35.5 82.18)">7</text></g></svg>