<svg xmlns="http://www.w3.org/2000/svg" width="109" height="109"><g style="fill:none;stroke:#000;stroke-width:3;stroke-linecap:round;stroke-linejoin:round"><path d="M18.25 30.96c1.89.7 4.05.93 6.23.7 11.1-1.15 43.31-5.15 60.09-6.5 2.16-.17 3.52.12 5.68.62M33.5 38.49c0 .65.08 1.2-.13 1.95-1.93 7.07-7.69 15.87-16.15 23.68m14.92-14.66c3.3 1.87 7.51 6.83 9.11 11.54m36.51-26.76c0 .52.11.97-.1 1.56-1.82 5.1-7.01 14.18-13.18 19.32m10.66-9.91c4.7 3.39 8.3 7.64 11.11 12.79"/><path d="M52.25 10.75c1.25.5 2.25 2.22 2.25 3.25 0 10.5-.25 74.75-.25 81 0 12.25-5 3.25-6.25 2"/><path d="M54.25 53.75c-6.77 12.28-24.92 31.05-39 38M54.5 55c4.75 4.39 27.09 26.42 32.25 30.74 1.75 1.46 3.25 2.09 5 2.51"/></g><g style="font-size:8;fill:gray"><text transform="translate(11.5 31.5)">1</text><text transform="translate(24.5 41.5)">2</text><text transform="translate(36.5 50.5)">3</text><text transform="translate(68.5 36.5)">4</text><text transform="translate(81.5 47.33)">5</text><text transform="translate(42.25 11.25)">6</text><text transform="translate(45.5 55.5)">7</text><text transform="translate(72.25 67.1)">8</text></g></svg>