<svg xmlns="http://www.w3.org/2000/svg" width="109" height="109"><g style="fill:none;stroke:#000;stroke-width:3;stroke-linecap:round;stroke-linejoin:round"><path d="M31.75 17.5c.25 2-.25 4.54-.87 6.33C27 35 22.75 46.5 11 59.79M26.03 42c.59.61.7 1.97.76 3.23.56 11.77-1.02 40.29-.54 47.52m18.19-76.11c.39.43.79.79.96 1.33 1.35 4.27 2.86 14.58 3.79 22.25m-3.5-21.61c10.33-1.31 28.87-3.3 33.43-3.86 1.67-.21 2.67 1.22 2.43 2.42-.99 4.99-2.65 10.44-4.12 17.34m-28.06 3.82c5.37-.63 23.37-2.23 30.74-3.2m-44 21.81c1.22 0 3.05.3 4.68.19 7.38-.49 37.34-2.83 48.53-3.77 1.62-.14 2.03-.19 3.05 0"/><path d="M62.1 43.02c.98.46 1.77 2.99 1.77 3.95 0 6.5-.2 40.7-.2 41.53 0 11.5-4.54 2.38-5.92 1m-2.87-25.68c-2.75 7.65-9.65 18.47-15.38 22.8m32.17-24.24C77.75 66.5 88.5 80 91.68 86.97"/></g><g style="font-size:8;fill:gray"><text transform="translate(23.5 17.5)">1</text><text transform="translate(19.5 60.5)">2</text><text transform="translate(39.75 31.63)">3</text><text transform="translate(46.5 15.5)">4</text><text transform="translate(51.75 34.55)">5</text><text transform="translate(35.25 54.5)">6</text><text transform="translate(53.5 47.5)">7</text><text transform="translate(45.75 67.55)">8</text><text transform="translate(77.25 63.5)">9</text></g></svg>