<svg xmlns="http://www.w3.org/2000/svg" width="109" height="109"><g style="fill:none;stroke:#000;stroke-width:3;stroke-linecap:round;stroke-linejoin:round"><path d="M31.5 17.39c.13 1.12.22 2.53-.11 3.91C29.25 30.03 21 46.89 11.06 58.72M24.49 43.5c.66.68.84 2.19.84 3.58 0 14.46-.32 37.58-.32 47.29m14.38-75.48c.55.43 1.83 1.86 1.83 4.08 0 .87-.07 65.99-.18 71.36m.33-74.46c1.83-.11 14.48-2.38 16.15-2.51 1.39-.11 2.11 1 2.18 1.88.1 1.35-2.16 24.52-2.16 25.18"/><path d="M41.69 32.74c2.82-.41 5.65-.82 8.47-1.25.77-.12 1.55-.23 2.31-.35m-10.6 15.93c5.88-.82 11.81-1.73 17.2-2.31m9.96-27.59c.31.59 1.1 1.84 1.13 2.63.09 1.95 1.39 25.32 1.5 26.11m-1.48-27.68c1.78-.1 18.33-2.62 19.95-2.74 1.35-.1 2.13 1.07 2.12 1.66-.35 18.04-.36 58.1-.35 71.18 0 10.7-6.14 3.51-9.07-.09"/><path d="M71 30.09c3.3 0 6.67-.58 9.94-.92 1.1-.12 2.2-.23 3.25-.34m-12.01 15c3.56 0 15.1-1.65 19.71-1.65"/></g><g style="font-size:8;fill:gray"><text transform="translate(23.5 16.5)">1</text><text transform="translate(17.5 60.5)">2</text><text transform="translate(33.5 31.5)">3</text><text transform="translate(39.5 16.5)">4</text><text transform="translate(44.5 28.5)">5</text><text transform="translate(44.5 42.5)">6</text><text transform="translate(64.5 25.68)">7</text><text transform="translate(72.5 14.5)">8</text><text transform="translate(74.44 26.5)">9</text><text transform="translate(73.5 39.45)">10</text></g></svg>