<svg xmlns="http://www.w3.org/2000/svg" width="109" height="109"><g style="fill:none;stroke:#000;stroke-width:3;stroke-linecap:round;stroke-linejoin:round"><path d="M32.48 14.89c.14 1.15.25 2.59-.13 4.01-2.39 8.93-11.65 26.21-22.8 38.32M22.99 44.5c.66.68.84 2.19.84 3.58 0 14.46-.32 39.58-.32 49.29m31.68-83.16c.04.23-.57 1.79-.82 2.04-3.22 3.33-5.74 7.1-13.53 11.43m-1.91-.88c.75.64 1.05 2.06 1.24 3.36.68 4.77 2.32 17.89 3 24.34m24.75-35.01c.88.15 1.59.43 2.82.43 1.24 0 13.84-1.74 15.25-1.88s3.11.94 2.92 2.59c-1.08 9.11-5.03 30.19-5.21 30.77M41.63 36.84c3.98-.62 11.99-2.1 12.94-2.1h3.04"/><path d="M65.88 32.99c.88.14 1.59.43 2.82.43s16.72-1.16 18.13-1.3M43.34 51.54c4.41-.29 38.01-2.38 40.66-2.53m-30.99 6.74c.06.93.08 2.39-.11 3.73-1.4 9.77-5.9 27.02-19.23 35.69m31.8-42.05c.66 1.19 1.19 2.59 1.23 4.43.18 8.19.14 22.64-.02 28.2-.3 10 1.61 11.53 14.81 11.53 13.86 0 14.16-2.28 14.16-9.12"/></g><g style="font-size:8;fill:gray"><text transform="translate(24.5 14.5)">1</text><text transform="translate(16.66 59.5)">2</text><text transform="translate(46.5 14.03)">3</text><text transform="translate(33.5 35.45)">4</text><text transform="translate(65.5 16.5)">5</text><text transform="translate(45.5 33.5)">6</text><text transform="translate(64.5 29.5)">7</text><text transform="translate(46.5 48.5)">8</text><text transform="translate(45.5 61.5)">9</text><text transform="translate(56.5 67.5)">10</text></g></svg>