<svg xmlns="http://www.w3.org/2000/svg" width="109" height="109"><g style="fill:none;stroke:#000;stroke-width:3;stroke-linecap:round;stroke-linejoin:round"><path d="M34.43 15c.14 1.18.25 2.67-.13 4.12-2.37 9.2-11.52 26.98-22.55 39.45m14.23-15.46c.59.61.76 1.97.76 3.23 0 13.02-.29 40.65-.29 49.4m33.26-84.49c.07.81.29 2.16-.15 3.26-2.63 6.71-11.66 22.07-26.06 31.24m26.55-31.14c4.61 4.49 24.46 19.16 29.54 22.45 1.72 1.12 3.94 1.59 5.66 1.91m-45.22-1.08c.52.26 1.47.28 1.99.26C55.5 38 69.75 34.5 73 35.01c.86.13 1.38.12 1.82.25m-36.3 14.99c.61 1 1.02 2 1.22 3s.29 40 .2 42.25m1.02-43.31c1.36-.14 13.83-2.55 14.84-2.71 1.81-.28 2.49 1.85 2.27 2.71-.22.82-.34 27.06-.34 38.6 0 10.21-4.03 2.56-5.16 1.28"/><path d="M44.93 59.58c2.63 1.08 6.8 4.45 7.46 6.13m-6.56 6.37c2.21 1.21 5.71 4.99 6.26 6.88m22.07-34.84c.31 1.13 1.18 3.08.71 4.63-1.42 4.75-5.17 13.75-9.46 19.43-1.17 1.56-.02 2.55.31 2.87 5.2 5.2 8.28 12.2 10.89 23.45m10.87-49.13c.31 1.13 1.18 3.08.71 4.63-1.42 4.75-4.26 12.25-8.55 17.93-1.17 1.56-.01 2.55.31 2.87 5.2 5.2 9.3 12.2 11.8 23.45"/></g><g style="font-size:8;fill:gray"><text transform="translate(26.5 14.5)">1</text><text transform="translate(19.5 59.5)">2</text><text transform="translate(51.5 12.5)">3</text><text transform="translate(67.5 18.5)">4</text><text transform="translate(53.5 34.5)">5</text><text transform="translate(32.5 57.5)">6</text><text transform="translate(42.5 48.5)">7</text><text transform="translate(43.5 68.5)">8</text><text transform="translate(43.5 81.5)">9</text><text transform="translate(62.5 46.5)">10</text><text transform="translate(77.5 45.5)">11</text></g></svg>