<svg xmlns="http://www.w3.org/2000/svg" width="109" height="109"><path d="M33.74 16.89c.13 1.2.09 2.49-.37 3.94C30.5 30 21.48 48.04 11.06 60.72m13.95-16.47c1.06 1.06 1.31 2.25 1.31 3.96 0 11.1-.04 30.71-.06 43.29 0 3.24-.01 5.96-.01 7.88m38.2-88.88c1.15 1.15 1.4 2.45 1.4 3.99v7.38M46.23 24.3c2.15.45 4.22.23 6.16.05 7.28-.68 21.93-2.33 29.63-2.83 1.91-.12 3.78-.23 5.66.19m-34.66 8.87c2.75 2.83 4.5 6.24 4.75 8.11m22.02-13.35c.08 1.04-.17 1.79-.51 2.59-1.5 3.45-2.9 5.95-4.65 8.45m-32.11 3.6c-.14 3.3-3.56 11.91-4.77 13.88m5.11-11.07c7.25-.89 33.25-4.61 47.37-4.98 8.63-.23 3.03 4.45-.75 8.1m-24.17.71c.97.97 1.06 2.13 1.06 3.79 0 1.59-.09 3.72-.09 5.35M41.3 58.88c3.07.62 5.52.62 8.44.2 10.78-1.57 26.49-3.39 36.14-4.1 2.55-.19 5.12-.1 7.64.81m-30.7 11.46c4.68 1.13 15.66 3.13 19.7 3.62 2.1.25 2.9 2.17 1.96 4.22-2.86 6.16-7.48 14.62-12.55 19.28-3.32 3.06-5.05.88-6.1-.65M64.21 60.2c.16 1.18-.13 2.05-.65 3.09C60 70.5 52.38 82.5 37.34 92.28" style="fill:none;stroke:#000;stroke-width:3;stroke-linecap:round;stroke-linejoin:round"/><g style="font-size:8;fill:gray"><text transform="translate(24.5 16.5)">1</text><text transform="translate(18.5 61.5)">2</text><text transform="translate(55.5 11.5)">3</text><text transform="translate(43.5 21.5)">4</text><text transform="translate(47.5 33.13)">5</text><text transform="translate(70.5 31.63)">6</text><text transform="translate(36.5 41.5)">7</text><text transform="translate(44.5 39.5)">8</text><text transform="translate(56.5 49.5)">9</text><text transform="translate(42.5 56.5)">10</text><text transform="translate(69.5 66.5)">11</text><text transform="translate(50.5 68.5)">12</text></g></svg>