<svg xmlns="http://www.w3.org/2000/svg" width="109" height="109"><path d="M32.49 16.39c.13 1.2.23 2.71-.12 4.19-2.24 9.36-10.89 27.45-21.31 40.13M25.01 44c.63.66.81 2.11.81 3.46 0 13.96-.31 43.03-.31 52.41m36.04-89.12c1.61 1.2 5.62 4.25 7.55 6.98M46.23 24.3c.88.32 1.92.37 2.8.32 4.99-.28 28-3 35.55-3.23 1.48-.05 2.36.15 3.1.32m-35.16 8.12c3.04 2.83 4.98 6.24 5.25 8.11m21.27-13.35c.22 1.24.41 2.25.24 2.59-1.72 3.35-4.67 9.7-5.91 11.75m-30.6 1.05c-.17 3.3-4.3 11.91-5.77 13.88m6.11-11.07c7.25-.89 33-4.61 47.12-4.98 8.63-.23 2.72 5.35-.5 8.85m-27.42-1.04c2.27.96 6 4.67 5.99 6.57m-27.25 7.19c.95.09 3.1.6 4.02.47 7.43-1 34.83-4.23 44.92-4.92 1.56-.11 2.35.04 3.52.61M63.07 68c3.83 1.33 15.93 2.25 19.95 2.87 1.81.28 2.67 1.11 2.22 2.67-1.49 5.21-8.24 16.71-13.81 21.83-3.32 3.06-4.11-.15-4.85-.65M63.96 60.2c.39.95.41 2.07-.15 3.09-4.31 7.96-11.31 19.96-26.47 29.24" style="fill:none;stroke:#000;stroke-width:3;stroke-linecap:round;stroke-linejoin:round"/><g style="font-size:8;fill:gray"><text transform="translate(24.5 16.5)">1</text><text transform="translate(18.5 61.5)">2</text><text transform="translate(55.5 11.5)">3</text><text transform="translate(43.5 21.5)">4</text><text transform="translate(47.5 33.13)">5</text><text transform="translate(70.5 31.63)">6</text><text transform="translate(36.5 41.5)">7</text><text transform="translate(44.5 39.5)">8</text><text transform="translate(56.5 49.5)">9</text><text transform="translate(42.5 56.5)">10</text><text transform="translate(69.5 66.5)">11</text><text transform="translate(50.5 68.5)">12</text></g></svg>