<svg xmlns="http://www.w3.org/2000/svg" width="109" height="109"><g style="fill:none;stroke:#000;stroke-width:3;stroke-linecap:round;stroke-linejoin:round"><path d="M33.25 16.5c.25 2.25-.07 5.19-.87 7.11C27.25 35.87 20.75 47.38 9 62.3m17.53-18.29c1.18 10.23-.82 42.76-.28 51.74m30.98-81.6c1.77 1.35 3.52 3.35 4.68 5.84m-21.25 7.52c.72.04 2.35.37 3.04.22 2.83-.61 22.81-3.53 36.31-5.29 1.18-.15 1.89-.18 2.48-.19m-32.83 7.92c2.66 3.68 3.21 7.3 3.59 9.94m18.93-13.68c.32 1.32-.06 2.6-.2 2.98-1.4 3.87-3.63 8.93-4.67 11.14"/><path d="M35.75 44.88c1.26.03 2.74-.13 3.94-.25 19.08-1.85 30.99-5.5 47.2-6.14 2.07-.08 4.37-.16 5.61.23M43.7 51.88c.47.49 1.27 1.43 1.27 2.12 0 .7 3.6 19.17 3.6 19.52s.2 1.29.2 2m-3.03-21.47c2.63-.28 29.37-4.3 31.69-4.82s3.51.5 3.05 3.44c-.6 3.88-2.7 13.56-3.7 19.62"/><path d="M47.46 63.28c5.22-.38 10.46-1.39 15.64-2.13l5.15-.74m-18.6 12.44c5.27-.38 19.16-2.12 25.97-2.6M42.04 81.83c.28 1.75-2.75 9.64-4.96 12.67m13.5-13.61c6.49 10.21 17.25 17.59 34.11 15.14 5.11-.74 5.11-2.55 2.31-5.08M67.04 79.1c1.44 2.09 5.21 6.74 6.1 3.7m18.05-7.14c2.62 1.48 5.06 4.59 6.71 7.11"/></g><g style="font-size:8;fill:gray"><text transform="translate(23.5 17.5)">1</text><text transform="translate(19.5 60.5)">2</text><text transform="translate(49.5 14.5)">3</text><text transform="translate(41.5 24.5)">4</text><text transform="translate(43.5 37.5)">5</text><text transform="translate(63.5 33.5)">6</text><text transform="translate(31.5 42.5)">7</text><text transform="translate(38.5 60.5)">8</text><text transform="translate(47.75 51.13)">9</text><text transform="translate(50.5 60.13)">10</text><text transform="translate(51.5 70.63)">11</text><text transform="translate(32.25 81.13)">12</text><text transform="translate(45.5 92.5)">13</text><text transform="translate(56.5 81.5)">14</text><text transform="translate(86.5 72.5)">15</text></g></svg>