<svg xmlns="http://www.w3.org/2000/svg" width="109" height="109"><g style="fill:none;stroke:#000;stroke-width:3;stroke-linecap:round;stroke-linejoin:round"><path d="M30.5 15.89c.13 1.23.22 2.78-.11 4.29C28.25 29.75 20 48.25 10.06 61.22M26.03 38.5c.59.61.76 1.97.76 3.23 0 13.02-.29 47.15-.29 55.9m37.46-84.76c.09.26 1.17 1.35 1.26 2.99.4 7.9.24 11.07.24 13.76M45.77 18.33c2.57 1.44 6.65 5.9 7.29 8.13m28.95-11.21c.02.3.04.77-.04 1.2-.51 2.54-3.42 8.11-7.41 11.51m-33.8 4.89c-.13 3.19-1.9 12.66-3.01 14.56m3.38-13.58c2.85 0 35.4-4.89 49.72-4.98 7.51-.05.78 6.85-.56 7.93m-39.65 1.6c.23.21.49.38.56.66.65 2.45 1.48 7.61 2.13 11.21m-1.27-10.43c4.22-.52 21.6-2.93 25.5-3.46.98-.13 2.12.64 1.7 2.14-.68 2.44-1.25 3.5-2.4 6.81m-23.05 2.65c5.46-.71 20.55-2.36 24.87-2.85m-27.91 9.15c.47.71 1.16 2.23 1.16 3.19s-.21 30.92-.2 31.4m.97-33.34c6.72-.54 23.33-2.25 25.75-2.46 2.02-.17 3.53 1.07 3.44 3.16-.22 5.24-.72 19.49-.67 30.06"/><path d="M52.7 65.65c4.47-.12 8.98-.83 13.43-1.32 1.45-.16 2.9-.32 4.3-.47M52.95 74.48c4.26-.11 9.02-.64 13.25-1.04 1.29-.12 2.59-.25 3.87-.36M53.68 84.09c5.28-.14 19.84-1.94 26.67-2.12m-20.74 8.26c.47.86-.14 2.05-1 2.72-3.66 2.85-6.16 4.43-16 7.8m32.25-11.37c6.43 2.97 14.03 8.36 15.78 10.96"/></g><g style="font-size:8;fill:gray"><text transform="translate(22.5 17.5)">1</text><text transform="translate(19.5 57.5)">2</text><text transform="translate(53.5 13.5)">3</text><text transform="translate(42.75 15.13)">4</text><text transform="translate(74.5 14.5)">5</text><text transform="translate(33.5 35.5)">6</text><text transform="translate(42.75 30.5)">7</text><text transform="translate(44.25 46.55)">8</text><text transform="translate(54.75 37.5)">9</text><text transform="translate(54.75 45.5)">10</text><text transform="translate(41.25 61.48)">11</text><text transform="translate(54.75 53.5)">12</text><text transform="translate(56.25 62.5)">13</text><text transform="translate(56.25 71.98)">14</text><text transform="translate(56.25 81.5)">15</text><text transform="translate(43.5 95.5)">16</text><text transform="translate(67.5 96.5)">17</text></g></svg>