<svg xmlns="http://www.w3.org/2000/svg" width="109" height="109"><g style="fill:none;stroke:#000;stroke-width:3;stroke-linecap:round;stroke-linejoin:round"><path d="M31.25 16.89c.13 1.23-.03 2.28-.36 3.79C28.75 30.25 20 47.5 10.06 60.47m15.97-22.72c.92.92 1.26 2.12 1.26 3.98 0 10.62-.02 34.65-.02 49.02 0 3.13-.03 5.76-.03 7.62m36.47-85.5c.84.84 1.26 1.76 1.26 3.49 0 3.64-.01 8.52-.01 13.26M45.75 17.88c2.58 1.56 6.66 6.42 7.31 8.84m28.95-11.47c.07.77-.04 1.52-.32 2.24-.81 2.38-2.88 5.41-6.63 9.73m-34.42 5.26c-.14 3.32-1.98 13.2-3.14 15.18m4.13-14.08C47 33 76.52 29.19 90.85 29.09c7.51-.05 1.52 5.28-1.81 7.43M49.51 38c.78.44 1.28 1.41 1.46 2.33.53 2.66.69 3.27 1.16 5.24.33 1.38.65 2.74.95 3.93m-1.02-9.93c3.72-.46 17.89-2.19 23.82-2.96 2.68-.34 4.11.64 3.25 3.15-.57 1.65-1.26 2.99-2.01 4.62m-23.24 2.87c4.51-.38 15.41-1.16 21.82-1.61 1.57-.11 2.86-.2 3.74-.27m-28.67 8.89c.86.86 1.16 1.99 1.16 3.19 0 .49.02 16.3.04 25.3 0 3.57.01 6.06.01 6.1m.72-33.09c5.96-.48 19.44-2.07 24.16-2.57 3.02-.32 4.78.55 4.78 3.82.01 5.81.06 15.06.08 23.5 0 1.99.01 3.93.01 5.77"/><path d="M53.2 64.9c7.8-.65 21.05-1.9 27.2-2.15M52.95 74.73c7.55-.61 19.92-2.11 27.67-2.37M53.18 84.59c7.32-.84 19.57-2.09 27.42-2.62m-20.99 8.51c-.11 1.02-.64 1.55-1.5 2.22-3.66 2.85-7.99 5.17-15.5 8.05m32.39-12c6.47 3.08 14.12 8.65 15.89 11.34"/></g><g style="font-size:8;fill:gray"><text transform="translate(22.5 17.5)">1</text><text transform="translate(19.5 57.5)">2</text><text transform="translate(53.5 13.5)">3</text><text transform="translate(42.75 15.13)">4</text><text transform="translate(74.5 14.5)">5</text><text transform="translate(33.5 35.5)">6</text><text transform="translate(42.75 30.5)">7</text><text transform="translate(44.25 46.55)">8</text><text transform="translate(54.75 37.5)">9</text><text transform="translate(54.75 45.5)">10</text><text transform="translate(41.25 61.48)">11</text><text transform="translate(54.75 53.5)">12</text><text transform="translate(56.25 62.5)">13</text><text transform="translate(56.25 71.98)">14</text><text transform="translate(56.25 81.5)">15</text><text transform="translate(43.5 95.5)">16</text><text transform="translate(67.5 96.5)">17</text></g></svg>