<svg xmlns="http://www.w3.org/2000/svg" width="109" height="109"><path d="M22.41 21.19c-.13 5.71-2.54 17.94-4.66 24.06m5.22-19.75c17.4-2.25 39.03-7.38 60.22-7.75 12.05-.21 3.56 7.5-.94 11.25M39.57 45.25c.97.97 1.14 2.47 1.05 4.19-.75 15.31-6.25 34.81-20.12 45.81m21.25-46.6c3.59-.68 14.06-2.51 18.26-3.36 3.9-.79 5.17.28 4.62 4.35-1.09 8.19-2.04 16.72-2.22 28.36-.19 11.64 1.39 14.11 16.18 14.11 15.66 0 16.7-1.11 16.7-8.73" style="fill:none;stroke:#000;stroke-width:3;stroke-linecap:round;stroke-linejoin:round"/><g style="font-size:8;fill:gray"><text transform="translate(15.5 23.5)">1</text><text transform="translate(27.75 21.5)">2</text><text transform="translate(31.5 51.05)">3</text><text transform="translate(44.5 44.5)">4</text></g></svg>