<svg xmlns="http://www.w3.org/2000/svg" width="109" height="109"><g style="fill:none;stroke:#000;stroke-width:3;stroke-linecap:round;stroke-linejoin:round"><path d="M21.41 14.13c0 4.22-3.53 15.81-4.91 18.62m4.74-14.86c1.39.04 55.74-4.62 62.95-5.05 12.05-.71 2.55 8.68-.45 11.25M21.85 39.64c1.68.73 4.78.94 6.46.73 14.69-1.87 37.25-5.22 52.45-6.1 2.82-.16 5.34-.43 6.74-.06"/><path d="M52.28 37.42c.08.53.16 1.36-.15 2.12C50.25 44 39.46 53.79 24.71 59.78M49.2 47.74C55.5 57.5 60.75 75 56.89 93.15c-1.61 7.57-8.32-.15-9.38-.95"/><path d="M50.38 53.63c.08.53.16 1.38-.15 2.15C48.37 60.3 37.7 70.23 23.1 76.31m30.35-10.43c.08.66.18 1.71-.17 2.65-2.04 5.6-14.84 16.37-30.89 23.89m54.9-48.45c.04.34-.34 1.42-.58 1.88-2.46 4.64-9.15 10.84-16.91 14.77m-4.37-.55c4.9 4.07 26.38 23.33 31.7 27.33 1.8 1.36 3.35 1.94 5.15 2.33"/><path d="M33 64.5c3.71 1.81 9.57 7.44 10.5 10.25"/></g><g style="font-size:8;fill:gray"><text transform="translate(15.5 15.5)">1</text><text transform="translate(25.5 14.5)">2</text><text transform="translate(22.5 37.5)">3</text><text transform="translate(37.5 47.5)">4</text><text transform="translate(53.5 50.5)">5</text><text transform="translate(42.5 56.5)">6</text><text transform="translate(47.5 68.5)">7</text><text transform="translate(69.5 45.5)">8</text><text transform="translate(65.5 66.5)">9</text><text transform="translate(22.5 68.5)">10</text></g></svg>