<svg xmlns="http://www.w3.org/2000/svg" width="109" height="109"><g style="fill:none;stroke:#000;stroke-width:3;stroke-linecap:round;stroke-linejoin:round"><path d="M16.29 19.25c3.99 2.19 10.3 9 11.29 12.41m-15.6 51.51c1.77 1.08 3.94.23 5.13-1.5 1.16-1.68 6.39-12.67 10.66-22m6.22-35.94c.94.52 2.65.63 3.6.52C43.75 23.5 57 21 63.23 20.26c1.55-.18 2.5.25 3.28.51m-16.58 4.88c.18.6.73 2.41.34 3.54-2.52 7.31-9.02 22.56-16.94 31.36m14.29-18.52c.26.04 3.26-.36 3.95-.63 2.94-1.15 4.63-1.6 8.72-2.29 2.41-.41 4.36 1.01 3.72 3.33-4.25 15.32-16.25 37.82-33.75 49.82"/><path d="M40.8 55.34c3.56 1.84 9.19 7.58 10.08 10.45m23.01-39.42c.63.63 1.43 1.49 1.51 4.52.34 14.55-.22 34.16-.22 39.12m15.08-54.68c.63.92 1.43 2.49 1.51 5.52.34 14.55-.22 60.16-.22 65.12 0 11.53-5.3 3.53-7.47.75"/></g><g style="font-size:8;fill:gray"><text transform="translate(6.85 19.85)">1</text><text transform="translate(2.66 85.85)">2</text><text transform="translate(35 20)">3</text><text transform="translate(42 32)">4</text><text transform="translate(55.25 35.33)">5</text><text transform="translate(46.25 56.25)">6</text><text transform="translate(72.25 22)">7</text><text transform="translate(83.25 12)">8</text></g></svg>