<svg xmlns="http://www.w3.org/2000/svg" width="109" height="109"><g style="fill:none;stroke:#000;stroke-width:3;stroke-linecap:round;stroke-linejoin:round"><path d="M15.62 17.95c.98.36 2.76.41 3.75.36 11.58-.56 29.24-3.6 35.27-3.18 1.63.11 2.61.17 3.42.35M16.07 29.26c.29.3.59.55.71.93 1.01 2.99 2.71 11.24 3.4 16.61m-2.3-16.52c7.11-1.25 33.55-5.05 37.23-5.22 1.39-.07 3.39 1.68 2.95 3.97-.72 3.78-1.56 8.82-3.26 14.25"/><path d="M28.94 19.61c.77.47 1.29 2.12 1.39 3.08.3 2.84.51 13.49 1.22 20.12m12.87-26.52c.77.47 1.16 2.6.8 4.73-.63 3.81-.6 14.05-2.2 21.15"/><path d="M20.48 44.32c4.3-.48 29.5-2.95 34.96-3.43m-33 13.54c.7.27 1.98.34 2.67.27 4.45-.46 19.92-2.28 25.03-2.35 1.16-.02 1.86.13 2.44.26M12.88 65.3c.98.47 2.77.54 3.75.47 7.26-.57 31.47-3.89 42.09-4.49 1.63-.09 2.61.22 3.42.46m-24.43 4.87c.1.45 1.42 2.33 1.42 5.16 0 6.71-.01 14.54-.01 19.18 0 6.39-5.14 2.37-7.25.27m-7.48-16.7c.03.43.06 1.12-.06 1.74-.72 3.67-5.36 9.17-12.7 14.52m39.31-16.36c3.51 2.53 9.24 10.1 10.12 14.03m10.71-62.12c.98.92 1.67 1.99 1.76 5.02.4 14.55-.02 31.19-.02 36.15m15.76-54.17c.98.92 1.67 1.99 1.76 5.02.4 14.55-.26 63.66-.26 68.62 0 13.14-7.21 1.5-8.71.25"/></g><g style="font-size:8;fill:gray"><text transform="translate(8.5 17.5)">1</text><text transform="translate(10.75 37.55)">2</text><text transform="translate(17.75 27.48)">3</text><text transform="translate(22.75 25.4)">4</text><text transform="translate(37.5 24.5)">5</text><text transform="translate(23.75 41.25)">6</text><text transform="translate(15.75 53.18)">7</text><text transform="translate(4.75 64.1)">8</text><text transform="translate(30.75 72.03)">9</text><text transform="translate(13.75 78.95)">10</text><text transform="translate(47.75 70.88)">11</text><text transform="translate(65.75 21.8)">12</text><text transform="translate(76.75 12.73)">13</text></g></svg>