<svg xmlns="http://www.w3.org/2000/svg" width="109" height="109"><g style="fill:none;stroke:#000;stroke-width:3;stroke-linecap:round;stroke-linejoin:round"><path d="M35.49 12.25c.07.78.31 2.1-.14 3.15-2.9 6.68-11.11 20.71-24.85 30.14m26.17-27c7.74 4.06 15.42 9.33 20.17 15.32m-31.7 2.73c.41.18 1.15.19 1.55.18 3.11-.05 17.11-2.49 19.61-2.28.67.06 1.08.08 1.42.17M15.03 48.41c.25.32.51.58.62.98.87 3.15 2.31 11.83 2.91 17.48m-2.35-16.79c6.4-1.44 11.84-2.49 14.8-2.9 1.08-.15 1.73.9 1.58 1.78-.64 3.68-1.39 9.05-2.34 14.13m-11.57 1.95c3.47-.47 8.15-.77 12.93-1.49m5.75-17.16c.25.3.51.55.62.93.87 2.99 1.91 11.24 2.51 16.61m-1.56-16c5.25-1.14 11.88-1.82 14.82-2.21 1.08-.14 1.72.85 1.57 1.69-.64 3.49-2.35 8.69-3.3 13.52m-11.41 1.83c3.45-.44 8.32-1.2 12.96-1.41m-26.52 8.69c.17 1.05.11 2.06-.12 2.73-1.97 5.95-6.49 13.81-14.57 20.98m12.52-13.76c3.2 1.38 7.28 5.07 8.83 8.55m13.15-20.17c.14 1.11.09 2.18-.1 2.9-1.63 6.3-5.37 14.63-12.07 22.23m11.66-13.59c3.28 1.41 7.47 5.15 9.06 8.7m5.13-63.3c1.24.82 3.28 1.09 4.39.94 9.32-1.25 21.23-3.16 26.14-4 3.19-.55 4.61 1.64 4.44 5.47-.47 10.11-3.26 49.02-9.37 62.57-3.71 8.21-6.38 6.21-9.88 1.26"/><path d="M76.77 28.21c.06 1.47.08 3.79-.11 5.9-1.9 20.68-4.91 42.64-19.41 60.05m8.77-49.13c.3 2.22-2.54 12.76-5.47 15.7"/></g><g style="font-size:8;fill:gray"><text transform="translate(28.5 13.5)">1</text><text transform="translate(43.5 19.5)">2</text><text transform="translate(30.5 33.5)">3</text><text transform="translate(9.5 54.5)">4</text><text transform="translate(19.5 46.5)">5</text><text transform="translate(21.25 61.5)">6</text><text transform="translate(34.5 58.5)">7</text><text transform="translate(39.5 44.1)">8</text><text transform="translate(43.5 59.03)">9</text><text transform="translate(15.5 75.5)">10</text><text transform="translate(28.5 80.5)">11</text><text transform="translate(36.5 72.5)">12</text><text transform="translate(49.5 79.5)">13</text><text transform="translate(58.5 22.5)">14</text><text transform="translate(66.25 35.58)">15</text><text transform="translate(57.5 44.5)">16</text></g></svg>