<svg xmlns="http://www.w3.org/2000/svg" width="109" height="109"><g style="fill:none;stroke:#000;stroke-width:3;stroke-linecap:round;stroke-linejoin:round"><path d="M17.38 16.04c1.55.51 4.39.6 5.94.51 16.13-.86 42.15-3.51 59.82-3.51 2.58 0 4.13.25 5.42.5m-35.53 7.71c.07.73.31 1.95-.14 2.93-2.88 6.21-11.04 19.26-24.69 28.02m26-28.04c4 4.03 21.26 17.2 25.67 20.15 1.5 1 3.42 1.43 4.92 1.72m-42.47-.68c.48.18 1.36.18 1.84.18 3.68-.05 19.04-2.45 21.99-2.25.8.05 1.28.08 1.68.17M34.36 55.08c.26.23.53.42.65.71.91 2.29 2.41 8.6 3.03 12.7m-2.44-12.2c6.66-1.04 12.83-2.17 15.92-2.47 1.13-.11 1.8.65 1.64 1.3-.67 2.67-1.45 6.08-2.44 9.77m-12.55 2.28c3.62-.34 9.52-1.42 14.48-1.95m7.19-13.24c.25.25.51.46.63.78.88 2.51 1.94 9.43 2.54 13.94m-1.59-13.42c5.31-.96 13.03-2.03 16.01-2.36 1.09-.12 1.74.71 1.59 1.42-.63 2.87-2.37 6.74-3.36 10.94m-12.53 1.45c3.5-.37 9.82-1.02 14.62-1.59m-32.02 5.64c.16.87.1 1.71-.12 2.27C43.67 76 39.23 82.54 31.27 88.5m13.05-12.17c3.42 1.25 7.79 4.56 9.45 7.7M70.2 67.25c.15.91.19 1.82-.11 2.36-2.84 5.14-7.09 11.89-13.1 18.14m10.96-12.18c5.1 1.8 11.63 6.59 14.11 11.12"/><path d="M20.83 16.96c0 3.8-.5 71.71-.5 75.27 0 3.02 1.01 3.92 2.81 3.8 10.21-.71 58.38-3.06 61.7-3.06s6.12.24 8.17.71"/></g><g style="font-size:8;fill:gray"><text transform="translate(17.5 13.5)">1</text><text transform="translate(44.5 25.55)">2</text><text transform="translate(59.5 26.48)">3</text><text transform="translate(47.5 42.5)">4</text><text transform="translate(28.5 63.5)">5</text><text transform="translate(38.5 52.5)">6</text><text transform="translate(40.5 64.5)">7</text><text transform="translate(54.5 64.95)">8</text><text transform="translate(62.5 50.5)">9</text><text transform="translate(65.25 61.5)">10</text><text transform="translate(32 76.5)">11</text><text transform="translate(49.5 77.5)">12</text><text transform="translate(57 73.5)">13</text><text transform="translate(72.5 77.5)">14</text><text transform="translate(10.5 25.5)">15</text></g></svg>