<svg xmlns="http://www.w3.org/2000/svg" width="109" height="109"><g style="fill:none;stroke:#000;stroke-width:3;stroke-linecap:round;stroke-linejoin:round"><path d="M15.88 17.04c1.55.51 4.39.6 5.94.51 16.13-.86 43.93-4.05 61.32-4.51 2.58-.07 4.13.25 5.42.5m-47.31 15.6c.36.34.73.62.89 1.04 1.25 3.34 2.75 12.56 3.61 18.56m-2.87-17.96C51.5 29.5 66 28 70.94 27.49c1.8-.19 2.89 1.11 2.63 2.21-1.07 4.55-1.82 7.05-3.41 13.35M45.7 46.08c5.8-.58 18.8-1.58 26.77-2.47M30.25 60.64c.42.39.85.72 1.04 1.21C32.75 65.75 34.5 79 35.5 86m-3.12-22.72c5.37-1.03 13.12-3.28 18.06-3.79 1.8-.19 2.89 1.11 2.63 2.21-1.07 4.55-1.82 12.55-3.41 18.85M35.2 82.58C41 82 49.75 80.5 51.96 80.61m9.29-21.47c.42.39.85.72 1.04 1.21C63.75 64.25 65.5 75 66.5 82m-3.62-21.22C71 59.25 78.5 58 83.44 57.49c1.8-.19 2.89 1.11 2.63 2.21-1.07 4.55-2.32 10.05-3.91 16.35M66.2 79.58C72 79 76 78.5 83.96 77.61"/><path d="M20.83 17.46c0 3.8-.5 70.71-.5 74.27 0 3.02 1.01 3.92 2.81 3.8 10.21-.71 61.38-2.56 64.7-2.56s6.12.24 8.17.71"/></g><g style="font-size:8;fill:gray"><text transform="translate(18.5 14.5)">1</text><text transform="translate(35.5 37.5)">2</text><text transform="translate(43.5 27.5)">3</text><text transform="translate(49.5 42.5)">4</text><text transform="translate(25.5 69.5)">5</text><text transform="translate(35.5 59.5)">6</text><text transform="translate(38.5 78.5)">7</text><text transform="translate(56.5 68.5)">8</text><text transform="translate(64.5 56.5)">9</text><text transform="translate(68.5 75.5)">10</text><text transform="translate(10.5 26.5)">11</text></g></svg>