<svg xmlns="http://www.w3.org/2000/svg" width="109" height="109"><g style="fill:none;stroke:#000;stroke-width:3;stroke-linecap:round;stroke-linejoin:round"><path d="M21.63 18.48c5.4.81 10.77.14 16.24-.36 13.38-1.24 27.54-1.95 39.38-2.65 4.28-.25 8.89-.55 13.13.36M23.94 19c1.09 1.09 1.27 2.38 1.23 4.11-.55 25.64-2.79 48.89-14.86 67.36m19.82-56.33c2.15.13 4.11.41 6.26.08 6.24-.97 9.22-1.26 16.36-2.1 1.75-.34 3.51-.35 5.28-.04m-27.26 14.2c.98.98 1.24 2.18 1.44 3.23.67 3.51 1.44 7.16 2.2 11.36.29 1.61.59 3.31.88 5.11m-2.83-18.63c3.97-.55 13.41-1.94 18.67-2.49 3.11-.32 4.72 1 4.01 4.27-.62 2.81-1.64 5.85-2.98 11.21m-16.12 2.73c3.42-.44 8.92-1.18 13.58-1.67 1.52-.16 2.94-.29 4.18-.38m-21.02 9.44c2.11 2.45 5.7 11.19 6.22 15m15.36-18.3c.16 1-.03 1.93-.33 2.86-1.54 4.74-2.66 7.86-5.29 13.86m-22.38 8.04c1.27 1.06 2.37.93 4.34.34 10.17-3.01 17.3-5.31 28.71-8.71m3.22-35.34c3.1.6 6.14.3 9.26-.08C78 47.38 82.88 47 89.5 46.26c2.63-.29 5.25-.51 7.87-.04"/><path d="M82.1 26.21c1.09 1.1 1.29 2.29 1.29 3.78 0 18.32.04 53.04.04 61.14 0 12-6.74 1.83-7.8.97m-9.85-30.39c2.03 2.12 4.99 8.69 5.49 11.98"/></g><g style="font-size:8;fill:gray"><text transform="translate(24.5 15.5)">1</text><text transform="translate(17.5 27.5)">2</text><text transform="translate(30.5 31.5)">3</text><text transform="translate(26.25 56.5)">4</text><text transform="translate(33.5 43.5)">5</text><text transform="translate(38.25 59.5)">6</text><text transform="translate(26.25 71.5)">7</text><text transform="translate(45.25 70.5)">8</text><text transform="translate(24.25 87.5)">9</text><text transform="translate(59.5 45.5)">10</text><text transform="translate(70.5 28.5)">11</text><text transform="translate(65.5 59.3)">12</text></g></svg>