<svg xmlns="http://www.w3.org/2000/svg" width="109" height="109"><path d="M13.25 33.29c.37.51.76.94.92 1.58C15.46 39.93 17.51 53.9 18.4 63m-3.82-27.78c7.42-1.47 18.55-3.06 22.92-3.73 1.6-.24 2.56 1.44 2.33 2.87-.95 5.92-3.05 15.07-4.46 23.25m-16.8 2.44c5.14-.75 11.68-1.55 19.39-2.21m5.95-35.01c1.36.39 3.86.48 5.22.39 13.94-1.01 27.94-3.63 44.69-4.13 2.27-.07 3.63.18 4.76.38m-26.23 4.74c.09.51 1.79 2.68 1.79 5.95 0 19.59-.26 55.82-.26 61.17 0 12.11-8.24.55-9.78-.8" style="fill:none;stroke:#000;stroke-width:3;stroke-linecap:round;stroke-linejoin:round"/><g style="font-size:8;fill:gray"><text transform="translate(6.5 40.85)">1</text><text transform="translate(17.5 31.5)">2</text><text transform="translate(22.5 56.5)">3</text><text transform="translate(42.5 19.5)">4</text><text transform="translate(65.5 32.5)">5</text></g></svg>