<svg xmlns="http://www.w3.org/2000/svg" width="109" height="109"><path d="M10.25 33.29c.37.51.76.94.92 1.58 1.29 5.07 3.34 18.54 4.23 27.63m-2.82-26.78C22 33.5 29.13 32.16 33.5 31.49c1.6-.24 2.56 1.44 2.33 2.87-.95 5.92-3.05 13.07-4.46 21.25m-15.8 2.94c5.14-.75 11.33-1.05 18.39-2.21M82.77 11.5c.08.37.33 1.09-.16 1.48-6.71 5.43-15.28 9.54-29.42 14.21m-3.77-1.86c1.02 1.96 1 3.84 1 5.98 0 21.16-.42 44.94-14.62 57.71m16.79-43.67c.53.2 2.63.34 4.04.12 7.81-1.26 25.44-3.59 34.33-4.21 1.43-.1 3.9-.2 4.79 0m-22.57 4.72c.94.63 1.5 2.84 1.69 4.1s0 40.54-.19 48.42" style="fill:none;stroke:#000;stroke-width:3;stroke-linecap:round;stroke-linejoin:round"/><g style="font-size:8;fill:gray"><text transform="translate(6.35 43.35)">1</text><text transform="translate(15.66 31.85)">2</text><text transform="translate(18.71 54.5)">3</text><text transform="translate(73.5 11.4)">4</text><text transform="translate(42.25 32.33)">5</text><text transform="translate(55.5 41.5)">6</text><text transform="translate(66.5 53.5)">7</text></g></svg>