<svg xmlns="http://www.w3.org/2000/svg" width="109" height="109"><path d="M10.75 34.29c.37.51.76.94.92 1.58C12.96 40.93 14.51 52.9 15.4 62m-2.32-25.28c9.42-2.22 13.05-3.56 17.42-4.23 1.6-.24 2.56 1.44 2.33 2.87-.95 5.92-2.05 11.57-3.46 19.75m-13.8 2.94c5.14-.75 9.33-1.05 16.39-2.21M56.14 15.5c.04.38.2 1.06-.08 1.53-1.96 3.31-7.12 9.07-14.33 14.67m14.19 3.07c.06.68.19 1.85-.11 2.72-2.43 7.01-9.66 16.52-19.56 26.03m14.62-13.9c.31.28 1.08 2.42 1.14 2.98.06.57 0 37.38-.06 40.89M65.34 20.8c.7.36 3.68.97 4.38.86 4.53-.66 17.23-3.03 20.46-2.88 1.16.06 1.86.17 2.44.35M61.09 43.21c.73.36 2.06.4 2.79.36 6.88-.33 24.36-2.83 34.44-3.62 1.21-.1 1.94.17 2.55.35m-17.62 4.36c.07.45.99 2.37 1.06 5.25.34 13.85-.72 35.3-.72 40.01 0 7.65-6.1-.48-7.37-1.67" style="fill:none;stroke:#000;stroke-width:3;stroke-linecap:round;stroke-linejoin:round"/><g style="font-size:8;fill:gray"><text transform="translate(4.5 41.5)">1</text><text transform="translate(14.5 32.5)">2</text><text transform="translate(18.5 53.5)">3</text><text transform="translate(47.5 14.5)">4</text><text transform="translate(47.5 35.5)">5</text><text transform="translate(44.25 64.5)">6</text><text transform="translate(64.5 18.5)">7</text><text transform="translate(61.5 40.5)">8</text><text transform="translate(76.5 52.5)">9</text></g></svg>