<svg xmlns="http://www.w3.org/2000/svg" width="109" height="109"><path d="M28.24 16.95c2.99 1.02 6.47.51 9.52.16 11.62-1.36 26.97-2.77 35.13-3.52 2.97-.28 5.69-.41 8.62.19M29.9 17.73c.94.94 1.19 2.23 1.17 4.31-.19 16.58-3.57 35.46-15.32 50.26m24.17-44.7c2.2.4 4.7.16 6.73-.14 6.37-.94 15.62-2.02 21.74-2.61 2.19-.21 4.13-.35 6.29.15M34.31 38.43c2.57.69 4.66.47 7.07.21 8.63-.91 27.16-3.04 35.25-3.62 2.54-.18 5.35-.39 7.85.19m-45.31 4.94c1.09 1.09 1.33 2.73 1.33 4.3 0 6.05.07 18.56.07 20.38 0 2.54.93 2.92 3.33 1.49 2.08-1.24 7.23-4.57 14.14-8.57m16.84-16.86c0 .86-.33 1.38-.82 1.78-1.18 1.56-4.07 3.95-7.45 5.92m-15.16-5.32c3.55.08 20.07 13.21 29.5 19.82 2.89 2.03 5.63 3.42 8.81 4.91m-54.08 6.33c.94.94 1.34 2.11 1.6 3.51.97 5.16 2.04 10.53 2.85 16.37.23 1.63.43 3.2.62 4.62m-2.78-22.94c9.33-.91 26.5-2.69 33.66-3.23 3.84-.29 5.05 1.21 4.23 4.83-1.05 4.64-1.74 7.88-3.97 15.73m-30.23 3.12c5.06-.29 18.46-1.46 27.35-1.91 1.73-.09 3.26-.16 4.51-.2" style="fill:none;stroke:#000;stroke-width:3;stroke-linecap:round;stroke-linejoin:round"/><g style="font-size:8;fill:gray"><text transform="translate(31.5 14.5)">1</text><text transform="translate(23.5 26.5)">2</text><text transform="translate(39.5 25.5)">3</text><text transform="translate(35.25 35.5)">4</text><text transform="translate(33.75 48.5)">5</text><text transform="translate(65.5 44.5)">6</text><text transform="translate(47.5 50.5)">7</text><text transform="translate(29.5 82.5)">8</text><text transform="translate(47.5 72.13)">9</text><text transform="translate(44.25 92.5)">10</text></g></svg>