<svg xmlns="http://www.w3.org/2000/svg" width="109" height="109"><g style="fill:none;stroke:#000;stroke-width:3;stroke-linecap:round;stroke-linejoin:round"><path d="M8.75 34.62c.35.46.7.85.85 1.43 1.2 4.58 2.64 17.23 3.46 25.46m-2.15-24.95c8.42-1.88 13.44-3.01 17.34-3.57 1.43-.21 2.28 1.22 2.08 2.42-.85 5-1.83 12.73-3.09 19.64m-14.1 2.49c4.59-.64 10.12-.89 16.42-1.86M63.45 12.5c.07.35.15.91-.14 1.42-1.67 2.99-11.24 9.56-24.34 13.58m-4.19 16.62c.42.19 2.11.64 3.24.57 7.99-.44 18.64-2.79 27.23-3.32 1.12-.07 2.53-.27 3.24-.08"/><path d="M53.71 25.5c.61.46.97 2.05 1.09 2.97.12.91 0 64.58-.12 70.28"/><path d="M54.55 43.68c-5.05 14.07-14.3 29.82-25.8 38.57m26.37-31.79c5.88 9.29 24.38 29.04 35 34.6 2.26 1.18 5 2.46 6.88 2.95M73.25 32.24c.37.64.76 1.17.92 1.96 1.29 6.31 2.84 23.72 3.73 35.05m-3.32-35.48C83.75 31.75 90.63 30.83 95 30c1.6-.3 3.56 1.8 3.33 3.58-.95 7.37-2.05 21.27-3.46 31.46m-16.8 2.16c5.14-.94 10.93-1.7 19.39-2.25"/></g><g style="font-size:8;fill:gray"><text transform="translate(2.85 42.35)">1</text><text transform="translate(11.66 31.35)">2</text><text transform="translate(15.5 54.5)">3</text><text transform="translate(55.5 11.5)">4</text><text transform="translate(34.5 41.5)">5</text><text transform="translate(46.25 33.75)">6</text><text transform="translate(43.5 54.5)">7</text><text transform="translate(59.5 53.5)">8</text><text transform="translate(65.25 35.5)">9</text><text transform="translate(76.5 29.45)">10</text><text transform="translate(82.5 62.5)">11</text></g></svg>