<svg xmlns="http://www.w3.org/2000/svg" width="109" height="109"><g style="fill:none;stroke:#000;stroke-width:3;stroke-linecap:round;stroke-linejoin:round"><path d="M10.25 34.59c.35.45.71.83.86 1.4 1.21 4.5 3.17 17.42 4 25.51m-3.68-25.25c8.07-1.75 15.61-3.17 19.71-3.76 1.5-.22 2.4 1.28 2.18 2.55-.89 5.26-1.93 12.89-3.25 20.17m-14.8 2.62c4.82-.67 10.63-.93 17.24-1.96m29.4-44.17c2.95 1.32 6.97 4.99 7.84 8.91m-25.74 5.94c0 3.22-2.6 12.06-3.78 14.21m3.7-11.09c13.15-1.7 35.19-4.14 45.99-4.52 11.08-.39 1 7.63-.3 8.27m-29.87-1.34c.05.54.1 1.41-.1 2.19-1.19 4.61-7.5 15.23-16.84 21.43m17.02-15.05c.31.03 1.63 0 2.52-.08 2.91-.27 10.73-2.98 14.88-3.82 2.85-.57 3.72.68 2.93 2.22C73.75 51.5 58.5 68.5 36.62 75.63"/><path d="M55.68 47.53C62 52 82.18 66.59 91.12 70.5c2.19.96 3.82 1.69 5.88 2.02m-48.2 2.17c.4.41.81.75.98 1.26 1.38 4.05 3.04 15.23 3.98 22.51m-2.48-21.93c9.04-1.81 25.44-3.54 30.11-4.07 1.71-.2 2.73 1.15 2.49 2.3-1.01 4.73-2.19 11.37-3.69 17.92m-26.24 3.15c5.48-.6 20.41-1.64 27.94-2.57"/></g><g style="font-size:8;fill:gray"><text transform="translate(3.5 41.35)">1</text><text transform="translate(14.16 32.5)">2</text><text transform="translate(18.5 53.5)">3</text><text transform="translate(56.5 11.5)">4</text><text transform="translate(37.5 27.5)">5</text><text transform="translate(47.5 25.5)">6</text><text transform="translate(51.5 37.18)">7</text><text transform="translate(65.5 36.5)">8</text><text transform="translate(60.75 49.5)">9</text><text transform="translate(40.75 82.5)">10</text><text transform="translate(59.5 71.5)">11</text><text transform="translate(56.5 91.5)">12</text></g></svg>