<svg xmlns="http://www.w3.org/2000/svg" width="109" height="109"><g style="fill:none;stroke:#000;stroke-width:3;stroke-linecap:round;stroke-linejoin:round"><path d="M9.75 34.07c.34.47.69.86.83 1.46 1.18 4.68 3.58 17.57 4.39 25.97m-3.61-25.76c7.14-.99 16.38-2.64 20.35-3.25 1.45-.22 2.32 1.33 2.12 2.65-.86 5.46-1.87 12.06-3.14 19.61M15.13 57.9c4.66-.69 10.6-1.39 17-2.46M64.9 10.431c-.044 1.754-.43 2.698-.961 3.885-4.883 10.898-14.747 24.26-22.615 30.033"/><path d="M59.386 5.315C65.623 6.678 73.343 25.137 82.9 36.54c2.1 2.508 4.24 4.955 6.393 6.318M53.53 40.39c.52.26 1.47.28 1.99.26C59 40.5 73.75 38 77 38.51c.86.13 1.38.12 1.82.25M41.77 53.69c.66.92 1.11 1.85 1.33 2.77s.31 38.5.22 40.57m1.11-42.05c1.48-.13 15.06-2.86 16.16-3 1.97-.26 2.71 1.71 2.47 2.5-.24.76-.37 26.53-.37 37.2 0 9.45-4.39 2.37-5.62 1.19"/><path d="M48.75 62.82c2.87 1 7.41 4.12 8.13 5.67m-7.15 5.89c2.41 1.12 6.21 4.62 6.82 6.37m21.44-32.13c.3 1.08 1.12 2.93.68 4.4-1.35 4.51-4.91 13.07-8.99 18.47-1.12 1.48-.01 2.42.29 2.73 4.94 4.94 7.87 11.6 10.35 22.29m12.13-48.39c.31 1.12 1.16 3.03.7 4.56-1.4 4.68-4.2 12.06-8.42 17.66-1.16 1.53-.01 2.51.3 2.83 5.12 5.12 9.16 12.01 11.62 23.09"/></g><g style="font-size:8;fill:gray"><text transform="translate(3.5 41.5)">1</text><text transform="translate(12.5 32.5)">2</text><text transform="translate(17.5 54.5)">3</text><text transform="translate(55.8 16.8)">4</text><text transform="translate(52.5 8.1)">5</text><text transform="translate(57.5 37.5)">6</text><text transform="translate(35.25 61.5)">7</text><text transform="translate(44.5 51.5)">8</text><text transform="translate(46.25 70.5)">9</text><text transform="translate(46.25 86.5)">10</text><text transform="translate(65.9 54.35)">11</text><text transform="translate(81.25 52.4)">12</text></g></svg>