<svg xmlns="http://www.w3.org/2000/svg" width="109" height="109"><g style="fill:none;stroke:#000;stroke-width:3;stroke-linecap:round;stroke-linejoin:round"><path d="M9.75 34.07c.34.47.69.86.83 1.46 1.18 4.68 3.58 17.57 4.39 25.97m-3.61-25.76c7.14-.99 16.38-2.64 20.35-3.25 1.45-.22 2.32 1.33 2.12 2.65-.86 5.46-1.87 12.06-3.14 19.61M15.13 57.9c4.66-.69 10.6-1.39 17-2.46m33.08-44.19c.07.84.37 2.27-.15 3.38C61 23.5 52.75 36.75 39.5 47m25.55-31.64c4.18 4.82 22.2 20.54 26.82 24.06 1.56 1.2 3.57 1.71 5.14 2.05m-43.48-1.08c.52.26 1.47.28 1.99.26C59 40.5 73.75 38 77 38.51c.86.13 1.38.12 1.82.25M46.81 52.73c.85.85 1.1 1.89 1.1 3.3 0 .71-.04 21.35-.04 32.22 0 3.81.02 5.83 0 6.38m.65-40.27c.99-.11 8.18-1.85 11.38-2.49 2.81-.57 3.52.56 3.46 3.26-.11 4.76 0 23.9 0 33.49 0 9.53-4.32 2.46-5.34 1.26"/><path d="M49.03 64.7c3.52-.49 9.64-1.4 13.21-1.85M48.83 75.28c3.91-.28 8.46-1.03 13.13-1.32m14.52-21c.78.78 1.25 1.76 1.25 3.68 0 1.91-.01 12.31-.01 18.74v4.35m12-31.6c.95.95 1.25 2.12 1.25 4.18 0 9.22-.1 34.43-.1 37.57 0 7.75-5.13.95-6.2.16"/></g><g style="font-size:8;fill:gray"><text transform="translate(3.5 41.5)">1</text><text transform="translate(12.5 32.5)">2</text><text transform="translate(17.5 54.5)">3</text><text transform="translate(57.5 12.5)">4</text><text transform="translate(71.5 19.5)">5</text><text transform="translate(57.5 37.5)">6</text><text transform="translate(40.5 60.25)">7</text><text transform="translate(49.5 50.88)">8</text><text transform="translate(51.25 62.25)">9</text><text transform="translate(51.25 72.25)">10</text><text transform="translate(67.5 50.25)">11</text><text transform="translate(78.25 49.25)">12</text></g></svg>