<svg xmlns="http://www.w3.org/2000/svg" width="109" height="109"><g style="fill:none;stroke:#000;stroke-width:3;stroke-linecap:round;stroke-linejoin:round"><path d="M13.25 34.02c.77.92 1.19 1.99 1.25 3.2.76 4.78 1.55 11.56 2.2 17.64.2 1.9.39 3.74.56 5.42m-1.88-24.12c7.16-1.61 11.93-2.69 15.63-3.35 2.61-.46 4.58.43 4.1 3.46-.82 5.16-1.77 12.46-2.96 19.05m-14.23 2.83c3.61-.5 7.54-1.03 12.21-1.58 1.42-.17 2.89-.36 4.4-.6m28.06-44.39c.91.92 1.62 1.99 1.62 5.02 0 5.9-.02 7.44-.02 12.4m.72-8.73c4.52-.77 9.07-1.44 13.34-2.01 1.36-.23 2.73-.23 4.12 0M44.68 31.18c.82.82 1.25 2.5 1.1 4.57-1.66 21.72-3.03 38.75-14.28 58m13.84-62.03q2.28.6 4.53.12c11.94-1.71 26.85-2.83 38.66-4.01 9.82-.98 2.09 6.66-.37 8.78m-37.03 7.08c1.92.49 3.84.49 5.76-.01 6.14-.85 14.58-2.31 20.88-3.21 1.73-.52 3.7-.53 5.42-.04"/><path d="M63.72 34.18c.8.8 1.05 1.7 1.05 3.09 0 4.98-.08 6.89-.08 9.12C64.69 53 68.7 53 75.17 53c2.41 0 11.83 0 13.91-.89m-27.44 7.22c1.01 1.01 1.35 2.42 1.35 4.73 0 10.44.05 23.98.05 28.65M73.6 58.83c.97.97 1.33 2.17 1.33 4.16 0 13.88-.19 23.25-.19 29.22M49.29 70.75c1.76 2.38 4.54 9.77 4.98 13.47m37.05-17.08q.105 1.095-.24 2.13c-.93 3.16-2.96 7.6-8.3 12.47m-40.4 13.27c3.04.65 6 .38 9.11.08 10.13-.97 28.35-2.12 38.38-2.45 2.64-.25 5.27-.13 7.88.35"/></g><g style="font-size:8;fill:gray"><text transform="translate(7.85 41.5)">1</text><text transform="translate(16.66 32.5)">2</text><text transform="translate(20.5 54.5)">3</text><text transform="translate(53.5 12.9)">4</text><text transform="translate(67.5 16.5)">5</text><text transform="translate(37.5 44.5)">6</text><text transform="translate(44.5 29.5)">7</text><text transform="translate(49.5 41.5)">8</text><text transform="translate(68.5 37.5)">9</text><text transform="translate(49.75 62.45)">10</text><text transform="translate(65.5 66.5)">11</text><text transform="translate(43.5 81.5)">12</text><text transform="translate(80.5 67.5)">13</text><text transform="translate(38.75 92.5)">14</text></g></svg>