<svg xmlns="http://www.w3.org/2000/svg" width="109" height="109"><g style="fill:none;stroke:#000;stroke-width:3;stroke-linecap:round;stroke-linejoin:round"><path d="M9.75 34.56c.35.45.72.82.87 1.38 1.23 4.42 2.7 18.12 3.54 26.06m-2.2-25.32c8.94-1.94 13.77-3.11 17.91-3.69 1.52-.21 2.43 1.26 2.21 2.51-.9 5.17-2.45 12.65-3.78 19.8m-14.48 3.06c4.87-.66 10.25-1.42 16.93-2.43m18.3-40.26c.03.51.06 1.31-.06 2.03-.69 4.28-4.62 13.68-10 19.44m6.94-9.73c3.62 0 14.25-2.18 18.32-2.18M51.2 29.51c1.93 1.68 4.98 6.93 5.46 9.55M75.98 14c.03.51.14 1.32-.07 2.03-1.56 5.31-5.89 12.89-11.62 19.42m10.39-11.16c4.54 0 15.66-2.8 20.76-2.8m-10.77 5.76c.02.26.04.68-.04 1.05-.46 2.22-3.13 7.1-6.77 10.09m-38.43 9.42c.95.38 4.04.49 4.99.38 4.46-.51 37.46-3.42 44.94-3.8 1.46-.08 2.79.08 4 .39"/><path d="M64.49 46.01c1.54 2.31 1.54 3.69 1.54 5.54 0 6.94-.04 32.19-.04 39.78M50.7 56.42c.18.66.13 2.12-.11 2.86-2.42 7.23-6.23 16.65-13.69 23.55m10.99-13.99c3.85 2.02 8.77 7.4 10.64 12.49m26.85-26.55c.16.64.12 2.06-.1 2.77-2.18 7.02-5.6 16.18-12.31 22.88m9.34-13.73c4.62 3.1 8.59 7.79 11.8 13.19M33.9 93.22c.77.21 3.53.44 4.83.34 14.08-1.05 43.02-3.08 55.84-3.4 2.1-.05 4.62.36 5.67.7"/></g><g style="font-size:8;fill:gray"><text transform="translate(3.5 41.85)">1</text><text transform="translate(13.5 32.5)">2</text><text transform="translate(17.21 54.85)">3</text><text transform="translate(40.5 15.5)">4</text><text transform="translate(53.5 23.5)">5</text><text transform="translate(46.5 37.5)">6</text><text transform="translate(68.5 13.5)">7</text><text transform="translate(80.5 20.5)">8</text><text transform="translate(75.5 32.5)">9</text><text transform="translate(38.5 45.5)">10</text><text transform="translate(56.5 56.88)">11</text><text transform="translate(39.5 58.5)">12</text><text transform="translate(53.25 70.5)">13</text><text transform="translate(73.5 55.5)">14</text><text transform="translate(87.5 68.5)">15</text><text transform="translate(23.5 93.5)">16</text></g></svg>