<svg xmlns="http://www.w3.org/2000/svg" width="109" height="109"><g style="fill:none;stroke:#000;stroke-width:3;stroke-linecap:round;stroke-linejoin:round"><path d="M9.26 34.49c.34.43.69.78.83 1.32 1.17 4.23 3.54 17.84 4.34 25.44m-3.06-24.73c8.55-1.86 14.61-2.98 18.58-3.53 1.45-.2 2.32 1.2 2.11 2.4-.86 4.94-2.34 12.61-3.62 19.44m-14.32 2.94c4.66-.63 10.28-1.36 16.68-2.32M64.08 9.5c1.15.37 2.79 2.21 2.76 3.29-.08 3.4-.08 5.2-.09 8.3m-24 1.52c0 2.61-3.14 10.65-4.17 12.39m5.54-11.56c7.13-.74 40.2-3.4 45.99-3.68 9.04-.44 1.92 5.38-.34 6.96m-42.54 8.03c.2 1.63-2.01 8.8-3.62 11.51m11.18-13.3c6.96 9.29 12.47 12.68 25.76 12.23 5.44-.18 5.69-2.43 1.89-5.65m-15.32-9.29c1.54 3.74 3.79 7.48 5.43 1.75m9.35-3.02c3.29 1.32 5.76 2.53 8.44 6.63M46.56 53.03c.23.26.47.48.57.81.81 2.59 1.13 8.25 1.68 12.91m-1.23-12.46c6.44-.79 36.41-2.71 39.13-3.06.99-.12 2.35.88 2.08 2.34-.56 3.04-1.35 6.27-2.84 10.61"/><path d="M59.97 54.34c.53.66.63 1.16.74 2.1.38 3.04.55 7.02.67 8.5m11.31-11.68c.56.99.87 1.84.75 3.02-.3 3.15-.78 6.11-1.01 7.36m-35.14 3.7c1.96.41 3.38.29 4.96.21 11.82-.64 41.31-3.53 53.52-4.26 2.27-.13 3.72-.04 4.96.68M42.75 77.01c1.32.39 3.73.5 5.05.39 13.47-1.04 23.15-3.19 39.35-3.71 2.19-.07 3.51.19 4.61.38M67.08 77.4c.08.33 1.64 1.74 1.64 3.87 0 7.48-.23 9.48-.23 13.17 0 10.31-6.74.86-8.11-.02"/></g><g style="font-size:8;fill:gray"><text transform="translate(3.5 41.85)">1</text><text transform="translate(13.5 32.5)">2</text><text transform="translate(17.71 53.5)">3</text><text transform="translate(56.5 9.4)">4</text><text transform="translate(35.5 23.33)">5</text><text transform="translate(45.5 20.5)">6</text><text transform="translate(44.5 31.5)">7</text><text transform="translate(52.5 41.5)">8</text><text transform="translate(60.5 30.5)">9</text><text transform="translate(74.25 28.95)">10</text><text transform="translate(37.5 55.88)">11</text><text transform="translate(48.5 51.5)">12</text><text transform="translate(51.25 61.5)">13</text><text transform="translate(63.5 60.5)">14</text><text transform="translate(33.25 63.5)">15</text><text transform="translate(46.25 74.5)">16</text><text transform="translate(57.5 85.5)">17</text></g></svg>