<svg xmlns="http://www.w3.org/2000/svg" width="109" height="109"><g style="fill:none;stroke:#000;stroke-width:3;stroke-linecap:round;stroke-linejoin:round"><path d="M12 43.14c.76.38 2.24.46 3 .36 4.82-.66 14.65-2.39 20-3 1.25-.14 2.62-.18 3.25.01"/><path d="M24.12 20.5c1.09.5 1.74 2.25 1.96 3.25s0 37.25-.22 43.5"/><path d="M10.75 74.12c.78 1.13 2.35 1.73 4.69.24 6.52-4.14 13.29-7.98 19.81-12.11M60.71 9.71c1.97.81 5.22 3.93 5.22 5.54m-22.11 5.59c1.09.27 2.05.5 3.31.38 7.62-.72 28.78-3.28 37.49-3.84 1.28-.08 1.94.03 2.89.49m-34.65 9.39c.23.18.47.33.57.56.81 1.8 1.39 6.78 1.94 10.02m-1.06-9.96c5.72-.76 18.5-2.75 21.45-3.01 1.08-.09 2.54.64 2.36 1.99-.28 2.13-1.37 3.73-2.74 7m-19.39 2.29c3.46-.29 16.85-1.71 21.25-2m-32.61 9.48c0 2.57-2.08 9.65-2.9 11.37m2.82-8.26c6.95-1.74 38.57-5.12 44.24-5.4 6.71-.34 1.46 6.16-2.35 8.28m-37.91 4.64c.78.39 2.22.41 3.01.39 5.36-.15 18.12-1.9 24.42-3.25 1.29-.28 2.09.19 2.74.38m-16.6 4.94c.05.28.1.72-.1 1.12-1.17 2.36-7.88 7.55-17.06 10.72m15.65-7.22c4.7 4.33 9.04 21.77 4.9 34.08-1.83 5.42-5.49 1.58-6.88-.96"/><path d="M60.6 67.08c.05.34.11.89-.1 1.38-1.26 2.91-8.49 9.3-18.38 13.21m20.7-4.98c.06.43.13 1.12-.12 1.74-1.5 3.66-10.91 10.71-22.71 15.63M80.4 60.03c.04.25.08.66-.07 1.02-.9 2.16-6.03 6.91-13.05 9.82m-1.95.85c3.88 2.76 20.9 15.84 25.12 18.56 1.43.92 2.65 1.32 4.08 1.58"/></g><g style="font-size:8;fill:gray"><text transform="translate(5.5 42.5)">1</text><text transform="translate(14.5 20.5)">2</text><text transform="translate(3.5 76.5)">3</text><text transform="translate(54.5 10.5)">4</text><text transform="translate(36.5 20.58)">5</text><text transform="translate(46.5 34.5)">6</text><text transform="translate(58.5 26.5)">7</text><text transform="translate(59.5 33.5)">8</text><text transform="translate(37.5 48.5)">9</text><text transform="translate(45.75 42.5)">10</text><text transform="translate(49.5 52.5)">11</text><text transform="translate(48.25 61.5)">12</text><text transform="translate(64.5 64.5)">13</text><text transform="translate(49.5 71.5)">14</text><text transform="translate(50 82.08)">15</text><text transform="translate(70.5 59)">16</text><text transform="translate(73.5 76.43)">17</text></g></svg>