<svg xmlns="http://www.w3.org/2000/svg" width="109" height="109"><g style="fill:none;stroke:#000;stroke-width:3;stroke-linecap:round;stroke-linejoin:round"><path d="M26.88 25.38c.99.49 2.8.58 3.79.49 10.28-.83 34.51-4.45 46.26-4.41 1.65 0 2.63.24 3.46.49"/><path d="M50.53 10.86c1.14.46 1.83 2.06 2.06 2.97s.27 13.91.27 23.8m-22.55 1.79c.87.34 2.47.37 3.34.34 11.52-.4 28.1-3.01 38.89-3.36 1.45-.05 2.32.16 3.05.33m-58.18 14.4c0 3.48-3.03 14.55-4.41 16.87m6.24-15.26c1.08.03 2.54.1 4.27-.07 18.98-1.91 57.72-4.99 64.68-5.33 12.05-.59 2.55 7.16-.45 9.28M41.75 75c8.5-1.5 18.5-4.02 26.05-5.83 1.6-.38 3.17-.7 4.7-.92"/><path d="M39 57.75c.92 1.02.98 1.7 1.29 3.06s.31 21.47.31 25.73c0 10.94 12.31 9.23 22.79 9.23 8.13 0 18.4-1.08 21.47-4.14"/></g><g style="font-size:8;fill:gray"><text transform="translate(20.5 26.5)">1</text><text transform="translate(43.5 12.5)">2</text><text transform="translate(23.5 38.5)">3</text><text transform="translate(10.5 52.5)">4</text><text transform="translate(21.5 49.5)">5</text><text transform="translate(43 72)">6</text><text transform="translate(31.5 65.5)">7</text></g></svg>