<svg xmlns="http://www.w3.org/2000/svg" width="109" height="109"><g style="fill:none;stroke:#000;stroke-width:3;stroke-linecap:round;stroke-linejoin:round"><path d="M31.81 21.12c.4 1 1.12 2.63.91 4.07-1.01 7.08-5.53 31.24-9.98 39.52-.91 1.7.4 2.41.91 2.52 9.85 2.03 16.43 8.75 21.85 16.06"/><path d="M44.25 38.39c.08 1.23.14 4.22-.17 6C41.61 58.82 34.46 79.27 16.75 90"/><path d="M11.5 51.22c.75.94 1.75 1.62 3.75 1.39 2.15-.24 21.34-4.35 30.25-6.73m10.89-23.5c4.61-.64 25.65-3 36.37-3.64 1.62-.1 2.6-.21 3.42.03m-41.2 1.47c.7.43 1.12 1.93 1.26 2.79s0 62.1-.14 67.47m18.65-67.33c.7.43 1.12 1.93 1.26 2.79s.09 11.6-.05 16.98m-19.29 2.57c11.04-1.58 24.59-2.71 32.25-3.8 3.1-.44 3.97 1.34 3.54 3.65-.78 4.19-2.43 9.71-3.23 14.76m-32.52 3.22c4.61-.64 31.28-2.72 35.61-3.11m-17.59 3.12c.7.43 1.12 1.93 1.26 2.79s.09 13.97-.05 19.34m-19.55 1.36c4.61-.64 27.87-1.57 38.59-2.21 1.62-.1 2.6-.21 3.41.03"/></g><g style="font-size:8;fill:gray"><text transform="translate(24.5 21.5)">1</text><text transform="translate(39.75 34.5)">2</text><text transform="translate(6.5 59.5)">3</text><text transform="translate(58.5 18.13)">4</text><text transform="translate(48.5 27.13)">5</text><text transform="translate(68.5 30.13)">6</text><text transform="translate(60.75 42.13)">7</text><text transform="translate(60.75 59.5)">8</text><text transform="translate(68.5 71.5)">9</text><text transform="translate(59.5 83.5)">10</text></g></svg>