<svg xmlns="http://www.w3.org/2000/svg" width="109" height="109"><g style="fill:none;stroke:#000;stroke-width:3;stroke-linecap:round;stroke-linejoin:round"><path d="M27.12 16.62c.38 1.13.57 2.74.38 4.38-.97 8.06-6.12 31-11.27 40.68-1 1.88.38 2.75.88 2.87 6.11 1.46 11.82 5 16.38 10.21 1.53 1.74 2.7 3.98 4.02 6.24"/><path d="M38.51 36c.37 1.5.47 3.54.1 5.33C35.5 56.5 30.38 76 14 88.75"/><path d="M9 47.46c.5.79 1.28 1.46 3.25 1.04 6.5-1.38 22.75-5.12 31.25-7.28m3.71-18.14c2.91.54 5.62.37 8.04-.02 9.65-1.57 17.99-2.68 25.74-3.31 2.3-.19 4.36-.25 6.62.33m-37.93 4.08c.95.95 1.29 2.46 1.17 4.95-1.23 26.27-3.73 43.02-13.45 60.56m19.26-52.68c1.96.39 4.04.36 5.96.12 5.09-.63 11.44-1.58 16.53-2.18 2-.24 3.74-.36 5.71.12M52.48 51.03c2.65.47 4.46.31 6.55.02 7.24-1.02 19.77-2.85 27.11-3.52 2-.18 4.32-.45 6.3.03m-32.76 5.89c1.12 1.12 1.17 2.55 1.17 5.1 0 12.06-.1 27.03-.1 29.07s1.83 2.74 3.95 1.18c3.3-2.43 6.05-4.81 10.09-7.85m12.39-25.12c.08.72.01 1.45-.44 2.03-1.87 2.4-3.48 4.52-8.12 8.4m-11.76-7.73c1.66 0 12.27 13.72 20.22 22.61 2.5 2.79 5.17 4.87 9.01 7.31"/></g><g style="font-size:8;fill:gray"><text transform="translate(19.5 17.5)">1</text><text transform="translate(29.5 35.5)">2</text><text transform="translate(2.25 51.5)">3</text><text transform="translate(48.5 20.5)">4</text><text transform="translate(42.75 31.5)">5</text><text transform="translate(56.5 34.5)">6</text><text transform="translate(55.5 48.05)">7</text><text transform="translate(53.25 61.5)">8</text><text transform="translate(79.5 57.5)">9</text><text transform="translate(64.5 71.5)">10</text></g></svg>