<svg xmlns="http://www.w3.org/2000/svg" width="109" height="109"><g style="fill:none;stroke:#000;stroke-width:3;stroke-linecap:round;stroke-linejoin:round"><path d="M26.29 21.12c.28.91.78 2.41.64 3.73-.71 6.49-3.91 29.49-7.03 37.08-.64 1.56.29 2.16.64 2.31 6.76 2.83 12.53 8.01 16.31 14.71"/><path d="M36.89 38.41c.07 1.21.12 4.16-.14 5.92-2.13 14.21-8.29 34.35-23.54 44.92"/><path d="M12 49.22c.62.99 1.94 1.2 3.59.96C17.36 49.93 31 46 40 43.62m21.07-30.87c1.94.9 4.18 3.75 5.15 6.18m-25.6 6.42c1.24.25 2.34.51 3.77.34 8.52-1.03 32.28-4.36 42.2-4.86 1.46-.07 2.21.03 3.29.44m-35.11 6.87c.03.24.07.61-.07.95-.83 2.01-5.61 6.42-12.14 9.12m31.96-11.13c4.34 1.35 11.21 5.54 12.29 7.63m-40.06 8.81c.71.29 3.52.35 4.24.29 6.51-.56 20.76-3.81 27.77-4.45 1.18-.11 1.9.14 2.5.28M46.75 53.52c.71.29 3.52.35 4.24.29 6.51-.56 20.76-2.81 27.77-3.45 1.18-.11 1.9.14 2.5.28M38.25 64.89c.94.38 2.66.42 3.6.38 7.4-.27 42.57-5.23 47.11-4.88 1.56.12 2.5.18 3.29.37"/><path d="M54.87 37.75c1.09.5 1.74 2.25 1.96 3.25s1 16.25.78 22.5m14.76-29.25c.88 1 1.72 2.24 1.46 3.75a415 415 0 0 0-3.33 23m-11.97 3.39c.06.55.24 1.46-.12 2.2-2.34 4.78-9.95 13.49-21.65 21.02m16.33-10.16c.32.35.66.7.66 1.31-.02 7.77-.21 12.16-.21 13.47s.78 2.06 1.77 1.08c.99-.99 10.5-8.79 11.82-9.77m12.51-19.85c.02.26.25 1.26.11 1.61-.89 2.16-3.68 5.24-8.22 9.53m-11.66-6.69c1.54.67 4.01 2.57 4.44 2.86 6.31 4.24 21.65 15.06 25.91 17.56 1.6.94 2.98 1.34 4.58 1.61"/></g><g style="font-size:8;fill:gray"><text transform="translate(18.75 22.5)">1</text><text transform="translate(30.75 35.5)">2</text><text transform="translate(4.5 50.5)">3</text><text transform="translate(54.5 14.5)">4</text><text transform="translate(39.75 22.5)">5</text><text transform="translate(45.5 33.5)">6</text><text transform="translate(67.5 30.5)">7</text><text transform="translate(41.25 45.5)">8</text><text transform="translate(39.5 53.5)">9</text><text transform="translate(37.5 62.5)">10</text><text transform="translate(47.5 41.5)">11</text><text transform="translate(62.5 38.5)">12</text><text transform="translate(44.5 72.5)">13</text><text transform="translate(44.5 88.5)">14</text><text transform="translate(67.5 69.5)">15</text><text transform="translate(59.25 78.5)">16</text></g></svg>