<svg xmlns="http://www.w3.org/2000/svg" width="109" height="109"><g style="fill:none;stroke:#000;stroke-width:3;stroke-linecap:round;stroke-linejoin:round"><path d="M52.04 9.25c1.11 1.11 1.64 2.5 1.64 4.27 0 3.9-.07 5.54-.08 9.08m-32.74 1.53c0 4.38-4.03 16.44-5.86 19.37m6.51-15.72c20.24-2.53 48.61-6.03 63.59-6.2 12.9-.14.88 8.16-.92 9.03M15.63 56.92c2.94.58 6.22.82 8.42.55 20.65-2.6 49.39-6.35 59.89-6.68 3.66-.12 5.86.13 7.69.53"/><path d="M66.27 34.33c1.14 1.14 1.76 2.92 1.76 5.27 0 14.56.24 47.41.24 52.37 0 11.78-6.52 1.78-8.71.25m-23.1-24.98c3.26 2.23 8.43 9.16 9.25 12.62"/></g><g style="font-size:8;fill:gray"><text transform="translate(43.5 10.5)">1</text><text transform="translate(13.5 28.94)">2</text><text transform="translate(24.5 23.5)">3</text><text transform="translate(8.5 58.5)">4</text><text transform="translate(57.75 36.5)">5</text><text transform="translate(29.5 68.5)">6</text></g></svg>