<svg xmlns="http://www.w3.org/2000/svg" width="109" height="109"><g style="fill:none;stroke:#000;stroke-width:3;stroke-linecap:round;stroke-linejoin:round"><path d="M48.54 9c3.73 1.71 8.29 6.98 9 10.29m-36.68 4.84c0 4.38-4.03 16.44-5.86 19.37m7.75-16.26c1.81-.09 52.13-5.53 62.36-5.4 12.9.16.88 7.91-.92 8.78M15.88 57.67c2.12.58 4.48.51 6.07.3C40 55.5 72.92 51.11 86.08 50.79c2.64-.06 4.22.38 5.54.78"/><path d="M66.77 34.83c.09.48 1.17 2.49 1.26 5.52.4 14.55-.26 46.66-.26 51.62 0 11.78-6.52 1.78-8.71.25m-22.1-24.35c3.26 2.07 8.43 8.52 9.25 11.75"/></g><g style="font-size:8;fill:gray"><text transform="translate(43.5 10.5)">1</text><text transform="translate(13.5 28.94)">2</text><text transform="translate(24.5 23.5)">3</text><text transform="translate(8.5 58.5)">4</text><text transform="translate(57.75 36.5)">5</text><text transform="translate(29.5 68.5)">6</text></g></svg>