<svg xmlns="http://www.w3.org/2000/svg" width="109" height="109"><path d="M51.48 11.81c1.2.39 2.92 2.31 2.89 3.45-.09 3.56-.09 7.47-.09 10.71m-33.21.86c0 3.76-2.28 14.1-3.32 16.61m3.45-13.56c8.69-.9 59.04-5.45 66.09-5.8 11.01-.54 1.17 8.28-1.57 10.21M24.21 49.75c1.79.75 5.71.95 6.85.85C45.44 49.38 65 47 81.86 45.62c1.91-.16 3.06.17 4.02.34m-36.8 5.41c.09.78.45 2.15-.19 3.15C44.75 61 34.5 74.75 16.25 85.21m23.27-12.85c.62.59 1.41 1.03 1.52 1.8.84 5.59 2.53 14.75 3.71 25.34m-3.77-26.23c8.07-.93 32.41-3.41 37.92-3.56 2.28-.06 3.71 1.38 3.31 2.72-1.39 4.61-3.46 13.56-5.8 22.53m-31.06 2.18c6.46-.47 24.57-1.66 32.81-1.79" style="fill:none;stroke:#000;stroke-width:3;stroke-linecap:round;stroke-linejoin:round"/><g style="font-size:8;fill:gray"><text transform="translate(44.5 11.5)">1</text><text transform="translate(14.5 28.5)">2</text><text transform="translate(24.5 26.5)">3</text><text transform="translate(25.5 47.5)">4</text><text transform="translate(37.5 59.5)">5</text><text transform="translate(34.5 81.5)">6</text><text transform="translate(45.5 70.5)">7</text><text transform="translate(48.5 93.5)">8</text></g></svg>