<svg xmlns="http://www.w3.org/2000/svg" width="109" height="109"><path d="M49.23 10.16c3.35 1.52 6 3.79 8.09 8.26m-36.57 6.63c0 3.35-2.92 12.56-4.25 14.79m6.01-13.73c9.15-.95 57.98-4.36 65.41-4.72 11.6-.56 2.46 6.9-.43 8.93m-47.9 3.66c.04.37.2 1.01-.09 1.5-2.25 3.77-7 9.02-15.58 14.33m42.29-15.3c5.79 3.23 12.83 9.39 14.81 12.7m-29.7-5.16c.09.77.39 2.08-.19 3.1C46 54.25 35.5 65 17.51 75.86m33.97-31.02c9.29 9.08 26.6 22.04 35.12 26.85 2.11 1.2 4.55 1.98 6.55 2.37m-59.38.76c.44.39.88.72 1.07 1.21 1.51 3.9 2.82 14.66 3.85 21.67m-2.88-21.25c11.89-1.8 26.39-2.7 33.67-3.48 2.49-.27 4.01 1.79 3.63 2.95-1.8 5.58-3.16 11.08-4.83 17.92m-28.42 1.88c9.58-.54 19.22-1.04 30.22-1.88" style="fill:none;stroke:#000;stroke-width:3;stroke-linecap:round;stroke-linejoin:round"/><g style="font-size:8;fill:gray"><text transform="translate(44.5 10.5)">1</text><text transform="translate(12.75 27.13)">2</text><text transform="translate(23.5 23.5)">3</text><text transform="translate(31.5 35.5)">4</text><text transform="translate(56.25 34.63)">5</text><text transform="translate(42.5 47.5)">6</text><text transform="translate(60.75 49.63)">7</text><text transform="translate(28.5 83.5)">8</text><text transform="translate(38.5 73.5)">9</text><text transform="translate(41.5 92.5)">10</text></g></svg>