<svg xmlns="http://www.w3.org/2000/svg" width="109" height="109"><g style="fill:none;stroke:#000;stroke-width:3;stroke-linecap:round;stroke-linejoin:round"><path d="M49.44 9.5c2.52 1.29 6.63 4.39 7.55 7.67m-29.93 5.58c0 3.9-3.33 14.64-4.84 17.25m5.68-15.37c10.85-1.13 44.6-5.13 54.87-4.91 9.48.21 1.18 6.7-.36 7.4M33.25 40.39c.94.38 2.66.49 3.6.38 5.98-.66 26.9-3.52 33.11-3.88 1.56-.09 2.5.18 3.29.37m-39.5 14.63c.94.38 2.66.49 3.6.38 5.98-.66 25.65-2.77 32.61-2.88 1.56-.03 2.5.18 3.29.37m-53.5 16.13c.94.38 2.66.42 3.6.38C30 66 80.75 61 87.96 61.39c1.56.08 2.5.18 3.29.37"/><path d="M51.87 27.75c1.09.5 1.74 2.25 1.96 3.25s.14 26-.08 32.25M34 76.85c.4.37.81.68.98 1.15 1.38 3.68 3.04 13.85 3.98 20.47m-2.48-20.36c9.76-1.55 31.68-3.58 36.72-4.1 1.84-.19 2.95 1.92 2.68 3.04-1.09 4.64-2.34 8.64-4.67 15.33m-31.85 3.65c5.91-.59 26.19-2.47 33.69-3.06"/></g><g style="font-size:8;fill:gray"><text transform="translate(44.5 9.5)">1</text><text transform="translate(19.5 26.5)">2</text><text transform="translate(30.5 20.5)">3</text><text transform="translate(26.25 43.63)">4</text><text transform="translate(26.25 53.5)">5</text><text transform="translate(12.5 66.5)">6</text><text transform="translate(44.25 31.5)">7</text><text transform="translate(27.49 84.5)">8</text><text transform="translate(37.5 74.5)">9</text><text transform="translate(41.5 92.5)">10</text></g></svg>