<svg xmlns="http://www.w3.org/2000/svg" width="109" height="109"><path d="M32.95 16.88c2.17.99 4.54.87 6.82.67 8.62-.73 26.1-2.12 32.5-2.71 3.62-.33 6.15.16 5.18 4.42-.83 3.68-1.95 7.99-3.37 12.96m-37.61 3.89c3.24-.17 23.23-1.64 34.3-2.63 3.27-.29 5.75-.5 6.74-.55m-41.5-14.57c1 1 .99 2.27.93 4.14-.68 19.73-6.56 40.75-21.18 52.41m36.92-38.66c6.12 4.01 18.6 16.34 26.88 23.67 3.19 2.82 7.06 5.2 10.94 7.07m-44.23-7.16c4.34 2.1 11.21 8.62 12.29 11.88m-18.42 10.5c11.23 2.54 24.31 10.89 26.67 15.01" style="fill:none;stroke:#000;stroke-width:3;stroke-linecap:round;stroke-linejoin:round"/><g style="font-size:8;fill:gray"><text transform="translate(39.75 15.13)">1</text><text transform="translate(42.75 33.05)">2</text><text transform="translate(29.25 25.63)">3</text><text transform="translate(66.75 43.63)">4</text><text transform="translate(39.75 60.05)">5</text><text transform="translate(32.25 82.48)">6</text></g></svg>