<svg xmlns="http://www.w3.org/2000/svg" width="109" height="109"><g style="fill:none;stroke:#000;stroke-width:3;stroke-linecap:round;stroke-linejoin:round"><path d="M25.49 11.42c3.41 1.7 9.96 6.46 12.03 12m-25.97 6.79c1.05.06 3.42.49 4.45.39 8-.85 22.28-3.78 32.07-4.19 1.73-.07 2.6-.04 3.89.55M18.81 42.47c.41.34 1.44 2.08 1.52 2.54.63 3.3 2 8.96 2.93 15.22m-2.57-17.21c6.27-1.29 18.97-2.89 23.23-3.42 1.77-.22 3.4 1.8 2.69 4.33-.79 2.81-1.74 6.27-2.85 10.17m-20.71 3.42c8.7-1.27 13.95-1.77 22.63-2.85m-13.16 3.87c.06.47.82 2.45.93 5.44.17 4.82-.19 23.64-.19 27.79 0 8.73-5.32.49-6.43-.74m-6.25-21.95c.03.45.06 1.15-.05 1.8-.64 3.79-4.35 12.1-9.42 17.18m31.21-22.48c2.32 2.29 5.52 8.69 6.1 12.26m4.83-38.16c.77.27 2.17.35 2.93.27 5.45-.55 25.16-2.65 33.39-2.64 1.28 0 2.04.13 2.68.27"/><path d="M69.04 13.5c.08 2.03.18 1.92.18 4.72 0 19.06-4.29 60.09-27.56 74.7m27.82-39.55c.48 1.29.87 2.82.9 4.81.13 8.89-.34 17.53-.34 23.57 0 14.12 5.81 12.52 11.53 12.52 11.18 0 12.32-.77 12.32-9.91M81 17.5c2.82 1.76 7.29 7.26 8 10"/></g><g style="font-size:8;fill:gray"><text transform="translate(20.5 12.5)">1</text><text transform="translate(5.25 30.5)">2</text><text transform="translate(12.75 50.98)">3</text><text transform="translate(20.5 39.13)">4</text><text transform="translate(26.5 53.5)">5</text><text transform="translate(26.25 67.5)">6</text><text transform="translate(12.75 70.5)">7</text><text transform="translate(43.5 64.5)">8</text><text transform="translate(52.5 37.5)">9</text><text transform="translate(56.5 15.5)">10</text><text transform="translate(73.5 57.13)">11</text><text transform="translate(77.5 14.5)">12</text></g></svg>