<svg xmlns="http://www.w3.org/2000/svg" width="109" height="109"><g style="fill:none;stroke:#000;stroke-width:3;stroke-linecap:round;stroke-linejoin:round"><path d="M26.68 16.15c3.1.78 6.19.83 9.32.47 13.75-1.62 27.38-3.49 43.14-4.37 3.72-.21 6.32.36 5.14 4.43-.88 3.01-1.32 4.4-2.65 8.14m-49.73 5.1c14.1-1.42 28.98-2.67 44.24-3.84 3.42-.26 5.24-.46 7.17-.29m-53.48-8.46c1.17.8 1.34 2.17 1.29 3.67-1 31.88-7 52.75-19.12 66m48.06-55.17c1.06 1.06 1.49 2.3 1.49 4.14 0 6.37-.05 11.11-.05 14.16M40.06 36.98c3.51 1.99 7.95 6.77 8.83 9.86m32.57-14.06c.09.98-.35 1.91-.81 2.79-1.77 2.94-3.7 5.86-7.42 9.54m-32.15 6.76c.85.83 1.2 2.26 1.2 3.24l.03 36.64v7.45m.86-46.11c2.97-.18 30.93-3.13 33.14-3.33 3.96-.36 4.94.99 4.94 3.69 0 7.81.01 24.19.01 38.86 0 10.19-4.14 3.19-7.65.25"/><path d="M43.42 65c11.08-1 26.45-2 36.6-2.67M43.43 77.07C53.62 76.38 71 75 81.03 74.4"/></g><g style="font-size:8;fill:gray"><text transform="translate(28.5 13.5)">1</text><text transform="translate(36.5 26.5)">2</text><text transform="translate(22.5 25.85)">3</text><text transform="translate(52.5 35.5)">4</text><text transform="translate(34.5 43.83)">5</text><text transform="translate(72.44 35.5)">6</text><text transform="translate(34.5 60.68)">7</text><text transform="translate(52.5 49.6)">8</text><text transform="translate(47.5 61.5)">9</text><text transform="translate(46.5 73.5)">10</text></g></svg>