<svg xmlns="http://www.w3.org/2000/svg" width="109" height="109"><g style="fill:none;stroke:#000;stroke-width:3;stroke-linecap:round;stroke-linejoin:round"><path d="M26.68 15.65c1.91.73 4.13.88 6.16.73 10.97-.81 44.66-4.13 49.03-4.73 2.88-.4 3.63 1.1 3.13 3.97-.63 3.61-2.5 5.63-3.37 9.94M31.9 30.17c5.5-.24 45.67-4.13 51.41-4.37m-52.23-8.47c0 3.84-.31 15.03-.79 18.61C27.54 56.28 25.52 72.4 12 87m47.81-55.42c.14.29 1.99 1.53 1.99 3.39 0 6.37.11 12.92.11 15.96M40.06 36.98c3.51 1.99 7.95 6.77 8.83 9.86m32.32-14.06c.03.34.06.89-.07 1.38-.77 2.91-4.48 7.48-8.67 10.69m-32.14 7.02c.85.83 1.42 1.66 1.7 2.49s.4 42.98.28 44.84m-.39-46.11c2.97-.18 32.18-2.88 34.39-3.08 3.96-.36 4.94 2.29 4.94 3.44 0 7.81-.24 24.19-.24 38.86 0 8.79-6.67 2.02-8.9.75"/><path d="M43.42 65c6.32-.68 12.67-1.11 19.01-1.54 1.72-.12 3.44-.23 5.11-.33M42.68 77.07c6.23-.42 12.47-.79 18.71-1.15 1.86-.11 3.74-.21 5.57-.32"/></g><g style="font-size:8;fill:gray"><text transform="translate(28.5 13.5)">1</text><text transform="translate(36.5 26.5)">2</text><text transform="translate(22.5 25.85)">3</text><text transform="translate(52.5 35.5)">4</text><text transform="translate(34.5 43.83)">5</text><text transform="translate(72.44 35.5)">6</text><text transform="translate(34.5 60.68)">7</text><text transform="translate(52.5 49.6)">8</text><text transform="translate(47.5 61.5)">9</text><text transform="translate(46.5 73.5)">10</text></g></svg>