<svg xmlns="http://www.w3.org/2000/svg" width="109" height="109"><g style="fill:none;stroke:#000;stroke-width:3;stroke-linecap:round;stroke-linejoin:round"><path d="M21.94 19.89c1.15 1.15 1.41 2.61 1.41 4.78 0 6.33.23 65.23.23 68.83m.77-71.71c11.4-1.54 40.9-4.67 54.41-6.06 4.52-.46 7.81.57 7.81 5.64 0 11-.19 61.18-.19 66.13 0 11.12-4.62 4.81-7.35 1.69"/><path d="M39.02 28.66c2.8 1.95 7.24 8.04 7.94 11.08m20.06-15.3c.09 1.14-.08 2.25-.51 3.32-2.02 4.12-4.02 8.12-8.59 13.92m-27.67 4.96c3.08.6 6.07.03 9.23-.3 10.35-1.09 24.89-2.96 33.52-3.68 2.45-.21 5-.03 7.25.11m-27.41 3.48c.77.77 1.06 1.88 1.06 2.88 0 3.24-.02 15.99-.02 20.37"/><path d="M36.89 58.35c.63.63.76 1.96.69 2.51-.45 3.26-1.22 5.9-2.07 9.38-.6 2.44.39 3.44 3.25 2.88 10.86-2.12 21.74-3.24 33.78-3.9m.67-15.93c.69.69.79 1.96.69 3.38-.31 4.08-.39 9.08-.89 16.08"/></g><g style="font-size:8;fill:gray"><text transform="translate(15.5 28.63)">1</text><text transform="translate(26.5 17.5)">2</text><text transform="translate(31.5 29.5)">3</text><text transform="translate(59.5 26.4)">4</text><text transform="translate(31.5 43.5)">5</text><text transform="translate(46.5 54.5)">6</text><text transform="translate(29.5 57.18)">7</text><text transform="translate(65.25 53.1)">8</text></g></svg>