<svg xmlns="http://www.w3.org/2000/svg" width="109" height="109"><g style="fill:none;stroke:#000;stroke-width:3;stroke-linecap:round;stroke-linejoin:round"><path d="M48.58 10.75c1.88 1.02 4.85 4.21 5.32 5.8m-12.84 6.04c.53.16 2.53.18 3.06.16 6.51-.29 14.17-1.82 18.9-1.96.88-.03 2.2.08 2.64.16m-20.21 9c.32.08 2.27.09 2.59.08 3.31-.09 6.18-.91 9.45-.9.53 0 2.75.04 3.01.08m-14.72 9.11c.28.08 2.02.09 2.31.08 2.96-.09 7.78-1.44 10.7-1.43.47 0 2.45.04 2.69.08m-17.03 9.32c.29.25.62.45.72.77.83 2.87.88 9.39 1.72 13.61m-.62-13.2c5.38-.61 9.5-1.59 14.46-2.21 1.24-.15 2 .71 1.82 1.41-.74 2.9-1.39 6.24-2.7 11.06m-12.36 1.44c4.01-.37 8.1-.5 13.6-1.07m-36.5-46.43c.27.98.34 1.72-.14 2.77-2.4 5.28-5.26 9.11-8.18 13.53-.39.59-.54 2.26 0 2.45 2.87.98 6.88 2.61 9.34 4.4"/><path d="M34.81 20.56c.25.44.33 1.9 0 2.37-4.86 6.94-12.1 16.61-18.77 22.94-1.53 1.45.38 2.28 1.38 1.99 4.17-1.24 12.84-3.44 18.2-4.62"/><path d="M32.15 37.52c2.17 1.78 5.6 7.3 6.15 10.07m-26.34 9.27c3.29 2.22 5.82 7.38 6.58 9.39m2.85-12.26c3.73 1.92 6.59 6.39 7.46 8.14m1.98-11.55c3.62 1.54 6.4 5.13 7.24 6.52m41.02-46.6c.27.92.34 1.63-.14 2.62-2.4 4.99-5.26 8.61-8.18 12.78-.39.56-.54 2.14 0 2.31 2.87.92 6.88 2.47 9.34 4.16"/><path d="M89.31 18.83c.25.42.33 1.79 0 2.24-4.86 6.56-12.1 15.69-18.77 21.68-1.53 1.37.38 2.16 1.38 1.88 4.17-1.17 12.84-3.25 18.2-4.37"/><path d="M86.65 34.86c2.17 1.68 5.6 6.9 6.14 9.51m-26.33 8.75c3.29 2.1 5.82 6.97 6.58 8.88m2.85-11.59c3.73 1.82 6.59 6.04 7.46 7.69m1.98-10.9c3.62 1.46 6.4 4.84 7.24 6.17M52.22 67.63c.64.38 2 2.84 2.13 3.6s-.08 18.37-.21 23.11"/><path d="M25.89 76.17c.64.38 1.38 1.99 1.28 2.75-.42 3.39-1.92 10.83-2.96 16.83-.3 1.72.19 3 1.77 2.68 16.52-3.42 50.35-5.14 58.4-5.35"/><path d="M84.63 75.87c.64.38 1.39 2.84 1.28 3.6-.63 4.66-.77 9.42-1.83 18.1"/></g><g style="font-size:8;fill:gray"><text transform="translate(42.25 10.5)">1</text><text transform="translate(39.5 19.5)">2</text><text transform="translate(40.5 29.03)">3</text><text transform="translate(40.5 36.5)">4</text><text transform="translate(39.5 52.88)">5</text><text transform="translate(47.5 45.5)">6</text><text transform="translate(50.25 57.5)">7</text><text transform="translate(18.5 11.5)">8</text><text transform="translate(31.5 18.5)">9</text><text transform="translate(32.5 34.5)">10</text><text transform="translate(3.5 59.5)">11</text><text transform="translate(14.5 56.5)">12</text><text transform="translate(23 52.5)">13</text><text transform="translate(68.5 10.5)">14</text><text transform="translate(86.5 16.5)">15</text><text transform="translate(88.5 34.5)">16</text><text transform="translate(61.5 62.5)">17</text><text transform="translate(68.5 53.5)">18</text><text transform="translate(77.5 49.5)">19</text><text transform="translate(42.5 70.5)">20</text></g></svg>