<svg xmlns="http://www.w3.org/2000/svg" width="109" height="109"><g style="fill:none;stroke:#000;stroke-width:3;stroke-linecap:round;stroke-linejoin:round"><path d="M53.8 8.63c1.52.77 4.73 5.77 5.03 7.3m-34.7 6.02c1.65.33 4.67.38 6.32.33 17.16-.55 40.52-3.06 57.15-3.5 2.75-.07 4.4.16 5.77.32M27.99 23c.05 1.61.03 4.14-.1 6.45C27 45.75 25 77 11.06 90.72M37.71 31.5c.94.32 2.68.47 3.61.32 3.81-.62 20.17-3.56 38.19-3.64 1.57-.01 2.51.15 3.3.31m-25.52 2.67c.26.09.07 2.04-.04 2.35-.83 2.57-1.88 4.34-4.38 6.73m-10.49.06c.55.54 1.35 1.78 1.35 2.5s1.32 21.11 1.5 21.83m-.59-23.27c3.1-.09 28.25-2.87 31.08-2.87 1.29 0 2.5.7 2.51 2.85 0 .88.01 13.17.01 21.62"/><path d="M45.09 48.33c5.54-.11 11.1-.84 16.62-1.38 1.68-.16 3.35-.32 4.94-.48m-21.31 9.11c5.34-.2 10.66-.36 15.97-.91 1.48-.15 2.96-.3 4.4-.44M45.13 63.4c6.16 0 23.32-2.33 31.29-2.33m-24.43 4.38c.06.53-.21 1.93-.61 2.62C48.5 73 42 81.5 31.58 87.81m20.46-15.62c.39.03 2.17 0 3.29-.07 3.67-.24 11.23-2.63 16.48-3.37 3.6-.51 3.68 1.48 2.76 2.86-5.04 7.56-24.13 22.76-46.32 28.15"/><path d="M48.69 76.79c5.45 3.66 28.62 16.79 35.96 20.14 2.19 1 3.96 1.48 6.1 1.78"/></g><g style="font-size:8;fill:gray"><text transform="translate(47.5 9.5)">1</text><text transform="translate(24.5 19.5)">2</text><text transform="translate(19.71 30.5)">3</text><text transform="translate(36.75 29.5)">4</text><text transform="translate(48.75 37.33)">5</text><text transform="translate(34.75 46.25)">6</text><text transform="translate(42.75 39.18)">7</text><text transform="translate(48.5 46.5)">8</text><text transform="translate(48.5 54.5)">9</text><text transform="translate(48.5 61.5)">10</text><text transform="translate(38.5 72.88)">11</text><text transform="translate(56.5 69.5)">12</text><text transform="translate(54.5 79.23)">13</text></g></svg>