<svg xmlns="http://www.w3.org/2000/svg" width="109" height="109"><g style="fill:none;stroke:#000;stroke-width:3;stroke-linecap:round;stroke-linejoin:round"><path d="M51.81 11.63c.76.38 2.36 2.88 2.51 3.65s.08 3.65-.07 8.46m-34.62 3.04c1.76.49 4.98.57 6.73.49 18.28-.83 43.15-4.58 60.87-5.23 2.92-.11 4.68.24 6.15.48M24.5 27.5c.04 1.45.09 3.75-.09 5.83-1.04 12.3-1.91 41.92-14.6 55.38M43.19 32.5c.15.33.21.76.14 1.03-.51 2.03-2.09 5.83-3.8 8.14m-6.82.68c.54.4 1.06 1.91 1.13 2.52.23 1.81.63 12.61.96 17.59m-.77-18.53c1.79-.08 19.64-2.29 21.26-2.42 1.03-.08 1.45.86 1.45 1.83 0 1.66-1.09 13.39-1.94 18.77"/><path d="M35.19 52.05c3.74-.23 18.18-1.8 20.91-1.8M35 61.27c4.48-.25 15.1-1.69 19.88-1.81m-1.62 8.77c.13.83-.19 1.69-.53 2.03-2.19 2.21-9.01 6.74-16.34 9.73"/><path d="M33.61 68.07c.48.75.51 1.24.67 2.24s-.06 12.37-.06 15.48c0 8.01 6.38 6.75 11.82 6.75 8.97 0 11.09-2.54 11.09-9.41m10.09-50.54c.24.6.97 2.91.95 3.79-.17 9.09-1.96 19.57-7.21 23.39m7.73-25.57c2.81-.2 9.17-1.14 10.37-1.6 1.79-.69 3.19 1.45 3.01 2.97-.36 2.97-2.04 7.99-2.04 10.96 0 4.11.9 7.08 6.81 7.08 6.99 0 6.81-.46 6.81-8.9M64.11 65.08c1.08.27 1.21.68 3.36.27s16.54-3.72 18.02-4.12c1.48-.41 2.68 1.57 2.02 2.98C80.7 78.71 72.91 88.93 60 95.67"/><path d="M66.93 70.53c2.71.54 15.95 15.1 25.39 21.06 1.47.93 2.54 1.55 3.91 1.86"/></g><g style="font-size:8;fill:gray"><text transform="translate(44.85 11.85)">1</text><text transform="translate(23.66 23.85)">2</text><text transform="translate(16.71 36.35)">3</text><text transform="translate(35.5 33.5)">4</text><text transform="translate(27.5 50.5)">5</text><text transform="translate(33.5 40.5)">6</text><text transform="translate(39.5 49.5)">7</text><text transform="translate(39.75 58.6)">8</text><text transform="translate(45.5 68.5)">9</text><text transform="translate(23.75 76.45)">10</text><text transform="translate(57.5 36.5)">11</text><text transform="translate(68.5 31.5)">12</text><text transform="translate(66.5 62.5)">13</text><text transform="translate(60.5 78.5)">14</text></g></svg>