<svg xmlns="http://www.w3.org/2000/svg" width="109" height="109"><g style="fill:none;stroke:#000;stroke-width:3;stroke-linecap:round;stroke-linejoin:round"><path d="M55.31 12.63c.97.97 1.51 2.24 1.51 3.65 0 .79-.07 3.09-.07 6.46m-32.37 2.74c3.07.59 6.39.6 9.49.33 16.25-1.43 32.51-3.15 46.88-4.03q4.83-.6 9.63.3m-64.39 4.17c1.07 1.07 1.23 2.99 1.15 5.21-.89 24.91-4.51 43.91-17.58 58.5m38.65-59.71c1.02 1.02 1.12 2.12 1.12 2.99 0 2.93-.09 3.51-.09 5.3M32.3 40.57c1.95.58 3.94.7 5.96.37 5.6-.57 14.83-1.67 20.86-2.18q2.7-.015 5.4.06m-26.81 8.96c.75.75 1.09 1.6 1.26 2.48.44 2.29.67 3.46.92 4.63.19.93.4 1.86.72 3.34m-1.72-9.81c5.09-.7 13.87-2.12 17.75-2.57 1.82-.21 2.72.81 2.3 2.55-.43 1.83-1.07 3.86-1.61 5.56m-15.95 3.16c2.56-.22 8.58-1.15 13.25-1.72 1.55-.19 2.95-.34 4.02-.41M35.67 65.15c2.08.6 3.41.39 5.71.14 5.06-.76 13.86-2.17 16.76-2.62 1.25-.19 1.92.86.66 1.8-1.52 1.14-6.54 4.23-10.95 7.71m.22.23c3.21 2.95 7.59 12.65 3.57 21.29-2.38 5.11-5.64 1.05-7.67-1.07"/><path d="M30.88 83.09c.64 1.12 2.8.59 3.89.18 6.41-2.4 16.43-5.75 26.07-9.25m7.51-40.62c1.75.75 4.02.73 5.24.52 4.73-.84 7.54-1.16 12.86-2.31 2.81-.61 3.92 1.82 2.71 3.99s-7.35 12.19-9.47 15.29m-.64-.02c17.7 10.38 13.28 44.76 1.92 31.27"/><path d="M70.1 34.15c1.07 1.07 1.49 2.23 1.49 3.65 0 2.96-.1 35.19-.15 51.95-.01 4.46-.02 7.83-.02 9.25"/></g><g style="font-size:8;fill:gray"><text transform="translate(46.5 12.5)">1</text><text transform="translate(24.5 22.5)">2</text><text transform="translate(19.71 33.5)">3</text><text transform="translate(39.75 33.5)">4</text><text transform="translate(31.5 37.5)">5</text><text transform="translate(31.5 53.75)">6</text><text transform="translate(39.5 47.68)">7</text><text transform="translate(44.75 54.5)">8</text><text transform="translate(28.5 65.5)">9</text><text transform="translate(37.5 75.5)">10</text><text transform="translate(25.75 79.5)">11</text><text transform="translate(70.5 30.5)">12</text><text transform="translate(74.5 60.23)">13</text><text transform="translate(61.75 47.15)">14</text></g></svg>