<svg xmlns="http://www.w3.org/2000/svg" width="109" height="109"><g style="fill:none;stroke:#000;stroke-width:3;stroke-linecap:round;stroke-linejoin:round"><path d="M49.3 10.13c2.04.72 6.37 5.37 6.78 6.8m-36.95 8.22c1.65.61 4.67.71 6.32.61 17.16-1.02 40.52-5.67 57.15-6.47 2.75-.13 4.4.29 5.77.6M24.49 26c.05 1.55-.01 1.49-.1 3.71-.64 15.04-.14 41.04-13.83 61m34.29-60.84c.06.27.83 1.39.89 3.08.29 8.11.17 16.52.17 19.28M31.14 37.08c2.41 1.98 6.23 8.12 6.83 11.19m21.78-15.8c.02.35.04.91-.04 1.42-.5 2.99-3.37 9.56-7.3 13.57m-20.39 5.33c.48.67.85 2.25.88 3.49.17 5.45-.04 32.17.05 40.22m.46-42.47c7.84-.53 17.57-1.64 23.93-2.64 1.37-.22 2.09 1.03 2.1 2.52.06 9.84-.38 25.84-.38 37.18 0 6.31-2.06 4.92-4.57 1.17"/><path d="M39.98 62.77c.11.19.23.34.26.59.3 2.19 1.26 14.85 1.56 18.08m-1.16-17.38c1.94-.46 6.67-1.36 8.48-1.59 1.64-.21 1.89 1.04 1.79 3.2-.1 2.23-.58 3.8-1.3 11.91m-7.59 2.87c2.51-.64 6.93-1.11 8.92-1.54m24.65-50.27c.03.66.18 1.74-.06 2.64-1.48 5.8-5.5 18.96-10.63 26.99m8.85-12.41c.02-.19 1.07.54 1.45.48 3.94-.55 10.69-2.53 16.71-3.42.68-.1 1.09-.02 1.27.09m-8.2 5.87c.35 1.16.55 1.99.18 4.12-3.36 19.31-11 36.56-22.04 43.26"/><path d="M68.15 60.39c2.35 1.36 16.97 25.15 24.53 31.22 1.45 1.17 2.38 1.36 3.57 1.48"/></g><g style="font-size:8;fill:gray"><text transform="translate(44.5 11.5)">1</text><text transform="translate(20.5 22.5)">2</text><text transform="translate(16.5 35.5)">3</text><text transform="translate(36.5 32.5)">4</text><text transform="translate(29.5 34.5)">5</text><text transform="translate(52.25 31.5)">6</text><text transform="translate(26.5 61.18)">7</text><text transform="translate(30.5 50.1)">8</text><text transform="translate(35.25 71.5)">9</text><text transform="translate(39.5 61.5)">10</text><text transform="translate(42.5 76.5)">11</text><text transform="translate(64.5 29.5)">12</text><text transform="translate(76.5 42.5)">13</text><text transform="translate(74.5 53.65)">14</text><text transform="translate(71.5 62.58)">15</text></g></svg>