<svg xmlns="http://www.w3.org/2000/svg" width="109" height="109"><g style="fill:none;stroke:#000;stroke-width:3;stroke-linecap:round;stroke-linejoin:round"><path d="M50.3 10.13c2.04.88 6.37 6.55 6.78 8.3M20.13 25.8c1.64.47 4.66.55 6.3.47 17.1-.79 40.37-4.37 56.95-4.99 2.74-.1 4.38.23 5.75.46M25 26.5c.04 1.56-.08 4.02-.08 6.26 0 17.74-3.04 45.23-13.11 59.46m16.63-56.93c.8.32 2.27.39 3.08.32 4.24-.36 12.74-2.36 17.61-2.85 1.33-.13 2.14.15 2.81.31m-18.52 5.1c.26.9 1.05 1.77 1.05 2.82s-.13 35.22-.13 39m.52-30.32c1.82-.16 3.63-.37 5.45-.55l1.77-.18M34.6 63.13c1.85-.3 3.68-.67 5.53-1 .56-.1 1.12-.2 1.69-.29"/><path d="M26.93 82.05c.19.8 1.88.74 2.55.4 2.69-1.34 13.31-6.2 17.44-8.34"/><path d="M45.82 36.22c.82.95.9 1.11.9 2.16s.13 51.01.13 59.62m7.87-59.15c.76.29 2.16.35 2.92.29 8.34-.67 23.34-3.21 30.03-3.32 1.27-.02 2.04.14 2.67.28"/><path d="M70.12 29.63c.36.3 1.11 2.26 1.18 2.86s-.72 12.14-1.74 16.68m-14.05.94c.17.29 1.46 2.95 1.54 3.32 1.02 4.8 1.3 7.42 2.64 14.07m-2.77-15.83c3.7-1.13 26.73-4.11 30.5-4.52.72-.08 2.57 1.03 2.21 2.61-1.12 5.06-1.74 9.29-3.67 14.47"/><path d="M65.95 51.26c.37.12 1.1 1.29 1.3 2.69.62 4.35 1.12 9.22 1.2 10.81m8.82-15.91c.52.52 1.18 2.21.98 3.36-.77 4.41-.59 6.83-1.11 10.3m-16.5 3.41c2.31-.43 21.61-2.85 25.58-2.96M55.93 80.75c.16 1.71-1.57 9.28-2.83 12.13m7.88-16.27c5.12 11.3 10 18.81 23.76 19.18 7.34.2 7.14-1.58 1.74-6.36M72.5 74.33c1.05 2.01 4.25 7.67 5.45 2.66m8.91-4.36c3.18 1.87 5.56 3.57 8.14 9.35"/></g><g style="font-size:8;fill:gray"><text transform="translate(44.85 10.5)">1</text><text transform="translate(23.66 22.5)">2</text><text transform="translate(17.5 34.5)">3</text><text transform="translate(30.5 33.5)">4</text><text transform="translate(28.5 46.5)">5</text><text transform="translate(38.5 45.5)">6</text><text transform="translate(38.5 59.5)">7</text><text transform="translate(23.75 76.5)">8</text><text transform="translate(49.75 45.03)">9</text><text transform="translate(54.5 35.5)">10</text><text transform="translate(60.5 29.5)">11</text><text transform="translate(48.5 58.5)">12</text><text transform="translate(56.5 47.5)">13</text><text transform="translate(68.75 56.5)">14</text><text transform="translate(79.5 55.5)">15</text><text transform="translate(59.5 62.5)">16</text><text transform="translate(49.5 80.43)">17</text><text transform="translate(61.5 76.35)">18</text><text transform="translate(72.75 73.28)">19</text><text transform="translate(90.75 72.5)">20</text></g></svg>