<svg xmlns="http://www.w3.org/2000/svg" width="109" height="109"><g style="fill:none;stroke:#000;stroke-width:3;stroke-linecap:round;stroke-linejoin:round"><path d="M27.6 16.25c.05.47.24 1.31-.1 1.89-2.36 4.09-9.46 13.94-16.38 18.11m18.24-1.5c.06.69.28 1.92-.11 2.77-2.74 5.98-10.31 17.95-20 26.48m11.47-10.5c.36.25 1.07 1.65 1.15 2.16.07.51 0 37.15-.07 40.34m24.08-80.93c1.26 1.12 2.37 2.68 3.34 5.66m-15.75 7.92c.8.09 2.61.56 3.4.51 5.63-.41 16.17-2.93 24.69-3.2 1.32-.04 1.99.04 2.97.64m-17.07 3.04c.32.35-.27 2.85-.51 3.22-3.36 5.06-5 6.98-9.35 12.27-1.27 1.54-.79 2.99 1.26 2.45 6.89-1.82 11.39-2.82 20.62-5.05"/><path d="M54.73 36.03c2.43 1.93 6.29 7.93 6.9 10.94m-23.65 8.29c.35.56.59 1.12.71 1.68s.17 35 .12 36.25m.58-37.37c1.41-.14 14.39-2.5 15.44-2.65 1.88-.28 2.59 1.81 2.36 2.65-.23.81-.35 23.83-.35 35.14 0 7.8-4.93 1.2-5.4.5"/><path d="M39.39 66.53c2.88-.5 5.8-.84 8.71-1.16.78-.09 1.55-.17 2.3-.25M39.75 77.1c2.65-.3 5.31-.54 7.97-.78.77-.07 1.54-.14 2.31-.2m26.42-59.98c.03.82.17 2.15-.06 3.3-1.67 8.31-5.42 22.39-11.19 32.42m8.91-12.9c.7.17 2 0 2.38-.02 3.92-.27 10.01-2.01 15.99-2.44.67-.05 1.08-.01 1.26.04m-8.76 5.58c.35 1.27.55 2.17.18 4.48-3.37 21-11 39.07-22.14 47.89"/><path d="M68.4 55.79C74.26 65 85.04 82.8 92.87 91.52c1.44 1.61 2.97 2.67 4.18 2.84"/></g><g style="font-size:8;fill:gray"><text transform="translate(20.25 16.63)">1</text><text transform="translate(21.75 35.5)">2</text><text transform="translate(14.5 67.5)">3</text><text transform="translate(39.5 15.5)">4</text><text transform="translate(31.5 25.55)">5</text><text transform="translate(37.5 36.5)">6</text><text transform="translate(49.5 39.5)">7</text><text transform="translate(31.5 63.13)">8</text><text transform="translate(40.5 53.5)">9</text><text transform="translate(42.5 62.5)">10</text><text transform="translate(42.76 73.48)">11</text><text transform="translate(64.5 16.5)">12</text><text transform="translate(76.5 34.55)">13</text><text transform="translate(74.5 46.5)">14</text><text transform="translate(70.5 56.5)">15</text></g></svg>