<svg xmlns="http://www.w3.org/2000/svg" width="109" height="109"><path d="M17.22 36.75c0 6.61-3.72 16.36-4.69 18.25m19.74-22.67c2.57 2.49 6.65 10.25 7.29 14.13M23.87 13.75c1.09.5 1.74 2.25 1.96 3.25s0 74.75-.22 81m58.15-86c.08.4.35 1.17-.17 1.6-7.16 5.86-16.3 10.3-31.4 15.34m-3.91-.61c.65 1.95.64 3.81.64 5.93 0 20.99-1.68 43.36-9.37 56.75m12.04-47.16c.54.2 2.64.11 4.09.12 8.83.03 25.74-3.59 34.72-4.21 1.44-.1 3.94-.2 4.84 0m-24.06 5.72c.94.63 1.5 2.84 1.69 4.1s0 40.54-.19 48.42" style="fill:none;stroke:#000;stroke-width:3;stroke-linecap:round;stroke-linejoin:round"/><g style="font-size:8;fill:gray"><text transform="translate(11.5 35.63)">1</text><text transform="translate(30.5 29.5)">2</text><text transform="translate(15.25 13.48)">3</text><text transform="translate(74.5 12.5)">4</text><text transform="translate(39.5 34.5)">5</text><text transform="translate(53.5 40.5)">6</text><text transform="translate(64.5 53.5)">7</text></g></svg>