<svg xmlns="http://www.w3.org/2000/svg" width="109" height="109"><g style="fill:none;stroke:#000;stroke-width:3;stroke-linecap:round;stroke-linejoin:round"><path d="M18.47 36.75c.03 4.5-2.07 14.75-3.94 18.25m18.49-23.92c2.31 2.63 5.97 10.8 6.54 14.88M24.87 13.75c1.09.5 1.74 2.25 1.96 3.25s0 73.75-.22 80m23.2-74.71c.52 1.27 1.04 1.91 1.04 3.6 0 1.7-.17 50.05 0 51.75m.86-53.42c2.92-.21 25.15-2.71 27.81-2.97 2.22-.21 3.64 2.35 3.47 3.6-.35 2.54-.68 49.67-.68 50.95"/><path d="M51.2 47.81c5.08 0 10.21-.66 15.27-1.06 1.67-.13 3.34-.26 4.95-.39M51.19 75.38c9.04-.97 22.61-1.9 31.11-2.34m-45 19.02c1.43.45 4.04.47 5.46.45 12.59-.22 33.97-2.45 48.69-2.44 2.38 0 3.8.21 4.99.43"/></g><g style="font-size:8;fill:gray"><text transform="translate(12.5 33.5)">1</text><text transform="translate(31.5 27.5)">2</text><text transform="translate(15.5 14.5)">3</text><text transform="translate(43.5 30.5)">4</text><text transform="translate(52.5 20.5)">5</text><text transform="translate(55.5 44.5)">6</text><text transform="translate(55.5 71.5)">7</text><text transform="translate(35.5 88.5)">8</text></g></svg>