<svg xmlns="http://www.w3.org/2000/svg" width="109" height="109"><path d="M15.12 36.5c0 6.34-3.27 15.69-4.12 17.5m18.75-21.5c2.49 1.85 6.44 7.59 7.06 10.47M23.12 16c.94.94 1.21 2.25 1.21 3.75 0 2.5.02 49.3.03 68.88v7.88M61.82 13c.08 1.01-.08 2.68-.66 4.07C56.75 27.62 47.38 42.75 35 54.85m27.14-37.31c5.11 5.46 17.12 19.01 24.8 26.64 2.3 2.28 4.81 4.19 7.81 5.94m-38.09-9.54c4.2 2.18 10.85 8.98 11.9 12.38m-27.67 8.91c2.24 1.55 5.11 1.12 7.61.77 6.71-.94 25.48-3.49 32.01-4.4 4.28-.59 5.76 1.05 2.2 4.86-6.34 6.78-14.09 15.03-18.29 19.73m-13.79-7.68c5.21 2.69 18.68 13.3 21.13 20.35" style="fill:none;stroke:#000;stroke-width:3;stroke-linecap:round;stroke-linejoin:round"/><g style="font-size:8;fill:gray"><text transform="translate(9.25 36.25)">1</text><text transform="translate(30.25 30.25)">2</text><text transform="translate(13 16.23)">3</text><text transform="translate(53.25 14.25)">4</text><text transform="translate(70.25 22.08)">5</text><text transform="translate(59.25 39)">6</text><text transform="translate(41.25 59.25)">7</text><text transform="translate(42.25 76.25)">8</text></g></svg>