<svg xmlns="http://www.w3.org/2000/svg" width="109" height="109"><path d="M51.24 9.25c.01 1.62-.47 2.77-1.62 4C44.5 18.75 38 24.5 29.47 31.33c-2.97 2.38-2.58 3.89 1.24 3.09 8.24-1.72 29.07-5.74 42.67-7.92m-6.68-8.31c4.65 2.84 12.01 11.7 13.17 16.12m-48.76 8.36c.88.54 1.39 1.56 1.63 2.54C34 50.5 35.2 55.92 36.25 61.7c.23 1.26.44 2.46.62 3.55m-3.5-21.02c13.56-1.4 28.03-2.7 36.37-3.46 3.24-.3 5.13.61 4.51 4.01-.85 4.59-1.37 6.85-2.9 13.76m-33.68 4.07C49.5 61.5 56.38 60.75 69 59.8c1.45-.11 2.93-.09 4.44-.09M25.89 78.57c-.89 5.93-4.34 11.92-7.81 15.67m20.5-18.49C46 88.5 53.5 97.79 77.28 97.93c11.47.07 12.22-3.15 2.65-8.52M55.91 74.25c3.84 5.5 7.34 6.88 7.63 2.46m21.34-5.48c4.04 2.82 8.49 8.14 11.1 14.61" style="fill:none;stroke:#000;stroke-width:3;stroke-linecap:round;stroke-linejoin:round"/><g style="font-size:8;fill:gray"><text transform="translate(44.25 8.5)">1</text><text transform="translate(59.25 18.13)">2</text><text transform="translate(24.75 50.5)">3</text><text transform="translate(36.75 41.5)">4</text><text transform="translate(40.5 59.5)">5</text><text transform="translate(20.5 76.63)">6</text><text transform="translate(32.25 75.5)">7</text><text transform="translate(48.5 75.5)">8</text><text transform="translate(76.5 72.5)">9</text></g></svg>