<svg xmlns="http://www.w3.org/2000/svg" width="109" height="109"><path d="M52.28 12.06c1.27 1.27 1.34 2.69 1.34 4.62 0 1.44-.12 3.9-.12 6.19m-33.95 2.69c2.95.69 5.65.67 8.7.41 11.44-.97 36.68-3.01 50-3.51 2.94-.11 6.19-.33 9 .73m-40.9 4.26c.78.93.9 1.92.68 3.06-2.15 11-5.53 23.12-16.84 31.18m31.29-35.81c.82.82.92 1.83.92 3.86 0 11.81.08 22.46.08 25.77 0 8.23-4.82 1-5.83.17M31.76 37.12c.12 1.08-.26 2.02-.87 2.93-2.78 4.12-7.11 9.23-14.08 14.09m56.1-17.53c5.47 2.32 14.14 9.53 15.5 13.14m-64.26 25.4c.28 2.46-2.81 13.31-5.07 17.4m16.75-21.89C43 85.75 53.75 95 78.03 95.18c11.47.09 12.22-3.41 2.65-9.22M55.41 68.75c2.02 4.7 4.72 9.91 6.88 2.71m17.34-6.73c4.72 2.21 8.49 5.64 11.85 10.78" style="fill:none;stroke:#000;stroke-width:3;stroke-linecap:round;stroke-linejoin:round"/><g style="font-size:8;fill:gray"><text transform="translate(44 11.88)">1</text><text transform="translate(12.25 26.25)">2</text><text transform="translate(39.5 35.25)">3</text><text transform="translate(55.25 34.25)">4</text><text transform="translate(24.25 38.25)">5</text><text transform="translate(68.25 34.38)">6</text><text transform="translate(19.25 74.25)">7</text><text transform="translate(31.25 79.25)">8</text><text transform="translate(48.5 71.25)">9</text><text transform="translate(69.5 68.25)">10</text></g></svg>