<svg xmlns="http://www.w3.org/2000/svg" width="109" height="109"><path d="M49.94 11.56c1.96 1.06 4.81 4.19 5.68 7.24M19.8 26.31c1.24.09 4.06.6 5.27.48 9.73-1 45.23-3.7 57.58-3.96 2.04-.04 3.08.04 4.6.61M46.1 27.7c.59.93 1.07 1.66.93 2.81-1.28 10-5.28 23.75-17.09 31.18m31.04-36.06c.66.61 1.17 1.33 1.17 3.36 0 11.81-.17 23.21-.17 26.52 0 8.23-4.82 1-5.83.17M32.01 37.12c.04.4.26 1.07-.08 1.61-2.68 4.17-7.68 10.22-15.12 15.41m56.1-18.03c5.47 2.32 14.14 9.53 15.5 13.14M23.9 75.02c.28 2.55-2.81 13.79-5.07 18.03m17-22.39C43 85.75 53.75 95 78.03 95.18c11.47.09 12.22-3.41 2.65-9.22M55.66 69.5c2.02 4.7 4.97 9.41 7.13 2.21m16.59-7.23c4.72 2.21 8.27 4.21 12.1 11.03" style="fill:none;stroke:#000;stroke-width:3;stroke-linecap:round;stroke-linejoin:round"/><g style="font-size:8;fill:gray"><text transform="translate(44 11.88)">1</text><text transform="translate(12.25 26.25)">2</text><text transform="translate(39.5 35.25)">3</text><text transform="translate(55.25 34.25)">4</text><text transform="translate(24.25 38.25)">5</text><text transform="translate(68.25 34.38)">6</text><text transform="translate(19.25 74.25)">7</text><text transform="translate(31.25 79.25)">8</text><text transform="translate(48.5 71.25)">9</text><text transform="translate(69.5 68.25)">10</text></g></svg>