<svg xmlns="http://www.w3.org/2000/svg" width="109" height="109"><g style="fill:none;stroke:#000;stroke-width:3;stroke-linecap:round;stroke-linejoin:round"><path d="M15.72 33.75c.02 4.38-1.94 14.35-3.69 17.75m17.24-19.17c2.22 2.23 5.74 9.17 6.29 12.63M21.37 12.25c1.09.5 1.74 2.25 1.96 3.25s0 74.75-.22 81m44.31-81.92c.05.5.21 1.35-.1 2.02-2.2 4.78-8.46 13.54-17.15 19.3m-8.69-.95c.75.55 1.25 1.8 1.37 2.51.92 5.6 2.8 38.27 3.43 48.33m-2.59-48.32c9.77-1.16 40.73-3.65 44.27-3.69 3.04-.03 4.54.72 4.38 3.04-.22 3.25-4.92 42.96-6.05 47.34"/><path d="M57.21 37.9c.23.53 1.03 1.47 1.06 2.14.48 10.62.96 35.78 1.5 45.27m13.09-48.43c.02.46 1.03 2.09 1.03 2.87.02 8.8-1.99 33.69-2.17 44.17m-38.84 2.54c1.09.38 3.08.44 4.16.38 11.29-.63 38.25-2.15 59.04-2.25 1.81-.01 2.89.18 3.8.37"/></g><g style="font-size:8;fill:gray"><text transform="translate(10.5 33.5)">1</text><text transform="translate(27.5 29.5)">2</text><text transform="translate(12.5 11.5)">3</text><text transform="translate(59.5 13.5)">4</text><text transform="translate(36.5 52.5)">5</text><text transform="translate(44.5 34.5)">6</text><text transform="translate(51 46.5)">7</text><text transform="translate(66.5 45.5)">8</text><text transform="translate(31.5 82.5)">9</text></g></svg>