<svg xmlns="http://www.w3.org/2000/svg" width="109" height="109"><g style="fill:none;stroke:#000;stroke-width:3;stroke-linecap:round;stroke-linejoin:round"><path d="M16.22 35.25c.02 4.38-1.94 14.35-3.69 17.75m15.49-23.67c2.84 1.96 7.33 8.08 8.04 11.13M23.37 12.25c1.09.5 1.74 2.25 1.96 3.25s0 75.25-.22 81.5m41.38-84.5c.12.38 1.67 1.95 1.67 4.34 0 8.16.09 21.01.09 24.91M55.21 24.6c.03.4.07 1.02-.07 1.59-.86 3.35-6.04 10.63-10.75 14.33m36.17-16.69c5.5 2.82 12.45 9.61 13.82 13.99m-43.52 4.16q.99 1.41 1.32 2.82c.22.94.31 48.65.22 50.76m.09-50.64c2.64-.23 27.38-2.73 29.34-2.99 3.52-.47 4.39 2.98 4.39 4.46 0 10.12-.16 25.77-.16 44.78 0 11.4-5.93 2.61-7.91.97"/><path d="M52.99 58.41c10.76-.91 25.22-1.61 33.13-2.32M52.83 72.77c7.03-.7 24.79-1.85 32.91-2.32"/></g><g style="font-size:8;fill:gray"><text transform="translate(11.5 32.5)">1</text><text transform="translate(29.5 27.06)">2</text><text transform="translate(14.5 11.5)">3</text><text transform="translate(56.5 12.5)">4</text><text transform="translate(46.5 23.5)">5</text><text transform="translate(78.5 21.5)">6</text><text transform="translate(44.5 50.5)">7</text><text transform="translate(55.5 41.5)">8</text><text transform="translate(56.5 54.5)">9</text><text transform="translate(55.5 69.5)">10</text></g></svg>