<svg xmlns="http://www.w3.org/2000/svg" width="109" height="109"><path d="M19.25 40.25c0 6.61-3.37 16.36-4.25 18.25m20.02-25.17c2.4 1.61 6.19 6.63 6.79 9.13M28.62 15c1 1 1.21 2.5 1.21 3.75 0 .87-.08 59.75-.08 69.38 0 3.4.03 5.93 0 6.88m20.31-76.18c2.58 2.14 6.65 8.8 7.3 12.13m20.66-17.32q.135 1.56-.36 3.03c-1.78 3.95-4.66 9.27-8.91 15.05m-20.51 5.86c.62 1 .95 2.1 1.01 3.28.56 3.33 1.3 8.74 1.93 13.62.15 1.19.31 2.34.47 3.43m-1.78-18.92c8.97-1.19 19.43-2.61 27.26-3.4 2.76-.28 4.7.96 4.06 3.92-.88 4.09-2.03 8.29-3.17 13.57m-25.46 3.28c4.79-.31 15.14-1.4 22.96-2.23 1.33-.14 3.59-.26 4.72-.35M60.28 59c.06.78.12 2.02-.11 3.15-1.36 6.63-8.64 22.15-19.86 30.11M69.56 57.6c.86.86 1.2 2.27 1.2 3.6v18.42c0 9.83 1.5 10.67 11.45 10.67 11.17 0 12.05-.63 12.05-8.66" style="fill:none;stroke:#000;stroke-width:3;stroke-linecap:round;stroke-linejoin:round"/><g style="font-size:8;fill:gray"><text transform="translate(13.5 39.5)">1</text><text transform="translate(35.25 30.13)">2</text><text transform="translate(18.75 15.5)">3</text><text transform="translate(44.5 15.5)">4</text><text transform="translate(69.5 12.13)">5</text><text transform="translate(43.5 49.5)">6</text><text transform="translate(50.25 36.5)">7</text><text transform="translate(54.75 53.5)">8</text><text transform="translate(51.5 66.13)">9</text><text transform="translate(60.5 75.5)">10</text></g></svg>