<svg xmlns="http://www.w3.org/2000/svg" width="109" height="109"><g style="fill:none;stroke:#000;stroke-width:3;stroke-linecap:round;stroke-linejoin:round"><path d="M15.22 36c.03 4.31-2.47 14.14-4.69 17.5m19.49-20.42c2.31 2.01 5.97 8.26 6.54 11.38M21.87 14.25c1.09.5 1.74 2.25 1.96 3.25s0 73.75-.22 80m56.73-86.25c.1.27.21.69-.2 1.06-2.41 2.25-14.23 6.65-33.16 9.67m-9.49 8.23c.76.14 2.79.62 4.8.43 9.98-.97 34.1-2.67 47.99-3.39 2.01-.1 2.53-.14 3.79 0"/><path d="M63.6 20.78c.55.27.88 1.21.99 1.75s0 24.61-.11 27.97m-.89-21.34c-5.56 7.92-16.52 19.24-27.43 24.16m28.67-23.8c4.12 2.94 22.95 16.82 27.43 19.71 1.52.98 2.82 1.4 4.33 1.68m-50.5 4.14c1.41.7 2.99 1.07 4.55.87 1.9-.24 27-2.92 28.81-2.92s2.78 1.16.96 2.48C78.6 56.8 67.77 63.4 63.17 65.79m-1.47-.75c5.55 5.71 8.93 16.17 5.29 28.1-2.24 7.36-5.74 4.61-8.59.6"/><path d="M34.95 74.94c1.06.54 3.8.73 5.7.6 6.66-.47 42.98-3.99 51.03-3.51 1.9.11 3.59.18 4.86.73"/></g><g style="font-size:8;fill:gray"><text transform="translate(9.25 35.5)">1</text><text transform="translate(27.5 29.5)">2</text><text transform="translate(13.25 13.5)">3</text><text transform="translate(70.5 8.5)">4</text><text transform="translate(34.5 26.5)">5</text><text transform="translate(56.25 26.5)">6</text><text transform="translate(50.5 37.5)">7</text><text transform="translate(77.5 35.5)">8</text><text transform="translate(50.5 52.5)">9</text><text transform="translate(51.5 68.5)">10</text><text transform="translate(32.5 70.5)">11</text></g></svg>