<svg xmlns="http://www.w3.org/2000/svg" width="109" height="109"><g style="fill:none;stroke:#000;stroke-width:3;stroke-linecap:round;stroke-linejoin:round"><path d="M16.47 36c.03 4.31-2.07 14.14-3.94 17.5m18.49-20.17c1.96 2.32 5.05 9.53 5.54 13.13M22.37 13.75c1.09.5 1.74 2.25 1.96 3.25s0 73.75-.22 80m18.13-79.47c.71 1.26 1.19 3.29.95 5.57s.24 69.35.24 73.15m-.2-76.69c6.89-1.01 43.61-5.06 44.99-5.06 1.99 0 3.26.76 3.26 3.04 0 4.81-.18 64.4-.18 70.23 0 15.74-6.62 4.51-8.48 2.1"/><path d="M55.19 24.67c2.04 1.66 5.26 6.85 5.77 9.44m17.86-13.14c.02.35.13.93-.04 1.42-1.28 3.61-3.21 9.54-6.96 13.55m-22 4.25c1.55.26 3.28.36 4.32.26 8.14-.83 19.22-3.16 27.85-3.85 1.47-.12 2.71.34 3.62.3m-20.28 4.65c.59.42 1.49 2.3 1.49 3.13 0 3.05-.12 6.95-.01 9.53"/><path d="M49.25 56.02c.81.1 2.63.61 3.42.54C59.25 56 74 53 82.61 52.02c1.32-.15 2 .05 2.99.69M55.9 58.3c.44.49.66 1.9.66 2.58v8.74c0 2.55.28 5.41 5.19 5.78 5.32.4 14.19-.08 15.39-.13 2.09-.09 3.86-.36 4.93-.67"/></g><g style="font-size:8;fill:gray"><text transform="translate(11.5 35.5)">1</text><text transform="translate(29.5 30.5)">2</text><text transform="translate(13.5 13.5)">3</text><text transform="translate(34.5 22.5)">4</text><text transform="translate(45.25 15.95)">5</text><text transform="translate(48.5 27.5)">6</text><text transform="translate(71.5 25.55)">7</text><text transform="translate(47.75 36.47)">8</text><text transform="translate(58.5 47.5)">9</text><text transform="translate(47.5 52.5)">10</text><text transform="translate(47.5 65.5)">11</text></g></svg>