<svg xmlns="http://www.w3.org/2000/svg" width="109" height="109"><path d="M32.85 12.5c.05.39.23 1.08-.09 1.55-2.26 3.35-8.19 9.17-16.48 14.84m23.33-3.49c.07.52.23 1.43-.13 2.1-2.88 5.42-11.46 12.76-23.21 20.11m12.91-7.39c.25.18.86 1.59.91 1.96s0 20.52-.05 22.82m16.91-51.43c2.94 1.08 7.6 4.42 8.34 6.1m-8.37 10.75c2.91 1.06 7.52 4.37 8.25 6.03M44.3 58.28c1.68.85 3.7.89 4.75-.17 3.08-3.07 6.15-6.83 8.95-10.75m6.89-30.29c.61.3 3.23.82 3.83.71 4.73-.83 15.09-3.01 17.92-2.88 1.02.05 1.63.14 2.14.29M61.86 30.91c1.39.34 2.87.7 4.06.67C69.5 31.5 87 29 92.69 28.6c1.98-.14 3.17.08 4.16.17m-18.11 3.72c.51.51 1.42 1.3 1.48 3.49.32 10.52-.2 18.96-.2 22.54 0 5.81-5.65-.36-6.82-1.27M26.31 81.38c.46 2.25-4.61 12.17-8.31 15.92m17.5-23.48c6.51 12.99 16.81 24.27 41.93 24.43 12.12.08 12.91-3.47 2.8-9.38m-23.9-16.55c2.17 5.25 5.82 9.5 8.13 1.46M81.8 70.3c5.21 2.07 9.12 3.96 13.35 10.36" style="fill:none;stroke:#000;stroke-width:3;stroke-linecap:round;stroke-linejoin:round"/><g style="font-size:8;fill:gray"><text transform="translate(25.5 12.5)">1</text><text transform="translate(31.5 26.5)">2</text><text transform="translate(23.5 52.5)">3</text><text transform="translate(41.5 10.5)">4</text><text transform="translate(45.5 27.5)">5</text><text transform="translate(37.5 61.5)">6</text><text transform="translate(63.5 13.5)">7</text><text transform="translate(60.5 27.5)">8</text><text transform="translate(72.5 41.5)">9</text><text transform="translate(17.5 78.95)">10</text><text transform="translate(29.5 85.5)">11</text><text transform="translate(45.5 75.5)">12</text><text transform="translate(70.5 74.5)">13</text></g></svg>