<svg xmlns="http://www.w3.org/2000/svg" width="109" height="109"><g style="fill:none;stroke:#000;stroke-width:3;stroke-linecap:round;stroke-linejoin:round"><path d="M14.97 36.25C15 40.63 12.9 50.6 11.03 54m14.24-20.67c2.22 2.23 5.74 9.17 6.29 12.63M20.87 14.75c1.09.5 1.74 2.25 1.96 3.25s0 73.75-.22 80m35.3-81.75c.05.35.11.91-.11 1.42-1.3 2.99-8.76 9.54-18.96 13.55m-2.1 12.54c.25.17.9.44 1.56.5 1.81.17 17.01-2.51 21.53-3.35.66-.12.82-.17 1.23 0"/><path d="M49.58 28.46c.26.43 1.15 1.92 1.2 2.77s-.05 58.43-.05 58.77c0 10-4.23 2.75-5.98 1"/><path d="M50.55 43.81C46.37 54.59 39.38 67.9 29.91 76.72m23.52-24.14c3.26 2.82 6.03 8.47 7.79 12.1m2.93-30.79c1.58 3.31 3.88 12.69 4.31 16M91.23 31.8c.6.75.27 2.75-.28 3.91s-6.52 9.79-9.24 12.51"/><path d="M76.29 17.3c.78.75 1.18 2.79 1.2 4.04.32 32.31-3.4 60.42-19.75 73.05"/><path d="M75.97 54.9c5.4 15.4 12.95 28.49 17.56 34.47 1.34 1.74 1.56 1.65 2.6 2.12"/></g><g style="font-size:8;fill:gray"><text transform="translate(9.5 34.5)">1</text><text transform="translate(27.5 31.05)">2</text><text transform="translate(11.5 14.98)">3</text><text transform="translate(50.25 15.5)">4</text><text transform="translate(35.5 40.5)">5</text><text transform="translate(43.5 36.25)">6</text><text transform="translate(39.25 54.5)">7</text><text transform="translate(54.5 51.5)">8</text><text transform="translate(60.5 30.28)">9</text><text transform="translate(84.5 28.45)">10</text><text transform="translate(65.75 14.5)">11</text><text transform="translate(80.5 62.5)">12</text></g></svg>