<svg xmlns="http://www.w3.org/2000/svg" width="109" height="109"><g style="fill:none;stroke:#000;stroke-width:3;stroke-linecap:round;stroke-linejoin:round"><path d="M16 35.5c0 6.61-2.97 16.36-3.75 18.25m15.52-23.67c3.01 1.61 7.79 6.63 8.54 9.13M22.62 13.5c1.09.5 1.74 2.25 1.96 3.25s0 73.25-.22 79.5M60.95 12.5c.07.8.26 2.11-.14 3.2-2.37 6.58-10.53 21.65-23.56 30.65m24.09-30.7c4.54 5 24.08 21.32 29.08 24.98 1.7 1.24 3.88 1.77 5.57 2.13m-44.93-1.71c.53.24 1.5.3 2.03.24 4.91-.54 17.67-2.79 21.5-2.93.88-.03 1.41.12 1.85.24M42.56 52.48c.55.93.92 1.87 1.1 2.8s.26 35.99.18 38.08m.93-39.5c1.23-.13 11.93-2.38 12.84-2.52 1.64-.27 2.25 1.73 2.05 2.52-.2.77-.31 24.75-.31 35.51 0 9.53-4.32 2.46-5.34 1.26"/><path d="M44.53 64.54c2.47-.34 3.93-.69 6.4-1.04.68-.09 1.37-.19 2.04-.28m-8.64 11.81c2.38-.15 4.75-.41 7.12-.65.63-.06 1.27-.13 1.91-.19m18.62-21.23c.7.58 1.19 1.26 1.25 3.18.29 9.22-.02 20.7-.02 23.84m12.51-31.85c.7.58 1.19 1.26 1.25 3.18.29 9.21-.18 36.3-.18 39.44 0 7.75-5.13.95-6.2.16"/></g><g style="font-size:8;fill:gray"><text transform="translate(10.25 35.25)">1</text><text transform="translate(29.25 28.38)">2</text><text transform="translate(13.25 14.25)">3</text><text transform="translate(53.25 14.25)">4</text><text transform="translate(69.25 20.25)">5</text><text transform="translate(54.5 38.25)">6</text><text transform="translate(36.5 60.25)">7</text><text transform="translate(45.5 50.88)">8</text><text transform="translate(47.25 62.25)">9</text><text transform="translate(47.25 72.25)">10</text><text transform="translate(63.5 50.25)">11</text><text transform="translate(74.25 49.25)">12</text></g></svg>