<svg xmlns="http://www.w3.org/2000/svg" width="109" height="109"><g style="fill:none;stroke:#000;stroke-width:3;stroke-linecap:round;stroke-linejoin:round"><path d="M59.38 8.75c-.21.82-.79 1.64-1.47 2.17-3.13 2.42-12.8 6.29-23.36 8.97m-2.43 3.49c3.07 1.58 7.54 5.46 8.31 7.92m7.74-8.99c2.68 1.28 6.93 5.28 7.6 7.28m20.09-11.22c.12.96-.09 1.34-.68 2.14-2.05 2.78-6.53 6.83-12.91 10.99m-44.28 6.74c-.1 3.62-1.86 11.86-2.72 14.08m3.09-12.64c18.14-1.93 48.77-6.31 68.68-7.1 13.73-.55 3.22 6.92-.68 9.26m-56.83 5.05c.19 1.49-1.93 8.08-3.47 10.57m13.72-12.33c6.35 9.25 13.6 13 34.98 12.1 5.32-.22 5.31-2.72 2.4-4.63m-24.03-9.85c1.49 3 4.72 5.55 5.58 3.13"/><path d="M72.97 40.61c3.28 2.14 5.4 3.51 8.03 7.55M41.78 60.53c.11 1.11-.05 2.08-.47 3.12-1.89 4.68-8.45 13.22-17.19 18.6m18.46-14.32c.4.03 2.1.04 3.24-.08 5.8-.6 12.43-2.1 18.93-3.6 3.61-.83 5.25 1 3.25 4.25-4.94 8.02-25.58 27.16-48.5 31.22"/><path d="M39.1 73.3c8.4 1.32 25.91 14.1 36.4 19.82C78.94 95 82.46 96.47 86.38 97"/></g><g style="font-size:8;fill:gray"><text transform="translate(50.5 8.5)">1</text><text transform="translate(26.5 29.5)">2</text><text transform="translate(42.75 28.5)">3</text><text transform="translate(67.5 19.63)">4</text><text transform="translate(11.25 43.5)">5</text><text transform="translate(20.5 36.13)">6</text><text transform="translate(23.25 49.5)">7</text><text transform="translate(33.49 49.5)">8</text><text transform="translate(46.5 46.5)">9</text><text transform="translate(62.5 44.5)">10</text><text transform="translate(30.5 65.5)">11</text><text transform="translate(45.75 64.63)">12</text><text transform="translate(36.94 82.5)">13</text></g></svg>