<svg xmlns="http://www.w3.org/2000/svg" width="109" height="109"><path d="M16.47 36.25c.03 4.13-2.07 13.54-3.94 16.75m19.24-20.17c1.87 1.96 4.83 8.08 5.29 11.13M22.37 13.25c1.09.5 1.74 2.25 1.96 3.25s0 74.75-.22 81m17.81-82.05c.27.32.92 1.54 1.04 1.94.94 3.17 2.74 9.41 3.38 15.1M43.61 17.6c7.67-1.85 15.44-3.22 16.77-3.4 1.16-.15 1.86.9 1.7 1.8-.69 3.7-1.49 8.17-2.52 13.29m-12.49 1.44c3.74-.47 9.49-.78 14.62-1.51m7.73-14.16c.32.32.64.59.78.99 1.09 3.17 1.7 8.33 2.45 14.03m-1.93-13.9c7.58-1.73 14.12-2.53 17.83-2.94 1.35-.15 2.17.9 1.97 1.8-.8 3.7-1.62 6.22-2.81 11.34m-14.92 2.46c4.35-.47 10.73-.78 16.7-1.51M49.54 40.07c.79.42 2.25.42 3.05.42 7.16.01 23.66-1.99 28.86-2.14 1.33-.04 2.12.2 2.79.41M39.83 52.95c1.41.4 4 .49 5.4.4 14.09-.92 30.35-2.79 45.84-3.34 2.34-.08 3.76.19 4.93.39m-36.64 2.76c1 1.43 1.46 2.34.68 3.85-.62 1.21-4.73 8.84-5.13 9.43-1.6 2.36-.54 2.97 1.57 2.99 1.33.02 21.7-3.26 25.1-3.91 2.65-.51 4.08.71 3.79 3.28-.79 7.11-4.87 18.2-11.71 25.81-3.72 4.13-7.62-1.21-8.5-2.46" style="fill:none;stroke:#000;stroke-width:3;stroke-linecap:round;stroke-linejoin:round"/><g style="font-size:8;fill:gray"><text transform="translate(11.5 34.5)">1</text><text transform="translate(29.5 29.5)">2</text><text transform="translate(13.5 13.5)">3</text><text transform="translate(36.5 23.5)">4</text><text transform="translate(45.5 13.33)">5</text><text transform="translate(49.5 27.5)">6</text><text transform="translate(65.5 23.5)">7</text><text transform="translate(71.5 12.8)">8</text><text transform="translate(75.5 25.72)">9</text><text transform="translate(39.5 41.5)">10</text><text transform="translate(39.5 50.5)">11</text><text transform="translate(46.5 63.5)">12</text></g></svg>