<svg xmlns="http://www.w3.org/2000/svg" width="109" height="109"><g style="fill:none;stroke:#000;stroke-width:3;stroke-linecap:round;stroke-linejoin:round"><path d="M16.72 33.5c.02 4.31-1.94 14.14-3.69 17.5m18.24-21.42c2.4 1.92 6.19 7.9 6.79 10.88M23.37 13.25c1.09.5 1.74 2.25 1.96 3.25s0 75.25-.22 81.5m36.6-86.25c.07.82.35 2.2-.13 3.31-3.33 7.69-10.33 20.69-23.08 31.69m23.39-33c4.2 5.16 22.31 22.02 26.95 25.8 1.57 1.28 3.59 1.83 5.16 2.2m-40.39-4.91c.51 0 2.39-.07 3.48-.19 3.72-.4 8.82-.91 13.3-1.44 1.94-.23 2.51-.39 3.36-.39m-26.5 10.93c1.5.5 3.4.79 4.75.69 8.38-.59 25.55-2.79 26.88-2.93 1.4-.15 2.91.74 2.76 2.5-.25 2.78-2.01 9.87-3.08 18.07"/><path d="M50.45 56.34c2.48-.1 26.03-2.8 28.83-2.91m-30.42 13.7c5.11-.6 25.57-2.13 31.91-2.73"/><path d="M50.12 46.5c.53.72.79 2.78.68 4.33-.72 10.21-2.8 32.42-15.14 41.92m13.55-16.37c.33.35.67.63.81 1.07 1.15 3.43 3.02 12.89 3.8 19.05m-2.55-18.79c7.16-1.21 26.77-3.27 30.64-3.72 1.42-.17 2.27.98 2.06 1.94-.84 4.01-2.82 10.35-4.07 15.89m-25.91 2.67c4.55-.51 21.1-1.39 27.34-2.17"/></g><g style="font-size:8;fill:gray"><text transform="translate(11.5 33.5)">1</text><text transform="translate(30.5 27.5)">2</text><text transform="translate(15.75 13.5)">3</text><text transform="translate(54.5 12.5)">4</text><text transform="translate(68.5 18.5)">5</text><text transform="translate(57.75 33.5)">6</text><text transform="translate(53.5 44.5)">7</text><text transform="translate(55.5 54.85)">8</text><text transform="translate(54.5 63.78)">9</text><text transform="translate(40.5 54.95)">10</text><text transform="translate(43.5 91.5)">11</text><text transform="translate(53.5 74.8)">12</text><text transform="translate(57 90.5)">13</text></g></svg>