<svg xmlns="http://www.w3.org/2000/svg" width="109" height="109"><g style="fill:none;stroke:#000;stroke-width:3;stroke-linecap:round;stroke-linejoin:round"><path d="M14.72 34.5c.02 4.31-1.94 14.14-3.69 17.5m12.99-21.17c2.13 1.79 5.51 7.35 6.04 10.13M19.37 12.25c1.09.5 1.74 2.25 1.96 3.25s0 73.75-.22 80m15.34-67.06c.56.25 1.57.3 2.13.25 7.76-.74 16.3-1.55 24.19-2.19.93-.08 1.48.12 1.95.24M36.35 39.48c.42.51.95 2 1.03 2.68.57 4.93 1.65 14.35 2.45 23.67M38.37 40.8c6.38-.99 20.01-2.94 24.36-3.09 1.8-.06 2.17 1.35 2.09 2.89-.26 5.31-1.71 13.55-3.14 22.25"/><path d="M39.07 52.01c4.81-.26 15.48-2.64 24.7-3.3m-23.5 15.04c5.59-1.02 14.13-2.01 21.41-2.01m-29.2 14.65c.93.6 2.62.56 3.57.6 7.45.27 16.45-1.73 25.5-3.19 1.53-.25 2.97-.13 3.75.17"/><path d="M49.22 13.63c.51.56 1.71 3.1 1.71 5.3 0 8.24-.43 70.99-.53 77.97m41.62-82.4c.04.4.19 1.18-.09 1.61-3.86 5.9-8.79 10.37-16.92 15.45m-1.56.14c.98 1.88.96 3.68.96 5.73 0 20.29.1 41.07-13.99 54.86m14.47-46.64c.31.2 1.53.25 2.38.12C82 45 90.21 42.7 95.43 42.08c.84-.1 2.29-.2 2.81 0m-9.89 4.69c.68.63 1.08 2.82 1.22 4.07.13 1.25 0 37.32-.14 45.15"/></g><g style="font-size:8;fill:gray"><text transform="translate(8.5 34.5)">1</text><text transform="translate(25.5 28.5)">2</text><text transform="translate(10.75 12.5)">3</text><text transform="translate(34.5 25.5)">4</text><text transform="translate(31 48.5)">5</text><text transform="translate(40.5 37.25)">6</text><text transform="translate(42 49.68)">7</text><text transform="translate(42.5 61.5)">8</text><text transform="translate(30.5 73.53)">9</text><text transform="translate(37.5 14.5)">10</text><text transform="translate(81.5 14.5)">11</text><text transform="translate(62.75 35.5)">12</text><text transform="translate(78 41.5)">13</text><text transform="translate(78.5 54.5)">14</text></g></svg>