<svg xmlns="http://www.w3.org/2000/svg" width="109" height="109"><g style="fill:none;stroke:#000;stroke-width:3;stroke-linecap:round;stroke-linejoin:round"><path d="M17.41 35.75c0 6.97-5.02 17.26-6.33 19.25m22.19-28.92c2.4 1.39 6.19 5.72 6.79 7.88M24.87 12.25c1.09.5 1.74 2.25 1.96 3.25s0 77.25-.22 83.5m22.14-76.98c.45.13 1.65.48 2.84.39 4.89-.39 23.62-3.61 30.66-3.61 1.2 0 1.5-.13 2.25 0"/><path d="M64.69 9.75c.75.35 1.4 1.54 1.36 2.25-.29 5.25-.5 15.43-.65 19.75m-26.74 7.57c1.03.42 2.22.5 3.25.42 9.44-.77 42.2-5.25 53.08-5.3 1.71-.01 2.74.2 3.59.41"/><path d="M53.98 29.43c.95 1.02 1.33 1.32 1.35 1.95.17 6.37.76 11.37 1.03 13.49m25.42-18.74c.23.83.52 1.45.27 2.48-1.49 6.02-1.66 7.53-3.28 13.2m-26.72 6.91c.49.79 1.2 1.37 1.2 2.42s.23 28.02-.36 32.42m1.18-33.43c2.77-.13 23.85-3.31 26.38-3.47 2.1-.13 3.22.72 3.22 1.71 0 2.4-.62 32.59-.62 33.38"/><path d="M53.3 60.71c5.13-.68 10.25-1.43 15.39-2.11 1.45-.19 2.89-.38 4.28-.55M53.53 70.66c4.69-.35 10.85-1.08 15.51-1.73 1.29-.18 2.6-.36 3.91-.52M53.17 81.5c9.83-1.25 20.58-2.25 29.84-3.08m-22.3 8.05c.5 1.12 1 1.42 0 2.23-3.02 2.45-12.33 8.48-18.37 11.38m33-14.66c6.45 3.8 14.07 10.68 15.83 14"/></g><g style="font-size:8;fill:gray"><text transform="translate(11.5 36.5)">1</text><text transform="translate(30.75 37.63)">2</text><text transform="translate(15.5 12.5)">3</text><text transform="translate(41.5 21.5)">4</text><text transform="translate(56.5 10.5)">5</text><text transform="translate(44.25 36.13)">6</text><text transform="translate(45.75 29.5)">7</text><text transform="translate(73.5 28.63)">8</text><text transform="translate(44.25 57.13)">9</text><text transform="translate(58.5 46.63)">10</text><text transform="translate(57.5 56.5)">11</text><text transform="translate(57.5 66.5)">12</text><text transform="translate(57.5 77.91)">13</text><text transform="translate(44.5 91.5)">14</text><text transform="translate(69.5 93.5)">15</text></g></svg>