<svg xmlns="http://www.w3.org/2000/svg" width="109" height="109"><g style="fill:none;stroke:#000;stroke-width:3;stroke-linecap:round;stroke-linejoin:round"><path d="M16.47 34.5c.03 4.19-2.07 13.74-3.94 17m14.24-19.17c2.22 1.79 5.74 7.35 6.29 10.13M21.87 13.25c1.09.5 1.74 2.25 1.96 3.25s0 73.75-.22 80m29.12-84c.04.6.15 1.72-.08 2.39-2.8 8.41-6.95 16.12-14.25 22.9m7.7-7.03c8.23-.17 34.38-2.97 42.27-3.4 1.83-.1 2.94.13 3.86.26M31.5 51.92c1.43.36 4.07.94 5.5.86 9.25-.53 42.25-3.53 55.23-4.27 2.38-.14 3.82.17 5.02.35m-59.68 22.8c1.34.58 3.8.71 5.14.58 7.66-.79 32.29-2.68 46.79-3.46 2.23-.12 3.57.27 4.69.56"/><path d="M46.3 32.75c.83.5 1.5 2.24 1.49 3.25-.04 3.5-.04 23.25.34 35.5m9.58-39.25c.83.5 1.5 2.23 1.49 3.25-.05 5.5.14 20.5.14 34.75m10.29-39c.83.5 1.55 2.23 1.49 3.25-.44 8-.82 19.5-1.39 35.25m11.71-40c.83.5 1.53 2.26 1.49 4.25-.18 9.5-.18 18-1.3 34.75M43.11 81c0 5.61-5.96 13.9-7.52 15.5M55 79.83c2.09 2.99 4.07 11.23 4.59 15.88m10.78-16.88c2.51 2.71 6.47 11.16 7.1 15.38m7.25-16.13c3.71 2.89 9.59 11.89 10.52 16.38"/></g><g style="font-size:8;fill:gray"><text transform="translate(11.5 35.5)">1</text><text transform="translate(28.5 30.5)">2</text><text transform="translate(13.5 13.5)">3</text><text transform="translate(43.25 12.5)">4</text><text transform="translate(52.5 27.5)">5</text><text transform="translate(32.75 49.5)">6</text><text transform="translate(35.5 66.13)">7</text><text transform="translate(41.5 43.5)">8</text><text transform="translate(52.5 38.5)">9</text><text transform="translate(63.5 37.5)">10</text><text transform="translate(73.5 36.5)">11</text><text transform="translate(33.25 81.5)">12</text><text transform="translate(46.5 81.5)">13</text><text transform="translate(61.5 81.5)">14</text><text transform="translate(76.5 80.5)">15</text></g></svg>