<svg xmlns="http://www.w3.org/2000/svg" width="109" height="109"><g style="fill:none;stroke:#000;stroke-width:3;stroke-linecap:round;stroke-linejoin:round"><path d="M16.25 40.25c0 6.61-2.72 16.11-3.5 18m17.02-23.17c2.49 1.66 6.42 6.81 7.04 9.38M24.62 15.75c.88.88 1.21 2.12 1.21 3.5 0 .74.02 50.87.03 69.88v6.88m14.52-72.27c2.36.84 5.24.35 7.64.03 12.08-1.6 23.73-3.02 32.98-3.98 2.11-.22 4.31-.16 6.38.28"/><path d="M62.15 11.63c.86.86 1.22 2.49 1.09 4.2-.31 4.19-.49 7.05-1.24 15.17m-18.25 2.98c.63.63 1.12 1.27 1.31 2.01.59 2.39 1.78 6.04 2.78 9.73.33 1.23.63 2.38.85 3.35m-3.41-14.64c5.26-.91 27.54-3.72 35.13-4.39 3.22-.29 4.34.84 3.82 3.48-.46 2.33-1.28 5.06-2.3 8.29-.47 1.48-.93 2.97-1.31 4.37"/><path d="M56.19 34.1c.73.73.88 1.47 1.01 2.65.34 3.23.88 6.84.99 8.41m10.24-13.25c.83.83 1.12 1.82 1 3.36-.27 3.55-.66 7.13-.85 8.46M49.67 47.2c7.46-1.07 24.58-2.95 30.52-3.46m-18.01 6.01c.97.97 1.21 2.12 1.21 3.61 0 2.79-.02 3.39-.02 4.77m-23.74 3.68c2.5.17 4.62.29 7.13-.01 8.46-1.04 25.07-3.44 35.22-4.27 2.64-.22 5.77-.52 7.92-.06m-30.37 5.49c0 1.04-.58 2.1-1.15 2.76-4 4.66-11.38 11.03-24.63 18.53m20.15-9.86c.98.98 1.11 2.24 1.11 4.05 0 1.6.07 7.38.08 12.81.01 3.46.54 4.01 3.11 1.96 2.65-2.11 8.1-6.49 9.15-7.24m14.88-21.35c0 .75-.64 1.82-1.33 2.53-1.79 1.85-3.62 3.14-8.9 7.1m-8.75-4c1.46.42 16.83 13.4 24.23 18.81 2.14 1.57 3.77 2.57 5.88 3.37"/></g><g style="font-size:8;fill:gray"><text transform="translate(10.5 40.5)">1</text><text transform="translate(31.5 33.13)">2</text><text transform="translate(15.5 16.5)">3</text><text transform="translate(39.5 21.5)">4</text><text transform="translate(53.25 12.5)">5</text><text transform="translate(39.75 43.5)">6</text><text transform="translate(45.5 32.5)">7</text><text transform="translate(60.5 39.5)">8</text><text transform="translate(72.5 39.5)">9</text><text transform="translate(48.75 45.5)">10</text><text transform="translate(52.5 55.5)">11</text><text transform="translate(36.75 58.25)">12</text><text transform="translate(41.25 71.68)">13</text><text transform="translate(44.5 85.5)">14</text><text transform="translate(70.5 67.63)">15</text><text transform="translate(60.75 82.63)">16</text></g></svg>