<svg xmlns="http://www.w3.org/2000/svg" width="109" height="109"><g style="fill:none;stroke:#000;stroke-width:3;stroke-linecap:round;stroke-linejoin:round"><path d="M15.22 37.5c.03 4.19-2.21 13.74-4.19 17m13.49-20.67c2.13 1.96 5.51 8.08 6.04 11.13m-9.69-29.71c1.09.5 1.74 2.25 1.96 3.25s0 73.75-.22 80M45.3 17.18c.23.31.28.94.16 1.56a42.5 42.5 0 0 1-9.13 18.92m8.41-10.41c2.13.89 4.85 3.26 5.89 5.5m10.66-15.14c.24.3.31.91.17 1.5-1.45 6.13-4.2 12.38-9.63 18.23m8.16-10.66c2.45 1.43 5.58 5.25 6.78 8.87m-30.1 8.71c1.25.32 3.55.38 4.81.32 9.79-.44 38.21-3.25 49.51-3.69 2.09-.08 3.34.15 4.39.31m-48.9 4.59c.53.31.84 1.39.95 2.01.1.62.5 36.04.39 39.9m7.77-42.15c.53.31.84 1.39.95 2.01s0 33.98-.11 37.84"/><path d="M31.36 58.46c.51.24 1.44.24 1.95.24 4.15-.01 8.52-1.41 12.3-1.63.85-.05 1.24-.09 1.78-.09m-16.3 12.11c.51.24 1.44.24 1.95.24 4.15-.01 9.16-2.21 12.93-2.44.85-.05 1.24-.08 1.78-.08M31.78 78.73c.51.24 1.44.24 1.95.24 4.15-.01 8.2-2.21 12.24-3.06.83-.17 1.24-.09 1.78-.09m9.01-19.09c.7 0 .65-.01 1.18-.07 3.35-.41 7.78-1.09 10.97-1.47.87-.1 1.4.11 1.84.23M56.62 65.94c.7 0 .65-.01 1.17-.07 3.35-.41 8.06-1.09 11.25-1.47.87-.1 1.4.11 1.84.23M56.76 74.97c.7 0 .65-.01 1.18-.07 3.35-.41 8.61-1.09 11.81-1.47.87-.1 1.4.11 1.84.23M34.65 91.42c.99 1.15 3.37.66 4.15.37 10.96-4.04 17.96-6.29 30.19-11m3.94-68.54c1.13 1.84 1.32 2.35 1.56 6.29 1.98 33.04 6.26 62.21 18.56 76.13 3.94 4.46 3.82.79 3.25-7.34"/><path d="M91.52 49.97c.08 1.04.18 2.68-.17 4.18-2.03 8.8-13.69 29.1-29.65 40.92m21.27-75.98c2.96 2.64 7.68 8.67 9.06 13.19"/></g><g style="font-size:8;fill:gray"><text transform="translate(10.25 37.5)">1</text><text transform="translate(26.5 32.5)">2</text><text transform="translate(12.5 14.48)">3</text><text transform="translate(37.5 17.5)">4</text><text transform="translate(48.5 26.5)">5</text><text transform="translate(53.5 17.25)">6</text><text transform="translate(64.5 28.5)">7</text><text transform="translate(41.75 40.6)">8</text><text transform="translate(40.5 52.5)">9</text><text transform="translate(48.5 52.5)">10</text><text transform="translate(30.5 55.38)">11</text><text transform="translate(30.5 66.5)">12</text><text transform="translate(30.5 76.48)">13</text><text transform="translate(59.5 52.4)">14</text><text transform="translate(59.75 63.5)">15</text><text transform="translate(59.75 72)">16</text><text transform="translate(31.5 88.5)">17</text><text transform="translate(62.5 10.5)">18</text><text transform="translate(80.5 49.5)">19</text><text transform="translate(79.5 16.2)">20</text></g></svg>