<svg xmlns="http://www.w3.org/2000/svg" width="109" height="109"><g style="fill:none;stroke:#000;stroke-width:3;stroke-linecap:round;stroke-linejoin:round"><path d="M17.72 36c.03 4.31-2.47 14.14-4.69 17.5m18.74-21.17c2.22 2.23 5.74 9.17 6.29 12.63M23.87 12.75c1.09.5 1.74 2.25 1.96 3.25s0 75.75-.22 82m16.07-75.7c.99.37 2.14.44 3.13.37 9.08-.67 34.27-3.18 44.74-3.23 1.65-.01 2.63.18 3.46.36"/><path d="M54.14 12.32c.96.9 1.27 1.18 1.38 1.74.96 5.21 1.79 10.57 2.06 12.46m19.93-15.24c.17.76.39 1.33.2 2.26-1.11 5.5-1.12 7.75-2.33 12.92m-33.06 5.59c.29.24.59.44.72.74 1.01 2.38 2.22 8.93 2.92 13.2m-1.82-12.33c5.97-1.24 13.24-2.1 16.66-2.41 1.25-.11 2 .68 1.82 1.35-.74 2.78-1.61 5.62-2.71 9.46M46.09 43.9c4.02-.35 10.73-1.47 16.24-2.01m6.97-11.42c.3.25.62.45.75.76 1.05 2.45 1.32 7.2 2.04 11.61m-.89-10.71c6.23-1.28 12.82-2.19 16.39-2.51 1.31-.12 2.09.7 1.9 1.39-.77 2.87-1.68 4.8-2.83 8.76m-13.42 1.92c4.19-.36 10.47-.99 16.23-1.55m-33.68 5.19c.2 1.17-.05 2.7-.69 3.7-4.02 6.39-9.13 11.79-18.36 19.56m12.77-9.09c.6.59 1.06 1.89 1.1 2.8.35 8.16-.49 32.45-.19 36.7m24.97-51.51c.05.48-.02 1.1-.19 1.51-1.13 2.6-2.57 4.61-5.16 7.78m-19.6 3.39c6.93-.77 39.8-3.01 42.77-3.43m-23.39 4.37c.33.3.6.71.6 1.23 0 5.3.04 22.75-.17 31.09"/><path d="M51.36 71.24c6.54-.64 36.2-2.51 39-2.86M50.64 82.5c6.9-.54 38.69-2.15 41.65-2.45M50.57 94.71c6.93-.77 41.6-1.79 44.58-2.21"/></g><g style="font-size:8;fill:gray"><text transform="translate(12.5 33.5)">1</text><text transform="translate(29.5 29.5)">2</text><text transform="translate(15.5 13.5)">3</text><text transform="translate(34.5 22.5)">4</text><text transform="translate(44.5 13.5)">5</text><text transform="translate(68.5 11.5)">6</text><text transform="translate(37.5 34.5)">7</text><text transform="translate(45.5 30.5)">8</text><text transform="translate(48.5 40.5)">9</text><text transform="translate(63.5 40.45)">10</text><text transform="translate(78.5 28.5)">11</text><text transform="translate(74.5 38.5)">12</text><text transform="translate(40.75 54.5)">13</text><text transform="translate(40.5 73.5)">14</text><text transform="translate(65.5 50.5)">15</text><text transform="translate(55.5 56)">16</text><text transform="translate(73.5 66.5)">17</text><text transform="translate(54.5 67.5)">18</text><text transform="translate(54.5 79.5)">19</text><text transform="translate(54.5 91.5)">20</text></g></svg>