<svg xmlns="http://www.w3.org/2000/svg" width="109" height="109"><g style="fill:none;stroke:#000;stroke-width:3;stroke-linecap:round;stroke-linejoin:round"><path d="M16.27 23.98c2.18 2.71 4.51 7.45 4.82 8.8m8.04-12.36c1.14 1.88 3.88 6.8 4.34 9.85M48.62 17c.34.63.69 1.26.51 2.51-.17 1.26-3.94 7.12-5.14 9.01m-26.14 9.61c.23.43.23.72.36 1.25 1.03 4.37 2.84 16.29 3.49 24.41m-2.79-24.43c8.58-1.47 22.25-2.95 28.15-3.7 2.17-.28 3.48.59 3.42 2.43-.15 4.38-2.89 19.25-3.28 21.08"/><path d="M21.05 49.6c6.26-.86 12.5-1.84 18.75-2.73.75-.11 1.48-.21 2.18-.31m-19.89 14.3c7.47-1.39 17-2.15 25.18-3m-33.6 15.62c.98.45 2.77.64 3.74.45C25 72.5 38 69.75 48.42 68.55c1.62-.19 2.6.22 3.42.45"/><path d="M33.7 39.12c.43.32.7 1.21.71 2.29.03 5.49.13 52.06.14 53.85m20.7-51.39c1.02.38 2.89.53 3.89.38C66.95 43.03 77 39 83.67 37.56c1.64-.35 2.71-.17 3.55.02"/><path d="M63.31 14.5c1.34 1.72 2.04 2.18 2.17 5.89 1 28.22 11.37 62.09 26.91 72.64 5.29 3.59 4.51.74 3.85-6.87"/><path d="M84.24 47.58c.09.9.19 2.33-.18 3.63-2.15 7.66-14.51 25.31-31.41 35.59m26.37-67.31c2.13 1.96 5.53 6.45 6.52 9.82"/></g><g style="font-size:8;fill:gray"><text transform="translate(9 23)">1</text><text transform="translate(22 18)">2</text><text transform="translate(44 14)">3</text><text transform="translate(9.75 49.63)">4</text><text transform="translate(22.99 37.33)">5</text><text transform="translate(24.75 48.13)">6</text><text transform="translate(24.75 58.63)">7</text><text transform="translate(5.25 75.13)">8</text><text transform="translate(38.25 45.13)">9</text><text transform="translate(53.44 39.95)">10</text><text transform="translate(62.25 10.63)">11</text><text transform="translate(87.75 48.13)">12</text><text transform="translate(72.75 17)">13</text></g></svg>