<svg xmlns="http://www.w3.org/2000/svg" width="109" height="109"><g style="fill:none;stroke:#000;stroke-width:3;stroke-linecap:round;stroke-linejoin:round"><path d="M84.131 8.806c-10.61 5.1-40.268 8.093-54.518 9.593m-.673-.266c.05 1.36-.12 3.49-.1 5.45.16 24.62-6.09 55.667-16.59 65.667m17.453-57.87c10.4.87 41.047-2.38 51.797-3.13 2-.14 4 1.75 3.25 4.5-1.33 4.87-2.25 6.5-4 11.25m-52.373 3.25c8.25 0 41.373-2.25 55.873-2.75M32.58 57.71c.56.64.93 1.66.74 2.81s2.19 34.55 2.19 36.47m-1.68-36.5c7.07-.51 48.84-3.88 50.24-4.06 2.98-.38 4.37 2.35 4.34 3.03-.15 3.28-2.7 30.02-3.56 32.83-1.59 5.2-3.59 2.7-6.39-.23"/><path d="M34.9 76.56c8.07-.4 33.85-3.26 51.51-3.52"/><path d="M50.32 62c1.04.27 1.17 1.7 1.38 2.23s0 27.33-.21 30.66m14.62-34.82c1.04.27 1.67 1.2 1.88 1.73s0 27.13-.21 30.46"/></g><g style="font-size:8;fill:gray"><text transform="translate(83.25 17.48)">1</text><text transform="translate(21.87 21.5)">2</text><text transform="translate(33.09 29.25)">3</text><text transform="translate(33.5 43.5)">4</text><text transform="translate(27.5 73.5)">5</text><text transform="translate(36.5 56.5)">6</text><text transform="translate(38.25 73.18)">7</text><text transform="translate(43.5 68.5)">8</text><text transform="translate(59.5 67.03)">9</text></g></svg>