<svg xmlns="http://www.w3.org/2000/svg" width="109" height="109"><g style="fill:none;stroke:#000;stroke-width:3;stroke-linecap:round;stroke-linejoin:round"><path d="M14.25 36.17c2.08.25 1.27.55 3.5.25 4.72-.64 12.75-2.02 20.72-3.14 1.32-.19 2.64-.36 3.95-.53"/><path d="M30.02 12.75c.48.92 1.76 2.49 1.76 5.52 0 15.23.24 57.96.24 69.4 0 14.25-6.32 3.53-7.77 2"/><path d="M12.25 60.93c1.25 1.78 3.83 1.61 6.5-.18 5-3.36 7.5-5.5 18.75-13.58m14.3-33.09c.2.67.96 1.4 1.06 2.18.68 5.47 3.26 23.48 3.35 24.26m-2.67-24.99c5.35-.77 21.76-2.84 28.62-3.36 1.19-.09 1.91 2.11 1.86 2.71-.52 7.36-1.76 15.1-2.66 20.52-.14.87-.57 3.04-.57 3.63"/><path d="M54.61 26.37c4.57 0 9.27-.83 13.81-1.29 1.6-.16 3.2-.32 4.72-.47m-17.1 13.61c4.32-.58 18.91-1.81 24.29-2.3m-37.42 13.9c1.18.33 3.34.38 4.52.33 12.27-.55 32.82-4.53 44.32-4.66 1.96-.02 3.14.16 4.13.32m-41.23 6.84c.04.48.09 1.25-.09 1.94C53.54 58.68 45.59 67.75 39 71m14.82-10.45c.83.46 1.97.45 3.33.31 5.85-.61 29.31-3.44 32.64-3.59s4 1.54 3.5 4.79-6.51 23.66-13.84 32.47c-2.2 2.65-3.44-.44-5.41-2.37"/><path d="M62.18 62.35c.05.43.14 1.13-.1 1.73-2.3 5.99-8.59 14.31-17.65 19.23m31.45-22.17c.08.87.17 2.24-.17 3.48-2 7.33-10.62 20.64-21.56 28.57"/></g><g style="font-size:8;fill:gray"><text transform="translate(7.25 37.25)">1</text><text transform="translate(21.5 13.38)">2</text><text transform="translate(5 67.25)">3</text><text transform="translate(45.25 20.25)">4</text><text transform="translate(56 11.88)">5</text><text transform="translate(59 23.27)">6</text><text transform="translate(60.25 34.25)">7</text><text transform="translate(45.25 47.25)">8</text><text transform="translate(45.25 60.25)">9</text><text transform="translate(58.25 57.27)">10</text><text transform="translate(51.25 70.27)">11</text><text transform="translate(66.25 68.25)">12</text></g></svg>