<svg xmlns="http://www.w3.org/2000/svg" width="109" height="109"><g style="fill:none;stroke:#000;stroke-width:3;stroke-linecap:round;stroke-linejoin:round"><path d="M33.49 14.88c.36.33 1.11 2.44 1.18 3.09s-.05 22.84-.12 26.91m-9.29-20.46c.04.45.08 1.16-.08 1.8-.95 3.79-6.41 12.12-13.88 17.21m31.72-18.66c3.99 2.23 10.3 9.15 11.29 12.61m-36.88 8.99c.38.45 1.19 3.35 1.26 4.25.08.9-.05 37.92-.12 43.52m-.32-46.89c4.64-.45 27.74-3.38 31.2-3.62 1.8-.13 3.3 1.62 3.3 3.66 0 17.82-.15 27.1-.15 41.54 0 7.68-3.6 3.18-5.56.88"/><path d="M34.54 49.48c.09.31 1.24 1.63 1.33 3.62.43 9.55-.27 35.84-.27 39.1m-6.62-33.8c.02.46.03 1.18-.03 1.84-.39 3.87-2.63 12.37-5.7 17.57m19.21-17.65c1.34 2.75 3.46 11.29 3.79 15.56M69.8 15.28c.03.79.17 2.06-.06 3.15-1.71 7.95-5.56 21.41-11.49 31m8.77-12.16c.94.25 2.7 0 3.21-.03 5.28-.4 13.49-2.95 21.55-3.58.91-.07 1.46-.02 1.7.06m-8.23 6c.44 1.29.16 3.37-.39 5.61-5.61 22.91-9.61 36.41-27.07 49.99"/><path d="M63.98 52.32c1.1 0 1.75 1.01 2.62 2.37 5.91 9.27 16.79 27.21 24.68 36 1.45 1.62 3 2.7 4.22 2.86"/></g><g style="font-size:8;fill:gray"><text transform="translate(24.5 14.5)">1</text><text transform="translate(17.5 24.5)">2</text><text transform="translate(40.5 22.5)">3</text><text transform="translate(10.25 53.9)">4</text><text transform="translate(21.5 43.5)">5</text><text transform="translate(28.5 54.5)">6</text><text transform="translate(21.5 58.68)">7</text><text transform="translate(40.5 56.5)">8</text><text transform="translate(61.5 14.5)">9</text><text transform="translate(69.5 33.5)">10</text><text transform="translate(75.5 45.5)">11</text><text transform="translate(67.5 54.3)">12</text></g></svg>