<svg xmlns="http://www.w3.org/2000/svg" width="109" height="109"><g style="fill:none;stroke:#000;stroke-width:3;stroke-linecap:round;stroke-linejoin:round"><path d="M18.82 24.04c.86.34 2.45.39 3.31.34C28.75 24 39.75 23 47.79 22.02c1.43-.17 2.3.16 3.02.33"/><path d="M33.03 12c.11.26 1.56 1.34 1.56 2.98 0 10.56-.32 8.65-.32 22.62"/><path d="M14.41 38.18c1.34.48 3.79.53 5.13.48 4.21-.16 23.21-1.91 29.12-2.1 2.23-.07 3.57.23 4.68.47m-22.32 4.72c1.35.85 3.48 3.5 4.56 5.81M14 52.94c.9.27 2.79.36 3.62.38 7.13.17 23.63-2.08 31.46-2.98 1.4-.16 2.12.03 3.17.49m-18.96 9c4.21 2.42 10.21 4.67 14.89 5.87.79.2 1.57 1.04 1.44 2.66-.35 4.28-8.65 21.77-11.66 25.25-3.26 3.77-5.44-.15-6.41-.65m1.97-37.57c.3 1 .24 2.13-.12 3.25-2.49 7.77-9.69 23.46-20.87 30.81m56.56-76.81c.04.97.1 2.54-.08 3.91-1.26 9.45-4.26 29.2-14.49 39.93m13.06-21.1c.03-.18 1.54.52 2.09.47 5.67-.54 12.36-3.46 21.01-4.33.97-.1 1.57-.02 1.82.09m-10.05 6.63c.5 1.44.78 2.46.25 5.09-4.77 23.84-15.64 45.15-31.33 53.42"/><path d="M60.74 47.87c5.65 10.97 21.64 36.58 31.57 45.39 1.91 1.7 3.13 1.98 4.69 2.16"/></g><g style="font-size:8;fill:gray"><text transform="translate(12.5 23.5)">1</text><text transform="translate(23.5 12.5)">2</text><text transform="translate(7.5 38.5)">3</text><text transform="translate(26.5 47.9)">4</text><text transform="translate(6.5 52.5)">5</text><text transform="translate(39.5 60.5)">6</text><text transform="translate(24.5 62.5)">7</text><text transform="translate(59.75 11.85)">8</text><text transform="translate(71.5 32.5)">9</text><text transform="translate(72.5 44.5)">10</text><text transform="translate(64.5 53.5)">11</text></g></svg>