<svg xmlns="http://www.w3.org/2000/svg" width="109" height="109"><path d="M14.38 28.22c.73.19 2.08.24 2.81.19 9.18-.66 15.61-2.06 27.87-3.21 1.22-.11 1.96.09 2.57.19m-20.68 4.29c.05 1.05.1 2.71-.1 4.22-1.14 8.89-7.67 28.41-16.61 40.36M21.5 57.53c.3.5.61.91.74 1.54 1.05 4.94 2.3 18.56 3.02 27.43m-1.88-26.8c7.35-1.92 15.28-2.56 18.82-3.2 1.29-.24 2.07 1.41 1.88 2.8-.77 5.77-2.25 13.74-3.38 21.71m-15.3 2.34c6.1-.6 9.35-.85 17.67-1.63M85.79 13c.07.35.29 1.02-.14 1.39-5.8 5.08-13.22 8.93-25.46 13.3m-3.77-1.36c1.02 2.12 1 4.14 1 6.45 0 22.83-2.62 47.17-14.62 61.73m15.29-49.6c.49.15 2.42.27 3.72.09 7.18-.98 23.38-2.78 31.54-3.26 1.31-.08 3.58-.15 4.4 0m-21.57 5.24c.94.63 1.5 2.84 1.69 4.1s0 40.04-.19 47.92" style="fill:none;stroke:#000;stroke-width:3;stroke-linecap:round;stroke-linejoin:round"/><g style="font-size:8;fill:gray"><text transform="translate(8.5 27.5)">1</text><text transform="translate(18.5 37.5)">2</text><text transform="translate(16.5 73.5)">3</text><text transform="translate(27.5 55.5)">4</text><text transform="translate(28.5 79.5)">5</text><text transform="translate(77.25 13.5)">6</text><text transform="translate(49.5 35.5)">7</text><text transform="translate(61.5 41.5)">8</text><text transform="translate(69.5 53.5)">9</text></g></svg>