<svg xmlns="http://www.w3.org/2000/svg" width="109" height="109"><path d="M29.14 17c1.12 1.12 1.73 2.62 1.73 4.66 0 4.45-.09 7.09-.09 10.4m-18.28 3.1c2.25.46 3.9.43 5.88.13 6.87-1.06 16.29-3.15 20.89-4.27 1.46-.36 3.46-.75 4.98-.4M30.17 48c3.33 1 5.58 2.25 9.46 3.61 1.91.67 2.53 1.71 2.42 4.36-.29 7-7.67 31.41-12.12 35.85-3.18 3.18-4.99-.74-5.79-1.57m5.76-53c.47 1.25.71 2.64.4 4.08C27.88 52.62 22 70 11.5 80.88m46.38-66.26c.06 1.18.06 2.26-.24 3.41-1.6 6.1-5.94 17.66-11.72 25.39m11.33-12.17c1.62.12 3.13.02 5.07-.31 6.06-1.06 16.56-3.81 21.93-5.44 1.2-.36 3.25-.5 4.5-.25m-20.28 7.5c.15 1 .28 2.4-.12 3.58-2.85 8.3-9.73 22.17-21.31 31.59m15.23-14.05c.81.81 1.26 2.13 1.26 3.77V97.5m23.24-56.36c.07.85-.09 1.75-.5 2.55-2.15 4.18-5 8.01-10.49 12.87m-6.53-.31c3 .38 16.22 18.61 21.3 24.55 1.39 1.62 2.84 3.21 4.45 3.95" style="fill:none;stroke:#000;stroke-width:3;stroke-linecap:round;stroke-linejoin:round"/><g style="font-size:8;fill:gray"><text transform="translate(19.5 17.5)">1</text><text transform="translate(5.5 36.5)">2</text><text transform="translate(34.5 46.63)">3</text><text transform="translate(22.5 44.5)">4</text><text transform="translate(49.5 15.5)">5</text><text transform="translate(62.25 27.16)">6</text><text transform="translate(59.25 41.5)">7</text><text transform="translate(55.5 70.5)">8</text><text transform="translate(77.5 43.5)">9</text><text transform="translate(67.5 69.88)">10</text></g></svg>