<svg xmlns="http://www.w3.org/2000/svg" width="109" height="109"><path d="M24.92 16.75c3.56 1.65 8.8 8.09 9.43 11.33m-21.85 7.3c.83.05 3.72.36 4.52.29 6.51-.6 18.73-4.17 23.39-4.72 1.36-.16 2.08-.19 3.58-.19M30.17 48c3.33 1 5.58 2.25 9.46 3.61 1.91.67 2.53 1.71 2.42 4.36-.29 7-7.67 31.41-12.12 35.85-3.18 3.18-4.99-.74-5.79-1.57m6.14-54c.05 1.06.13 2.74-.11 4.26-1.76 11.23-7.21 29.18-18.78 40.74M58.03 15c.03.67.17 1.75-.07 2.69C56.5 23.5 52 35.5 45.92 43.42M56.75 31.5c1.57-.05 4.37-.26 6.32-.56 7.36-1.16 15.7-3.8 21.43-5.19 1.21-.29 2.5 0 3.75.25m-19.78 7c.06.83.3 2.16-.12 3.33-2.6 7.19-10.86 24.17-21.44 31.84m14.86-14.8c.09.48 1.17 2.49 1.26 5.52.4 14.55-.26 32.16-.26 37.12m23.5-54.87c.03.38.07.99-.07 1.54-.8 3.26-5.38 10.4-11.65 14.78m-5.3-.96C73.5 59 89.08 79.22 92.97 83.03c1.32 1.29 2.45 1.85 3.78 2.22" style="fill:none;stroke:#000;stroke-width:3;stroke-linecap:round;stroke-linejoin:round"/><g style="font-size:8;fill:gray"><text transform="translate(18.5 17.5)">1</text><text transform="translate(5.5 36.5)">2</text><text transform="translate(34.5 46.63)">3</text><text transform="translate(22.5 44.5)">4</text><text transform="translate(49.5 15.5)">5</text><text transform="translate(62.25 27.16)">6</text><text transform="translate(59.25 41.5)">7</text><text transform="translate(55.5 70.5)">8</text><text transform="translate(77.5 43.5)">9</text><text transform="translate(67.5 69.88)">10</text></g></svg>