<svg xmlns="http://www.w3.org/2000/svg" width="109" height="109"><g style="fill:none;stroke:#000;stroke-width:3;stroke-linecap:round;stroke-linejoin:round"><path d="M17.5 26.73c.35 1.14.7 1.72.7 3.24s-.23 41.98-.23 42.74.12.76.23 2.29m.57-48.08c1.96-.19 16.87-2.44 18.66-2.67 1.49-.19 2.45 2.11 2.33 3.24-.23 2.29-.35 26.33-.34 43.12 0 1.73-.12 2.48-.12 3.63"/><path d="M19.12 49.05c3.17 0 6.42-.59 9.56-.95 1.03-.12 2.07-.24 3.07-.35M18.77 72.9c3.92 0 14.42-1.53 19.49-1.53m10.95-48.82c.79.45 3.2.84 4.43.71 10.09-1.07 26.47-4.39 32.06-4.79 3.64-.26 5.13 1.26 5.05 3.07-.25 5.96-2.13 19.38-5.61 26.95-2.65 5.76-7.15 2.26-9.7-.89"/><path d="M66 23.89c.05.8.15 2.09-.11 3.23-2.65 11.63-7.4 21.38-18.01 32.91m2.62 6.11c.38.39.76.72.92 1.21 1.3 3.9 3.36 17.65 4.25 24.65m-2.83-24.72C61.5 66 79.25 63 86.23 62.49c2.31-.17 5.02 1.76 4.34 4.21-1.24 4.48-3.56 13.05-4.98 19.35m-29.75 2.53C61 88 77.25 87 87.2 86.61"/></g><g style="font-size:8;fill:gray"><text transform="translate(10.5 35.5)">1</text><text transform="translate(19.5 23.5)">2</text><text transform="translate(22.5 45.13)">3</text><text transform="translate(22.33 69.13)">4</text><text transform="translate(49.5 19.63)">5</text><text transform="translate(56.25 33.16)">6</text><text transform="translate(45.75 76.63)">7</text><text transform="translate(55.5 63.5)">8</text><text transform="translate(59.5 85.5)">9</text></g></svg>