<svg xmlns="http://www.w3.org/2000/svg" width="109" height="109"><g style="fill:none;stroke:#000;stroke-width:3;stroke-linecap:round;stroke-linejoin:round"><path d="M14.27 18.78c.39.94.78 2 .78 3.25s-.13 53.46 0 54.71m.64-56.01c5.06-1.28 12.56-2.08 16.42-2.98 1.64-.39 2.61 1.72 2.61 2.66 0 4.83-.02 46.78-.02 55.42"/><path d="M15.08 45.93c6.67-.87 13.42-1.57 19.22-2.26M15.44 73.24c6.06-.67 11.56-.87 18.85-1.45m9.99-54.73c1.34.7 3.95 1.33 5.38 1.19 7.7-.79 35.64-3.32 38.73-3.6 1.53-.14 3.16 1.33 2.7 3.35-.96 4.25-2.09 7.75-3.17 13.94m-39.27 2.99c3.86-.23 32.35-2.18 40.94-2.76M48.4 19.18c0 4.11-.11 9.46-.17 13.31-.28 21.08-2.99 48.01-15.49 61.76m57.61-47.48c.21.37-.17 1.93-.69 2.5-3.42 3.65-15.15 13.19-26.2 16.92"/><path d="M60.4 43.11c.72 1.19.76 1.98 1 3.57s-.14 32.46-.14 37.43c0 12.78 9.57 10.78 17.73 10.78 13.04 0 15.76-.45 15.76-12.22"/></g><g style="font-size:8;fill:gray"><text transform="translate(7.5 24.5)">1</text><text transform="translate(18.5 16.5)">2</text><text transform="translate(18.5 42.5)">3</text><text transform="translate(19.5 69.5)">4</text><text transform="translate(48.5 14.5)">5</text><text transform="translate(52.5 31.5)">6</text><text transform="translate(40.5 26.5)">7</text><text transform="translate(82.5 45.5)">8</text><text transform="translate(53.5 49.5)">9</text></g></svg>