<svg xmlns="http://www.w3.org/2000/svg" width="109" height="109"><g style="fill:none;stroke:#000;stroke-width:3;stroke-linecap:round;stroke-linejoin:round"><path d="M45.36 13.79c.39.37.4.62.62 1.09 1.77 3.82 2.54 11.96 3.64 19.09m-3.09-18.98c9.48-.8 28.03-2.05 35.11-2.72 2.6-.25 3.61.97 3.5 2.78-.2 3.22-2.1 11.26-3.29 16.59"/><path d="M48.3 23.56c3.09-.31 32.22-2.5 34.77-2.62M49.31 32.05c8.78-.87 23.51-1.66 32.94-2.21m-27.99 6.41c.18 1.13-.05 2.61-.61 3.58-3.6 6.17-8.15 11.4-16.4 18.91m11.24-10.43c.62.54 1.09 1.72 1.13 2.55.37 7.42-.5 29.52-.2 33.39m23.36-49c.06.59-.02 1.37-.21 1.88-1.26 3.24-2.85 5.73-5.72 9.67m-16.91 2.17c7.16-.7 36.41-3.23 39.48-3.62m-21.01 4.66c.35.27.62.65.62 1.12 0 4.82.04 20.05-.17 27.63"/><path d="M50.9 58.11c6.76-.58 31.87-1.76 34.77-2.08M50.08 67.88c7.13-.49 32.49-1.48 35.55-1.74M50.08 79.87c7.16-.7 36.85-2.03 39.92-2.42M20.46 15.5c3.9 1.57 10.07 6.45 11.04 8.88m-15.54 8.87c3.99 1.48 10.3 6.08 11.29 8.38M12.5 58.94c2.25.85 3.75.43 4.75.21 1-.21 6.5-2.49 8-2.92S29 57.3 28 58.58s-4 7.19-4.75 8.26-.5 2.99 1 4.48 4.25 3.2 5 4.48c.75 1.29.75 2.36-.75 3.43s-10.5 7.04-12 7.47m-3.25.87c2.96-.24 8.88-.85 13.33-.37 4.44.49 29.69 3.76 34.06 4.39 11.85 1.71 20.98 2.19 29.86 1.34"/></g><g style="font-size:8;fill:gray"><text transform="translate(40.25 21.5)">1</text><text transform="translate(49.5 11.5)">2</text><text transform="translate(52.5 21.73)">3</text><text transform="translate(53.5 29.5)">4</text><text transform="translate(45.5 42.5)">5</text><text transform="translate(42.5 62.2)">6</text><text transform="translate(65 38.5)">7</text><text transform="translate(58.75 44.5)">8</text><text transform="translate(72.5 54.47)">9</text><text transform="translate(52.94 55.65)">10</text><text transform="translate(53.16 65.08)">11</text><text transform="translate(53 76.5)">12</text><text transform="translate(9.5 15.5)">13</text><text transform="translate(5.25 34.65)">14</text><text transform="translate(2.5 60.5)">15</text><text transform="translate(3.5 88.5)">16</text></g></svg>