<svg xmlns="http://www.w3.org/2000/svg" width="109" height="109"><g style="fill:none;stroke:#000;stroke-width:3;stroke-linecap:round;stroke-linejoin:round"><path d="M14.28 40.72c2.22.53 3.97.41 6.13.18 6.57-.71 20.49-3.39 26.63-4.03.93-.1 2.34-.24 3.23 0"/><path d="M33.86 16.5c1.19 1.19 1.54 3 1.54 4.67 0 .81-.04 47.07-.05 65.2v6.38"/><path d="M34.44 39.78c0 1.09-.52 2.45-.91 3.39-4.85 11.75-10.13 20.6-19.17 30.17m24.89-23.09c3.23 1.74 8.53 7.38 11.25 10.75m12.24-42.13c1.07 1.07 1.58 2.84 1.62 4.68.2 8.19-.28 48.64-.28 54.2 0 10 1.04 11.78 15.92 11.78 14.62 0 15.39-1.79 15.39-10.37"/></g><g style="font-size:8;fill:gray"><text transform="translate(8.25 43.63)">1</text><text transform="translate(24.75 18.13)">2</text><text transform="translate(23.25 52.63)">3</text><text transform="translate(42.75 49.63)">4</text><text transform="translate(54.5 20.5)">5</text></g></svg>