<svg xmlns="http://www.w3.org/2000/svg" width="109" height="109"><g style="fill:none;stroke:#000;stroke-width:3;stroke-linecap:round;stroke-linejoin:round"><path d="M44.87 12.25c1.09.5 1.74 2.25 1.96 3.25s-.08 9-.08 15.5m14.37-20.5c1.09.5 1.74 2.25 1.96 3.25S62 22.25 61 29.25m-32.98-9.42c2.57 1.74 6.65 7.17 7.29 9.88m42.48-14.57c.01.26.02.66-.02 1.02-.25 2.16-1.71 6.9-3.71 9.8m-61.31 8.18c1.54.59 4.38.88 5.89.59 6.22-1.15 54.85-6.54 70.98-5.71 2.56.13 4.1.28 5.38.58m-58.98 5.98c2.04 1.44 5.28 5.9 5.79 8.13m24.38-10.82c.02.21.04.55-.04.86-.45 1.81-3 5.78-6.5 8.22m-28.4 5.92c.94.38 2.67.56 3.6.38 3.8-.74 28.9-4.77 37.36-4.63 1.57.03 2.5.18 3.29.37M31 59.39c.94.38 2.67.56 3.6.38 3.8-.74 28.9-4.77 37.36-4.63 1.57.03 2.5.18 3.29.37M20.87 70.89c.76.22 2.79.77 4.8.6 8.58-.74 43.16-3.97 57.04-5.63 2.01-.24 2.52-.32 3.79-.11"/><path d="M51.43 47.51c1.04.46 1.66 2.17 1.87 3.15s.02 41.13.02 42.34c0 10.75-4.57 3.25-6.07 1.75m-3.82-17.54c-4.14 6.63-8.78 12.45-17.23 18.68m38.53-18.57c3.49 4.88 13.71 14.35 18.53 16.92"/></g><g style="font-size:8;fill:gray"><text transform="translate(37.5 13.5)">1</text><text transform="translate(52.5 11.5)">2</text><text transform="translate(21.5 20.5)">3</text><text transform="translate(71.5 14.5)">4</text><text transform="translate(4.5 34.5)">5</text><text transform="translate(30.75 42.5)">6</text><text transform="translate(58.5 38.5)">7</text><text transform="translate(23.25 48.13)">8</text><text transform="translate(24.5 60.13)">9</text><text transform="translate(10.5 72.5)">10</text><text transform="translate(44.5 54.5)">11</text><text transform="translate(30.5 79.5)">12</text><text transform="translate(65.5 75.5)">13</text></g></svg>