<svg xmlns="http://www.w3.org/2000/svg" width="109" height="109"><g style="fill:none;stroke:#000;stroke-width:3;stroke-linecap:round;stroke-linejoin:round"><path d="M45.37 12.75c.88.88 1.46 1.88 1.46 3.25 0 1.02-.08 7.5-.08 14m14.62-19c.88.88 1.29 2.23 1.21 3.25-.2 2.62-.45 6.12-1.08 14.75m-33.23-9.54c2.4 1.81 6.19 7.44 6.79 10.26m43.56-15.1c.33.94.31 1.83-.06 2.65-1.03 2.69-2.21 4.87-4.51 8.69M12 33.89c3.25.86 6.88 1.03 10.43.59 23.8-2.95 42.69-5.04 63.67-5.96 4.53-.2 7.75.28 10.02.58m-59.5 7.15c1.83 1.41 4.73 5.78 5.18 7.97m24.7-10.97c.03.78-.15 1.49-.54 2.12-1 1.81-2.83 3.88-5.71 6.7m-30 5.57c2.44.32 4.87.32 7.29-.01 9.65-1.1 20.76-2.44 32.11-3.6l1.45-.15c2.44-.24 4.18-.07 5.4.12M31.12 58.89c2.26.44 4.52.58 6.77.28 12.11-1.63 19.55-2.44 30.36-3.66 2.15-.29 4.32-.29 6.5 0m-54.5 14.97c3.11.53 6.21.62 9.29.29 15.82-1.59 36.9-4.27 50.26-4.93 3.74-.18 6.46-.11 8.33.19"/><path d="M52.18 47.26c1.03 1.03 1.37 2.4 1.37 3.4 0 2.52-.17 29.26-.21 42.09-.01 2.24-.01 4.06-.01 5.25m-5.28-28.54a7.06 7.06 0 0 1-1.41 2.91c-6.27 8.55-17.83 18.94-29.94 23.77m38.78-27.07c4.65 3.8 20.08 15.71 27.51 20.95 2.35 1.65 5.14 3.1 7.98 4.08"/></g><g style="font-size:8;fill:gray"><text transform="translate(37.5 13.5)">1</text><text transform="translate(52.5 11.5)">2</text><text transform="translate(21.5 20.5)">3</text><text transform="translate(71.5 14.5)">4</text><text transform="translate(4.5 34.5)">5</text><text transform="translate(30.75 42.5)">6</text><text transform="translate(58.5 38.5)">7</text><text transform="translate(23.25 48.13)">8</text><text transform="translate(24.5 60.13)">9</text><text transform="translate(10.5 72.5)">10</text><text transform="translate(44.5 54.5)">11</text><text transform="translate(30.5 79.5)">12</text><text transform="translate(65.5 75.5)">13</text></g></svg>