<svg xmlns="http://www.w3.org/2000/svg" width="109" height="109"><path d="M40.75 14.62c.05.85.11 1.94-.11 3.17-1.33 7.21-8.7 22.78-19.14 32.46m15.47-15.26c1.28.36 3.69.65 5.62.36 7.41-1.1 26.66-5.1 32.96-6.04 7.61-1.14 4.94 4.44-5.06 13.44m-19.12 3.13c.35 1.52.31 2.66.06 4.33C49.85 60.57 38.06 82.1 17.5 94m34-35.25c5.62 5.75 20.25 19.88 30.76 28.73 2.5 2.1 5.36 4.15 8.61 4.9" style="fill:none;stroke:#000;stroke-width:3;stroke-linecap:round;stroke-linejoin:round"/><g style="font-size:8;fill:gray"><text transform="translate(32.5 16.5)">1</text><text transform="translate(42.5 32.5)">2</text><text transform="translate(42.5 47.98)">3</text><text transform="translate(56.5 59.5)">4</text></g></svg>