<svg xmlns="http://www.w3.org/2000/svg" width="109" height="109"><path d="M54.39 10.75c1.37 1.12 2.13 2.5 2.13 4.14 0 4.86.22 13.86.22 22.97m.91-13.45c8.23-1.41 12.73-2.16 19.44-3.17 1.66-.25 3.1-.24 4.15-.04m-49 .78c.76.77 1.81 1.92 1.91 2.81.35 3.2.6 9.08.77 15.17M18 41.5c2.84.69 5.62.68 8.51.4 14.37-1.4 40.92-4.27 56.01-5.59 3.09-.27 6.08-.29 9.16.19M56.13 42c.75.75 1.22 1.99 1.22 3.5v20.94c0 7.06-3.73 3.18-7.1-.19m-11.5-15.5c.12 1.1-.06 1.76-.62 2.73C35.6 57.9 29.25 63.5 22 68.75M77 45.5c5.88 2.29 11.62 6.88 14.5 11.51m-14.85-1.37c.14.97-.09 2.53-.78 3.91C70.15 70.94 48.14 89.35 25.81 97" style="fill:none;stroke:#000;stroke-width:3;stroke-linecap:round;stroke-linejoin:round"/><g style="font-size:8;fill:gray"><text transform="translate(45.5 11.5)">1</text><text transform="translate(61.5 20.5)">2</text><text transform="translate(22.5 22.5)">3</text><text transform="translate(11.5 42.13)">4</text><text transform="translate(49.5 49.5)">5</text><text transform="translate(29.5 51.5)">6</text><text transform="translate(69.5 46.5)">7</text><text transform="translate(68.5 56.5)">8</text></g></svg>