<svg xmlns="http://www.w3.org/2000/svg" width="109" height="109"><g style="fill:none;stroke:#000;stroke-width:3;stroke-linecap:round;stroke-linejoin:round"><path d="M17.88 17c4.54 1.6 11.73 6.6 12.87 9.09M15 40.75c4.24 1.81 10.94 7.44 12 10.25M13.25 87.73c1.71 1.27 3.78 1.32 4.86-.25 3.14-4.57 10.79-18.16 13.64-23.99m30.06-51c1 .43 2.42 2.52 2.4 3.75-.07 3.88-.07 7.49-.08 11.02m-22.84.67c0 4.25-2.55 13.02-4.02 15.86m4.04-13.58c14.6-2.28 42.5-4.47 48.69-4.24 8.17.31-1.09 8.2-3.12 10.01m-1.79 12.77c.21.38-.17 1.98-.69 2.57-3.42 3.78-15.14 13.69-26.19 17.56"/><path d="M52.72 41.16c.81 1.1.87 1.83 1.14 3.3s-.11 32.5-.11 37.09c0 11.81 2 14.46 20.82 14.46C93 96.01 94.78 95 94.78 81.15"/></g><g style="font-size:8;fill:gray"><text transform="translate(11.5 17.63)">1</text><text transform="translate(8.25 41.55)">2</text><text transform="translate(5.5 89.5)">3</text><text transform="translate(54.25 13.5)">4</text><text transform="translate(35.5 27.5)">5</text><text transform="translate(44.5 26.5)">6</text><text transform="translate(77.5 48.18)">7</text><text transform="translate(44.25 44.5)">8</text></g></svg>