<svg xmlns="http://www.w3.org/2000/svg" width="109" height="109"><path d="M18.38 16.25c4.37 2 11.27 8.23 12.37 11.34m-17.5 15.66C18.1 45.06 25.79 50.69 27 53.5M13.75 88.23c1.9 1.27 4.18 1.32 5.38-.25 3.48-4.57 6.96-10.16 10.12-15.99M61.92 12c.06 1.05-.21 2.79-.62 4.2-2.88 9.8-12.18 25.02-24.48 37.23m24.26-36.35c4.62 6.27 24.56 26.73 29.66 31.32 1.73 1.56 3.96 2.22 5.69 2.67m-49.38 1.21c.69.34 3.93.38 4.63.34 7.23-.39 17.82-2.12 25.01-2.69 1.16-.09 2.83.16 3.42.33M44.59 67.33c.47.59 1.53 2.01 1.65 2.79 1.56 10.15 1.74 18.95 2.8 27.41m-3.23-28.57c13.32-1.66 27.54-2.1 34.19-2.9 2.43-.29 3.89 1.74 3.54 3.46-1.44 7.13-2.79 12.24-4.76 23.19m-29.53 2.1c7.5-.56 22.32-1.11 31.72-1.75" style="fill:none;stroke:#000;stroke-width:3;stroke-linecap:round;stroke-linejoin:round"/><g style="font-size:8;fill:gray"><text transform="translate(11.5 16.63)">1</text><text transform="translate(6.25 43.5)">2</text><text transform="translate(6.5 91.5)">3</text><text transform="translate(53.5 13.5)">4</text><text transform="translate(69.5 22.5)">5</text><text transform="translate(49.5 49.5)">6</text><text transform="translate(38.5 75.5)">7</text><text transform="translate(48.5 65.5)">8</text><text transform="translate(53.5 91.5)">9</text></g></svg>