<svg xmlns="http://www.w3.org/2000/svg" width="109" height="109"><path d="M18.63 19.12c3.75 1.49 9.68 6.14 10.62 8.47m-16 13.29c3.71 1.52 9.57 6.26 10.5 8.62M12.5 85.48c1.75.77 3.28.07 4.36-1.5 3.14-4.57 5.79-9.91 8.64-15.74M37.35 43.5c-.35 5.12-1.72 10.25-3.79 14.13m12.03-35.7c.64 1.02 1.01 2.44 1.03 4.4.26 37.42-2.69 48.07-13.31 59.41m20.71-42.82c1.81 1.91 4.67 7.84 5.13 10.8m6.6-34.59c1.12 1.12 1.16 2.37 1.16 3.65 0 .55.07 32.03.02 48.71-.02 5.17-.04 8.95-.06 10.01m7.64-39.21c2.43 1.88 6.27 7.75 6.88 10.68m6.67-36.84c1.22 1.22 1.26 2.49 1.26 4.25v71.75" style="fill:none;stroke:#000;stroke-width:3;stroke-linecap:round;stroke-linejoin:round"/><g style="font-size:8;fill:gray"><text transform="translate(12.25 20.38)">1</text><text transform="translate(6.25 42.25)">2</text><text transform="translate(5.25 91.25)">3</text><text transform="translate(32.25 41.25)">4</text><text transform="translate(37.25 21.25)">5</text><text transform="translate(51.25 40.25)">6</text><text transform="translate(58.25 19.25)">7</text><text transform="translate(72.25 39.25)">8</text><text transform="translate(78.25 15.25)">9</text></g></svg>