<svg xmlns="http://www.w3.org/2000/svg" width="109" height="109"><g style="fill:none;stroke:#000;stroke-width:3;stroke-linecap:round;stroke-linejoin:round"><path d="M16.88 16.75c4.19 1.56 10.82 6.41 11.87 8.84M12 42.25c4.24 1.54 10.94 6.35 12 8.75M10.5 87.83c1.93 1.14 4.25 1.19 5.46-.22 3.54-4.1 7.07-9.12 10.29-14.36m7.55-37.11c1.45.23.87.23 2.44.23 2.97 0 16.01-1.94 22.09-1.68"/><path d="M47.56 11.88c.55.85 1.89 2.3 1.98 5.09.45 13.43-.29 65.14-.29 69.72 0 11.8-7.01 2.31-8.71 1.15"/><path d="M33.75 61.78c1.05.91 1.74 1.37 3.31.45 1.22-.72 14.75-10.01 19.78-13.92m32.53-34.09c.05.3.2.86-.1 1.2-3.77 4.21-9.33 8.08-19.14 11.48m-4.96-.32c.61 1.95.94 3.25.94 5.38 0 32.18-3.59 50.33-10.06 57.59m10.76-45.2c.38.14 2.56.21 3.57.06 5.57-.85 18.43-1.65 24.24-2.59 1-.16 2.78-.13 3.42 0m-13.46 3.73c.72.57 1.14 2.56 1.29 3.7.14 1.14 0 42.85-.14 49.96"/></g><g style="font-size:8;fill:gray"><text transform="translate(10.5 16.5)">1</text><text transform="translate(3.5 42.06)">2</text><text transform="translate(3.5 89.5)">3</text><text transform="translate(26.5 36.5)">4</text><text transform="translate(37.5 12.5)">5</text><text transform="translate(31.5 56.5)">6</text><text transform="translate(81.5 12.5)">7</text><text transform="translate(56.5 24.6)">8</text><text transform="translate(70.5 41.5)">9</text><text transform="translate(75.5 53.5)">10</text></g></svg>