<svg xmlns="http://www.w3.org/2000/svg" width="109" height="109"><g style="fill:none;stroke:#000;stroke-width:3;stroke-linecap:round;stroke-linejoin:round"><path d="M22.13 18.5c4.37 1.47 11.27 6.05 12.37 8.34M16.75 41.25c4.06.97 10.48 3.99 11.5 5.5M16 87.48c1.71 1.27 3.78 1.32 4.86-.25C24 82.67 29.64 72.58 32.5 66.75m25.55-53c3.16 2 5.58 5 7.34 8.2m-16.71 8.1c2.37-.11 26.47-4.12 28.63-4.26 1.8-.11 2.83 1.23 2.82 1.9-.12 4.76-2.6 22.45-3.63 25.73"/><path d="M48.84 42c4.96-.44 9.91-1.17 14.85-1.81 1.48-.19 3.96-.38 5.39-.56M48.95 55.28c8.17-.86 18.88-2.09 27.76-2.91"/><path d="M45.78 28.01c1.35.52 2.16 2.35 2.43 3.4s.57 55.53.27 58.13c-.27 2.35-.83 6.71 2.05 4.16 3.83-3.41 7.54-6.68 12.22-11.12m22.43-29.66c.31 1.41.72 2.09-.26 3.1-1.54 1.59-7.86 7.28-10.65 9.25m-17.3-6.05c4.47 0 25.16 20.76 31.53 25.8C91 87 93 88 96.17 88.67"/></g><g style="font-size:8;fill:gray"><text transform="translate(16.25 19.25)">1</text><text transform="translate(10.25 41.8)">2</text><text transform="translate(9.25 92.25)">3</text><text transform="translate(52.25 13.25)">4</text><text transform="translate(49.25 26.25)">5</text><text transform="translate(53 38.73)">6</text><text transform="translate(53 52.16)">7</text><text transform="translate(40.25 37.25)">8</text><text transform="translate(86.25 50.88)">9</text><text transform="translate(53.25 69.25)">10</text></g></svg>