<svg xmlns="http://www.w3.org/2000/svg" width="109" height="109"><g style="fill:none;stroke:#000;stroke-width:3;stroke-linecap:round;stroke-linejoin:round"><path d="M22.12 17.88c3.93 1.45 10.14 5.96 11.12 8.22M16 40.12c4.15 1.26 10.71 5.17 11.75 7.12M12.72 88.81c1.4.19 2.25-.04 3.14-1.32C19 82.92 24.12 73.75 27.75 67.5m45.77-55.46c-.4 1.21-1.18 1.7-1.9 2.08-5.12 2.64-10.74 4.76-22.51 7.86m-5.09 8.01c2.84 1.73 6.59 6.64 7.3 9.34m7.87-13.57c2.36 1.74 5.36 6.64 5.95 9.34m21.88-14.01c.12.91-.3 1.76-.76 2.55-2.38 3.36-5.86 7.47-12.07 12.69M45.73 46.87c2.47.62 5.05.6 7.55.14 7.32-1.36 19.85-3.88 27.28-5.26 1.78-.33 2.82 1.48.86 2.84-3.29 2.28-13.13 9.24-17.72 12.07m-.73.25c8.66 9.59 10.25 25.98 7.46 33.41-2.32 6.19-7.26 8.14-12.14 1.69"/><path d="M36.5 69.89c2.5.73 5.83.61 8.12.24 11.75-1.88 32.5-4.3 44.12-5.21 3.01-.24 6.6-.08 9.5.84"/></g><g style="font-size:8;fill:gray"><text transform="translate(15.75 18.13)">1</text><text transform="translate(8.5 41.5)">2</text><text transform="translate(4.5 92.98)">3</text><text transform="translate(63.5 11.5)">4</text><text transform="translate(36.5 33.5)">5</text><text transform="translate(51.5 29.5)">6</text><text transform="translate(78.25 23.5)">7</text><text transform="translate(38.25 47.5)">8</text><text transform="translate(56.25 61.5)">9</text><text transform="translate(34.5 67.5)">10</text></g></svg>