<svg xmlns="http://www.w3.org/2000/svg" width="109" height="109"><path d="M17.76 15.5c3.62 1.38 9.34 5.69 10.24 7.84M12 36.75c3.88 1.5 10.03 6.17 11 8.5M10.91 86.92c1.49.54 2.99.24 3.89-1.08 3.46-5.14 6.93-11.42 10.07-17.97m26.95-50.14c.1 1.01-.23 2.29-.77 3.17-2.43 3.95-7.17 8.98-14.72 14.18m36.99-16.8c5.81 2.92 12.88 8.5 14.87 11.49m-26.32 2.07c.08.74.06 1.98-.4 2.98-3.72 7.93-12.97 19.93-26.74 27.98m27.28-26.25c7.88 7.02 18.19 15.51 25.48 20.46 2.62 1.78 4.36 2.98 7.19 4.39M44.8 67.14c.78.78 1.47 1.84 1.68 2.87 1.19 5.68 1.94 11.33 3.02 17.74.18 1.06.36 2.13.54 3.2m-3.01-22.02c10.87-1.86 23.48-3.51 30.85-4.41 3.08-.38 5.39.9 4.44 4.21-1.59 5.6-2.59 9.42-4.11 16.45m-27.03 3.6a4043 4043 0 0 1 29.27-2.61" style="fill:none;stroke:#000;stroke-width:3;stroke-linecap:round;stroke-linejoin:round"/><g style="font-size:8;fill:gray"><text transform="translate(9.5 15.5)">1</text><text transform="translate(5.5 37.5)">2</text><text transform="translate(3.75 91.5)">3</text><text transform="translate(42.5 16.5)">4</text><text transform="translate(68.5 15.5)">5</text><text transform="translate(53.5 34.5)">6</text><text transform="translate(69.5 40.5)">7</text><text transform="translate(39.49 75.5)">8</text><text transform="translate(47.5 65.5)">9</text><text transform="translate(53.25 85.63)">10</text></g></svg>