<svg xmlns="http://www.w3.org/2000/svg" width="109" height="109"><g style="fill:none;stroke:#000;stroke-width:3;stroke-linecap:round;stroke-linejoin:round"><path d="M19.88 18.25c3.31 1.47 8.54 5.05 9.37 7.34M15.75 41c3.79 1.15 9.8 4.72 10.75 6.5M11.75 87.71c1.5 1.31 3.31 1.36 4.25-.25C18.75 82.75 21.5 77 24 71m35.7-56.31c3.01 1.22 7.18 5.18 7.96 8.36m-31.83 8.07c1.18.09 3.86.64 5.01.5 9.25-1.06 35.17-4.92 47.74-5.19 1.94-.04 2.93.04 4.38.64m-43.73 9.75c.19 1.55-.05 3.57-.65 4.9-3.8 8.45-8.62 17.88-17.33 28.16m11.38-13.29c.87.41 1.19 1.46 1.19 2.39 0 6.02-.4 26.73-.4 35.33m24.21-60.35c.18.46.56 1.82.36 2.73-1.18 5.37-6.24 15.31-14.57 24.16M67.98 41.9c.28.04 2.96.71 3.77.6 2.64-.36 5.4-1.18 8.92-2.58 2.53-1 4.04.97 3.17 3C77 58.75 69 74.25 51.71 86.89"/><path d="M65.09 51.55c3.11 1.25 8.02 5.15 8.8 7.09m-17.48 5.01c7.36 3.27 25.97 22.42 32.55 26.23 1.88 1.08 3.28 1.89 5.04 2.27"/></g><g style="font-size:8;fill:gray"><text transform="translate(11.25 17.5)">1</text><text transform="translate(5.5 40.5)">2</text><text transform="translate(5.25 91.5)">3</text><text transform="translate(53.5 15.5)">4</text><text transform="translate(37.5 28.5)">5</text><text transform="translate(40.99 40.5)">6</text><text transform="translate(36.5 72.5)">7</text><text transform="translate(59.5 37.5)">8</text><text transform="translate(73.5 39.5)">9</text><text transform="translate(67.5 51.5)">10</text><text transform="translate(59.25 63.5)">11</text></g></svg>