<svg xmlns="http://www.w3.org/2000/svg" width="109" height="109"><g style="fill:none;stroke:#000;stroke-width:3;stroke-linecap:round;stroke-linejoin:round"><path d="M14.88 15.75c4.54 1.56 11.73 6.41 12.87 8.84M12.75 43c4.5 1.5 11.62 6.17 12.75 8.5M10.75 88.23c1.71 1.27 3.78 1.32 4.86-.25 3.14-4.57 8.79-16.66 11.64-22.49m17.37-51.24c.79.56 2.09 2.73 2.09 3.85 0 4.11-.1 8.34-.1 13.85"/><path d="M28.68 33.05c.83.17 2.59.27 3.36.23 7.58-.41 18.49-1.28 28.78-2.18 1.28-.11 2.47-.23 3.44.05M45.72 44.77c1.75.79 7.77 1.78 10.42 2.58.93.28 1.63 2.11 1.46 3.63-1.32 11.91-8.25 32.19-13.08 40.51-2.96 5.11-6.52-1.25-7.76-3.39m8.86-51.82c.27 1.37.22 2.91-.1 4.46-2.24 10.63-8.7 32.12-18.75 42.17m50.39-69.38c.04 1.02.2 2.67-.09 4.1-1.88 9.34-4.32 28.12-14.98 39.26m15.04-34.71c2.54 6.27 13.46 26.75 16.25 31.34.95 1.56 2.17 2.23 3.11 2.67m-23.82.94c4.4 2.09 11.36 8.59 12.46 11.85M66.74 80.95c7.43 2.65 19.18 10.9 21.04 15.02"/></g><g style="font-size:8;fill:gray"><text transform="translate(7.5 15.5)">1</text><text transform="translate(4.5 43.5)">2</text><text transform="translate(3.5 90.5)">3</text><text transform="translate(35.5 14.5)">4</text><text transform="translate(30.5 29.5)">5</text><text transform="translate(52.5 43.5)">6</text><text transform="translate(37.5 45.5)">7</text><text transform="translate(68.5 13.5)">8</text><text transform="translate(83.5 27.5)">9</text><text transform="translate(70.5 54.5)">10</text><text transform="translate(62.5 78.88)">11</text></g></svg>