<svg xmlns="http://www.w3.org/2000/svg" width="109" height="109"><g style="fill:none;stroke:#000;stroke-width:3;stroke-linecap:round;stroke-linejoin:round"><path d="M20.38 16.75c3.31 1.47 8.54 6.05 9.37 8.34m-15 12.41c3.79 1.15 9.8 5.72 10.75 7.5M14.75 81.21c1.5 1.31 3.31 1.36 4.25-.25 2.75-4.7 5.5-10.45 8-16.45m5.25-23.76c.37.21 2.5.5 5.5.5 5.58 0 17.66-3.25 23.5-3.25 1 0 3.63.04 4.25.25"/><path d="M49.48 15.88c.67.41 1.2 1.83 1.2 2.68 0 14.43 0 35.22-.13 40.38m-13.4.85c.21.63.45 1.06.52 1.54.51 3.47 1.66 13.04 2.39 19.62M38.2 60.8c5.79-.7 18.12-2.47 22.07-2.58 1.63-.05 2.51.98 2.37 2.04-.54 4-1.59 10.03-2.47 15.34m-19.8 2.57c4.79-.29 15.77-1.67 21.53-2.05m10.34-55.87c.37.95.61 1.89.72 2.83.12.94-.07 35.14-.13 37.24-.31 10.06-3.58 19.93-12.08 28.68m12.97-67.78c1.49-.19 15.14-2.77 16.25-3.01 1.98-.41 2.7 3.12 2.45 4.52-.25 1.34-.5 45.13-.82 64.1-.09 5.42-1.84 6.42-3.77 4.87-1.03-.82-2.83-2.2-4.83-3.95"/><path d="M73.46 41.19c3.1-.54 5.71-1.02 8.82-1.44.83-.11 1.66-.22 2.47-.33M73.64 59.31c2.85-.2 5.69-.57 8.53-.87.82-.08 1.65-.17 2.47-.24"/></g><g style="font-size:8;fill:gray"><text transform="translate(11.25 18.13)">1</text><text transform="translate(7.5 40.63)">2</text><text transform="translate(7.5 87.5)">3</text><text transform="translate(29.25 38.5)">4</text><text transform="translate(39.5 14.5)">5</text><text transform="translate(30.75 67.5)">6</text><text transform="translate(38.5 57.5)">7</text><text transform="translate(44.5 74.5)">8</text><text transform="translate(65.25 28.5)">9</text><text transform="translate(72.75 17.5)">10</text><text transform="translate(77.25 37.69)">11</text><text transform="translate(77.25 55.5)">12</text></g></svg>