<svg xmlns="http://www.w3.org/2000/svg" width="109" height="109"><g style="fill:none;stroke:#000;stroke-width:3;stroke-linecap:round;stroke-linejoin:round"><path d="M18.38 17c4.19 1.78 10.82 7.32 11.87 10.09m-17 14.66c4.68 2.07 12.08 8.53 13.25 11.75M14.75 89.73c1.71 1.27 3.78 1.32 4.86-.25 3.14-4.57 8.79-15.16 11.64-20.99M81.7 10.43c.1.28.21.72-.21 1.12C79 13.9 64.74 19.06 45.21 22.21m3.05 4.41c.03.52.07 1.35-.07 2.09-.8 4.41-5.4 14.1-11.69 20.03m24.71-21.8c3.32 2.69 8.58 11.06 9.41 15.24m8.58-19.5c5.66 3.26 14.63 13.43 16.05 18.5m-33.38 7.53c.05.3.21.87-.1 1.19-4.04 4.23-8.76 7.99-17.97 11.36m-2.27-2.01c.67.76.94 2.47 1.11 4.03.61 5.71 2.52 27.51 3.13 35.22m-1.6-22.09c3.9-.33 15.69-2.15 16.62-2.15h2.97m6.87-17.13c.93.17 1.67.49 2.97.49s15.06-1.98 16.55-2.14 2.72.82 2.6 1.81c-1.12 9.56-3.1 31.01-4.22 38.92"/><path d="M70.5 73.11c.93.16 1.67.49 2.97.49s15.69-1.82 17.17-1.98M45.71 95.7c2.42 0 40.1-2.64 42.89-2.81"/></g><g style="font-size:8;fill:gray"><text transform="translate(12 16.13)">1</text><text transform="translate(5.5 41.5)">2</text><text transform="translate(6.5 90.23)">3</text><text transform="translate(69.75 9.9)">4</text><text transform="translate(39.5 29.83)">5</text><text transform="translate(56.5 34.5)">6</text><text transform="translate(75.5 31.5)">7</text><text transform="translate(52.5 49.1)">8</text><text transform="translate(35.5 68.28)">9</text><text transform="translate(47.5 72.5)">10</text><text transform="translate(67.5 53.2)">11</text><text transform="translate(67.5 69.55)">12</text><text transform="translate(48.5 91.5)">13</text></g></svg>