<svg xmlns="http://www.w3.org/2000/svg" width="109" height="109"><g style="fill:none;stroke:#000;stroke-width:3;stroke-linecap:round;stroke-linejoin:round"><path d="M18.38 15.75c4.19 1.3 10.82 5.33 11.87 7.34M15 40.5c4.06 1.32 10.48 5.44 11.5 7.5M16.25 86.23c1.71 1.27 3.78 1.32 4.86-.25 3.14-4.57 7.29-13.16 10.14-18.99m12.98-50.85c.87.27 3.38.3 4.25.27 9.03-.31 23.52-1.16 36.39-2.17 1.44-.11 3.24.13 3.96.26M43.92 24.98c.92.28 2.33.78 4.15.58 9.43-1.06 31.2-2.42 37.12-2.92 1.6-.14 3.26.95 2.62 2.99-.8 2.56-1.81 6.18-2.42 8.88m-38.84 3.08c1.29 0 2.86-.05 4.65-.12 10.07-.43 25.9-2.37 36.21-2.37m-41.19-9.14c.43 1.26.45 3.03.31 5.26-1.76 27.31-4.03 46.52-14.78 58.62m24.11-45.8c.2.2.4.37.48.63.68 2.02 1.49 7.6 1.95 11.22m-1.21-10.78c4.46-.86 21.34-3.45 23.64-3.4 1.28.03 2.53 1.03 2.22 2.15-.65 2.32-2.07 5.51-2.81 8.77m-21.74 2.08c2.69-.3 19.12-1.32 22.81-1.78m-31.7 9.82c.83.1 1.94.22 3.25.14 10.5-.64 27.53-2.36 33.22-2.8 2.38-.18 2.94 1.66 2.8 2.77-.54 4.24-1.81 8.29-2.89 11.4"/><path d="M68.28 62.84c.51.28 1.03 2.08 1.03 2.64 0 3.52-.17 6.19-.17 8.32m-16.01 2.86c3.56-.31 31.56-2.04 35.63-2.35"/><path d="M52.99 63.64c0 1.36.01 1.83.04 3.13.15 5.79-.29 9.2-.29 13.11 0 11.93-1.01 13.88 20.83 13.88 19.26 0 21.22-2.18 21.22-9.79"/></g><g style="font-size:8;fill:gray"><text transform="translate(11.5 15.5)">1</text><text transform="translate(7.5 40.5)">2</text><text transform="translate(8.5 88.5)">3</text><text transform="translate(42.5 12.4)">4</text><text transform="translate(48.5 23.5)">5</text><text transform="translate(51.5 34)">6</text><text transform="translate(38.25 33.5)">7</text><text transform="translate(49.5 51.85)">8</text><text transform="translate(58.5 42.5)">9</text><text transform="translate(60.5 52.7)">10</text><text transform="translate(49.5 60.5)">11</text><text transform="translate(70.75 69.8)">12</text><text transform="translate(56.25 73.5)">13</text><text transform="translate(42.5 73.5)">14</text></g></svg>