<svg xmlns="http://www.w3.org/2000/svg" width="109" height="109"><g style="fill:none;stroke:#000;stroke-width:3;stroke-linecap:round;stroke-linejoin:round"><path d="M21.38 18.25c3.66 1.3 9.45 5.33 10.37 7.34m-17 14.91c3.79 1.15 9.8 5.22 10.75 7M12.36 90.86c1.54.26 2.6-.13 3.34-1.65 2.73-5.67 4.95-11.6 7.43-18.83m17.28-45.51c2.04.66 4.75.51 6.87.27 7.16-.81 19.94-2.72 28.61-3.51 2.19-.2 4.23-.37 6.41.07"/><path d="M58.79 11.1c.88.88 1.09 2.12 1.09 3.65 0 8.26-.02 16.4.04 23 .02 2.18.02 4.13-.02 5.75m-1.2-18.81c0 1.06-.43 2.29-1.89 4.08-6.11 7.49-16.12 16.24-24.25 19.93m31.19-20.2c6.75 2.25 15 7.75 19.75 13m-25.05 1.25c0 1.12-.34 2.15-.92 3.02C53.25 52.25 44.62 61.62 27.96 71m31.53-26.51c4.12 3.35 17.94 12.31 26.13 17.14 2.91 1.72 6.09 3.16 9.17 4.54m-34.24-8.09c.87.87 1.03 2.42 1.03 4.03 0 11.96.04 24.42.04 28.49 0 9.64-4.42 2.23-5.65 1.21M44.81 66.14c2.64 1.13 6.82 4.64 7.48 6.39M37.32 87.31c1.14.66 2.18.83 3.38.1.86-.52 7.78-5.16 11.42-7.66m26.21-15.32c.08.76-.11 1.45-.54 2.09-1.28 1.61-3.28 3.86-7.44 7.08m-.89 5.47c3.35.8 12.05 7.12 13.33 9.7"/></g><g style="font-size:8;fill:gray"><text transform="translate(12.5 18.13)">1</text><text transform="translate(6.75 40.5)">2</text><text transform="translate(3.5 93.5)">3</text><text transform="translate(38.25 22.5)">4</text><text transform="translate(49.5 11.5)">5</text><text transform="translate(44.5 35.5)">6</text><text transform="translate(75.5 31.5)">7</text><text transform="translate(47.5 49.5)">8</text><text transform="translate(67.5 47.5)">9</text><text transform="translate(50.5 64.5)">10</text><text transform="translate(37.5 73.63)">11</text><text transform="translate(27.5 91.5)">12</text><text transform="translate(68.5 65.5)">13</text><text transform="translate(76.5 80.5)">14</text></g></svg>