<svg xmlns="http://www.w3.org/2000/svg" width="109" height="109"><g style="fill:none;stroke:#000;stroke-width:3;stroke-linecap:round;stroke-linejoin:round"><path d="M21.38 17.25c4.01 1.65 10.36 6.78 11.37 9.34m-17.5 17.66C19.04 45.79 25.05 50.6 26 53m-8.25 35.71c1.5 1.31 3.31 1.36 4.25-.25C24.75 83.75 27.5 78 30 72m14.34-50.83c.34.19 1.01.62 1.11 1.08.77 3.34 1.19 7.07 2.27 13.39m-1.98-12.9c10.26-1.49 30.37-3.63 36.6-3.89 2.43-.1 3.24.9 2.97 3.46-.26 2.45-.76 3.48-2.37 8.94m-35.25 2.68c6.93-.67 27.68-2.17 37.37-2.8"/><path d="M63.55 10c.96.51 1.73 2.26 1.73 3.31 0 9.69 0 22.08-.19 28.44"/><path d="M36.5 43.2c1.17.54 3.31.62 4.48.54 11.27-.74 36.3-3.24 50.68-3.73 1.95-.07 3.12.26 4.09.53M47.76 51.05c.57.84.97 3.13.97 4.25s.05 31.31.05 31.87m.47-34.61c7.75-.81 28.3-3.66 31.24-3.83 2.45-.14 3.85.64 3.32 3.49-.61 3.21-.71 31.89-.71 32.73"/><path d="M49.06 62.76c5.66-.77 11.36-1.26 17.05-1.77 1.75-.16 3.5-.31 5.18-.45M49.33 73c5.47-.5 10.94-1 16.41-1.42 1.54-.12 4.09-.23 5.6-.34M49.5 84.2c6.42 0 25.28-2.29 33.59-2.29m-25.46 5.11c.5 1.04-.01 2.33-1 3.09-2.98 2.3-11.16 6.93-17.12 9.64m32.16-12.54c7.4 3.06 16.14 8.61 18.16 11.29"/></g><g style="font-size:8;fill:gray"><text transform="translate(14.5 16.38)">1</text><text transform="translate(6.5 43.5)">2</text><text transform="translate(9.5 92.5)">3</text><text transform="translate(38.25 28.5)">4</text><text transform="translate(46.5 18.5)">5</text><text transform="translate(50.5 30.5)">6</text><text transform="translate(55.5 9.5)">7</text><text transform="translate(35.5 39.5)">8</text><text transform="translate(39 61.03)">9</text><text transform="translate(50.5 49.45)">10</text><text transform="translate(52.5 59.38)">11</text><text transform="translate(52.5 70.5)">12</text><text transform="translate(52.5 81.5)">13</text><text transform="translate(41.5 92.5)">14</text><text transform="translate(66.5 95.5)">15</text></g></svg>