<svg xmlns="http://www.w3.org/2000/svg" width="109" height="109"><g style="fill:none;stroke:#000;stroke-width:3;stroke-linecap:round;stroke-linejoin:round"><path d="M18.13 15.75c4.45 1.56 11.5 6.41 12.62 8.84m-18.5 16.16c4.85 1.9 12.54 7.8 13.75 10.75M13.25 88.23c1.71 1.27 3.93 1.42 4.86-.25C22 81 24.75 75.25 27.25 68.5m37.38-57c1.04.48 1.66 2.14 1.87 3.1.21.95 0 18.88-.21 24.83m.38-14.41c6-.63 15.07-1.4 20.96-2.03 1.46-.16 1.83-.21 2.75 0M47.64 19.5c1.04.48 1.66 2.14 1.87 3.1.21.95 0 12.38-.21 18.34"/><path d="M34.15 41.16c.64.19 2.36.66 4.07.59 9.23-.39 41.12-3.41 52.85-3.41 1.72 0 4.69.39 5.67.59M46.21 51.59c.94.43 1.5 1.94 1.69 2.8s-.19 23.36-.19 31.82m.26-19.05c4.16-.44 6.94-1.31 11.02-1.75 1.01-.11 1.27-.15 1.91 0m-24.91.43c.81.37 1.29 1.67 1.45 2.41s0 16.55-.16 21.18"/><path d="M29.5 90.44c.34.5 2.28 1.29 3.17 1.01 6.08-1.94 20.33-7.19 26.6-9.56m19.31-32.71c1.04.48 1.87 2.12 1.87 3.1 0 9.72-.21 32.97-.21 39.88m.32-22.54c4.77-.5 7.97-1.01 12.65-1.51 1.16-.12 1.46-.17 2.19 0m-28.63-3.99c1.12.51 1.79 2.31 2.01 3.34s0 19.12-.22 25.54m-13.31.75c.55.17 2.02.56 3.49.5 7.9-.33 24.36-1.85 34.41-1.85 1.47 0 4.02.33 4.86.5"/></g><g style="font-size:8;fill:gray"><text transform="translate(11.5 15.5)">1</text><text transform="translate(5.5 41.5)">2</text><text transform="translate(5.5 90.5)">3</text><text transform="translate(54.25 11.5)">4</text><text transform="translate(70.5 20.5)">5</text><text transform="translate(39.5 20.5)">6</text><text transform="translate(32.5 37.68)">7</text><text transform="translate(37.25 51.5)">8</text><text transform="translate(52.5 62.28)">9</text><text transform="translate(31.5 62.2)">10</text><text transform="translate(26.5 86.5)">11</text><text transform="translate(66.5 49.5)">12</text><text transform="translate(82.5 65.98)">13</text><text transform="translate(61.5 61.65)">14</text><text transform="translate(55.5 90.08)">15</text></g></svg>