<svg xmlns="http://www.w3.org/2000/svg" width="109" height="109"><g style="fill:none;stroke:#000;stroke-width:3;stroke-linecap:round;stroke-linejoin:round"><path d="M15.13 14.5c4.1 1.69 10.59 6.96 11.62 9.59M12 42c4.24 1.41 10.94 5.8 12 8M10.75 87.73c1.71 1.27 3.78 1.32 4.86-.25 3.14-4.57 6.29-10.16 9.14-15.99m28.07-58.24c.06.77.27 2.05-.12 3.08-1.73 4.63-10.08 20.81-20.95 29.46m20.96-27.75c6.73 3.76 12.79 9.57 16.1 16.82m-25.62 3.73c.91.18 2.58.73 3.49.68 5.07-.27 9.57-1.27 13.98-1.78 1.5-.17 2.43.08 3.19.17m-27.7 11.8c.19.27.38.49.47.82.66 2.63 1.73 9.88 2.18 14.59m-1.76-14.02c4.8-1.2 8.89-2.08 11.1-2.42.81-.13 1.3.75 1.18 1.49-.48 3.07-1.04 7.56-1.76 11.8m-8.67 1.62c2.61-.39 6.12-.65 9.7-1.25m5.22-14.32c.19.25.39.46.47.78.66 2.5 1.46 10.39 1.91 14.88M55 49.06c4-.95 8.55-1.52 10.8-1.85.82-.12 1.31.71 1.2 1.42-.49 2.92-1.79 8.26-2.52 12.29m-8.19 1.53c2.63-.37 6.34-1 9.88-1.18m-23.66 9.27c.15 1.03.1 2.01-.11 2.67-1.82 5.82-5.99 13.52-13.47 20.54m13.56-14.76c2.65 1.06 6.04 3.88 7.33 6.55m10.83-16.67c.13 1.11.09 2.18-.09 2.9-1.6 6.3-5.24 14.63-11.76 22.23m11.02-14.09c2.56 1.19 5.51 3.96 6.75 6.95m14.39-73.22c.03.82.18 2.17-.06 3.31-1.52 7.27-5.64 23.74-10.89 33.8m8.45-13.58c.04-.17 2.03.56 2.74.46 4.3-.63 8.3-2.13 12.71-2.72 1.27-.17 2.06-.02 2.39.08"/><path d="M87.1 39.93c.39 1.35.6 2.31.2 4.77C83.59 67.04 75.14 87 62.94 94.75"/><path d="M71.92 53.01C78.25 68.25 84.75 80.75 95.5 91.9c1.45 1.5 2.34 1.7 3.5 1.85"/></g><g style="font-size:8;fill:gray"><text transform="translate(8.5 14.5)">1</text><text transform="translate(3.5 42.5)">2</text><text transform="translate(3.5 89.5)">3</text><text transform="translate(45.5 13.5)">4</text><text transform="translate(59.5 20.5)">5</text><text transform="translate(48.5 35.5)">6</text><text transform="translate(29.5 56.5)">7</text><text transform="translate(38.5 47.5)">8</text><text transform="translate(40.75 60.5)">9</text><text transform="translate(56 54.5)">10</text><text transform="translate(55.5 45.5)">11</text><text transform="translate(56.75 60)">12</text><text transform="translate(31.75 73.73)">13</text><text transform="translate(45.5 79.5)">14</text><text transform="translate(50.5 71.58)">15</text><text transform="translate(63.5 80.5)">16</text><text transform="translate(69.75 12.5)">17</text><text transform="translate(81.5 33.5)">18</text><text transform="translate(77.75 45.28)">19</text><text transform="translate(73.75 54.5)">20</text></g></svg>