<svg xmlns="http://www.w3.org/2000/svg" width="109" height="109"><g style="fill:none;stroke:#000;stroke-width:3;stroke-linecap:round;stroke-linejoin:round"><path d="M13.13 19.25c3.4 1.21 8.77 4.96 9.62 6.84M11 43.75c3.35 1.19 8.66 4.9 9.5 6.75m-9.25 37.71c1.5.54 3.31.36 4.25-1.25 2.75-4.7 5.5-10.45 8-16.45m5.48-41.89c.74.31 1.61.39 2.35.31 8.06-.84 21.88-3.53 29.69-3.56 1.24 0 1.98.15 2.6.3"/><path d="M36.37 18.07c1 1.27 1.32 1.65 1.42 2.44 1 7.31 1.48 12.82 1.76 15.47m14.81-21.17c.37 1.04.76 1.79.44 3.1-1.15 4.7-1.93 12.118-3.19 17.138m-10.483.702c2.726-.123 6.94-.204 9.625-.363M31.41 41.95c.3.3.6.54.73.91 1.03 2.94 2.7 10.5 3.41 15.77m-2.29-15.69c7.49-1.19 21.92-3.18 25.39-3.57 1.27-.14 2.04.84 1.85 1.66-.75 3.43-1.63 7.03-2.75 11.78m-22.07 3.25c4.09-.44 17.73-2.15 23.34-2.81M31.99 66.16c.61.27 1.72.38 2.33.27 5.27-.93 17.02-2.18 22.62-2.75 1.01-.1 1.62.13 2.12.26M28.39 77.5c.59.27 1.68.27 2.28.27 3.55-.01 22.84-2.51 28.77-3.16.99-.11 1.59.13 2.08.26"/><path d="M45.44 36.871c.33.85.311 3.039.291 4.689-.32 32.43-2.851 45.86-17.991 55.13"/><path d="M44.13 78.92c6.1 3 11.89 8.19 14.43 13.51M72.25 16.8c.08 1.09-.02 2.51-.29 3.42-1.72 5.85-3.9 10.77-7.84 17.81m2.63-.44c.75.91 1.57 2.64 1.59 3.41.36 10.91-.34 47.42-.1 53.58m19.8-78.06c.07.97-.02 2.25-.23 3.07-1.38 5.27-3.12 9.32-6.28 15.69m-13.51 2.81c5.2-.86 25-3.15 27.23-3.65M82.3 37.16c.25.43.87 3.01.87 3.74 0 7.38.03 36.28-.12 47.88"/><path d="M68.95 54.62c4.91-.68 24.91-2.01 27.01-2.4M68.85 70.57c5.18-.53 25.17-1.76 27.39-2.08m-27.62 21.7c6.7-.69 28.4-2.02 30.63-2.52"/></g><g style="font-size:8;fill:gray"><text transform="translate(6.5 19.5)">1</text><text transform="translate(3.5 43.5)">2</text><text transform="translate(4.5 91.5)">3</text><text transform="translate(26.5 25.5)">4</text><text transform="translate(30.5 15.5)">5</text><text transform="translate(45.5 15.5)">6</text><text transform="translate(33.1 36)">7</text><text transform="translate(26.5 50.5)">8</text><text transform="translate(31 41)">9</text><text transform="translate(35.6 52.5)">10</text><text transform="translate(29 64.95)">11</text><text transform="translate(26.5 74.13)">12</text><text transform="translate(46.3 47.7)">13</text><text transform="translate(51.75 83.23)">14</text><text transform="translate(63.5 14.5)">15</text><text transform="translate(60 55.08)">16</text><text transform="translate(80.5 12.5)">17</text><text transform="translate(71.5 34.5)">18</text><text transform="translate(86 43.5)">19</text><text transform="translate(72.27 51.5)">20</text><text transform="translate(72.27 67.5)">21</text><text transform="translate(72.5 86.5)">22</text></g></svg>