<svg xmlns="http://www.w3.org/2000/svg" width="109" height="109"><g style="fill:none;stroke:#000;stroke-width:3;stroke-linecap:round;stroke-linejoin:round"><path d="M11.74 37.75c2.88 3.72 7.06 14.28 7.84 18m21.53-25.5c.68.83.99 1.92.37 3.2-.61 1.28-6.93 11.31-10.01 14.3"/><path d="M26.75 14.25c.76.79 1.52 1.83 1.53 3.14C28.5 71.38 24.5 82.12 12 95.75M29.75 67c4.75 3.09 10.75 12.87 12 17.25m25.85-72.5c.07.36 1.57 1.87 1.64 4.15.35 10.95-.22 38.9-.22 42.63 0 9.52-6.2.57-7.49-.37m-4.58-27.97c.04.49.14 1.29-.07 1.96-1.52 4.88-6.98 13.75-12.2 18.25m37.75-22.42C88.05 31.61 95.59 40.94 97 46.59m-10.22.63c.13 1.17.51 3.1-.28 4.68C79.5 66 61 86 37.72 96.25"/></g><g style="font-size:8;fill:gray"><text transform="translate(5.5 36.5)">1</text><text transform="translate(33.5 28.5)">2</text><text transform="translate(17.5 14.5)">3</text><text transform="translate(32.54 66.5)">4</text><text transform="translate(59.5 11.5)">5</text><text transform="translate(50.5 25.5)">6</text><text transform="translate(78.5 24.5)">7</text><text transform="translate(79.25 46.5)">8</text></g></svg>