<svg xmlns="http://www.w3.org/2000/svg" width="109" height="109"><path d="M13.99 36.75c2.05 3.93 5.03 15.07 5.59 19m22.45-24.5c.76.77.61 2.28-.08 3.47s-7.27 10-10.72 12.78m-3.48-31.75c.76.75 1.52 1.75 1.53 3 .22 51.5-3.78 60-15.78 74.75m16-27c4.26 2.73 9.63 11.38 10.75 15.25m10.79-60.99c.97.43 1.56 1.94 1.75 2.8.2.86 0 61.81-.2 67.19m-.08-68.87c7.75-.49 27.72-2.28 36.83-3.19 2.7-.27 4.37-.16 5.73.02M53.39 45.16c15.39-1.52 22.46-2.41 33.16-3.24 2.62-.2 4.05 1.39 3.49 3.98C89.16 50 88 58 87.26 63.49m-34.28 2.78c6.43-.64 30.93-2.22 36.98-2.61M52.868 89.526c1.74.34 2.86.57 5.23.35 6.698-1.033 21.131-3.642 29.875-2.967 3.26-.1 5.23.29 6.86.53" style="fill:none;stroke:#000;stroke-width:3;stroke-linecap:round;stroke-linejoin:round"/><g style="font-size:8;fill:gray"><text transform="translate(7.85 35.5)">1</text><text transform="translate(34.5 29.5)">2</text><text transform="translate(18.71 16.5)">3</text><text transform="translate(32.54 65.85)">4</text><text transform="translate(45.5 31.5)">5</text><text transform="translate(54.5 17.5)">6</text><text transform="translate(57.5 41.5)">7</text><text transform="translate(57.5 62.1)">8</text><text transform="translate(57.5 87.03)">9</text></g></svg>