<svg xmlns="http://www.w3.org/2000/svg" width="109" height="109"><g style="fill:none;stroke:#000;stroke-width:3;stroke-linecap:round;stroke-linejoin:round"><path d="M19.83 16.82c2.23.86 4.93.33 7.21.03 6.72-.88 16.7-2.55 23.45-3.16 2.21-.2 4.37-.3 6.55.2m-18.11 5.12c.07 1.11-.15 1.84-.57 2.8C35.88 27.5 28.12 38 17.1 47.12m18.31-15.54c1.24.17 2.74-.01 3.95-.27 3.51-.77 6.72-1.65 11.39-2.91 2.72-.73 4.46 1.06 3.43 3.82C50 43.5 37.25 61.38 19.02 71.5"/><path d="M29.5 39.88c3.38 1.96 8.74 8.07 9.59 11.12m28.48-31.37c1.03 1.03 1.27 2.62 1.27 4.9 0 9.79-.02 15.49-.04 20.72 0 1.83-.01 3.61-.01 5.49m19.57-38.41c1.03 1.03 1.42 2.29 1.42 4.26 0 11.25.01 44.71.01 48.54 0 8.61-7.36-.84-8.79-1.81M22 79.25c0 6.43-5.75 15.91-7.25 17.75m27.02-18.42c2.7 2.95 5.26 11.05 5.94 15.63m15.16-17.38c2.62 2.8 6.78 11.52 7.43 15.88m13.72-16.13c3.72 3.2 9.61 13.16 10.54 18.13"/></g><g style="font-size:8;fill:gray"><text transform="translate(13.25 17.25)">1</text><text transform="translate(28.25 26.25)">2</text><text transform="translate(43.25 26.25)">3</text><text transform="translate(35 41.88)">4</text><text transform="translate(63.25 17.25)">5</text><text transform="translate(78.25 12.25)">6</text><text transform="translate(15.25 81.25)">7</text><text transform="translate(34.25 81.25)">8</text><text transform="translate(56 81.25)">9</text><text transform="translate(74 81.25)">10</text></g></svg>