<svg xmlns="http://www.w3.org/2000/svg" width="109" height="109"><g style="fill:none;stroke:#000;stroke-width:3;stroke-linecap:round;stroke-linejoin:round"><path d="M32.88 14.38c.5 1.35.16 2.57-.55 4.16-4.06 9.08-9.31 18.01-15.09 24.07m16.64-21.37c.69.18 1.72.58 2.88.35 3.73-.71 7.79-1.38 9.98-1.8 3.03-.58 3.74.43 3.02 3.28C46.73 35 33.5 55.75 17.42 66.25"/><path d="M29.82 31.84c1.36.41 6.81 2.86 9.54 5.31m-17.68 5.62c1.87.9 7.46 4.71 9.02 6.73m19.68-12.31c.81.32 3.56.47 5.12.29 8.15-.99 19.56-2.23 25.02-2.63 1.12-.08 2.72-.37 5.22.18"/><path d="M66.36 14.08c.71.8 1.22 1.85 1.24 3.45.28 19.47-6.1 42.59-23.57 50.59m22.8-27.89c5.89 7.88 16.79 20.16 23.91 26.16 1.86 1.57 2.63 1.7 3.52 1.84M77.62 15c4.12 3 7.12 6.74 8.86 10.33M20.75 80c0 5.52-4.76 13.67-6 15.25M40.5 77.38c2.5 3.38 3.91 12.44 3.92 16.96m16.6-17.5c2.74 2.94 6.29 12.02 6.29 16.53m16.45-15.93c3.5 2.9 8.36 11.85 8.64 16.29"/></g><g style="font-size:8;fill:gray"><text transform="translate(25.5 15.13)">1</text><text transform="translate(38.25 18.13)">2</text><text transform="translate(32.5 31.63)">3</text><text transform="translate(26.5 43.5)">4</text><text transform="translate(51.75 34.5)">5</text><text transform="translate(58.5 14.5)">6</text><text transform="translate(73.5 45.5)">7</text><text transform="translate(73.5 12.5)">8</text><text transform="translate(15.5 77.5)">9</text><text transform="translate(30.5 78.5)">10</text><text transform="translate(51.5 78.5)">11</text><text transform="translate(72.5 78.5)">12</text></g></svg>