<svg xmlns="http://www.w3.org/2000/svg" width="109" height="109"><g style="fill:none;stroke:#000;stroke-width:3;stroke-linecap:round;stroke-linejoin:round"><path d="M14.74 38c1.59 3.47 3.91 13.28 4.34 16.75m23.02-24c.7.7.51 2.12-.12 3.2s-6.6 9.03-9.75 11.55m-4.48-29.25c.76.75 1.52 1.75 1.53 3C29.5 70.75 25.5 81 13 94m16.75-29c4.75 2.64 10.75 8.51 12 12.25M62.95 11c.05.87.11 2.25-.1 3.51-1.25 7.39-8.43 23.62-18.26 33.55M63 21.59c.59.28 1.4.33 2.35.19 3.63-.53 14.12-2.77 16.47-2.86s2.82.93 2.46 2.88c-.35 1.95-3.96 17.42-9.12 22.72-1.55 1.59-3.37.43-5.13-1.34m-6.06 3.03c.05.27.19.8-.09 1.1-3.73 3.92-8.09 7.41-16.59 10.52m-1.85-1.03c.72.74 1.01 2.4 1.19 3.92.65 5.56 2.7 27.27 3.36 34.78M48.3 74.37c3.56-.34 13.83-2.69 14.68-2.69h2.71m7.16-17.56c.85.17 1.52.51 2.71.51s13.72-2.03 15.07-2.2 2.48.84 2.37 1.86c-1.02 9.8-2.37 28.72-3.39 36.82-.15 1.17 0 1.86-.17 2.53"/><path d="M73.19 70.51c.85.17 1.52.51 2.71.51 1.18 0 14.28-1.35 15.64-1.52M50.16 92.63c2.2 0 36.07-2.2 38.61-2.37"/></g><g style="font-size:8;fill:gray"><text transform="translate(7.5 36.5)">1</text><text transform="translate(38.5 27.5)">2</text><text transform="translate(18.5 16.5)">3</text><text transform="translate(31.5 64.5)">4</text><text transform="translate(56.5 11.5)">5</text><text transform="translate(69.5 18.5)">6</text><text transform="translate(57.5 48)">7</text><text transform="translate(40.5 64)">8</text><text transform="translate(49.5 71)">9</text><text transform="translate(71.5 52)">10</text><text transform="translate(70.5 68)">11</text><text transform="translate(52.5 88)">12</text></g></svg>