<svg xmlns="http://www.w3.org/2000/svg" width="109" height="109"><g style="fill:none;stroke:#000;stroke-width:3;stroke-linecap:round;stroke-linejoin:round"><path d="M28.12 19.39c1.4.36 3.98.33 5.38.22 14.62-1.21 27.47-3.73 43.97-4.23 2.34-.07 3.75.06 4.92.23"/><path d="M52.76 8.26c.86.25 1.37 1.22 1.54 1.77.17.56.01 13.13-.16 16.66m-19.71 2.02c1.14.16 3.23.17 4.37.08 11.2-.79 24.95-2.04 34.63-2.5 1.9-.09 3.04.02 3.99.09m-42.68 9.45c.39.22.79.41.96.68 1.36 2.2 2.99 8.27 3.92 12.22M37.18 37c9.6-.92 29.57-3 34.66-3.86 1.79-.3 3.61 1.16 3.14 2.82-.73 2.55-1.8 4.74-4.1 8.73m-30.87 2.58c5.81-.35 25.8-1.89 33.18-2.24m-37.42 4.58c2.49 1.48 6.42 6.09 7.04 8.39m27.73-9.49c.01.21.03.56-.03.86-.3 1.82-2.06 5.82-4.46 8.27m-49.8 4.79c1.94.47 5.5.58 7.43.47 14.28-.86 43.65-4.75 65.28-5.39 3.23-.1 5.17.22 6.79.46m-60.47 9.81c.46.21.93.39 1.13.66 1.59 2.12 2.49 8.97 3.58 12.77m-1.85-12.3c11.23-.89 28.41-3.58 34.2-3.25 1.66.09 2.89 2.1 2.59 2.75-1 2.11-1.85 4.76-3.79 8.26m-30.69 3.14c6.8-.34 24.76-2.48 33.39-2.82M24.94 87.5c0 4.89-5.16 12.1-6.5 13.5m21.27-15.17c3.27 2.62 6.37 9.81 7.19 13.88m14.92-14.13c3.33 2.36 8.6 9.71 9.43 13.38m9.96-14.63c4.69 2.58 12.12 10.62 13.29 14.63"/></g><g style="font-size:8;fill:gray"><text transform="translate(20.5 19.5)">1</text><text transform="translate(43.25 9.5)">2</text><text transform="translate(26.5 30.5)">3</text><text transform="translate(27.25 42.4)">4</text><text transform="translate(38.5 35.5)">5</text><text transform="translate(43.5 45.5)">6</text><text transform="translate(30.5 56.18)">7</text><text transform="translate(62.25 54.1)">8</text><text transform="translate(8.5 63.5)">9</text><text transform="translate(27.25 76.95)">10</text><text transform="translate(39.5 67.5)">11</text><text transform="translate(42.5 76.5)">12</text><text transform="translate(15.5 87.5)">13</text><text transform="translate(31.5 91.5)">14</text><text transform="translate(53.25 91.58)">15</text><text transform="translate(73.5 90.5)">16</text></g></svg>