<svg xmlns="http://www.w3.org/2000/svg" width="109" height="109"><path d="M25.75 17.68c1.44 1.38 2.88 5.09 3 7.31m21.48-10.62c.63.45.34 2.11-.24 2.81-.57.7-5.88 5.14-8.74 6.78M37.86 10c.89.74.89 2.65.89 3.13 0 14.12-4.75 21.62-11.25 26.12m10.97-10.86c4.09 1.35 9.25 5.61 10.33 7.52m7.95-19.48c1.84 1.76 3.31 4.59 3.5 6.56m21.53-9.62c.54.43.29 1.99-.2 2.65s-5.88 4.39-8.33 5.93m-3.91-11.7c.91.69.91 1.54.91 1.99 0 11.51-3 21.35-11.5 25.26m11.47-9.36c4.39 1.21 9.93 5.06 11.08 6.77m-61.14 6.28c-.14 3.93-3.48 14.22-4.66 16.56m4.22-12.25c3.53 0 48.75-4.75 66.47-4.75 12.06 0 3.81 5.75-.69 9.5m-49.38 3.42c.34.28.69.51.83.86 1.17 2.74 2.56 10.26 3.35 15.15m-2.07-15.04c8.32-.99 24.41-3.19 28.7-3.5 1.57-.11 2.51 1.46 2.28 2.28-.94 3.4-2.01 6.33-4.01 11.23m-24.55 3.24c5.04-.35 19.73-2.47 26.12-2.79m-14.63 4.36c.84.89.78 2.1.27 3.14-.38.78-4.14 5.57-4.81 6.6m-15.85 1.15c.46.36.93.67 1.14 1.12 1.59 3.51 2.99 11.27 4.07 17.51m-3.83-17.34C44.47 80.61 67.6 77 73.44 76.73c2.14-.1 3.42 1.92 3.11 2.96-1.28 4.3-1.24 6.09-3.71 13.65m-35.92 3.7c11.08-.29 29.34-2.84 38.05-3.08" style="fill:none;stroke:#000;stroke-width:3;stroke-linecap:round;stroke-linejoin:round"/><g style="font-size:8;fill:gray"><text transform="translate(19.5 17.5)">1</text><text transform="translate(45.5 10.5)">2</text><text transform="translate(29.5 9.5)">3</text><text transform="translate(44.5 29.5)">4</text><text transform="translate(56.5 13.33)">5</text><text transform="translate(76.5 10.5)">6</text><text transform="translate(63.5 9.5)">7</text><text transform="translate(77.5 28.5)">8</text><text transform="translate(13.5 42.5)">9</text><text transform="translate(32.5 41.5)">10</text><text transform="translate(28.5 60.88)">11</text><text transform="translate(39.5 51.5)">12</text><text transform="translate(43.5 64.5)">13</text><text transform="translate(42.25 73.5)">14</text><text transform="translate(23.25 87.5)">15</text><text transform="translate(36.5 77.5)">16</text><text transform="translate(39.5 93.5)">17</text></g></svg>