<svg xmlns="http://www.w3.org/2000/svg" width="109" height="109"><g style="fill:none;stroke:#000;stroke-width:3;stroke-linecap:round;stroke-linejoin:round"><path d="M8.24 37.12c2.49 3.27 6.12 12.55 6.8 15.82m17.53-23.97c.58.67.21 2.07-.31 3.11s-5.23 8.72-7.83 11.16M21.02 15.5c.57.78 1.15 1.82 1.14 3.13-.11 51.85-.91 63.12-13.41 76.87m14.14-28.23c4.24 2.77 9.61 11.54 10.72 15.46m15.53-71.1c.55.55 1.19 2.14 1.27 2.48.08.33-.05 13.94-.13 16.03m.59-8.85c4.13-.79 7.57-1.97 8.2-1.97s1.76 0 2.27.09m-18.69 5.33c.08.29.26 1.17.16 1.75-.54 3.45-3.86 10.89-8.11 15.52m10.01-10.55c.19.02 1.02 0 1.57-.07 1.82-.21 10.94-2.22 13.36-3.02 1.74-.57 2.33.52 1.83 1.7C57.75 39 47 51.75 34.28 57"/><path d="M41.87 37.04c2.33 1.25 6.02 5.13 6.6 7.08m20.49-24.58c.84.19.94.48 2.61.19s13.68-2.76 14.83-3.05 1.98 1.05 1.57 2.1C83.06 31.16 74.39 40.58 65 45.25"/><path d="M68.67 26.27c4.64 1.32 17.27 11.46 21.96 17.91M46.21 55.83c1.94 1.47 4.86 5.63 5.35 7.92m30.42-13.36c.02.31.05.81-.04 1.26-.54 2.66-3.62 8.49-7.83 12.06m-38.55 3.66c.64.13 2.76.52 4.47.38 6.17-.5 40.21-3.75 49.57-4.05 1.71-.05 2.7.04 4.01.5"/><path d="M61.5 49.75c.78.39 1.25 1.75 1.4 2.53.16.78-.16 35.6-.16 40.47 0 11.25-5.87 2.88-7 1.75"/><path d="M61 66c-5.5 9.25-16.75 20.5-29.86 25.75M63.37 66c4.07 3.43 21.94 19.66 26.37 23.04 1.5 1.14 2.79 1.63 4.29 1.96"/></g><g style="font-size:8;fill:gray"><text transform="translate(2.25 35.25)">1</text><text transform="translate(28.25 25.25)">2</text><text transform="translate(12.25 15.23)">3</text><text transform="translate(25.25 67.25)">4</text><text transform="translate(41.25 11.25)">5</text><text transform="translate(54.25 17.25)">6</text><text transform="translate(37 22.93)">7</text><text transform="translate(45.25 28.85)">8</text><text transform="translate(47.25 37.78)">9</text><text transform="translate(65.25 17.25)">10</text><text transform="translate(74.25 27.25)">11</text><text transform="translate(39.25 61.55)">12</text><text transform="translate(72 50.48)">13</text><text transform="translate(32.25 65.25)">14</text><text transform="translate(51 52.25)">15</text><text transform="translate(42.25 77.25)">16</text><text transform="translate(74.25 74.18)">17</text></g></svg>