<svg xmlns="http://www.w3.org/2000/svg" width="109" height="109"><g style="fill:none;stroke:#000;stroke-width:3;stroke-linecap:round;stroke-linejoin:round"><path d="M68.71 8.39c.09.22.2.57-.19.88-2.28 1.86-15.34 5.94-33.22 8.44m-3.28 4.68c.04.42.08 1.08-.07 1.69-.87 3.56-5.84 11.36-12.64 16.14m29.46-17.64c3.1 1.96 8.02 8.08 8.79 11.13m10.71-14.38c6.54 2.8 16.91 11.52 18.54 15.88m-55.56 6.68c.94.38 2.66.49 3.6.38 5.98-.66 30.82-3.33 36.61-2.88 1.56.12 2.5.18 3.29.37M18.88 56.98c1.52.54 4.3.63 5.82.54 15.8-.91 37.05-3.52 58.11-3.73 2.53-.03 4.05.26 5.31.53"/><path d="M46.72 44.64c.28.86.53 1.78.33 3.34C45.65 59.03 37 79.75 17.75 90.5m25.1-22.64c.34.04 2.7-.04 3.67-.11 4.38-.3 14.72-2.82 19.3-3.88 3.15-.73 3.54 1.33 2.74 3.3C64.16 77.99 42.14 96.43 22.5 102"/><path d="M37.75 72.5c4.5.75 26.43 19.27 35.75 23 6.25 2.5 11.95 3.63 14.25 4"/></g><g style="font-size:8;fill:gray"><text transform="translate(61.5 7.5)">1</text><text transform="translate(24.5 25.55)">2</text><text transform="translate(41.5 25.5)">3</text><text transform="translate(61.5 22.4)">4</text><text transform="translate(25.25 43.5)">5</text><text transform="translate(11.5 57.25)">6</text><text transform="translate(39.25 51.18)">7</text><text transform="translate(48.5 64.5)">8</text><text transform="translate(48.5 76.5)">9</text></g></svg>