<svg xmlns="http://www.w3.org/2000/svg" width="109" height="109"><g style="fill:none;stroke:#000;stroke-width:3;stroke-linecap:round;stroke-linejoin:round"><path d="M36.04 15.75c.07.67.32 1.97-.14 2.7-5.94 9.27-11.97 15.82-26.4 25.84"/><path d="M13.5 16.75c28.25 24.93 17.46 90.21 5.75 76.39"/><path d="M26.84 45.5c.04.6.2 1.77-.09 2.42-3.71 8.29-7.48 14.16-16.5 23.13m54.33-60.3c.08.75.31 2.03-.16 3.03C61.15 20.89 51.83 32.63 37 42.77m27.76-27.93c4.45 4.7 23.11 19.54 28.02 22.98 1.67 1.17 3.8 1.67 5.47 2m-44.94-4.03c.76.25 2.16.3 2.92.25 4.99-.34 13.62-1.8 18.67-1.87 1.27-.02 2.03.12 2.67.24M42.75 44.97c.37.75 1.22 2.17 1.38 3.15.43 2.7 2.09 13.9 2.85 17.95m-2.22-19.26c3.84-.77 40.67-3.93 42.27-4.08 1.33-.12 2.21 1.37 2.09 2.09-.58 3.33-3.31 14.9-4.14 18.88"/><path d="M64.47 46c.78.75 1 1.08 1.02 2.5.04 4.21.17 11.69.17 13.58M50.87 51.56c2.2 1.26 5.68 5.17 6.23 7.13m21.85-9.83c.02.24.04.62-.04.96-.43 2.03-2.9 6.49-6.27 9.22m-25.44 4.8c4.99-.47 34.55-2.27 38.34-2.27M51.06 71.66c.22.49.85 1.81.85 2.42 0 7.66.06 16.41.06 25.15m.13-26.36c7.76-.67 21.06-1.78 26.85-2.39 2.13-.23 3.22 1.2 3.11 2.54-.4 4.92-.65 16.83-1.62 25.03"/><path d="M52.17 84.64c2.53-.3 26.99-2.23 29.08-2.27M52 96.28c6.58-.58 22.06-1.2 28.44-1.66"/></g><g style="font-size:8;fill:gray"><text transform="translate(28.5 15.5)">1</text><text transform="translate(7.5 17.5)">2</text><text transform="translate(18.5 47.5)">3</text><text transform="translate(56.5 11.5)">4</text><text transform="translate(71.5 17.5)">5</text><text transform="translate(58.5 32.5)">6</text><text transform="translate(36.25 53.5)">7</text><text transform="translate(45.5 43.6)">8</text><text transform="translate(59 52.78)">9</text><text transform="translate(51.5 53.5)">10</text><text transform="translate(68.75 51.5)">11</text><text transform="translate(47.5 61.05)">12</text><text transform="translate(41.5 78.5)">13</text><text transform="translate(54.25 70.4)">14</text><text transform="translate(56.5 80.5)">15</text><text transform="translate(56.5 93.5)">16</text></g></svg>