<svg xmlns="http://www.w3.org/2000/svg" width="109" height="109"><g style="fill:none;stroke:#000;stroke-width:3;stroke-linecap:round;stroke-linejoin:round"><path d="M11.5 23.5c1.88.38 3.37.36 4.76.23 5.36-.48 14.86-1.48 21.37-2.58 1.38-.23 3.25-.27 4.87-.15m-16.18 4.02c.89.89 1.48 2.61 1.48 3.98 0 6.38.1 34.62.1 40.57"/><path d="M13.5 47.25c1.52.51 3.09.46 4.65.27 4.25-.53 12.47-2.08 17.5-2.91 1.68-.28 3.73-.73 5.35-.49M12.25 76.97c1.31.66 2.8.46 3.67.01 7.48-3.82 12.86-6.46 22.58-11.86m10.8-48.41c.87.87 1.49 2.35 1.49 3.77 0 3.1.11 27.19.15 37.77.01 2.3.01 3.96.01 4.63m.43-44.48c4.49-.65 24.66-2.94 27.27-3.15 2.17-.18 3.7 1.26 3.7 3.3 0 1.51-.08 22.61-.09 38.08v4.55"/><path d="M52.08 32.6c8.42-1.1 20.17-2.48 28.83-2.62m-28.84 16.4c8.93-.75 22.56-2.13 29.01-2.37m-29.03 15.9c6.95-.41 21.7-1.78 28.76-2.12m-23.18 7.73c.06.71.13 1.84-.12 2.86-1.46 6.03-8.88 19.49-21.26 27.37m32.48-34.28c.78.78 1.2 2.03 1.2 3.48 0 4.67-.14 12.87-.14 18.35 0 10.2 1.58 11.33 13.93 11.33 12.02 0 12.52-2.25 12.52-9.23"/></g><g style="font-size:8;fill:gray"><text transform="translate(5.25 24.13)">1</text><text transform="translate(20.25 34.5)">2</text><text transform="translate(6.5 49.63)">3</text><text transform="translate(4.5 80.5)">4</text><text transform="translate(43.5 29.5)">5</text><text transform="translate(52.5 15.5)">6</text><text transform="translate(55.5 29.5)">7</text><text transform="translate(55.46 43.5)">8</text><text transform="translate(55.46 56.5)">9</text><text transform="translate(45.5 72.5)">10</text><text transform="translate(73.5 72.13)">11</text></g></svg>