<svg xmlns="http://www.w3.org/2000/svg" width="109" height="109"><g style="fill:none;stroke:#000;stroke-width:3;stroke-linecap:round;stroke-linejoin:round"><path d="M27.44 15.42c.37.54.37.9.57 1.57 1.63 5.48 3.09 19.17 4.05 29.27m-2.9-30.01c12.92-.55 35.07-1.48 44.71-2.02 3.54-.2 5.35 1.39 5.16 2.86-.71 5.38-2.54 18.8-3.26 27.23"/><path d="M52.43 17.59c.32.66.96 1.16.95 2.12-.05 6.36.23 21.17.23 23.48"/><path d="M31.47 30.31c10.02-.63 20.08-.93 30.11-1.34 1.21-.05 2.38-.1 3.5-.14m-32.34 16c9.3 0 30.3-1.22 43.14-1.37M13 59.13c1.57.38 4.44.48 6.01.38 16.04-1 51.97-4.01 71.26-4.5 2.61-.07 4.18.18 5.48.37m-42.48 4.95c.08.48 1.17 2.51 1.25 5.56.4 14.66-.25 21.55-.25 26.55 0 11.31-8.46.51-9.96-.75"/></g><g style="font-size:8;fill:gray"><text transform="translate(20 23)">1</text><text transform="translate(31 13)">2</text><text transform="translate(56 24)">3</text><text transform="translate(33 28)">4</text><text transform="translate(35 42)">5</text><text transform="translate(13 56)">6</text><text transform="translate(44.25 68.18)">7</text></g></svg>