<svg xmlns="http://www.w3.org/2000/svg" width="109" height="109"><g style="fill:none;stroke:#000;stroke-width:3;stroke-linecap:round;stroke-linejoin:round"><path d="M56.56 12.38c.97.97 1.26 2.62 1.26 3.9 0 .79-.07 2.59-.07 7.46m-30.62 1.49c3.12.59 6.24.7 9.37.33 14.84-.92 34.92-2.5 48.11-3.06 3.12-.13 6.19.25 9.26.82m-64.13 2.93c.88.88 1.05 2.33.98 4.12-1.23 32.5-4.48 47.5-16.17 64.09m-3.3-57.71C15.13 38.51 21.03 43.26 22 46"/><path d="M9.92 66.54c1.53.67 2.76.22 4.1-.59 5.45-3.28 7.6-4.62 11.72-7.45m33.17-29.25c.06.82-.19 2.17-.63 3.29C55.25 40.25 48 51.75 34.73 63.5m25.89-30.67c3.88 4.92 13.9 14.97 21.45 21.61a31.7 31.7 0 0 0 11.45 6.61M64.59 49c0 1.12-.32 1.85-.88 2.55-4.08 5.08-12.07 13.12-25.25 19.25m36.15-10.17c-.03 1.38-.52 2.46-1.48 3.25-5.44 5.24-15.89 12.74-35.01 20.11m46.39-11.02c0 1.28-.63 2.52-1.56 3.46-6.45 5.83-21.45 14.2-48.88 22.33"/></g><g style="font-size:8;fill:gray"><text transform="translate(47.5 12.5)">1</text><text transform="translate(29.66 22.5)">2</text><text transform="translate(23.71 35.85)">3</text><text transform="translate(3.5 37.5)">4</text><text transform="translate(2.5 69.5)">5</text><text transform="translate(49.5 35.5)">6</text><text transform="translate(67.5 35.68)">7</text><text transform="translate(56.44 50.6)">8</text><text transform="translate(65.44 61.53)">9</text><text transform="translate(71.44 73.46)">10</text></g></svg>