<svg xmlns="http://www.w3.org/2000/svg" width="109" height="109"><g style="fill:none;stroke:#000;stroke-width:3;stroke-linecap:round;stroke-linejoin:round"><path d="M27.51 16c.31.62.35 1.38.28 1.93-.43 3.2-4.15 10.87-7.53 15.17m-6.76.87c.47 1.12.94 1.68.94 3.18s1.31 38.48 1.5 45.85m-1.22-46.89c2.64-.19 17.24-3.04 19.65-3.26 2.01-.19 3.3 1.25 3.14 2.36-.31 2.25-.37 34.44-.61 46.4"/><path d="M15.18 56.86c3.62 0 7.28-.46 10.88-.76 1.14-.09 2.29-.19 3.4-.28M15.71 80.94c7.54-.69 12.54-1.44 21.28-1.64m24.29-64.8c3.67 1.43 7.6 5.85 9.68 9.77M44 31.29c1.37.04 4.51.29 5.84.23 11.9-.58 29.66-1.97 38.95-2.13 2.27-.04 3.42.02 5.11.29m-34.97 7.41c.29.76-.02 2.54-.72 3.79-2.78 4.93-7.8 10.27-13.46 14.57m30.52-17.72c6.94 4.54 12.67 9.78 16.13 15.29m-11.89-3.11c.57 1.08.73 2.98-.18 4.93-8.58 18.41-22.58 31.41-43.58 44.31"/><path d="M52.34 57.27c2.91.26 25.14 26.96 37.24 37.08 2.27 1.9 3.95 1.87 5.92 2.04"/></g><g style="font-size:8;fill:gray"><text transform="translate(19.5 15.5)">1</text><text transform="translate(6.5 41.5)">2</text><text transform="translate(15.71 32.85)">3</text><text transform="translate(19.5 53.5)">4</text><text transform="translate(20.5 77.5)">5</text><text transform="translate(56.5 13.5)">6</text><text transform="translate(41.5 28.5)">7</text><text transform="translate(50.5 40.1)">8</text><text transform="translate(81.25 39.5)">9</text><text transform="translate(68.5 50.5)">10</text><text transform="translate(47.5 66.5)">11</text></g></svg>