<svg xmlns="http://www.w3.org/2000/svg" width="109" height="109"><g style="fill:none;stroke:#000;stroke-width:3;stroke-linecap:round;stroke-linejoin:round"><path d="M12.88 24.32c.33 1.37.82 2.41.82 4.18s-.11 54.2 0 55.98m.56-59.47c1.89-.02 15.7-1.33 17.42-1.41 1.43-.07 2.44 1.49 2.44 3.14 0 6.06-.67 43.07-.67 56.91"/><path d="M14.23 44.18c3.19-.28 6.39-.5 9.59-.66.86-.04 1.71-.08 2.53-.11M14.38 62.05c3.31-.14 6.61-.39 9.92-.61.91-.06 1.81-.12 2.68-.17M14.14 81.73c5.14-.25 12.74-1.41 19.24-1.38m32.07-68.73c.08.28 1.19 1.45 1.16 3.22-.13 10.16-.21 15.82-.21 18.71M45.58 20.47c2.89 1.87 7.46 7.7 8.19 10.62m32.35-16.55c.02.35.04.91-.04 1.42-.46 3-3.48 9.04-7.12 13.06m-35.27 3.23c-.12 3.97-2.17 13.28-3.18 15.64m2.86-11.05c2.2-.34 35.17-4.33 48.12-4.96 7.7-.37.7 8.03-.51 9.39m-39.92 3.87c.27.25.56.45.65.77.75 2.86 2.6 13.65 3.36 17.84m-2.36-16.94c4.87-.6 22.79-2.56 29.08-2.98 1.13-.08 2.92 1.22 2.47 2.99-1 3.93-2.24 7.12-3.32 12.85m-25.32 2.09c6.3-.83 21.97-1.2 26.96-1.77M47.62 76.94c1.36.55 3.84.67 5.19.55C62 76.68 78 75.24 85.22 74.91c2.26-.1 3.61.26 4.74.53"/><path d="M66.35 64.12c.09.32 1.71 1.69 1.8 3.74.37 8.85-.04 20.66-.04 25.01m-32.1 1.96c1.52.45 4.33.59 5.84.45C58 93.75 78.5 92.25 92.83 92.42c2.54.03 4.07.21 5.34.44"/></g><g style="font-size:8;fill:gray"><text transform="translate(6.85 32.85)">1</text><text transform="translate(16.5 21.5)">2</text><text transform="translate(17.67 40.5)">3</text><text transform="translate(17.5 58.5)">4</text><text transform="translate(17.68 78.5)">5</text><text transform="translate(55.5 10.5)">6</text><text transform="translate(39.5 18.5)">7</text><text transform="translate(77.5 12.5)">8</text><text transform="translate(37.5 34.5)">9</text><text transform="translate(44.5 33.95)">10</text><text transform="translate(42.5 53.5)">11</text><text transform="translate(53.5 43.5)">12</text><text transform="translate(58.5 58.5)">13</text><text transform="translate(37.5 78.5)">14</text><text transform="translate(57.5 70.5)">15</text><text transform="translate(35.5 91.5)">16</text></g></svg>