<svg xmlns="http://www.w3.org/2000/svg" width="109" height="109"><path d="M18 26.85c1.91.56 4.4.52 6.37.25 4.87-.67 13.43-2.33 18.26-2.93 2-.25 3.65-.26 5.62.08m-21.22 5.4c.6.98.72 2.08.42 3.34-1.95 8.27-7.1 23.16-14.2 33.33m10.31-15.56c.84.84 1.19 2.11 1.36 3.25.69 4.48 1.42 11.49 2.04 19.2.13 1.56.24 3.11.33 4.63m-1.81-25.19c4.6-1.04 13.08-3.6 16.22-3.76 1.3-.07 2.3 1.61 1.89 4.05-.71 4.16-1.33 9.06-2.33 17.81m-13.76 3.5c2.78-.4 8.15-1.62 12.51-2.41 1.41-.25 2.77-.46 3.99-.59m26.96-58c.83.83 1.26 2.12 1.26 3.58 0 14.17-.01 40.95-.01 44.4 0 8.52-7.21 1.04-8.71.17m-3.31-27.23c.07 1.27.04 2.35-.42 3.55-2.02 5.28-6.32 13.99-9.85 18.46M84.5 32.25c5.3 3.14 12.42 11.21 13.75 16.09m-9.61 1.74c.11 1.16-.18 2.77-.72 4.42-4.5 13.61-22.08 34.6-39.67 43.74" style="fill:none;stroke:#000;stroke-width:3;stroke-linecap:round;stroke-linejoin:round"/><g style="font-size:8;fill:gray"><text transform="translate(20.25 24.5)">1</text><text transform="translate(18.75 39.05)">2</text><text transform="translate(19.5 67.5)">3</text><text transform="translate(29.5 49.5)">4</text><text transform="translate(30.75 70.5)">5</text><text transform="translate(61.5 13.5)">6</text><text transform="translate(53.5 32.5)">7</text><text transform="translate(79.5 29.5)">8</text><text transform="translate(80.5 51.5)">9</text></g></svg>