<svg xmlns="http://www.w3.org/2000/svg" width="109" height="109"><path d="M14.38 33.51c.65.18 1.83.23 2.47.18 8.08-.62 13.73-1.94 24.52-3.02 1.07-.11 1.72.08 2.26.17m-17.18 4.34c.05.85.11 2.21-.1 3.44C25.12 45.86 18.1 61.76 8.5 71.5M21 57.69c.29.39.59.71.72 1.2 1.01 3.85 2.22 14.45 2.91 21.36m-1.81-20.88c7.1-1.49 14.28-2.38 17.69-2.88 1.25-.19 2 1.09 1.82 2.18-.74 4.49-2.65 9.92-3.75 16.13m-13.81 3c5.15-.77 9.34-1.47 16.11-2.44m18.97-59.38c.03.48.07 1.23-.06 1.92-.78 4.04-5.24 12.92-11.35 18.35m28.08-21.17C82.78 19.39 90.39 27.6 92.54 32m-23.11-1.75c.06.85.27 2.28-.12 3.43-3.24 9.61-10.59 23.43-20.4 32.82m20.81-32.67c5.92 9.1 16.94 22.1 22.36 26.93 1.35 1.2 2.9 1.98 4.17 2.38m-42.28 5.13c.35.46.7.84.86 1.41 1.21 4.5 3.15 16.94 3.97 25.03m-3.2-25.06c9.9-1.4 21.62-2.62 27.43-3.52 1.98-.31 3.2 2.06 2.9 3.41-1.44 6.44-3.02 12.22-4.36 20.12m-21.84 2.27c7.65-.62 14.22-1.05 24.18-1.78" style="fill:none;stroke:#000;stroke-width:3;stroke-linecap:round;stroke-linejoin:round"/><g style="font-size:8;fill:gray"><text transform="translate(8.5 33.5)">1</text><text transform="translate(17.5 43.5)">2</text><text transform="translate(17.25 71.98)">3</text><text transform="translate(26.5 55.5)">4</text><text transform="translate(28.5 74.5)">5</text><text transform="translate(51.25 17.5)">6</text><text transform="translate(71.5 14.68)">7</text><text transform="translate(61.5 35.5)">8</text><text transform="translate(77.5 40.5)">9</text><text transform="translate(45.25 78.5)">10</text><text transform="translate(58.5 66.5)">11</text><text transform="translate(61.5 88.5)">12</text></g></svg>