<svg xmlns="http://www.w3.org/2000/svg" width="109" height="109"><g style="fill:none;stroke:#000;stroke-width:3;stroke-linecap:round;stroke-linejoin:round"><path d="M12.38 25.46c.69.22 1.96.28 2.64.22 8.63-.77 14.67-1.38 26.2-2.71 1.14-.13 1.84.1 2.41.21M27.2 27.64c.05.85.1 2.21-.09 3.44-1.14 7.25-7.67 23.16-16.61 32.9m10-11.17c.28.46.64.83.68 1.42.57 7.02 1.12 18.6 1.78 26.77m-.73-26.2c6.77-1.76 15.11-2.31 18.37-2.91 1.19-.22 1.9 1.3 1.73 2.58-.71 5.31-3.53 14.74-4.58 22.08M23.09 78.6c5.91-1.1 10.16-1.35 17.85-1.88m28.35-66.08c.02.33.04.84-.03 1.31-.41 2.76-2.75 8.81-5.94 12.52m-11.33 2.12c.29.43.3.73.46 1.27 1.33 4.46 2.58 16.02 3.4 24.35m-2.48-24.52c10.29-1.12 28.23-3.46 35.92-4.4 2.82-.35 3.92.6 3.72 2.96-.38 4.52-2.25 15.82-3.54 23.34"/><path d="M70.2 26.97c.85 1.07 1.28 1.22 1.3 1.92.24 6.31.09 15.93.09 19.41"/><path d="M55.29 38.73c7.86-1.03 15.76-1.8 23.64-2.66.94-.1 1.86-.2 2.74-.3M56.39 50.21c7.41-.48 22.85-1.98 33.08-2.76m-25.99 5.98c.03.43.18 1.14-.06 1.71-1.7 4.13-5.25 10.36-9.92 16.36"/><path d="M48.25 70.81c.65.25 2.4.93 4.14.75 11.72-1.24 31.25-3.82 42.38-4.06 1.74-.04 3.15.07 4.24.32"/><path d="M77.87 51.25c1.09.5 1.74 2.25 1.96 3.25s0 38.25-.22 44.5"/></g><g style="font-size:8;fill:gray"><text transform="translate(6.5 25.63)">1</text><text transform="translate(18.5 35.5)">2</text><text transform="translate(15.5 67.5)">3</text><text transform="translate(26.5 50.5)">4</text><text transform="translate(26.5 74.5)">5</text><text transform="translate(60.5 10.5)">6</text><text transform="translate(45.75 36.13)">7</text><text transform="translate(54.5 23.5)">8</text><text transform="translate(75.75 33.13)">9</text><text transform="translate(57.75 35.5)">10</text><text transform="translate(57.75 47.5)">11</text><text transform="translate(51.5 60.5)">12</text><text transform="translate(44.25 67.41)">13</text><text transform="translate(69.5 58.5)">14</text></g></svg>