<svg xmlns="http://www.w3.org/2000/svg" width="109" height="109"><g style="fill:none;stroke:#000;stroke-width:3;stroke-linecap:round;stroke-linejoin:round"><path d="M14.53 25.27c.67.14 1.9.18 2.55.14 8.35-.5 14.21-1.55 25.37-2.42 1.11-.09 1.78.06 2.33.14m-17.97 3.62c.05.98.11 2.54-.1 3.94-1.28 8.31-8.64 26.54-18.7 37.72m11.7-14.5c.26.47.53.87.64 1.46.91 4.69 2.01 17.62 2.63 26.05m-1.72-25.85c6.99-1.32 16.34-2.54 19.9-3.19 1.3-.24 2.07 1.4 1.89 2.78-.76 5.74-2.26 13.69-3.4 21.62m-15.36 2.83C29.64 78.62 33 78 42.03 77.5m26.7-65.95c.52.7 1.52 3.2 1.77 5.28.02.9-.01 14.18-.03 19.8m.67-14.41c4.11-.47 17.35-1.95 19.04-1.95h3.8m-40.9 16.24c.58.99 1.43 2.21 1.43 3.55s.26 34.86-.42 40.52m.39-42.5c3.3-.29 29.46-1.93 32.46-2.25 2.51-.26 3.84.78 3.84 2.03 0 3.07-.74 39.74-.74 40.75"/><path d="M54.57 51.31c6.17-.63 30.1-1.9 35.4-2.11M54.84 64.53c9.31-1.1 25.29-1.72 35.17-2.26m-35.6 15.66c9.31-.92 27.1-1.07 35.59-1.4m-28.14 8.2c.47 1.05.07 2.27-.87 3.08-2.85 2.47-10.77 7.69-16.48 10.71m35.73-13.96c5.81 3.37 12.67 9.64 14.26 12.73"/></g><g style="font-size:8;fill:gray"><text transform="translate(8.25 25.5)">1</text><text transform="translate(17.58 35.5)">2</text><text transform="translate(15.25 68.5)">3</text><text transform="translate(24.5 51.57)">4</text><text transform="translate(26.5 75.5)">5</text><text transform="translate(60 12.5)">6</text><text transform="translate(75.5 18.5)">7</text><text transform="translate(44.42 39.5)">8</text><text transform="translate(56.5 34.95)">9</text><text transform="translate(58.5 48.2)">10</text><text transform="translate(58.5 61.63)">11</text><text transform="translate(58.5 74.89)">12</text><text transform="translate(48.5 88.5)">13</text><text transform="translate(72.33 91.49)">14</text></g></svg>