<svg xmlns="http://www.w3.org/2000/svg" width="109" height="109"><g style="fill:none;stroke:#000;stroke-width:3;stroke-linecap:round;stroke-linejoin:round"><path d="M13.71 21.78c.6.07 1.7.1 2.28.07 7.48-.26 12.72-1.31 22.7-1.76 1-.05 1.59.03 2.09.07m-15.82 4.36c.04.85.1 2.19-.09 3.41-1.13 7.18-7.53 22.94-16.28 32.58M18 50.93c.24.5.48.91.58 1.54.82 4.95 1.81 18.61 2.38 27.5m-2.23-27.55c6.02-1.42 13.76-2.06 16.81-2.82 1.12-.28 1.78 1.64 1.62 3.26-.66 6.72-1.87 13.85-2.85 23.14m-12.22 2.25c4.38-.76 7.94-1.43 13.69-2.38m32.7-64.43c1.52.74 4.68 5.53 4.99 7.03m-25.81 5.04c1.2.27 3.38.28 4.57.22 12.4-.65 28.94-1.43 40.96-1.97 1.98-.09 3.17.09 4.17.22"/><path d="M50.73 23.75c.35 1.51.66 4.25.57 6.62-.59 15.89-4.55 49.37-20.83 62.84m25.86-57.72c.82.25 2.33.29 3.15.25 10.05-.54 21.72-2.68 30.83-3.21 1.37-.08 2.19.12 2.88.24"/><path d="M64.07 28.73c.47.22 1.46 1.64 1.48 2.09.14 3.01.95 6.93 1.99 14.34m12.3-18.94c.94.21 2.12 1.89 2.01 2.45-.71 3.38-1.25 7.1-2.38 13.38m-11.82 2c2.14 0 11.48-1.39 13.88-1.39m-28.58 8.95c.98.44 2.79.53 3.76.44 9.09-.88 25.21-3.03 36.27-3.2 1.64-.03 2.62.21 3.44.43M53.88 60.21c.85.37 2 1.94 2.08 2.43.54 3.74 3.32 13.05 4.29 20.28m-4.23-20.66C66.5 61 83.97 59.79 89.79 59.67c2.41-.05 3.29 1.53 3.16 2.6-.47 3.94-1.86 11.65-4.4 20.1"/><path d="M58.35 71.99c8.4-.99 15.65-1.49 21.8-1.65.88-.02 1.73-.17 2.54-.25m-21.66 11.9c7.85-1.42 18.07-2.17 27.31-2.68"/><path d="M72.08 51.64c1.09.34 2.02 2.1 2.02 2.52.02 7.09.23 23.89.23 25.79m-10.61 5.81c.05.3.12.78-.12 1.21-1.39 2.55-9.31 7.26-20.18 10.68m37.79-12.83c5.13 2.26 13.26 9.31 14.55 12.84"/></g><g style="font-size:8;fill:gray"><text transform="translate(6.92 22.7)">1</text><text transform="translate(16.5 31.5)">2</text><text transform="translate(13.25 64.5)">3</text><text transform="translate(22.5 48.5)">4</text><text transform="translate(23.75 74.5)">5</text><text transform="translate(66.75 8.49)">6</text><text transform="translate(47.25 20.75)">7</text><text transform="translate(44.08 32.34)">8</text><text transform="translate(54.67 33.34)">9</text><text transform="translate(66.58 30.52)">10</text><text transform="translate(83.5 29.53)">11</text><text transform="translate(68.33 41.79)">12</text><text transform="translate(53.25 48.5)">13</text><text transform="translate(47.5 71.5)">14</text><text transform="translate(57.5 59.73)">15</text><text transform="translate(61 69.5)">16</text><text transform="translate(62 78.25)">17</text><text transform="translate(77.5 57.15)">18</text><text transform="translate(50.5 89.43)">19</text><text transform="translate(75.25 93.6)">20</text></g></svg>