<svg xmlns="http://www.w3.org/2000/svg" width="109" height="109"><g style="fill:none;stroke:#000;stroke-width:3;stroke-linecap:round;stroke-linejoin:round"><path d="M38.75 16.5c.06.29.14.76-.13 1.18-1.58 2.5-10.68 7.97-23.12 11.32m-2.38 15.61c.47.22 1.73.85 2.96.66C24.25 44 31.75 43.5 41.67 42.9c1.25-.08 1.55-.22 2.33 0"/><path d="M30.24 25.41c.46.43.74 1.95.83 2.82s.06 61.59-.09 67.02c-.23 8.25-5.48 1.25-6.73 0"/><path d="M30.93 45.47C26.79 56.54 19.88 70.2 10.5 79.25m22.75-26c3.56 2.62 6.58 7.88 8.5 11.25m11-14.88c4.45-.31 8.26-1.4 12.14-1.91 1.14-.15 3.02-.15 3.61-.06"/><path d="M50.91 17.81c.72 1.34 1.34 2.74 1.29 4.55-.12 4.9-1.08 57.22-1.25 64.51-.11 4.46.58 5.39 2.49 3.78 5.35-4.51 11.28-8.9 14.56-11.15m7.25-30.74c5.09-.35 9.45-1.6 13.88-2.18 1.3-.17 3.46-.17 4.12-.07"/><path d="M73.79 16.5c.74 1.23 1.38 3.2 1.38 4.76 0 4.1-.81 49.02-.81 53.84 0 15.39.13 17.39 10.56 17.39 6.63 0 9.77-1.12 10.83-4.16"/></g><g style="font-size:8;fill:gray"><text transform="translate(30.5 13.63)">1</text><text transform="translate(5.5 44.55)">2</text><text transform="translate(22.5 35.48)">3</text><text transform="translate(18.25 55.4)">4</text><text transform="translate(37.5 52.5)">5</text><text transform="translate(55.5 45.5)">6</text><text transform="translate(43.5 13.5)">7</text><text transform="translate(79.75 42.5)">8</text><text transform="translate(65.5 13.5)">9</text></g></svg>