<svg xmlns="http://www.w3.org/2000/svg" width="109" height="109"><g style="fill:none;stroke:#000;stroke-width:3;stroke-linecap:round;stroke-linejoin:round"><path d="M43 12.5c.07.39.15 1.02-.14 1.58-1.74 3.35-13.22 9.68-26.86 14.17m-2.88 14.6c.37.21 2.36.2 3.35.12 6.03-.47 24.1-3.61 30.91-4.64.99-.15 1.24-.21 1.86 0"/><path d="M33.33 24.16c.37.49 1.08 2.21 1.16 3.2.07.98-.07 64.7-.07 64.9 0 11.75-5.29 3.12-6.91 1.5"/><path d="M33.43 42.47C29.9 52.55 24 65 16 73.25M37.75 51.5c3.25 2.16 6 6.47 7.75 9.25m26.36-46c.07.32 1.4 1.67 1.46 3.71.31 9.78-.2 34.71-.2 38.04 0 8.5-5.53.51-6.69-.33m-4.49-21.98c.04.45.14 1.19-.08 1.82-1.55 4.52-7.12 12.73-12.45 16.9m37.02-21.93C90.89 33.92 96.88 41.51 98 46.09m-11.7 1.63c.1 1.15.16 2.94-.21 4.61C83 66.25 66 87.75 48.47 96"/></g><g style="font-size:8;fill:gray"><text transform="translate(35.5 11.5)">1</text><text transform="translate(6.5 43.5)">2</text><text transform="translate(27.5 33.13)">3</text><text transform="translate(22.5 53.5)">4</text><text transform="translate(39.75 49.63)">5</text><text transform="translate(63.5 16.5)">6</text><text transform="translate(57.5 29.5)">7</text><text transform="translate(81.5 27.13)">8</text><text transform="translate(79.5 46.5)">9</text></g></svg>