<svg xmlns="http://www.w3.org/2000/svg" width="109" height="109"><g style="fill:none;stroke:#000;stroke-width:3;stroke-linecap:round;stroke-linejoin:round"><path d="M38.5 16c.07.35.15.91-.14 1.42C36.65 20.41 26.88 26.98 13.5 31m-2.13 13.84c.37.2 1.37.53 2.37.61 2.74.2 19.04-1.85 25.88-2.86.99-.15 1.24-.2 1.87 0"/><path d="M28.83 27.75c.37.42.58 1.9.66 2.75.07.85-.07 59.96-.07 60.25 0 12.25-5.29 2.38-6.41 1.25"/><path d="M29.25 46.5C25.3 57.48 18.7 71.02 9.75 80m21.5-27.5c3.98 2.1 7.35 6.3 9.5 9m27.08-39.89c7.11-.49 9.36-1.31 16.84-1.64 1.74-.08 2.17-.16 3.26 0m-22.16-7.34c.93.37 1.5 1.65 1.68 2.39.19.73.43 9.73.24 14.32M53.93 18.5c1.01.4 1.89 1.78 1.82 2.6-.25 2.9-.25 5.9-.27 10.12m-12.74 1.12c.58.14 2.11.48 3.65.43 8.27-.29 33.71-3.15 44.37-3.89 1.53-.11 4.2.29 5.08.43M48.5 49.73c.04 1.05-.04 2.69-.08 4.2-.32 14.05-4.26 34.28-12.67 40.81m9.75-46.57c1.19.21 3.36.26 4.55.21 9.12-.39 25.72-2.14 36.8-2.61 1.97-.08 3.16.1 4.15.21M52.5 61.16c.75.25 2.13.34 2.88.25 2.66-.34 8.99-1.62 11.42-1.84 1.24-.11 2.32-.2 2.95-.08m-9.15 2.76c.04.31.65 1.64.65 3.63 0 3.67-.13 7.85-.13 11.11 0 7.4-3.71.99-4.49.16m-3.44-7.43c.02.37.04.94-.04 1.47-.45 3.1-3.01 9.9-6.51 14.07"/><path d="M70.65 69.47c.06.58.14 1.51-.13 2.34-1.61 4.94-10.87 15.8-23.52 22.44m24.16-57.43c1.12 1.25 1.64 1.59 1.83 4.29 1.36 19.92 7.38 40.49 19.38 50.69 6.73 5.73 5.38 2.75 4.95-5.03M82.5 33.75c4 1.5 10.39 4.93 12.25 7.5"/><path d="M89.5 56.75c.08.86.16 2.23-.15 3.47-1.87 7.32-12.22 24-26.9 33.84"/></g><g style="font-size:8;fill:gray"><text transform="translate(30.5 13.5)">1</text><text transform="translate(4.25 44.05)">2</text><text transform="translate(21.5 36.5)">3</text><text transform="translate(18.5 54.5)">4</text><text transform="translate(33.5 51.5)">5</text><text transform="translate(73.5 17.5)">6</text><text transform="translate(58.5 9.5)">7</text><text transform="translate(46.5 16.5)">8</text><text transform="translate(40.5 29.5)">9</text><text transform="translate(38.5 54.5)">10</text><text transform="translate(47.5 45.5)">11</text><text transform="translate(52.25 58.08)">12</text><text transform="translate(61.49 67.48)">13</text><text transform="translate(48.11 68.94)">14</text><text transform="translate(69.11 78.27)">15</text><text transform="translate(58.5 39.5)">16</text><text transform="translate(78.5 40.5)">17</text><text transform="translate(79.5 55.43)">18</text></g></svg>