<svg xmlns="http://www.w3.org/2000/svg" width="109" height="109"><g style="fill:none;stroke:#000;stroke-width:3;stroke-linecap:round;stroke-linejoin:round"><path d="M52.51 10.25c1.06 1.06 1.33 2.5 1.33 3.7 0 3.05-.09 5.24-.09 8.02m-33.82 3.29c0 4.3-3.05 16.12-4.44 18.99m5.33-17.35c21.06-2.53 39.06-4.78 65.03-5.84 12.8-.52 2.71 6.86-.48 8.88m-43.6.56c.13 1.06-.33 2.04-.89 2.94-3 4.06-7.1 8.05-15.46 14.48"/><path d="M60.74 25.37c.7.7.76 1.5.76 2.52 0 2.82-.12 4.45-.12 6.36 0 3.62 2.38 5.31 13 5.31 6.81 0 11.3-.83 12.26-1.15M46.6 40.25c.08.74-.1 2.02-.65 2.98-4.7 8.15-14.08 20.02-27.11 28.49m23.98-18.33c2.56.45 5.12.22 7.69-.19 10.59-.94 24-2.85 33.25-3.97 2.96-.46 5.93-.66 8.92-.61m-39.99 7.74c.92.92 1.04 2.02 1.04 3.22 0 .7-.06 19.59-.08 31.68-.01 4.02-.02 7.28-.02 8.88m2.88-34.43c7.74-.96 13.12-1.71 23.18-2.88 1.76-.21 3.5-.24 5.24.02M55.82 78.68c6.8-.81 15.43-1.68 25.06-2.68 2.08-.22 4.11-.48 6.16-.19"/></g><g style="font-size:8;fill:gray"><text transform="translate(45.5 11.5)">1</text><text transform="translate(12.94 28.81)">2</text><text transform="translate(23.5 22.73)">3</text><text transform="translate(32.5 34.91)">4</text><text transform="translate(53.5 32.5)">5</text><text transform="translate(45.5 37.5)">6</text><text transform="translate(48 49.5)">7</text><text transform="translate(44.69 63.5)">8</text><text transform="translate(58.75 62.03)">9</text><text transform="translate(57.5 75.21)">10</text></g></svg>