<svg xmlns="http://www.w3.org/2000/svg" width="109" height="109"><g style="fill:none;stroke:#000;stroke-width:3;stroke-linecap:round;stroke-linejoin:round"><path d="M52.48 9c1.01 1.01 1.13 1.88 1.13 3.45 0 3.05-.07 5.49-.08 8.27m-33.11 2.54c0 3.85-3.05 14.43-4.44 16.99m5.39-15.26c15.38-1.87 55.75-5.24 65.09-5.13 12.09.14 2.56 6.41-.45 8.3M38.97 29c.11.85-.02 1.34-.47 2.08-2.49 4.13-7.14 8.39-14.52 12.34"/><path d="M57.84 23.37c.71.71 1 1.5 1 2.86 0 1.77-.04 1.12-.04 3.14 0 4.73 4.86 4.19 9.64 4.19 5.05 0 8.37-.61 9.08-.95m-38.14 8.01c1.77 1.31 4.88 5.37 5.32 7.4m19.03-8.38c.06.59-.07 1.14-.38 1.66-.85 1.69-2.97 4.18-5.2 6.19m-24.97 3.42c2.33.86 4.65.71 7.07.5 7.42-.64 21.89-2.11 29.62-2.85 1.67-.16 3.24-.38 4.89-.01m-22.1 4.27c1.07 1.07 1.06 2.3 1.06 3.56v15.38"/><path d="M34.75 61.71c1.59.59 4.57.79 6.24.62 7.15-.71 19.76-2.53 26.25-3.06 1.54-.12 3.05-.27 4.58.07M26.71 74.48c2.86.93 6.51.34 9.42-.02 10.62-1.33 27.87-2.58 39.24-3.13 2.28-.11 4.42-.3 6.66.14M24.69 84.18c0 4.46-6.67 11.04-8.47 12.32m24.93-14.27c1.66 2.87 3.24 10.76 3.66 15.22m15.36-16.23c2.44 2.64 6.3 10.87 6.91 14.98m13.17-15.97c4.06 3.04 10.48 12.5 11.5 17.23"/></g><g style="font-size:8;fill:gray"><text transform="translate(43.25 10.38)">1</text><text transform="translate(13.25 25.38)">2</text><text transform="translate(23.25 22.25)">3</text><text transform="translate(31.25 32.25)">4</text><text transform="translate(52.25 31.25)">5</text><text transform="translate(33.25 46.38)">6</text><text transform="translate(54.5 42.25)">7</text><text transform="translate(26 52.38)">8</text><text transform="translate(45.5 59.25)">9</text><text transform="translate(25.25 62.88)">10</text><text transform="translate(23.25 71.25)">11</text><text transform="translate(15.25 84.25)">12</text><text transform="translate(31.25 85.25)">13</text><text transform="translate(50.25 84.25)">14</text><text transform="translate(69.25 83.25)">15</text></g></svg>