<svg xmlns="http://www.w3.org/2000/svg" width="109" height="109"><g style="fill:none;stroke:#000;stroke-width:3;stroke-linecap:round;stroke-linejoin:round"><path d="M28 12c.04.56.09 1.46-.08 2.27-.99 4.79-6.66 15.3-14.42 21.73m14.73-12.21c3.71 0 18.61-2.29 22.77-2.29m-17.48 3.33c2.66 1.79 6.88 7.35 7.54 10.13m24.69-24.71c.04.55.18 1.43-.09 2.2-2.01 5.76-7.56 13.98-14.92 21.05m14.24-11.9c7.02-.1 22.08-2.72 27.4-2.72m-14.84 4.23c.02.25.05.65-.05 1.01-.58 2.12-3.92 6.78-8.49 9.63m-45.75 9.49c1.5.45 4.24.5 5.75.45 9.02-.32 37.75-3.05 51.26-2.88 2.5.03 4 .21 5.25.44M14.25 64.22c1.53.33 4.35.34 5.87.33 10.13-.05 59.71-3.47 70.27-3.38 2.55.02 4.08.16 5.36.32"/><path d="M40.33 45.12c.92.88 1.17 1.78 1.17 2.96 0 1.19.5 2.76.5 12.84S35.84 92.16 20.25 97.5m45.26-54.22c1.13.78 1.99 2.55 1.99 3.33v51.9"/></g><g style="font-size:8;fill:gray"><text transform="translate(20.5 12.5)">1</text><text transform="translate(32.5 19.5)">2</text><text transform="translate(29.25 32.5)">3</text><text transform="translate(57.5 10.63)">4</text><text transform="translate(69.5 18.5)">5</text><text transform="translate(67.5 29.5)">6</text><text transform="translate(15.5 44.5)">7</text><text transform="translate(6.5 63.5)">8</text><text transform="translate(33.5 53.5)">9</text><text transform="translate(56.5 51.5)">10</text></g></svg>