<svg xmlns="http://www.w3.org/2000/svg" width="109" height="109"><path d="M27.75 12.5c.04.51.08 1.32-.07 2.06-.87 4.34-5.86 13.86-12.68 19.69m11.73-10.44c3.5 0 17.59-2.08 21.52-2.08M30.5 25c2.38 2.07 6.15 8.52 6.75 11.75m25.26-25c.04.5.16 1.3-.08 2.01-1.77 5.26-6.68 12.77-13.18 19.24m11.24-9.69c4.33-.01 23.04-4.12 27.89-4.13M70.77 26c.02.24.05.61-.05.95-.58 2-3.91 6.37-8.47 9.05m14.25.25c.12.29-.18 1.21-.9 1.54-8.92 4.07-22.1 8.18-45.34 11.46m-3-1.67c.48.59 1.42 1.61 1.35 3.28-.67 16.23-2.23 37.3-16.61 46.64m37.62-44.68c.88.68 1.93 2.41 1.93 3.29 0 4.49-.27 34.86-.27 42.14m12.22-48.5c1.5.25 2.73 1.08 3.75 2.75 7 11.5 12.98 26.6 23.65 39.11 1.64 1.92 3.98 2.85 5.35 3.42" style="fill:none;stroke:#000;stroke-width:3;stroke-linecap:round;stroke-linejoin:round"/><g style="font-size:8;fill:gray"><text transform="translate(19.5 12.5)">1</text><text transform="translate(32.5 20.5)">2</text><text transform="translate(25.5 33.5)">3</text><text transform="translate(54.5 11.5)">4</text><text transform="translate(67.5 19.5)">5</text><text transform="translate(61.5 31.5)">6</text><text transform="translate(76.5 33.5)">7</text><text transform="translate(18.5 53.6)">8</text><text transform="translate(41.44 59.5)">9</text><text transform="translate(56.5 58.46)">10</text></g></svg>