<svg xmlns="http://www.w3.org/2000/svg" width="109" height="109"><path d="M28 13.25c.04.58.09 1.5-.08 2.34-1 4.94-6.77 15.77-14.66 22.41m13.97-13.1c4.5 0 18.96-2.26 24.02-2.26m-16.23 4.69c1.96 1.7 5.05 6.99 5.54 9.63M62.73 11c.04.55.16 1.44-.07 2.22-1.74 5.82-6.54 14.13-12.9 21.28m10.72-11.8c5.64 0 26.31-2.9 32.65-2.9m-18.37 5.45c.03.24.06.62-.06.97-.68 2.05-4.6 6.53-9.96 9.28M22.2 46.04c1.16.62 5.01.93 6.2.8 5.58-.62 46.84-3.88 56.19-4.19 1.83-.06 3.47.23 4.96.77m-36.76 2.83c1.91 2.39 1.91 3.83 1.91 5.74 0 13.4-.06 19.29-.06 42.26M36.28 55.74c.2.7.15 2.23-.13 3.01-2.69 7.63-6.91 17.58-15.18 24.87m12.42-15.26c4.56 2.26 10.39 8.28 12.61 13.98m30.28-29.6c.2.7.15 2.23-.12 3.01-2.6 7.63-6.69 17.58-14.69 24.87m11.92-15.26C79.5 69 84.75 74.5 89 80.84M15.46 96.08c.96.3 4.41.68 6.05.59 17.69-.94 52.83-3.38 68.92-3.41 2.64 0 5.79.61 7.1 1.08" style="fill:none;stroke:#000;stroke-width:3;stroke-linecap:round;stroke-linejoin:round"/><g style="font-size:8;fill:gray"><text transform="translate(19.85 11.85)">1</text><text transform="translate(33.5 20.5)">2</text><text transform="translate(28.5 33.5)">3</text><text transform="translate(53.5 10.5)">4</text><text transform="translate(67.5 18.5)">5</text><text transform="translate(63.5 31.5)">6</text><text transform="translate(14.5 47.5)">7</text><text transform="translate(46.5 55.5)">8</text><text transform="translate(27.5 56.5)">9</text><text transform="translate(38.5 70.5)">10</text><text transform="translate(65.5 53.5)">11</text><text transform="translate(78.5 66.05)">12</text><text transform="translate(4.5 96.5)">13</text></g></svg>