<svg xmlns="http://www.w3.org/2000/svg" width="109" height="109"><path d="M29.25 13c.04.57.09 1.46-.09 2.27-1.03 4.79-7 15.3-15.16 21.73m14-11.91c4.31 0 18.16-2.43 23-2.43M34 26.5c3.09 1.72 7.98 7.07 8.75 9.75m22-24.75c.04.53.19 1.38-.09 2.13C62.55 19.2 56.72 27.15 49 34m12.75-10.31c5.12 0 23.88-3.3 29.63-3.3M77 25.25c.02.26.05.67-.04 1.04-.55 2.19-3.67 7.01-7.95 9.96m-32.95 3.51c.25 1.48-.07 3.42-.88 4.69-5.19 8.08-11.93 16.8-23.14 26m18.46-15.7c1.25 1 1.13 2.97 1.16 4.25.29 10.57-.6 33.45-.33 39.75m29.9-61.5c.06.68.23 1.78-.11 2.72C58.75 46.5 53 55.75 42.5 65.5m14.42-15.31c.79.25 2.24.29 3.04.25 10.46-.52 22.38-2.52 30.16-3.09 1.46-.11 2.1-.16 3.08-.05m-32.5 4.45c.62.34 1 1.54 1.12 2.22s0 41.5-.12 45.78m.8-34.94c1.5-.06 2.42-.18 2.93-.22C72.5 64 78 63.25 88.62 61.46c.83-.14 1.34.13 1.76.27M63.15 78.78c.54.11 1.52.11 2.06.09 5.6-.24 14.53-1.64 24.85-1.86.89-.02 1.44.03 1.88.09" style="fill:none;stroke:#000;stroke-width:3;stroke-linecap:round;stroke-linejoin:round"/><g style="font-size:8;fill:gray"><text transform="translate(21.5 11.85)">1</text><text transform="translate(34.5 21.5)">2</text><text transform="translate(28.5 34.5)">3</text><text transform="translate(56.5 11.85)">4</text><text transform="translate(68.5 19.5)">5</text><text transform="translate(66.5 31.5)">6</text><text transform="translate(27.5 42.5)">7</text><text transform="translate(24.5 68.5)">8</text><text transform="translate(53.5 40.5)">9</text><text transform="translate(64.5 46.45)">10</text><text transform="translate(52.5 63.5)">11</text><text transform="translate(65.5 61.5)">12</text><text transform="translate(65.5 75.5)">13</text></g></svg>