<svg xmlns="http://www.w3.org/2000/svg" width="109" height="109"><g style="fill:none;stroke:#000;stroke-width:3;stroke-linecap:round;stroke-linejoin:round"><path d="M29.75 8.5c.04.55.09 1.41-.08 2.2-1.02 4.64-6.89 14.82-14.92 21.05m14-12.22c3.89 0 16.38-2.81 20.75-2.81m-15.23 3.86c2.29 1.88 5.91 7.74 6.48 10.67m21.46-23c.03.48.15 1.24-.07 1.92C60.5 15.18 55.98 22.34 50 28.5m12-11.62c4.73 0 21.07-3.42 26.38-3.42m-17.12 5.79c.02.19.04.5-.04.78-.5 1.65-3.33 5.26-7.22 7.47m11.75.5c.06 1.02-1.2 2.03-1.99 2.31-4.26 1.48-20.09 4.83-45.51 7.44m1.26 5.5c.03.37.07.94-.07 1.47-.78 3.09-5.28 9.88-11.44 14.03m28.46-17.7c2.74 1.55 7.09 6.38 7.78 8.79m16.05-11.96c4.93 1.52 12.73 6.25 13.96 8.62M26.2 58.12c2.05.38 3.83.73 6.17.44 14.28-1.79 31.2-4.03 44.72-5.58 3.31-.38 4.19 1.03 3.81 2.97-.98 5.07-3.04 13.74-3.62 19.88"/><path d="M13 69.63c2.25.87 4.8 1.43 7.78 1 21.72-3.13 48.34-5.9 68.99-7.39 3.3-.25 5.98 0 7.48.5m-71.2 16.8c1.27.28 3.58.53 5.1.38 14.02-1.39 31.76-4.43 44.51-4.99 2.04-.09 3.32 0 4.84.28"/><path d="M53.62 58.4c.44.71 1.25 2.34 1.29 4.72.21 11.42-.13 28.03-.13 31.91 0 8.23-7.32.98-7.9.24"/></g><g style="font-size:8;fill:gray"><text transform="translate(22.5 8.5)">1</text><text transform="translate(35.5 15.5)">2</text><text transform="translate(28.5 29.5)">3</text><text transform="translate(53.5 8.5)">4</text><text transform="translate(67.5 12.5)">5</text><text transform="translate(61.5 23.5)">6</text><text transform="translate(77.5 26.5)">7</text><text transform="translate(20.5 46.5)">8</text><text transform="translate(39.5 45.5)">9</text><text transform="translate(61.5 44.5)">10</text><text transform="translate(30.5 55.5)">11</text><text transform="translate(3.5 71.5)">12</text><text transform="translate(15.5 82.5)">13</text><text transform="translate(43.5 64.15)">14</text></g></svg>