<svg xmlns="http://www.w3.org/2000/svg" width="109" height="109"><g style="fill:none;stroke:#000;stroke-width:3;stroke-linecap:round;stroke-linejoin:round"><path d="M30.5 12.75c.03.46.07 1.2-.07 1.87-.85 3.94-5.74 12.59-12.43 17.88m10.73-8.65c4.36 0 18.37-2.67 23.27-2.67m-15.23 4.65c1.87 1.61 4.83 6.63 5.29 9.13M63.75 12.5c.03.4.11 1.04-.05 1.61-1.27 4.21-4.79 10.22-9.44 15.39m9.22-7.34c4.73 0 22.08-3.07 27.4-3.07m-14.11 4.66c.02.22.04.56-.04.88-.46 1.85-3.11 5.9-6.74 8.37m-44.58 4.75c4.09 1.58 10.57 6.52 11.59 8.98m-16 8.39c3.51 1.39 9.07 5.72 9.95 7.88m-10.7 28.72c1.64.99 3.62 1.03 4.65-.19 3.01-3.57 6.02-7.93 8.76-12.48M67 39.25c.5.61.69 1.38.46 1.88-1.66 3.69-6.82 10.6-12.38 14.79m-4.37-.63c.59 1.04 1.19 2.78 1.19 4.17s1.69 29.95 1.69 38.29m-1.33-40.41c3.35-.17 29.52-2.87 32.57-3.11 2.92-.23 3.73 1.14 3.72 3.33-.01 3.75-1.53 27.17-2.16 38.64"/><path d="M53.22 75.21c7.02-.52 28.88-2.85 34-2.85M54.39 95.49c8.4-.56 22.84-1.89 31.8-2.15"/></g><g style="font-size:8;fill:gray"><text transform="translate(23.5 12.5)">1</text><text transform="translate(35.5 20.5)">2</text><text transform="translate(31.5 32.5)">3</text><text transform="translate(54.75 12.5)">4</text><text transform="translate(68.5 18.5)">5</text><text transform="translate(66.5 29.5)">6</text><text transform="translate(18.5 41.5)">7</text><text transform="translate(13.5 57.5)">8</text><text transform="translate(13.5 93.5)">9</text><text transform="translate(55.5 40.5)">10</text><text transform="translate(42.5 63.5)">11</text><text transform="translate(65.5 53.5)">12</text><text transform="translate(56.5 71.5)">13</text><text transform="translate(56.5 91.5)">14</text></g></svg>