<svg xmlns="http://www.w3.org/2000/svg" width="109" height="109"><g style="fill:none;stroke:#000;stroke-width:3;stroke-linecap:round;stroke-linejoin:round"><path d="M28.53 12.25c.03.53.06 1.37-.06 2.14-.75 4.5-5.03 14.39-10.89 20.45m10.71-11.71c3.31 0 15.14-2.92 18.86-2.92m-12.62 3.01c1.83 1.68 4.72 6.91 5.18 9.53m21.39-22.5c.02.47.11 1.22-.05 1.88-1.23 4.93-4.12 10.96-8.6 17.02m8.47-9.59c4.23 0 20.98-3.69 25.73-3.69m-13.46 4.82c.02.24.05.61-.04.96-.53 2.01-3.56 6.44-7.71 9.14M21.06 42.32c.59.3 1.76.36 2.35.28 3.78-.52 15.2-1.98 19.4-2.46.98-.11 2.06-.14 2.55.01m-12.17 2.11c.57.26.91 1.17 1.02 1.69s0 8.75-.11 12.01"/><path d="M21.66 60.94c.62.71 1.86 1.08 3.71.15 5.15-2.59 14.42-7.02 19.57-9.61m11.62-15.17c.25.62.6 1.1.6 1.88 0 7.06-1.91 16.31-7.31 20.57m7.53-21.25c2.25-.45 13.05-2.17 14.86-2.62 1.8-.45 3.62.43 3.3 2.7-.54 3.91-.32 8.67-.36 10.32-.15 5.4.07 8.02 7.9 8.02 8.23 0 7.86-1.8 7.86-6.46M60.12 43.8c4.15 2.47 6.52 5.09 7.8 7.41M18.25 73c1.5 0 2.25.32 4.25.25C29.75 73 72 68 88 67.25c2-.09 2.5-.25 3.75 0"/><path d="M53.25 60.25c1.25.5 2 2.25 2.25 3.25s-.25 29.73-.25 31c0 12.25-5.75 3-7 1.75m-3.75-16.5c-3.52 6.29-12.68 15.19-20 18.75m41-20c4.82 3.01 14.17 13.13 16.93 18.58"/></g><g style="font-size:8;fill:gray"><text transform="translate(21.5 13.63)">1</text><text transform="translate(34.5 19.5)">2</text><text transform="translate(29.25 31.5)">3</text><text transform="translate(53.5 11.5)">4</text><text transform="translate(66.75 16.4)">5</text><text transform="translate(61.5 28.33)">6</text><text transform="translate(14.25 45.5)">7</text><text transform="translate(26.25 51.5)">8</text><text transform="translate(12.5 62.5)">9</text><text transform="translate(46.5 39.5)">10</text><text transform="translate(74.25 32.5)">11</text><text transform="translate(62.25 44.5)">12</text><text transform="translate(7.5 75.5)">13</text><text transform="translate(44.5 67.63)">14</text><text transform="translate(32.5 82.5)">15</text><text transform="translate(69.5 79.5)">16</text></g></svg>