<svg xmlns="http://www.w3.org/2000/svg" width="109" height="109"><g style="fill:none;stroke:#000;stroke-width:3;stroke-linecap:round;stroke-linejoin:round"><path d="M30 12.25c.04.43.08 1.11-.08 1.73-.9 3.64-6.08 11.63-13.17 16.52m13.98-9.21c3.71 0 16.61-2.79 20.77-2.79m-12.73 3.83c1.16 1.7 3 6.99 3.29 9.63M62.74 12c.03.38.12 1-.06 1.54-1.3 4.02-4.91 9.77-9.69 14.71m9.99-8.59c4.73 0 22.08-3.57 27.4-3.57m-16.1 6.16c.02.19.03.5-.03.78-.38 1.65-2.54 5.26-5.5 7.47m-36.42 2.97c.21 1.55-.06 3.58-.72 4.9-4.24 8.45-9.63 16.39-19.35 26.68m11.91-11c.46.79 1.24 1.54 1.24 2.55 0 11.28-.03 32.22-.03 40.72m10.91-50.48c.98.72 1.66 1.57 1.74 3.97.4 11.51-.02 32.22-.02 36.14m22.66-54.06c.04.4.24 1.05-.07 1.59-1.97 3.49-7.33 11.41-14.16 16.25m12.11-9.88c.03-.07 1.69.21 2.29.19 6.22-.21 17.35-3.17 26.85-3.51 1.07-.04 1.72-.01 2 .04m-13.24 5.12c-.04.71.11 2.11-.69 2.97-6.02 6.51-12.45 12.37-30.2 18.58"/><path d="M54.12 46.71c6.38.04 23.84 11.26 35.25 14.4 2.19.61 3.59.71 5.39.77M45.97 72.97c1.2.31 2.57.41 3.95.31 7.04-.51 27.48-2.79 38.13-3.39 1.37-.08 2.23.05 3.61.27"/><path d="M66.59 60.45c.66.79 1.26 1.78 1.26 2.24 0 4.69-.14 33.52-.14 31.31 0 9.75-3.46 2.25-4.71 1"/><path d="M66.87 72.28c-3.98 6.33-14.64 16-22.92 19.58m24.96-18.51c5.17 5.19 18.67 15.47 23.87 18.22 1.41.75 2.41 1.24 3.7 1.49"/></g><g style="font-size:8;fill:gray"><text transform="translate(22.5 12.63)">1</text><text transform="translate(36.5 17.5)">2</text><text transform="translate(33.5 29.48)">3</text><text transform="translate(54.5 11.5)">4</text><text transform="translate(68.5 16.5)">5</text><text transform="translate(64.25 27.25)">6</text><text transform="translate(23.5 37.5)">7</text><text transform="translate(18.25 68.5)">8</text><text transform="translate(30.5 53.5)">9</text><text transform="translate(48.5 37.5)">10</text><text transform="translate(65.5 38.5)">11</text><text transform="translate(65.5 47.5)">12</text><text transform="translate(51.5 54.5)">13</text><text transform="translate(45.5 70.65)">14</text><text transform="translate(57.5 66.5)">15</text><text transform="translate(50.5 81.5)">16</text><text transform="translate(77.5 79.5)">17</text></g></svg>