<svg xmlns="http://www.w3.org/2000/svg" width="109" height="109"><g style="fill:none;stroke:#000;stroke-width:3;stroke-linecap:round;stroke-linejoin:round"><path d="M30.51 11.75c.03.48.06 1.23-.06 1.92-.74 4.03-4.94 12.9-10.7 18.33m9.98-10.21c3.71 0 16.11-2.29 20.27-2.29m-13.48 4.33c1.6 1.44 4.14 5.9 4.54 8.13m20.7-21.46c.02.29.08.75-.04 1.16-.9 3.03-3.41 7.36-6.72 11.09m6.98-4.09c4.73 0 20.08-2.57 25.4-2.57m-13.6 4.16c.01.24.03.61-.03.95-.36 2-2.42 6.37-5.25 9.05m-18.01-2.5c1.76 1.25 3.51 3 4.89 5.3m-24.31 5.71c.91.21 1.98.24 2.88.21 5.13-.18 34.9-2.75 42.66-2.9 1.52-.03 2.43.1 3.18.2m-42.11 4.14c3.98 4.14 6.51 9.12 6.87 11.84m22.07-12.93c.13.68.21 2.2.14 2.58-.51 2.62-3.74 8.43-5.02 10.43m-41.91 2.89c1.4.3 3.04.4 4.43.3C40 54.41 68.1 51.85 85.77 51.23c2.33-.08 3.73.14 4.9.29M29.78 63.98c.33.36.34.62.53 1.07 1.51 3.78 2.93 14.14 3.86 21.19m-2.82-21.76c11.69-.95 36.67-3.17 45.4-3.96 3.21-.29 4.38 2.06 4.21 3.1-.6 3.81-3.51 12.96-4.98 19.32"/><path d="M32.53 74.75c10.22-.97 20.44-2.02 30.66-3 1.24-.12 2.44-.23 3.59-.34m-32 12.99c9.86-.78 29.59-2.61 41.21-3.27"/><path d="M53.99 62.99c.26 1.01.33 2.58.38 4.05.25 8.35-.03 17.45-.03 20.23 0 7.97 4.67 9.26 20.67 9.26 17.75 0 20.39-2.79 20.39-8.63"/></g><g style="font-size:8;fill:gray"><text transform="translate(23.5 11.5)">1</text><text transform="translate(35.5 17.5)">2</text><text transform="translate(30.25 30.48)">3</text><text transform="translate(53.5 10.5)">4</text><text transform="translate(66.25 15.5)">5</text><text transform="translate(64.5 27.5)">6</text><text transform="translate(45.5 30.5)">7</text><text transform="translate(24.5 39.5)">8</text><text transform="translate(32.5 48.5)">9</text><text transform="translate(55.5 45.5)">10</text><text transform="translate(10.5 56.5)">11</text><text transform="translate(19.5 70.5)">12</text><text transform="translate(33.5 62.5)">13</text><text transform="translate(35.5 71.5)">14</text><text transform="translate(37.5 81.5)">15</text><text transform="translate(57.5 69.5)">16</text></g></svg>