<svg xmlns="http://www.w3.org/2000/svg" width="109" height="109"><g style="fill:none;stroke:#000;stroke-width:3;stroke-linecap:round;stroke-linejoin:round"><path d="M26.76 10.25c.04.56.08 1.44-.08 2.25-.95 4.74-6.43 15.13-13.93 21.5m13.23-12.02c4.36 0 18.37-1.93 23.27-1.93m-15.75 3.7c2.47 1.98 6.38 8.16 7 11.25m20.25-24.5c.04.54.16 1.4-.08 2.15-1.81 5.63-6.81 13.67-13.43 20.6m13.97-13.5c4.95 0 23.11-3.35 28.67-3.35m-15.62 5.1c.04.33.07.85-.07 1.32-.82 2.79-5.51 8.92-11.94 12.68m-39.79 3.61c.53.91 1.22 2.33 1.18 3.95-.07 2.51-.12 4.83-.43 16.65C22.86 72.94 21.5 87 13.26 95.6m12.15-53.31c4.03-.59 26.16-3.57 26.96-3.55 1.49.03 2.29 1.65 2.26 3.24-.03 1.68-.78 45.81-.85 49.68-.12 6.05-1.21 6.1-4.51 1.93"/><path d="M29.28 54.3c.65.2 1.83.14 2.49.12 3.51-.11 11.13-1.51 13.72-1.6 1.08-.04 1.73.03 2.27.13m-19.8 12.08c.65.08 1.85.02 2.5.01C36 65 43.44 62.62 47.7 62.49c1.09-.03 1.74-.01 2.28.02"/><path d="M37.29 46.53c.54.18.86.86.97 1.25s.01 18.47-.1 20.96m-9.14 4.38c.23.21.47.39.57.66.81 2.13 1.8 9.23 2.36 13.07m-1.82-12.1c4.07-.67 13.63-2.09 15.73-2.2.77-.04 1.17 1.05 1.03 1.6-.57 2.28-1.73 5.92-2.87 9.18m-11.27 1.41c3.29-.46 11.03-1.25 13.47-1.32M84.89 33.4c.07.54.28 1.48-.14 2.17-2.56 4.2-11.25 15.19-24 19.94m29.5-4.76c.08.54.29 1.47-.16 2.17-3.1 4.74-14.84 16.33-28.41 20.74m32.98-6.26c.13.68.43 1.79-.1 2.74C90.94 76.65 78.25 91.5 60.75 97"/></g><g style="font-size:8;fill:gray"><text transform="translate(18.5 10.5)">1</text><text transform="translate(32.5 18.5)">2</text><text transform="translate(27.5 30.5)">3</text><text transform="translate(52.5 10.5)">4</text><text transform="translate(66.5 16.5)">5</text><text transform="translate(64.5 28.5)">6</text><text transform="translate(13.5 44.5)">7</text><text transform="translate(25.5 39.5)">8</text><text transform="translate(27.5 51.5)">9</text><text transform="translate(27.5 62.5)">10</text><text transform="translate(41.5 48.5)">11</text><text transform="translate(22.5 82.5)">12</text><text transform="translate(29.5 72.5)">13</text><text transform="translate(33.5 81.5)">14</text><text transform="translate(74.5 33.5)">15</text><text transform="translate(78.5 52.5)">16</text><text transform="translate(84.5 68.5)">17</text></g></svg>