<svg xmlns="http://www.w3.org/2000/svg" width="109" height="109"><g style="fill:none;stroke:#000;stroke-width:3;stroke-linecap:round;stroke-linejoin:round"><path d="M30.5 11.75c.04.44.08 1.12-.07 1.75-.89 3.69-5.97 11.79-12.93 16.75m11.73-9.46c3.71 0 16.11-2.29 20.27-2.29m-13.98 3.33c1.6 1.44 4.14 5.9 4.54 8.13M61.75 11c.03.31.11.81-.05 1.25-1.2 3.28-4.53 7.96-8.95 12m7.23-5.09c4.73 0 22.08-3.57 27.4-3.57m-13.6 2.66c.01.24.03.61-.03.95-.36 2-2.42 6.37-5.25 9.05m-18.48-1.87c1.34.54 4.17 4.01 4.44 5.08m-30.39 6.13c1.44.45 4.09.53 5.53.45 15-.76 35.89-3.8 49.48-4.81 2.39-.18 3.84.22 5.05.45m-55.44 6.24c.04 1.28.09 3.3-.08 5.14-1.02 10.84-3.32 37.14-14.33 48.81M42.63 39.9c2.25.95 5.8 3.89 6.37 5.36m15.6-7.53c.01.19.03.5-.03.77-.33 1.63-2.24 5.21-4.84 7.4m-27.35 3.18c1.01.37 2.85.44 3.85.37 6.75-.52 31.9-3.96 41.94-4.69 1.67-.12 2.68.17 3.52.36m-46.14 11.9c1.44.17 2.22.54 4.1.35C49.89 56.33 65.77 53.6 75 53.08c1.84-.1 2.87 1.21 2.46 2.93-1.1 4.62-2.01 6.75-3.43 14.46"/><path d="M32.75 65.82c1.84.17 3.29.5 5.33.35 17.84-1.38 30.97-3.34 43.63-4.39 2.25-.19 4.1.34 5.12.52M34.77 74.54c1.02.1 2.87.37 4.1.31 11.27-.52 23.52-3.06 33.77-3.27 1.64-.03 2.67 0 3.9.1"/><path d="M48.54 49.94c.94.38 1.5 1.72 1.69 2.48s0 42.81-.19 47.58m11.01-52.35c.94.38 1.5 1.72 1.69 2.48s0 44.33-.19 49.1M49.3 75.37c-4.3 7.18-15.49 17.34-24.44 21.4m38.03-23.5c3.98 2.88 21.46 16.52 25.79 19.35 1.47.96 2.73 1.37 4.2 1.65"/></g><g style="font-size:8;fill:gray"><text transform="translate(23.5 11.5)">1</text><text transform="translate(32.21 18.2)">2</text><text transform="translate(29.84 29.16)">3</text><text transform="translate(54.5 11.5)">4</text><text transform="translate(64.57 15.18)">5</text><text transform="translate(75.88 24.46)">6</text><text transform="translate(45.5 27.5)">7</text><text transform="translate(22.91 35.29)">8</text><text transform="translate(21.07 47.05)">9</text><text transform="translate(36.5 44.95)">10</text><text transform="translate(54 42.13)">11</text><text transform="translate(29.75 46.8)">12</text><text transform="translate(37.25 55.5)">13</text><text transform="translate(36.25 63.5)">14</text><text transform="translate(37.25 72.58)">15</text><text transform="translate(52.5 53.5)">16</text><text transform="translate(65.25 52.43)">17</text><text transform="translate(33.5 83.5)">18</text><text transform="translate(76.5 81.5)">19</text></g></svg>