<svg xmlns="http://www.w3.org/2000/svg" width="109" height="109"><g style="fill:none;stroke:#000;stroke-width:3;stroke-linecap:round;stroke-linejoin:round"><path d="M12.44 23.89c2.56 2.26 6.42 8.9 7.06 12.41m20.51-14.58c.07.83-.05 1.62-.37 2.39-1.77 3.27-4.01 7.01-7.32 11.18M12.1 44.77c2.09.71 4.22.63 6.39.29 4.57-.72 10.56-2.04 15.14-2.8 1.4-.28 2.81-.36 4.23-.23"/><path d="M26.27 13.21c.88.88 1.09 2.29 1.09 3.19 0 .74-.07 46.3-.1 67.47-.01 5.14-.01 8.85-.01 10.12m-.73-49.53c0 2.16-.44 3.64-.98 5.22-3.43 9.93-8.92 19.76-16.79 28.79m21.37-25.15c3.5 2.81 5.5 5.56 7.65 10.15m4.48-18.96c1.87.36 3.74.22 5.62.1 4.88-.86 10.45-1.47 15.62-2.43 1.67-.15 3.34-.12 5.01.11"/><path d="M53.91 16.13c.85.86 1.1 1.99 1.1 3.27 0 16.25.1 35.6.1 43.04m-10.71-.05c.73.73 1.04 1.74 1.19 3.39.38 4.12.86 8.31 1.37 13.08.21 2 .43 4.09.64 6.33m-1.57-21.47c4.21-.64 12.89-1.58 17.34-1.9 2.53-.18 4.2 1.11 3.54 3.81-1.16 4.75-2.16 9.25-3.85 15.12m-14.45 2.24c2.9-.22 7.33-.66 11.39-1.03 1.6-.15 3.14-.29 4.51-.4m12.23-61.31c.57.57.71 1.88.72 2.83.79 42.3-.21 52.42-12.21 66.92m13.47-68.78c1.49-.19 12.64-2.77 13.75-3.01 1.98-.41 2.7 3.12 2.45 4.52-.25 1.34-.32 46.63-.32 65.6-.01 12.17-6.6 2.67-8.6.92"/><path d="M77.96 40.69c5.17-.89 11.62-1.66 16.16-1.9M78.64 58.81c4.03-.29 10.36-1.52 15.02-1.5"/></g><g style="font-size:8;fill:gray"><text transform="translate(6.5 24.5)">1</text><text transform="translate(34.5 17.85)">2</text><text transform="translate(5.5 44.5)">3</text><text transform="translate(16.5 12.5)">4</text><text transform="translate(16.5 54.5)">5</text><text transform="translate(32.5 52.5)">6</text><text transform="translate(41.5 41.5)">7</text><text transform="translate(44.5 14.5)">8</text><text transform="translate(38.25 71.5)">9</text><text transform="translate(44.5 60.5)">10</text><text transform="translate(50.5 79.5)">11</text><text transform="translate(66.5 28.5)">12</text><text transform="translate(78.5 17.5)">13</text><text transform="translate(81.25 36.5)">14</text><text transform="translate(81.25 54.5)">15</text></g></svg>