<svg xmlns="http://www.w3.org/2000/svg" width="109" height="109"><g style="fill:none;stroke:#000;stroke-width:3;stroke-linecap:round;stroke-linejoin:round"><path d="M28.73 12.88c.43.23 1.34 1.69 1.42 2.14.09.45.19 24.18.1 27"/><path d="M17.51 18.35c.28.16.61 1.32.57 1.63-.19 1.4-.55 5.05-1.32 7.89-.19.7-.08 1.53.56 1.31 5.27-1.84 19.03-3.7 24.37-3.61m.43-9.07c.32.26.45 2.28.4 2.8-.32 3.16-.27 6.46-.41 9.41m-23.95 6.77c.28.14.59 1.15.55 1.42-.18 1.22-.53 3.97-1.28 6.45-.18.61-.08 1.34.55 1.14 5.11-1.61 19.14-3.73 24.33-3.65"/><path d="M41.99 32.81c.32.19.83 1.71.82 2.11-.11 2.82-.61 6.16-.82 9.19m-25.84 9.65c2.17 1.42 5.44 5.42 5.98 7.62m20.38-10.63c.02.22.04.56-.03.88-.41 1.85-2.76 5.9-5.98 8.38m-23.13 7.1c.51.08 1.87.21 3.23.24 3.74.08 17.9-1.1 25.22-1.93 1.35-.15 1.7-.08 2.55 0"/><path d="M28.71 48.75c.52.29.84 1.29.94 1.87.1.57 0 42.79-.1 46.38m-.59-29.31c-3.25 7.4-11.15 17.79-18.46 22.06m21.73-18.61c3.89 1.76 9.23 7.71 11.02 11.61M50.5 16.3c.99.67 1.84.67 3.29.45 2.95-.45 11.36-2.31 12.26-2.38 2.02-.16 2.78 1.03 2.53 1.51-.24.46-.38 24.61-.38 31.04"/><path d="M59.28 19.14c.03.27.06.69-.05 1.07-.66 2.26-4.46 7.22-9.66 10.25m15.44-3.07c.05.38.1.99-.09 1.55-1.14 3.26-7.67 10.4-16.61 14.78m27.24-28.48c1.07.64 1.99.64 3.55.43 3.19-.43 10.97-1.14 11.95-1.21 2.19-.15 2.74 1.03 2.74 2.44 0 .51.09 23.13.09 29.27"/><path d="M85.49 18c.03.29.06.74-.06 1.16-.75 2.44-5.02 7.79-10.87 11.06m15.71-3.33c.04.31.08.81-.07 1.26-.92 2.66-7.18 8.99-14.38 12.56m-13.81 7.54c.17 1.13-.05 2.61-.6 3.58-3.54 6.18-8.03 11.4-16.15 18.92m11.32-10.97c.58.59 1.02 1.87 1.06 2.78.34 8.09-.47 29.48-.18 33.69m22.79-50c.07.52-.02 1.21-.24 1.66-1.41 2.86-3.19 5.07-6.42 8.54m-15.84 3.11c6.79-.41 32.64-1.62 35.56-1.84m-19.52 1.53c.32.28.58.67.58 1.16 0 4.97.04 22.76-.16 30.59"/><path d="M57.75 70.35c6.32-.4 29.79-1.56 32.5-1.78M58.12 80.91c6.67-.36 30.32-1.39 33.17-1.57M58.11 92.79c7.11-.54 36.09-1.58 39.14-1.87"/></g><g style="font-size:8;fill:gray"><text transform="translate(20.5 12.5)">1</text><text transform="translate(11.25 17.5)">2</text><text transform="translate(36.5 13.5)">3</text><text transform="translate(10.5 35.5)">4</text><text transform="translate(34.5 33.5)">5</text><text transform="translate(8.5 55.5)">6</text><text transform="translate(35.5 51.18)">7</text><text transform="translate(6.5 66.5)">8</text><text transform="translate(20.5 53.03)">9</text><text transform="translate(13.25 76.5)">10</text><text transform="translate(37.25 73.5)">11</text><text transform="translate(46.5 13.5)">12</text><text transform="translate(47.5 24.5)">13</text><text transform="translate(52.5 34.5)">14</text><text transform="translate(72.5 12.5)">15</text><text transform="translate(72.5 23.5)">16</text><text transform="translate(78.5 33.5)">17</text><text transform="translate(52.5 49.5)">18</text><text transform="translate(47.5 76.5)">19</text><text transform="translate(70.5 48.5)">20</text><text transform="translate(64.5 56.5)">21</text><text transform="translate(78.5 66.5)">22</text><text transform="translate(61.5 67.5)">23</text><text transform="translate(61.5 78.5)">24</text><text transform="translate(61.5 89.5)">25</text></g></svg>