<svg xmlns="http://www.w3.org/2000/svg" width="109" height="109"><g style="fill:none;stroke:#000;stroke-width:3;stroke-linecap:round;stroke-linejoin:round"><path d="M25.87 14.25c.32 1.42.4 2.5-.16 4.02-2.84 7.66-6.21 13.2-9.65 19.61-.46.86-.64 3.28 0 3.55 3.38 1.42 8.12 3.78 11.02 6.38"/><path d="M37.93 27.03c.3.64.39 2.75 0 3.43-5.73 10.06-14.28 24.07-22.15 33.25-1.81 2.1.45 3.31 1.62 2.88 4.93-1.79 15.15-4.99 21.48-6.7"/><path d="M34.79 51.61c2.56 2.58 6.61 10.59 7.25 14.59M10.96 79.64c3.89 3.22 6.87 10.7 7.77 13.61m3.37-17.77c4.4 2.79 7.78 9.27 8.81 11.8m2.33-16.74c4.27 2.24 7.55 7.43 8.55 9.46m8.13-52.6c1.11.29 3.14.39 4.24.29C61.75 27 76 24 83.79 23.95c1.84-.01 2.95.14 3.87.28"/><path d="M66.45 12c.91.34 1.46 1.54 1.64 2.23.18.68.41 17.02.41 23.77m-14.78 2.33c.88.18 2.5.22 3.38.18 6.15-.26 18.15-3.01 22.87-3.15 1.47-.04 2.35.09 3.09.18M49.77 52.19c-.11 2.84-2.7 10.27-3.63 11.97m5.18-10.8c9.74-1.31 27.93-4.44 37.56-4.66 8.62-.2.65 6.11-.47 7.08M60.34 63c.04.81.04 2.1-.08 3.27-1.08 10.47-5.99 23.25-14.74 30.39m28.72-36.99c.6 1.08 1.07 2.35 1.11 4.02.16 7.43-2.11 25.23 1.28 28.54 3.06 2.98 5.79 2.65 9.1 2.55 4.01-.12 7.75-.64 8.76-1.47 2.21-1.82 1.61-2.72 1.81-5.9"/></g><g style="font-size:8;fill:gray"><text transform="translate(19.99 13.63)">1</text><text transform="translate(35.5 24.5)">2</text><text transform="translate(36.5 50.5)">3</text><text transform="translate(4.5 80.5)">4</text><text transform="translate(16.5 77.5)">5</text><text transform="translate(27.5 73.5)">6</text><text transform="translate(49.5 24.13)">7</text><text transform="translate(60.5 10.5)">8</text><text transform="translate(53.25 37.63)">9</text><text transform="translate(43.5 49.5)">10</text><text transform="translate(63.75 48.13)">11</text><text transform="translate(50.5 64.5)">12</text></g></svg>