<svg xmlns="http://www.w3.org/2000/svg" width="109" height="109"><g style="fill:none;stroke:#000;stroke-width:3;stroke-linecap:round;stroke-linejoin:round"><path d="M21.04 15.58c.49.19.79.91.9 1.33s.58 30.52.53 33.16m-.44-33.48c3.18-.47 18.68-2.85 26.08-3.53 1.12-.1 1.79-.19 2.36-.1m-16.13 2.18c.49.19.79.91.9 1.33.1.42.17 5.7.12 8.34m-12.95 1.91c7.61-1.15 19.13-2.46 24.41-3.25 2.14-.32 2.75.52 2.47 1.67-.5 2.09-1.24 5.08-1.74 7.59m-24.92 3.49c3.18-.47 23.06-2.65 26.05-2.99m-13.63 1.63c.49.19.79.91.9 1.33.1.42.21 7.6.16 10.24m-13.48 1.83c3.18-.47 17.9-2.25 25.3-2.93 1.12-.1 1.79-.19 2.36-.1m7.62-28.38c.98.21 1.1.53 3.06.21s18.55-4.05 19.9-4.37 2.33 1.16 1.84 2.31c-5.76 13.68-15.93 24.59-26.95 29.75"/><path d="M57.32 22.82c3.32.56 19.56 15.45 31.13 21.55 1.8.95 3.11 1.58 4.79 1.9M49.41 50c.49.98.52 2.45-.74 3.28C43 57 39.26 59.76 34.39 62.06c-1 .47.03 2.15 1 1.96 6.36-1.26 15.86-1.51 21.61-1.76"/><path d="M68.45 53.22c.49.49-.26 2.63-1 3.12C57.21 63.06 49.75 66 32.1 75.91c-1.66.93-1.48 2.14.48 1.81 8.16-1.37 31.03-4.76 41.51-6.07"/><path d="M69.62 64.98c4.34 2.4 11.21 9.87 12.29 13.6m-27.79-1.51c.08.17 1.14.88 1.22 1.96.39 5.17-.19 14.71-.25 16.47-.35 9.75-4.6 1.75-5.85.5M38.08 83.43c.33.65.28 2.77-.33 3.23-3.97 3.01-13.88 8.82-19.5 11.41m52.27-15.64C76.21 85.36 85.97 93.17 88 96.1"/></g><g style="font-size:8;fill:gray"><text transform="translate(15.5 22.5)">1</text><text transform="translate(25.5 13.5)">2</text><text transform="translate(39.5 21.5)">3</text><text transform="translate(26.5 24.05)">4</text><text transform="translate(26.68 34.48)">5</text><text transform="translate(39.5 41.5)">6</text><text transform="translate(26.6 44.83)">7</text><text transform="translate(57.5 13.5)">8</text><text transform="translate(66.75 25.55)">9</text><text transform="translate(36.5 54.5)">10</text><text transform="translate(59.25 52.63)">11</text><text transform="translate(60.5 68.5)">12</text><text transform="translate(44.25 84.5)">13</text><text transform="translate(24.5 87.13)">14</text><text transform="translate(66.5 81.13)">15</text></g></svg>