<svg xmlns="http://www.w3.org/2000/svg" width="109" height="109"><g style="fill:none;stroke:#000;stroke-width:3;stroke-linecap:round;stroke-linejoin:round"><path d="M24.29 16.5c.28 1.26.52 2.32-.14 3.57-2.91 5.46-7.76 14.43-10.53 17.36-.57.6-.55 2.91 0 3.15 2.91 1.26 6.09 2.86 8.59 5.16"/><path d="M35.3 24.69c.27.6.35 2.58 0 3.22-5.23 9.44-14 21.35-21.18 29.96-1.65 1.97.41 3.1 1.48 2.7 4.49-1.68 11.93-3.04 17.7-4.65"/><path d="M29.75 47.5c2.65 2.21 6.84 9.07 7.5 12.5m-12.78.79c.05.28.72 1.45.77 3.21.25 8.46-.16 30.61-.16 33.5m-8.33-26.75c.12.83.1 2.47-.12 3.06-1.45 3.88-5.08 11.36-7.13 14.69m21.25-23.25c2.62 2.19 4.64 7.27 5.25 9.25m22.74-56.75c.04.27.14.76-.07 1.06-2.59 3.74-6.42 7.17-13.17 10.19m-2.05-2.25c.57.53.91 2.38 1.02 3.44s0 58.45-.11 65.06m.89-52.76c4.53-.5 11.4-1.9 12.23-1.98.94-.09 1.68 0 2.52.16m-15.11 16.3c4.61-.49 12.63-1.89 13.48-1.96.96-.09 1.71 0 2.56.16"/><path d="M35.25 79.81c.88 1.38 2.6 1.7 4.22.77.95-.56 17.47-10.18 21.53-12.83m7.41-47.5c.44.47.78 1.89.79 2.68.05 7.57.3 16.57-5.45 21.32m6.08-23.02c2.6-.29 9.32-2 11.6-2.34 1.83-.27 2.2 1.06 2.01 3.13-.33 3.61-.9 9.7-.9 13.31 0 4.99.97 7.6 6.51 7.6 4.33 0 6.62-1.42 6.62-6.48m-28.42 18.3c1.5.5 2.32.46 4.93.06 5.32-.81 13.14-2.18 14.92-2.69 1.79-.51 3.09.91 2.44 2.75C83 73.23 74 82.75 58.5 93.25"/><path d="M66.75 60.25c2.75.77 16.2 21.41 25.78 29.87 1.49 1.32 2.58 2.19 3.97 2.63"/></g><g style="font-size:8;fill:gray"><text transform="translate(17.25 16.25)">1</text><text transform="translate(31 21.25)">2</text><text transform="translate(31.25 45.25)">3</text><text transform="translate(18.25 69.25)">4</text><text transform="translate(8.25 72.08)">5</text><text transform="translate(30.25 63.25)">6</text><text transform="translate(52.25 16.25)">7</text><text transform="translate(37.25 38.85)">8</text><text transform="translate(49.25 38.25)">9</text><text transform="translate(48.25 52.25)">10</text><text transform="translate(29 89.38)">11</text><text transform="translate(59.25 30.25)">12</text><text transform="translate(67.25 17.25)">13</text><text transform="translate(66.25 52.25)">14</text><text transform="translate(63.25 72.83)">15</text></g></svg>