<svg xmlns="http://www.w3.org/2000/svg" width="109" height="109"><g style="fill:none;stroke:#000;stroke-width:3;stroke-linecap:round;stroke-linejoin:round"><path d="M23.12 14c.32 1.46.4 2.58-.16 4.14-2.84 7.9-6.21 13.62-9.65 20.23-.46.89-.64 3.38 0 3.66 3.38 1.46 8.12 3.9 11.02 6.58"/><path d="M35.18 27.18c.3.66.39 2.83 0 3.54-5.73 10.38-14.28 24.83-22.15 34.3-1.81 2.17.45 3.41 1.62 2.97 4.93-1.85 15.15-5.15 21.48-6.91"/><path d="M32.04 52.54c2.56 2.66 6.61 10.92 7.25 15.06M8.21 81.46c3.89 3.32 6.87 11.04 7.77 14.04m3.37-18.34c4.4 2.88 7.78 9.56 8.81 12.17m2.33-17.26c4.27 2.31 7.55 7.67 8.55 9.76m25.35-71.08c2.11.91 5.47 4.33 6.45 7.72M48 20.57c0 3.44-2.16 12.88-3.14 15.18m2.95-10.66c1.86.16 31.71-4.09 43.62-4.52 9.1-.33 1.83 7.11-.32 9.06m-25.28-.88c1.67.75 3.92 3.25 4.61 5.89m-20.51 5.34c1.15.31 2.5.36 3.65.31 6.5-.27 22.48-3.33 32.32-3.55 1.92-.04 3.07.15 4.03.31M57.18 45.6c2.79 4.25 4.06 8.6 4.32 11.41m18.54-15.92c.62.54.33 2.9.19 3.31-.95 2.78-4.63 10.62-5.87 12.94M46.55 61.7c1.3.26 2.82.31 4.12.26 15.64-.65 27.27-2.69 43.68-3.22 2.17-.07 3.47.12 4.55.25M49.72 76.7c1.21.47 3.43.55 4.64.47 13.39-.92 20.88-2.42 35.13-3.4 2.01-.14 3.23.22 4.23.46"/><path d="M68.56 62.88c.44.46 1.46 2.45 1.46 3.38 0 7.74-.12 30.76-.15 32.12"/></g><g style="font-size:8;fill:gray"><text transform="translate(17.25 14.25)">1</text><text transform="translate(29 25.8)">2</text><text transform="translate(34.25 52.25)">3</text><text transform="translate(2.25 83.25)">4</text><text transform="translate(13.25 78.25)">5</text><text transform="translate(24.25 73.25)">6</text><text transform="translate(59.25 10.25)">7</text><text transform="translate(41.25 23.25)">8</text><text transform="translate(51.25 21.25)">9</text><text transform="translate(57.25 31.25)">10</text><text transform="translate(42 42.95)">11</text><text transform="translate(48.25 49.25)">12</text><text transform="translate(68.25 48.25)">13</text><text transform="translate(44.25 59.25)">14</text><text transform="translate(59.25 69.25)">15</text></g></svg>