<svg xmlns="http://www.w3.org/2000/svg" width="109" height="109"><g style="fill:none;stroke:#000;stroke-width:3;stroke-linecap:round;stroke-linejoin:round"><path d="M27.58 13.5c.34 1.41.43 2.49-.17 4-3.02 7.63-6.61 13.16-10.27 19.55-.49.86-.68 3.27 0 3.54 3.6 1.41 8.65 3.77 11.73 6.36"/><path d="M40.42 26.24c.31.64.41 2.74 0 3.42-6.1 10.03-15.2 24-23.58 33.15-1.92 2.1.48 3.3 1.73 2.87 5.24-1.79 16.12-4.97 22.86-6.68"/><path d="M37.07 50.74c2.73 2.57 7.04 10.55 7.72 14.55M11.71 78.68c4.14 3.21 7.31 10.66 8.27 13.57m3.58-17.72c4.69 2.78 8.28 9.24 9.37 11.76m2.49-16.68c4.55 2.23 7.04 6.91 8.1 8.93m24.23-65.65c.03.35.06.9-.05 1.4-.66 2.96-4.43 9.45-9.58 13.42m-7.88.76c.27.6.73 2.06.88 2.82 1.22 6.24 2.81 22.53 3.57 34.17m-3.64-34.59c9.42-1.57 28.89-3.24 35.93-4.56 2.58-.49 3.91 1.23 3.78 2.95-.49 6.29-2.59 22.95-3.78 33.47"/><path d="M67.92 32.21c.11.28.2 1.16.01 1.69-1.4 3.86-4.65 10.51-10 14.97m10.84-10.42c.54.15 1.07.14 1.48.09 1.36-.16 5.87-1.14 7.67-1.76 1.29-.44 2.26.91 1.86 1.81-3.17 7.24-10.41 15.52-20.01 19.58"/><path d="M60.05 41.46c6.35 2.37 16.42 9.76 18 13.45m-23.33 8.35c6.79-.67 21.52-2.15 32.26-2.48m-38.8 15.6c.22 2-2.18 10.83-3.93 14.17m9.95-16.48C60 85.75 66.78 96.1 85.58 96.25c9.07.07 9.66-3.15 2.1-8.51M68.67 72.07c2.19 5.25 5.39 10.5 7.74 2.46m8.97-4.73c4.4 1.92 7.7 3.67 11.27 9.61"/></g><g style="font-size:8;fill:gray"><text transform="translate(23.25 12.25)">1</text><text transform="translate(36.25 24.25)">2</text><text transform="translate(37.25 48.25)">3</text><text transform="translate(5.25 81.25)">4</text><text transform="translate(17.25 75.25)">5</text><text transform="translate(29.25 71.25)">6</text><text transform="translate(60.25 13.25)">7</text><text transform="translate(44 37.25)">8</text><text transform="translate(52 27.25)">9</text><text transform="translate(58.25 37.25)">10</text><text transform="translate(72.25 35.25)">11</text><text transform="translate(61.25 51.55)">12</text><text transform="translate(68 59.25)">13</text><text transform="translate(43.25 72.4)">14</text><text transform="translate(50.25 87.25)">15</text><text transform="translate(58.25 72.25)">16</text></g></svg>