<svg xmlns="http://www.w3.org/2000/svg" width="109" height="109"><g style="fill:none;stroke:#000;stroke-width:3;stroke-linecap:round;stroke-linejoin:round"><path d="M24.62 16c.32 1.42.4 2.5-.16 4.02-2.84 7.66-6.21 13.2-9.65 19.61-.46.86-.64 3.28 0 3.55 3.38 1.42 8.12 3.78 11.02 6.38"/><path d="M36.68 28.78c.3.64.39 2.75 0 3.43-5.73 10.06-14.28 24.07-22.15 33.25-1.8 2.1.45 3.31 1.62 2.88 4.93-1.79 15.15-4.99 21.48-6.7"/><path d="M33.54 53.36c2.56 2.58 6.61 10.59 7.25 14.59M9.71 81.39c3.89 3.22 6.87 10.7 7.77 13.61m3.37-17.77c4.4 2.79 7.78 9.27 8.81 11.8m2.33-16.74c4.27 2.24 7.55 7.43 8.55 9.46M51 15.52c.24.31.18.93.16 1.56C51 22.16 46.75 30.5 41.75 36m8.46-10.05c1.82.99 4.16 4.64 5.04 7.14m10.99-18.33c.24.33.22.99.17 1.66C66 22 63 30 56.75 36.5m8.71-11.06c1.92 1.2 4.36 4.39 5.29 7.4M42 41.14c1.1.4 3.11.47 4.22.4 8.58-.54 33.52-4.01 43.43-4.55 1.83-.1 2.93.19 3.85.39m-40.31 5.37c.69.33 1.1 1.5 1.24 2.17s0 37.31-.14 41.48m8.38-44.9c.46.32.74 1.46.83 2.11s0 34.09-.09 38.14"/><path d="M43.85 52.65c.29.46.83.46 1.13.46 2.41-.03 5.24-.79 7.42-1.22.49-.1.72-.17 1.03-.17m-8.72 11.77c.3.35.86.35 1.17.35 2.48-.02 4.88-1.05 7.13-1.37.51-.07.74-.12 1.07-.12m-11.8 12.88c.35.35.99.35 1.34.35 2.84-.02 5.96-1.05 8.73-2.29.57-.26.85-.13 1.22-.13M65 50.75c.4 0 .38-.01.68-.07 1.93-.4 4.48-1.08 6.32-1.46.5-.1.81.11 1.06.23m-7.95 11.19c.48 0 .45-.01.81-.08 2.31-.47 5.54-1.26 7.74-1.69.6-.12.97.13 1.27.26m-11.05 12.1c.5 0 .46-.01.84-.09 2.39-.48 6.16-1.29 8.45-1.74.62-.12 1 .13 1.32.27M44.75 90.49c.88 1.25 3.04.77 3.71.4 9.61-5.27 17.99-8.77 27.04-13.64m-1.25-65.5c.93 1.78 1.08 2.28 1.28 6.11 1.63 32.08 7.55 63.39 18.93 75.36 3.65 3.84 3.13.76 2.67-7.13"/><path d="M90.49 46.5c.07 1.08.11 2.77-.14 4.33-1.85 11.42-10.1 30.92-25.1 42.92m17.74-75.2c2.61 2.04 6.79 6.71 8.01 10.2"/></g><g style="font-size:8;fill:gray"><text transform="translate(20.25 15.25)">1</text><text transform="translate(30.25 27.25)">2</text><text transform="translate(32.25 51.25)">3</text><text transform="translate(4.25 83.25)">4</text><text transform="translate(15.25 79.25)">5</text><text transform="translate(26.25 74.25)">6</text><text transform="translate(43.25 15.25)">7</text><text transform="translate(53.25 25.85)">8</text><text transform="translate(58.25 13.78)">9</text><text transform="translate(67.25 26.7)">10</text><text transform="translate(45.25 39.25)">11</text><text transform="translate(45.25 49.25)">12</text><text transform="translate(56.25 49.98)">13</text><text transform="translate(38.25 51.25)">14</text><text transform="translate(44.25 61.25)">15</text><text transform="translate(41.25 72.25)">16</text><text transform="translate(65.75 46.93)">17</text><text transform="translate(66 57.35)">18</text><text transform="translate(66.25 67.25)">19</text><text transform="translate(43.25 86.25)">20</text><text transform="translate(69.25 9.63)">21</text><text transform="translate(81.25 46.25)">22</text><text transform="translate(81.25 16.25)">23</text></g></svg>