<svg xmlns="http://www.w3.org/2000/svg" width="109" height="109"><g style="fill:none;stroke:#000;stroke-width:3;stroke-linecap:round;stroke-linejoin:round"><path d="M22.93 13.07c.23.27.46.49.56.82.79 2.64 2.46 10.87 3 15.61m-1.27-14.69c5.79-.82 56.78-3.96 59.43-4.32.97-.13 2.28.94 2.02 2.49-.54 3.24-1.87 9.27-3.31 13.9"/><path d="M43.28 14.36c.12 1.76.96 9.86 1.08 11.83m20.42-13.4c-.15 2.86-.91 10.33-1.21 12.09m-36.21 2.73c3.09-.39 48.64-3.36 56.06-2.99m-53.64 9.63c.37 1.14.46 2-.19 3.22-3.25 6.13-7.1 10.57-11.05 15.7-.53.69-.73 2.62 0 2.84 3.87 1.13 9.3 3.03 12.62 5.11"/><path d="M43.59 44.48c.34.51.44 2.2 0 2.74-6.56 8.06-16.35 19.27-25.36 26.62-2.07 1.68.51 2.65 1.86 2.31 5.64-1.43 17.34-3.99 24.59-5.37"/><path d="M39.99 64.16c2.93 2.06 7.57 8.48 8.3 11.68M12.71 86.6c4.45 2.58 7.86 8.57 8.9 10.9m3.85-14.23c5.04 2.23 8.91 7.42 10.08 9.44m2.67-13.39c4.89 1.79 8.65 5.95 9.79 7.57m10.66-52.48c.24.22.48.41.58.69.82 2.23 1.8 9.09 2.36 13.09m-1.18-12.92c7.66-.87 22.13-2.01 26.08-2.31 1.45-.11 2.31 1.08 2.11 1.71-.86 2.61-1.84 5.2-3.67 8.96m-23.21 2.39c4.67-.55 18.21-1.89 25.6-2.3M57.49 54.43c.61.68 1.01 1.37 1.21 2.05s.29 39.45.2 40.98m1.01-42.28c2.45-.17 25.41-1.79 27.23-1.98 3.26-.34 4.49 2.22 4.08 3.24-.39.99-.11 20.12-.11 33.95 0 8.87-4.9 3.07-6.94 1.54"/><path d="M59.91 65.31c9.35-.4 12.82-.7 19.74-.91M59.02 76.29c6.48-.28 13.74-.88 21.23-1.06"/></g><g style="font-size:8;fill:gray"><text transform="translate(16.25 20.25)">1</text><text transform="translate(25.41 11.6)">2</text><text transform="translate(36.25 22.6)">3</text><text transform="translate(56.25 21.25)">4</text><text transform="translate(29.25 24.6)">5</text><text transform="translate(23.25 37.25)">6</text><text transform="translate(38.25 45.25)">7</text><text transform="translate(40.25 62.25)">8</text><text transform="translate(6.25 90.25)">9</text><text transform="translate(16.25 85.25)">10</text><text transform="translate(31.25 81.25)">11</text><text transform="translate(49.25 42.05)">12</text><text transform="translate(59.25 32.98)">13</text><text transform="translate(64 43.25)">14</text><text transform="translate(49.25 64.25)">15</text><text transform="translate(62.25 52.25)">16</text><text transform="translate(63 63.18)">17</text></g></svg>