<svg xmlns="http://www.w3.org/2000/svg" width="109" height="109"><g style="fill:none;stroke:#000;stroke-width:3;stroke-linecap:round;stroke-linejoin:round"><path d="M13.94 19.79c2.23 1.06 5.87.85 8.22.58 7.16-.82 16.35-2 26.09-3.49 2.61-.4 5.25-.63 7.75-.17m-31.32 6.61c.88.88 1.03 2.08 1.03 3.47s-.08 40.1-.08 45.09m.92-34.4c9.2-1.73 11.45-2.23 19.58-3.08M26.74 51.7c7.51-1.2 10.26-1.95 19.42-2.8"/><path d="M13.5 76.24c1.5.88 2.75 1.13 4.17.52 3.39-1.46 21.02-9.81 26.21-12.17M46 20.25c1.09 1.09 1.1 2.43 1.1 3.88-.01 5.94-.07 43.46-.09 62.37 0 3.98-.01 7.14-.01 9m16.92-78.08c2.33.58 3.92.6 6.08.21 5.62-1.02 14-3 17.42-4.21 2.98-1.05 5.22 1.48 3.92 3.83-2.08 3.75-8.21 14-11.83 19m-.01 0c21.62 13.25 16 42.25 2.48 33.66"/><path d="M66.33 18.5c.83.84 1 2.08 1 3.87 0 11.95.02 48.06.03 65.5v8.63"/></g><g style="font-size:8;fill:gray"><text transform="translate(15.25 17.25)">1</text><text transform="translate(18.25 31.25)">2</text><text transform="translate(30.25 33.25)">3</text><text transform="translate(30.25 48.25)">4</text><text transform="translate(5.25 77.25)">5</text><text transform="translate(50.25 28)">6</text><text transform="translate(63.25 15.25)">7</text><text transform="translate(76.25 46.25)">8</text><text transform="translate(60.25 26.78)">9</text></g></svg>