<svg xmlns="http://www.w3.org/2000/svg" width="109" height="109"><g style="fill:none;stroke:#000;stroke-width:3;stroke-linecap:round;stroke-linejoin:round"><path d="M12.75 18.48c.82.42 2.33.47 3.16.42 6.53-.39 20.02-2.62 29.71-3.35 1.37-.1 2.2.2 2.88.41m-27.41 4.11c.24 1.18.96 2.33.96 3.72s-.12 41.3-.12 46.29m.37-35.1c3.11-.66 6.23-1.18 9.39-1.5l1.95-.18M22.49 48.95q4.86-.84 9.75-1.5c.76-.1 1.5-.2 2.23-.3M11.75 75.01c.83.49 2.36.61 3.06.26C17.63 73.86 35.67 64 40 61.75m.08-42.25c.88 1.31.97 1.54.97 2.99s.14 63.06.14 75.01m5.51-63.25c3.32 3.42 8.76 14.83 9.67 18.25m33.69-24c.83.95.75 2.69 0 4.15-.75 1.47-9.04 13.43-12.81 16.85m-9.24-36c.86.8 1.04 2.92 1.04 4.25-.17 52.81-8.15 64.75-21.8 77.75"/><path d="M67.75 52c7.5 18.5 19.45 34.54 24.95 41.68 1.73 2.25 2.13 2 3.55 2.57"/></g><g style="font-size:8;fill:gray"><text transform="translate(5.25 19.25)">1</text><text transform="translate(14.25 29.25)">2</text><text transform="translate(25.25 31.25)">3</text><text transform="translate(25.25 45.25)">4</text><text transform="translate(3.25 75.25)">5</text><text transform="translate(32.5 26.25)">6</text><text transform="translate(49.25 34.25)">7</text><text transform="translate(81.25 27.25)">8</text><text transform="translate(58.25 14.28)">9</text><text transform="translate(73.25 61.21)">10</text></g></svg>