<svg xmlns="http://www.w3.org/2000/svg" width="109" height="109"><g style="fill:none;stroke:#000;stroke-width:3;stroke-linecap:round;stroke-linejoin:round"><path d="M9.87 25.06c1.62.35 3.39.27 5.02.01 7.54-1.16 15.77-3.28 21.62-4.85.91-.25 2.51-.17 2.99-.08m-21.24 7.92c.9.9 1.33 2.43 1.33 3.57s-.12 32-.12 38.08m1.18-29.81c3.1-.65 9.1-1.77 13.17-2.48M20.67 54.24c3.46-.62 10.46-2.12 13.31-2.5M10.75 73.23c.7.7 2.3.71 3.08.37C18 71.75 26.25 68 33.52 64.81m.07-40.9c.75.75 1.33 2.21 1.33 3.57 0 .96.08 41.86.11 60.01 0 3.41.01 6.05.01 7.52m18.01-78.26c.79.79 1.48 2.12 1.48 3.14 0 3.36-.06 5.36-.06 8.67M43.56 30c.59.08 2.91.45 3.49.42 4.7-.29 11.45-1.67 16.95-2.29.97-.11 1.54-.14 2.03-.12M45 38.38c3.06 3.61 4.9 8.15 5.33 10.68m11.99-16.31c.3 1 .43 2.38.11 3.5-1.43 5.12-2.18 7.25-3.77 13m-17.91 3c2.19.19 4.42.43 6.6.09 14.65-2.26 29.31-4.29 42.91-5.65 2.04-.21 4.58-.66 6.5.35M45.19 62.09c.73.73 1.06 1.91 1.06 3.02 0 2.19.03 14.54.04 21.14v3.73m.99-26.41c1.6-.2 10.2-1.67 14.46-2.51 2.72-.54 4.23.32 4.23 2.57 0 3.7-.01 14.63 0 20.63 0 1.8.01 3.16.01 3.75"/><path d="M47.09 74.92c3.28-.42 14.83-1.82 17.54-2m-17.1 14.01c4.34-.43 12.31-1.48 16.9-1.78M73.24 13c1.19 1.19 1.65 2.62 1.74 5.4 1.02 30.85 6.9 65.73 21.03 77.56 4.34 3.63 3.61 1.27 3.08-6.67"/><path d="M93 55.9c.05.74-.06 2.17-.35 3.21-1.9 6.64-8.15 19.89-18.34 29.25m11.64-65.97c2.58 2.12 6.71 6.98 7.91 10.62"/></g><g style="font-size:8;fill:gray"><text transform="translate(12.75 22.63)">1</text><text transform="translate(12.5 35.5)">2</text><text transform="translate(23.25 35.98)">3</text><text transform="translate(23.25 50.9)">4</text><text transform="translate(2.5 75.5)">5</text><text transform="translate(27.75 31.63)">6</text><text transform="translate(46.5 15.5)">7</text><text transform="translate(44.5 27.5)">8</text><text transform="translate(39.75 37.5)">9</text><text transform="translate(50.7 39.5)">10</text><text transform="translate(38.25 49.78)">11</text><text transform="translate(37.2 70.5)">12</text><text transform="translate(46.5 60.5)">13</text><text transform="translate(50.07 70.97)">14</text><text transform="translate(50.25 83.5)">15</text><text transform="translate(61.5 14.5)">16</text><text transform="translate(95.5 57.5)">17</text><text transform="translate(81.5 19.5)">18</text></g></svg>