<svg xmlns="http://www.w3.org/2000/svg" width="109" height="109"><g style="fill:none;stroke:#000;stroke-width:3;stroke-linecap:round;stroke-linejoin:round"><path d="M15.75 20.25q1.125 1.5 1.5 3c.375 1.5-.15 30-.25 32.25-.5 10.75-.5 26-7.25 36.75m9-70c3-.25 11.07-2.2 13.25-2.75 2-.5 3.08.67 3 2.25-.25 5-.25 43.25-.25 63.5 0 13-6 4.5-8.5 2.25"/><path d="M18.75 41.5c2.24-.3 5-.53 7.25-.75.64-.06 1.3-.12 1.97-.19M19 59.25c2.35-.24 4.69-.55 7.03-.84.57-.07 1.14-.14 1.72-.2M70.82 13c.05.51.23 1.48-.1 2.04-4.47 7.46-9.22 12.71-19.22 19.5m-2.26-.76c.38 1.57.92 2.8.92 4.76 0 17.91 1.55 43.73-11.35 52.95m42.03-64.74c.04.35.19 1.03-.08 1.42-3.6 5.21-7.44 8.88-15.51 13.62m-3.38-.54c1.09.5 1.74 2.25 1.96 3.25s0 43.25-.22 49.5m23.75-52c.03.28.14.81-.06 1.12-2.74 4.08-5.66 6.96-11.79 10.68"/><path d="M71.25 45.75c4.5 11.75 15 32 21.93 39.17 1.61 1.66 2.32 2.78 3.57 3.33"/></g><g style="font-size:8;fill:gray"><text transform="translate(9.49 28.63)">1</text><text transform="translate(18.75 18.13)">2</text><text transform="translate(23.25 37.63)">3</text><text transform="translate(23.25 54.13)">4</text><text transform="translate(62.25 12.13)">5</text><text transform="translate(42.49 44.76)">6</text><text transform="translate(74.25 28.63)">7</text><text transform="translate(56.25 51.13)">8</text><text transform="translate(78.75 43.63)">9</text><text transform="translate(68.25 63.13)">10</text></g></svg>