<svg xmlns="http://www.w3.org/2000/svg" width="109" height="109"><g style="fill:none;stroke:#000;stroke-width:3;stroke-linecap:round;stroke-linejoin:round"><path d="M19.25 17.75c.75 1 1.75 2 2 3s.35 29 .25 31.25c-.5 10.75-5 34.25-11.75 41.5m12.5-73.75c3-.25 10.52-2.47 12.75-2.75 4-.5 4.5 1.67 4.5 3.25 0 6.75-.75 45.25-.75 65.5C38.75 96.5 34 91 31.25 88"/><path d="M22.25 39c2.38 0 4.75-.34 7.09-.72.63-.1 1.28-.21 1.94-.32M23 58.25c2.39-.22 4.77-.53 7.16-.84.41-.05.84-.11 1.31-.16M53.86 15.8c.25.63.42.95.51 1.78.62 5.79 1.77 12.91 2.94 23.42.04.41.08.42.17 1.25m-2.49-25.44c4.89-.82 19.38-2.93 25.64-3.57 2.37-.24 2.87 1.01 2.7 2.87-.71 7.79-1.61 16.01-2.43 21.76-.13.92-.52 2.23-.52 2.85"/><path d="M56.47 28.3c4.16 0 8.49-.88 12.61-1.37 1.46-.17 2.92-.34 4.31-.5m-15.62 13.9c3.95-.62 17.27-1.92 22.18-2.44M46.03 51.9c1.18.33 3.34.39 4.51.33 12.25-.56 30.3-4.1 41.78-4.23 1.96-.02 3.14.16 4.12.33M58.9 53.79c.04.44.08 1.13-.07 1.76-.87 3.71-7.77 12.14-14.64 17.12m12.35-9.12c.83.46 2 .61 3.34.3 1.34-.3 26.4-2.9 29.74-3.05s4.01 1.53 3.51 4.73c-.5 3.21-5.48 21.88-12.83 30.58-2.21 2.62-3.46-.43-5.43-2.34"/><path d="M63.94 65.33c.05.37.13.96-.09 1.48-2.17 5.12-8.13 12.24-16.71 16.45m31.52-19.13c.1.87.22 2.24-.22 3.49-2.58 7.35-12 20.72-27.81 28.65"/></g><g style="font-size:8;fill:gray"><text transform="translate(14.25 28.63)">1</text><text transform="translate(26.25 15.28)">2</text><text transform="translate(26.25 34.7)">3</text><text transform="translate(26.25 54.13)">4</text><text transform="translate(47.25 25.63)">5</text><text transform="translate(57.75 12.28)">6</text><text transform="translate(62.25 25.7)">7</text><text transform="translate(62.25 37.63)">8</text><text transform="translate(47.25 48.13)">9</text><text transform="translate(44.25 61.63)">10</text><text transform="translate(69.75 60.13)">11</text><text transform="translate(50.44 74.3)">12</text><text transform="translate(63.94 77.23)">13</text></g></svg>