<svg xmlns="http://www.w3.org/2000/svg" width="109" height="109"><g style="fill:none;stroke:#000;stroke-width:3;stroke-linecap:round;stroke-linejoin:round"><path d="M17.92 17.58c1.08.67 1.16 2.2 1.33 3.17s-.33 27.92-.87 36.05c-.77 11.56-1.56 23.22-8.8 36.51m10.24-73.75c1.84-.06 10.62-2.33 11.99-2.46 2.45-.23 3.06 1.3 3.06 2.66 0 3.22-.46 46.11-.46 64.4 0 12.58-3.26 5.77-4.83 4.26"/><path d="M19.65 39.38c3.93-.21 11.13-1.24 14.58-1.25m-14.97 19.7c3.23-.07 9.9-1.18 14.29-1.56m7.87-30.52c1.01.44 4.11.75 5.13.7 8.21-.45 32.26-2.2 41.37-3.2 1.68-.18 4.49.11 5.33.33m-49.67 10.5c.89.08 3.23.26 4.12.24 5.43-.12 7.75-.37 15.21-.9 1.47-.11 2.76-.04 3.5 0m-26.16 9c.99.44 3.77.67 4.75.58 5.5-.5 12.25-1 21.08-2.08 1.66-.2 4.34-.05 5.17.17m-25.5 7.99c1 .92 1.62 2.03 1.62 3.35s.14 22.21-.22 27.73m.73-29.49c1.69-.16 14.55-2.2 16.09-2.39 1.28-.16 1.97.88 1.97 2.07 0 2.91-.38 27-.38 27.95"/><path d="M48.57 59.18c2.9-.17 14.12-1.21 16.6-1.21m-17.3 10.44c4.63-.55 12.57-1.67 17.48-1.79M47.32 77.38c4.37-.29 12.72-1.05 16.7-1.05m-11.15 5.88c.32.95-.24 1.89-.88 2.58-1.93 2.1-6.99 6.57-10.85 9.05m19.02-12.66c3.95 3.05 8.63 8.57 9.71 11.24m1.38-81c1.25 1.33 2.56 1.83 2.72 5.5 1.32 29.48 4.89 56.57 18.94 71.5 3.92 4.17 4.33 1.08 4.33-5.32M82.55 10.25c3.92 1.43 10.2 4.69 12.03 7.14"/></g><g style="font-size:8;fill:gray"><text transform="translate(9.25 23.25)">1</text><text transform="translate(20.25 15.3)">2</text><text transform="translate(23.25 35.25)">3</text><text transform="translate(23.25 54.25)">4</text><text transform="translate(40.25 23.25)">5</text><text transform="translate(38.25 33.25)">6</text><text transform="translate(39.25 40.25)">7</text><text transform="translate(39.25 56.25)">8</text><text transform="translate(47.25 49.53)">9</text><text transform="translate(48.5 57.2)">10</text><text transform="translate(49.25 66.25)">11</text><text transform="translate(49.25 75.55)">12</text><text transform="translate(38.25 88.25)">13</text><text transform="translate(55.25 92.25)">14</text><text transform="translate(60.25 13.25)">15</text><text transform="translate(77.25 8.25)">16</text></g></svg>