<svg xmlns="http://www.w3.org/2000/svg" width="109" height="109"><g style="fill:none;stroke:#000;stroke-width:3;stroke-linecap:round;stroke-linejoin:round"><path d="M19.44 19.24c.49.95.82 1.88.98 2.8s.14 25.9-.38 33.63c-.75 11-1.51 22.08-8.54 34.72m9.9-70.08c1.97-.06 11.38-2.34 12.85-2.46 2.62-.23 3.28 1.31 3.28 2.67 0 3.23-.49 48.72-.49 67.05 0 12.61-5.54 3.55-7.21 2.04"/><path d="M21.4 39.2c2.75-.23 5.48-.73 8.2-1.16.75-.12 1.49-.23 2.21-.34M21.35 57.65c2.47-.05 4.94-.41 7.39-.72.72-.09 1.45-.18 2.18-.28m23.67-43.33c2.48 1.83 6.41 7.5 7.04 10.35M79.27 9.89c.02.34.04.88-.04 1.37-.47 2.9-3.15 9.25-6.83 13.15m-22.65 4.9c.73.38 2.07.46 2.8.38 6.92-.77 24.93-3.26 34.04-3.62 1.22-.05 1.95.18 2.56.37M52.72 39.76c.73.38 2.07.45 2.8.38 8.09-.77 20.46-2.76 27.82-3.37 1.22-.1 1.95.18 2.56.37M48.19 50.45c.89.46 2.52.56 3.41.46 10.65-1.16 28.95-3.56 38.87-4 1.48-.07 2.38.22 3.12.45"/><path d="M67.94 28.18c.97.5 1.56 2.24 1.75 3.24s0 28.63-.19 34.85m-17.33-9.38c2.16 1.52 5.59 6.24 6.13 8.59m27.87-14.02c.02.29.03.76-.04 1.19-.44 2.5-2.99 7.99-6.47 11.34m-36.28 5.46c1.18.54 3.34.66 4.53.54C58 69 82.25 64.77 95.23 64.78c1.97 0 3.15.26 4.13.53m-45.5 12.16c.35.33.72.61.87 1.03 1.23 3.32 2.7 13.49 3.54 19.45m-2.21-19c8.68-1.36 25.06-3.14 29.53-3.6 1.64-.17 2.62 1.68 2.39 2.67-.97 4.07-2.08 8.95-4.16 14.82m-25.2 2.79c5.26-.53 20.17-1.73 26.84-2.26"/></g><g style="font-size:8;fill:gray"><text transform="translate(13.5 27.5)">1</text><text transform="translate(22.5 16.55)">2</text><text transform="translate(25.5 36.5)">3</text><text transform="translate(25.5 55.5)">4</text><text transform="translate(46.5 12.5)">5</text><text transform="translate(70.5 10.5)">6</text><text transform="translate(44.5 28.5)">7</text><text transform="translate(45.5 40.5)">8</text><text transform="translate(41.5 51.28)">9</text><text transform="translate(59.5 35.5)">10</text><text transform="translate(43.25 58.52)">11</text><text transform="translate(74.5 56.5)">12</text><text transform="translate(42.5 66.5)">13</text><text transform="translate(44.5 84.5)">14</text><text transform="translate(56.5 76.5)">15</text><text transform="translate(59.5 92.25)">16</text></g></svg>