<svg xmlns="http://www.w3.org/2000/svg" width="109" height="109"><g style="fill:none;stroke:#000;stroke-width:3;stroke-linecap:round;stroke-linejoin:round"><path d="M18.59 19.79c.5.99.84 1.96 1 2.92.17.96-.35 27.96-.89 36-.76 11.44-1.54 22.98-8.7 36.13m10.09-72.93c2.01-.06 11.6-2.43 13.1-2.56 2.67-.24 3.34 1.36 3.34 2.77v64.67c0 13.12-5.64 3.7-7.35 2.12"/><path d="M20.09 41.57c2.8-.23 5.58-.76 8.36-1.2.76-.12 1.52-.24 2.26-.35M20.04 60.76c2.52-.06 5.04-.43 7.53-.75.73-.09 1.48-.19 2.22-.29m31.52-45.77c1.69.8 4.44 3.8 5.07 6.49m-18.46 7.29c.61 0 1.99.11 2.6.06 6.24-.54 23.74-3.54 31.17-4.08 1.02-.07 3.11-.24 3.61-.28m-30.21 6.98c2.71 3.37 3.79 6.76 4.18 9.26m16.56-12.19c.42.52.51 2.23.36 2.54-1.47 3.14-3.31 7.44-4.41 9.25m-28.94 5.41c1.7-.03 3.33.24 4.36.1 15.3-2.03 28.95-4.97 42.75-6.25 1.76-.16 3.72-.33 4.78-.05M50.55 52.76c.41.45 1.12 1.3 1.12 1.97s2.88 18.22 2.88 18.56.18 1.23.18 1.91m-2.39-21.35c2.31-.4 22.91-3.85 26.83-4.4 2.1-.29 4.58.29 4.19 3.14-.58 4.24-1.85 13.41-3.19 19.49"/><path d="M53.98 62.94c4.93-.68 9.86-1.34 14.8-2.01 1.43-.19 2.85-.38 4.19-.56M55.5 72.58c4.61-.65 18.16-2.11 24.12-2.94m-31.71 13.7c.23 1.59-2.24 8.99-4.06 11.88m12.07-13.41c7.08 10.44 12.6 13.7 30.06 14.46 10.29.45 9.52-2.52 1.31-7.39m-16.41-9.75c2.37 4.37 5.11 4.84 5.79 1.85m13.64-6.48c3.51 1.61 6.01 3.93 9.02 8.91"/></g><g style="font-size:8;fill:gray"><text transform="translate(12.5 27.5)">1</text><text transform="translate(22.5 18.5)">2</text><text transform="translate(24.5 37.5)">3</text><text transform="translate(24.5 56.5)">4</text><text transform="translate(55.25 13.5)">5</text><text transform="translate(45.5 24.5)">6</text><text transform="translate(47.75 36.43)">7</text><text transform="translate(67.5 33.1)">8</text><text transform="translate(41.5 41.5)">9</text><text transform="translate(41.5 59.5)">10</text><text transform="translate(52.75 51.88)">11</text><text transform="translate(56 60.05)">12</text><text transform="translate(57.25 69.73)">13</text><text transform="translate(40.5 80.15)">14</text><text transform="translate(50.5 90.5)">15</text><text transform="translate(61.5 79.5)">16</text><text transform="translate(82.5 79.5)">17</text></g></svg>