<svg xmlns="http://www.w3.org/2000/svg" width="109" height="109"><g style="fill:none;stroke:#000;stroke-width:3;stroke-linecap:round;stroke-linejoin:round"><path d="M17.58 19.92c.51.96 1.19 6.58 1.19 3.42 0-.57.25 23.35-.39 32.68-.73 10.68-3.05 25.08-8.8 35.29m9.74-70.49c1.76-.06 10.15-1.77 11.46-1.89 2.34-.22 2.93 1.27 2.93 2.59 0 3.13-.44 45.36-.44 63.15 0 12.24-4.85 5.88-6.35 4.41"/><path d="M19.65 41.63c3.48-.19 10.04-1.2 13.1-1.21m-14.5 21c3.15-.07 9.55-.81 13.83-1.17m33.15-46.58c.07.73.3 1.97-.13 2.95-2.73 6.26-10.44 19.42-23.35 28.26M66.4 15.97c3.9 4.68 20.68 19.96 24.98 23.38 1.46 1.16 3.33 1.66 4.79 1.99m-41.92-.09c.46.17 3.2.51 3.67.5 3.53-.05 16.49-2.53 19.33-2.33.76.05 3.12.25 3.5.33m-35.5 11.5c.2.26 1.1.85 1.19 1.17.71 2.54 1.5 9.77 1.98 14.33m-.67-14.22c6.75-1.19 11.87-1.42 14.99-1.77 1.14-.13 1.82.75 1.66 1.48-.68 3.06-1.47 7.53-2.47 11.76m-13.35 2c3.92-.46 9.77-1.26 15.16-1.98m6.34-14.44c.2.26 1.24.67 1.33 1 .7 2.58 1.54 9.69 2.02 14.32m-1-13.46c5.78-.93 12.56-1.48 15.8-1.8 1.18-.12 1.9.69 1.73 1.38-.7 2.84-.83 6.13-1.87 10.06m-13.7 2.32c4.14-.3 9.86-.82 15.55-1.28m-32.87 7.43c.17 1.09.11 2.13-.12 2.84-2.01 6.17-6.62 14.34-14.88 21.78m14.64-15.24c2.97 1.6 6.76 5.87 8.21 9.9m15.37-20.92c.16 1.13.1 2.21-.12 2.94-1.93 6.4-6.36 14.86-14.28 22.57m15.14-15.56c4.56 2.51 10.39 9.19 12.61 15.51"/></g><g style="font-size:8;fill:gray"><text transform="translate(9.25 26.25)">1</text><text transform="translate(20.25 17.25)">2</text><text transform="translate(22.25 38.25)">3</text><text transform="translate(22.25 58.25)">4</text><text transform="translate(56.25 14.25)">5</text><text transform="translate(75.25 21.25)">6</text><text transform="translate(59.25 38.25)">7</text><text transform="translate(39.25 59.25)">8</text><text transform="translate(48.25 49.25)">9</text><text transform="translate(51.25 62.25)">10</text><text transform="translate(65 62.63)">11</text><text transform="translate(73.25 48.25)">12</text><text transform="translate(76.25 60.25)">13</text><text transform="translate(45.25 75.25)">14</text><text transform="translate(59.25 80.25)">15</text><text transform="translate(69.25 73.25)">16</text><text transform="translate(83.25 78.25)">17</text></g></svg>