<svg xmlns="http://www.w3.org/2000/svg" width="109" height="109"><g style="fill:none;stroke:#000;stroke-width:3;stroke-linecap:round;stroke-linejoin:round"><path d="M16.75 20.42c1.5.83 1.7 2.4 1.86 3.38s-.36 25.48-.88 33.68c-.74 11.67-1.5 23.43-8.48 36.84m9.24-73.11c3.51-.71 10.83-1.66 12.26-1.79 2.56-.23 3.45.64 3.45 1.99 0 3.2-.48 45.3-.48 63.46 0 12.49-3.01 6.88-4.64 5.38"/><path d="M18.49 41.77c2.64-.11 4.27-.37 6.9-.58.72-.06 1.43-.12 2.13-.17m-9.6 20.23c2.35-.04 4.71-.27 7.05-.48l2.08-.18m15.37-36.84c.97.41 3.18 1.05 4.15.97 8.91-.75 35.43-2.97 45.89-3.54 1.61-.09 2.82.37 3.62.57"/><path d="M53.55 13.92c1.97 1.29 2.71 1.66 2.81 2.46.5 4.02.17 9.12 1.97 17.7m18.09-21.5c.11.9 1.47 1.98 1.35 3.07-.72 6.46-1.05 9.68-1.84 15.76m-16.75 1.2c2.73-.16 16.99-1.2 18.23-1.2M59.42 43.42c.58.33 1.13 1.32 1.17 1.83.41 5.75 1.25 13.39 1.83 20.5M61.25 45.3c4.95-1.06 8.75-1.8 12.5-2.31.98-.13 1.55 1.07 1.42 2.14-.57 4.4-1.06 11.54-1.91 17.63"/><path d="M62.58 64.58c4.39-.83 8.5-1.67 12.17-2m-34.5-14.5c.69.28 1.57.94 2.26.94s8.14-1.77 8.74-1.77"/><path d="M50.25 36.92c.91.59 1.21 1.93 1.21 2.32s.15 21.36.15 22.43"/><path d="M40.24 67.33c1.72 1.87 3.04 1.98 4.31 1.04 7.61-5.62 10.06-7.28 14.08-10.4M95.07 38.9c.09.18.13.7-.08 1-2.04 2.92-7.07 7.2-11.49 8.73"/><path d="M81.08 35.25c.92 1 1.67 2.4 1.67 3.33 0 .63.07 20.4.07 22.31 0 4.89 1.18 6.43 6.98 6.43 4.7 0 6.89-1.07 6.89-6.29M49.05 77.5c0 6.06-5.93 15.02-7.47 16.75m16.94-16.58c2.51 3.13 4.4 11.75 5.03 16.63m8.18-18.13c2.7 3.27 6.97 12.96 7.64 18.05m5.99-17.72c3.92 3.13 10.13 12.85 11.11 17.72"/></g><g style="font-size:8;fill:gray"><text transform="translate(8.25 24.25)">1</text><text transform="translate(18.25 17.25)">2</text><text transform="translate(21.25 38.25)">3</text><text transform="translate(21.25 58.25)">4</text><text transform="translate(39.25 20.25)">5</text><text transform="translate(46.25 13.25)">6</text><text transform="translate(71.25 12.25)">7</text><text transform="translate(60.75 30.25)">8</text><text transform="translate(54.25 50.25)">9</text><text transform="translate(60.25 41.25)">10</text><text transform="translate(64.25 61.25)">11</text><text transform="translate(37.25 45.05)">12</text><text transform="translate(38.25 36.25)">13</text><text transform="translate(37.25 64.25)">14</text><text transform="translate(86.25 36.25)">15</text><text transform="translate(72.25 39.25)">16</text><text transform="translate(41.25 78.25)">17</text><text transform="translate(51.25 83.25)">18</text><text transform="translate(63.25 81.25)">19</text><text transform="translate(77.25 80.25)">20</text></g></svg>