<svg xmlns="http://www.w3.org/2000/svg" width="109" height="109"><path d="M12.63 23.33c.83.84 1.18 1.83 1.18 2.98 0 .61-.04 39.05-.05 59.95v6.62m.91-68.22c6.96-1.28 14.33-2.41 24.21-3.61.97-.12 3.51-.16 4.54.21m-14.98 3.33c.74.74.93 1.78.93 2.73 0 .85.01 9.38.01 14.68m-14.2 3.49c7.89-1.31 14.93-2.52 22.6-3.79 2.64-.44 3.84.62 3.47 3.38-.56 4.15-1.51 8.42-2.69 14.09m-23.28 4.87c2.64-.57 14.43-2.61 21.24-3.69 1.86-.3 3.11-.37 3.97-.37m-12.57 3.95c.76.76.93 1.94.93 2.98 0 2.34-.09 12.59-.09 18.09m-13.51 2.88c5.5-.62 13.34-1.94 21-2.84 1.54-.18 3.75-.39 5.47-.39m17.56-71.51c.32 1.23.25 2.25-.14 3.4-2.03 5.9-5.75 13.96-10.58 21.67M57 29.64c2.25.11 4.24-.17 6.13-.46 6.87-1.05 13.49-3.05 20.01-4.43 1.9-.4 3.46-.45 5.36.01M52.27 42.5c.87.87 1.41 2.05 1.58 3.26.78 5.11 1.06 7.84 1.85 12.96.16 1.05.33 2.08.51 3.06m-1.99-18.26c10.6-1.51 21.41-3.2 27.53-3.79 3.02-.29 4.61.85 3.73 4.14-1.02 3.79-1.67 7.39-3.34 12.63m-24.69 3.48c5.98-.47 14.45-1.74 22.82-2.61 1.21-.13 2.42-.24 3.61-.35M45.75 72.45c.84.83 1.12 1.55 1.29 2.81.59 4.51 1.1 10.08 1.61 15.5.12 1.26.25 2.51.4 3.74m-.84-20.68c6.27-.83 10.94-1.22 14.8-1.57 2.94-.27 4.13.57 3.55 3.64-.8 4.17-1.57 9.15-2.77 14.66m-13.82 2.09c4.26-.49 5.74-.42 12.29-1.01.96-.09 2.01-.18 3.17-.29m8.82-21.89c.84.84 1.09 1.68 1.26 2.77.86 5.4 1.6 10.32 2.31 17.03.14 1.3.27 2.56.39 3.75m-1.78-21.7c6.37-1.22 12.64-1.98 16.73-2.52 3.29-.43 4.81-.15 4.13 3.6-.82 4.52-2.05 10.1-3.1 15.97m-15.25 2.02c1.07-.09 8.48-.84 13.81-1.4.91-.1 1.91-.19 3.01-.27" style="fill:none;stroke:#000;stroke-width:3;stroke-linecap:round;stroke-linejoin:round"/><g style="font-size:8;fill:gray"><text transform="translate(6.5 34.5)">1</text><text transform="translate(14.25 20.5)">2</text><text transform="translate(21.75 32.5)">3</text><text transform="translate(18.5 42.05)">4</text><text transform="translate(18.75 60.5)">5</text><text transform="translate(21.75 72.5)">6</text><text transform="translate(18.67 84.5)">7</text><text transform="translate(50.25 15.5)">8</text><text transform="translate(62.5 26.5)">9</text><text transform="translate(44.25 52.5)">10</text><text transform="translate(55.5 40.5)">11</text><text transform="translate(58.5 56.5)">12</text><text transform="translate(36.5 79.63)">13</text><text transform="translate(47.25 70.63)">14</text><text transform="translate(50.5 89.5)">15</text><text transform="translate(67.5 81.5)">16</text><text transform="translate(77.25 67.63)">17</text><text transform="translate(80.5 87.05)">18</text></g></svg>