<svg xmlns="http://www.w3.org/2000/svg" width="109" height="109"><g style="fill:none;stroke:#000;stroke-width:3;stroke-linecap:round;stroke-linejoin:round"><path d="M47.55 17.46c.07.47.29 1.37-.14 1.87C41.75 26 35.15 31.95 22.25 37.25m-2.72-1.52c1.06 1.1 1.5 3.55 1.76 5.8.96 8.22 3.99 40.35 4.96 51.47m-2.5-32.75c5.25-.5 19.75-2.5 21-2.5h4m11.25-26c1.25.25 2.25.75 4 .75s20.25-3 22.25-3.25 3.66 1.24 3.5 2.75c-1.5 14.5-3.5 42.5-5 54.5-.22 1.74 0 2.75-.25 3.75"/><path d="M60.5 56.75c1.25.25 2.25.75 4 .75s19.75-2 21.75-2.25M26.5 88.75c3.25 0 53.25-3.25 57-3.5"/></g><g style="font-size:8;fill:gray"><text transform="translate(40.5 17.5)">1</text><text transform="translate(12.5 43.5)">2</text><text transform="translate(29.25 56.5)">3</text><text transform="translate(61.5 28.5)">4</text><text transform="translate(59.5 53.5)">5</text><text transform="translate(31.5 85.5)">6</text></g></svg>