<svg xmlns="http://www.w3.org/2000/svg" width="109" height="109"><g style="fill:none;stroke:#000;stroke-width:3;stroke-linecap:round;stroke-linejoin:round"><path d="M74.69 11.14c-.44 1.36-1.55 2.17-2.43 2.62-5.92 2.96-21.26 7.66-41.2 10.71m3.46 4.61c2.13 1.7 5.51 6.99 6.04 9.63m10.08-11.25c1.65 1.46 4.26 5.99 4.67 8.26m18.23-11.33c.06.91-.03 1.8-.28 2.68-.75 2.94-2.75 6.78-5.26 10.93m-48.12 2.12c0 3.65-3.01 13.69-4.38 16.12m4.48-11.02c14.15-1.47 41.02-3.85 65.3-4.89 11.41-.49 2.42 6.53-.42 8.53m-52.17 2.98c.31.91.12 2.05-.2 2.89-2.24 5.9-6.74 13.27-15.07 22.13m15.61-15.97c.85.24 1.78.25 2.47.15 1.91-.26 5.36-1.05 8.14-1.99 3.21-1.1 4.76-.21 3.45 3.36-3.79 10.33-14.97 27.97-30.22 36.11"/><path d="M26.62 71.62c2.48 1.35 6.42 5.55 7.04 7.66m22.27-19.47c1.43.47 3.23.53 4.7.46 5.84-.25 15.98-1.27 21.74-1.5 1.6-.06 3.22-.09 4.8.22m-28.42 2.14c.81.81.75 1.77.75 2.87v14.5m-12 1.14c2 .81 4.28.65 6.38.57 8.86-.3 24.65-1.66 32.48-2.2 1.84-.13 3.58-.19 5.39.25"/><path d="M71.82 50.25c1.34 1.34 1.73 2.75 1.73 4.67 0 .93-.03 24.21-.04 36.21v6.5"/></g><g style="font-size:8;fill:gray"><text transform="translate(66 9.88)">1</text><text transform="translate(27.25 33.25)">2</text><text transform="translate(43.25 32.25)">3</text><text transform="translate(64.75 27.25)">4</text><text transform="translate(13.25 43.25)">5</text><text transform="translate(23.25 41.75)">6</text><text transform="translate(23.25 55.25)">7</text><text transform="translate(38.25 57.35)">8</text><text transform="translate(31.25 72.25)">9</text><text transform="translate(54.25 57.7)">10</text><text transform="translate(51.25 68.25)">11</text><text transform="translate(46.25 76.8)">12</text><text transform="translate(60.75 51.25)">13</text></g></svg>