<svg xmlns="http://www.w3.org/2000/svg" width="109" height="109"><g style="fill:none;stroke:#000;stroke-width:3;stroke-linecap:round;stroke-linejoin:round"><path d="M29.42 11.75c1.12 1.84.71 2.49 0 3.83-1.75 3.29-3.42 5.92-6.75 10m-3.75 2.5c.79 1.31 1.17 2.36 1.17 4s-.07 21.38.02 24.33c.39 12.94-4.1 31.84-9.69 38.17m10.16-65.83c3.54-.62 12.22-2.32 15.42-2.94s3.03 1.25 3.03 3.43-.34 55.1-.34 58.22c0 11.54-5.94 2.59-6.61 1.96"/><path d="M25.53 33.94c1.16 2.04 4.05 7.5 4.34 9.88m-2.12 13.26c1 .92 1.5 1.56 1.5 2.83s-.02 17.84-.5 21m-20-21.12c1.44.7 3.2.75 4.44.26 1.23-.49 25.3-11.98 30.98-14.55m24.92-31.58c.39 1.54-.07 3.33-.53 4.48-3.16 7.95-9.35 20.41-21.46 31.78m22.72-33.23c3.61 4.86 19.17 20.72 23.16 24.27 1.35 1.21 3.09 1.72 4.44 2.07m-36.5-4.71c.41 0 2.45.63 3.33.5 3-.44 7.55-1.41 11.17-2 1.56-.25 3.48.17 4.17.17M54.42 48.08c.7.24 2.77.27 4.84.15 7.77-.44 21.99-2.88 23.31-3 1.39-.13 2.88.65 2.72 2.17-.24 2.42-1.49 12.37-2.54 19.51"/><path d="M58.75 56.92c2.31-.1 22.72-1.89 25.33-2M57.25 67.08c4.51-.59 19.06-1.92 24.67-2.5M58.14 48.42c.44.63.47 3.01.38 4.39-.59 9.05-3.33 29.35-13.52 37.77m12.92-14.16c.27.33 1.21 2.42 1.33 2.83.94 3.26 2.19 10.97 2.83 16.83m-2.65-17.92c6.38-1.15 23.36-3.13 26.81-3.56 1.26-.16 2.02.93 1.84 1.86-.75 3.84-1.88 8.65-2.99 13.96m-22.51 3.16c4.24-.5 19.18-1.9 25-2.67"/></g><g style="font-size:8;fill:gray"><text transform="translate(22.25 10.25)">1</text><text transform="translate(9.25 33.25)">2</text><text transform="translate(33.25 22.25)">3</text><text transform="translate(22.25 46.25)">4</text><text transform="translate(23.25 65.08)">5</text><text transform="translate(1 59.25)">6</text><text transform="translate(61.25 15.25)">7</text><text transform="translate(76.25 20.25)">8</text><text transform="translate(67.25 35.25)">9</text><text transform="translate(58.25 46.25)">10</text><text transform="translate(62.25 55.25)">11</text><text transform="translate(62.25 64.25)">12</text><text transform="translate(47.25 58.25)">13</text><text transform="translate(50.25 91.25)">14</text><text transform="translate(62.25 74.25)">15</text><text transform="translate(64.25 90.25)">16</text></g></svg>