<svg xmlns="http://www.w3.org/2000/svg" width="109" height="109"><g style="fill:none;stroke:#000;stroke-width:3;stroke-linecap:round;stroke-linejoin:round"><path d="M27.08 12.92c.67 1.08.17 2.33-.33 3.83C26 19 24.5 21.5 20.67 27.58m-3.75 1c.73 1.29 1 2.4 1 4s.1 22.57.19 25.46c.36 12.65-3.6 31.21-8.52 36.87m9.33-64.99c3.54-.63 9.63-1.87 12.83-2.5s3.78.65 3.78 2.84-.34 55.38-.34 58.51c0 9.73-4.94 2.44-5.61 1.82"/><path d="M22.7 35.86c1.52 2.03 5.3 7.44 5.67 9.8M25.8 56.64c1 1.6 1.2 2.56 1.2 3.84s0 17.17-.4 20.35M10.42 57.75c1.58 1.25 3.51 1 4.59.65 1.09-.35 20.24-8.15 24.82-9.74m5.92-26.08c.83.37 4.08.26 4.92.19 7.66-.68 28.75-2.47 37.58-2.52 1.39-.01 4.31.31 5 .5"/><path d="M55.75 13.58c1.5.42 1.88 1.85 2 2.5 1.1 6.12 1.69 9.77 2 12m18-15.83c.66.59.83 1.67.5 3.67-.45 2.68-1.21 6.8-2.17 10.17M47.37 30.3c0 3.16-2.06 11.36-2.87 13.47m3.8-9.56c14.87-2.88 39.48-4.68 40.78-4.79 8.48-.71 4.51 3.56 1.33 6.83m-34.49 4.83c.74.41 3.92.52 4.67.5 4.08-.12 10.92-1.58 16-2 1.25-.1 3.88.29 4.5.5m-33.34 10.5c1.16.47 4.51.69 5.67.67 7.9-.18 25.44-3.37 35.65-3.61 1.92-.04 3.08.22 4.04.46m-25.35 3.78c.06.34.12.87-.12 1.35-1.45 2.86-9.76 9.13-21.14 12.96m20.05-8.36c5.27 4.59 9.01 23.09 4.36 36.14-2.05 5.75-5.14.93-5.83.28"/><path d="M66.58 62.54c.06.38.12.98-.11 1.53-1.35 3.22-9.13 10.3-19.77 14.63m22.13-6.02c.07.44.14 1.15-.13 1.78-1.62 3.76-11.74 10.99-24.43 16.04m44.3-35.31c.04.28.08.72-.07 1.13-.86 2.38-5.81 7.61-12.57 10.81m-2.29 1.3c3.13 2.73 15.4 15.25 20.27 18.37 1.21.77 2.14 1.3 3.29 1.56"/></g><g style="font-size:8;fill:gray"><text transform="translate(19.25 11.25)">1</text><text transform="translate(9.25 35.25)">2</text><text transform="translate(31.25 24.25)">3</text><text transform="translate(21.25 47.25)">4</text><text transform="translate(21.25 65.25)">5</text><text transform="translate(3.25 57.25)">6</text><text transform="translate(40.25 20.25)">7</text><text transform="translate(49.25 10.25)">8</text><text transform="translate(70.25 9.25)">9</text><text transform="translate(39.25 31.25)">10</text><text transform="translate(49.25 31.25)">11</text><text transform="translate(51.25 40.25)">12</text><text transform="translate(47.25 48.25)">13</text><text transform="translate(50 59.25)">14</text><text transform="translate(70.25 61.25)">15</text><text transform="translate(52 70.25)">16</text><text transform="translate(54.25 80.25)">17</text><text transform="translate(92 58.25)">18</text><text transform="translate(81.25 73.25)">19</text></g></svg>