<svg xmlns="http://www.w3.org/2000/svg" width="109" height="109"><g style="fill:none;stroke:#000;stroke-width:3;stroke-linecap:round;stroke-linejoin:round"><path d="M16.06 25.27c.23.48.47.72.47 1.36s2.53 18.38 2.53 18.7.08.32.16.96m-2.3-20.12c2.16-.3 28.64-3.16 30.54-3.05 1.01.05 2.49 1.21 2.23 2.74-.5 2.95-2.57 16.59-3.02 17.51"/><path d="M26.34 15.58c.5.21 1.17 1.74 1.21 2.17.78 9.45.64 22.11.98 25.99m10.29-29.99c.52.22.98 1.98.94 2.42-1 13.23-1.72 17.36-2.44 26.54"/><path d="M18.15 35.75c8.35-.75 13.47-1.56 20-2.36.83-.1 1.63-.2 2.4-.29m-20.8 11.58c3.66-.31 21.25-1.98 25.81-2.25M13.84 54.62c.79.44 2.24.49 3.03.44 8.23-.5 19.38-2.81 30.63-3.57 1.32-.09 2.11.21 2.77.43M18.71 62.96c.36.31.79 1.67.88 2.07.66 2.97 2.16 6.72 2.75 10.83m-2.25-11.65c5.45-.59 18.93-3.13 22.65-3.22 1.54-.04 2.29.77 1.94 2.47-.62 3.06-1.29 4.06-2.11 7.66m-20.43 2.74c5.36-.36 16.66-2.42 22.23-2.51M24.34 80.9c1.13 1 2.91 4.13 3.2 5.69m12.47-10.02c.01.24.32 1.45.29 1.8-.22 2.04-1.81 6.11-3.56 8.85m-22.72 5.74c.7 1.42 1.98 1.62 2.69 1.42 9.28-2.62 22.03-6.12 29.04-7.93M67.92 15c.05.6.1 1.54-.09 2.39-1.07 5.04-8.75 16.29-13.8 21.78m11.26-14.6c3.96-.32 13.01-1.73 14.89-1.99 1.62-.23 1.82 1.49 1.14 2.63-2.84 4.75-7.12 11.39-10.12 17.81"/><path d="M55.95 42.39c1.3.61 2.84 1.42 4.32 1.3 9.28-.75 19.78-2.16 24.77-2.19 2.11-.01 2.79 2.19 2.48 3.38-.83 3.26-.91 6.88-1.42 10.91-.16 1.3-.37 2.65-.66 4.04"/><path d="M71.13 44.39c.62.86.82 2.89.78 3.53-.38 6.81-.04 8.67-.2 12.7m-14.03 1.53c3.16-.06 23.23-2.55 26.24-2.47"/><path d="M55.95 42.39c.5.94.93 2.06.93 3.52 0 8.58-.05 27.52-.05 32.62 0 13.79 2.05 15.09 18.82 15.09 8.57 0 14.77-1.3 16.89-3.06 1.87-1.55 1.98-3.78 2.15-6.56"/></g><g style="font-size:8;fill:gray"><text transform="translate(10 33.38)">1</text><text transform="translate(18.25 23.25)">2</text><text transform="translate(21.25 12.25)">3</text><text transform="translate(33.25 11.25)">4</text><text transform="translate(21.25 33.25)">5</text><text transform="translate(21.25 43)">6</text><text transform="translate(8.25 55.25)">7</text><text transform="translate(13 70.25)">8</text><text transform="translate(22.25 60.78)">9</text><text transform="translate(24.25 71.25)">10</text><text transform="translate(15 84.25)">11</text><text transform="translate(30.25 79.25)">12</text><text transform="translate(3 97.25)">13</text><text transform="translate(56.25 15.25)">14</text><text transform="translate(71 21.25)">15</text><text transform="translate(59.25 42.25)">16</text><text transform="translate(74.25 49.25)">17</text><text transform="translate(60 59.25)">18</text><text transform="translate(47.25 49.03)">19</text></g></svg>