<svg xmlns="http://www.w3.org/2000/svg" width="109" height="109"><g style="fill:none;stroke:#000;stroke-width:3;stroke-linecap:round;stroke-linejoin:round"><path d="M30.35 11.63c.43.35 1.36 2.59 1.44 3.28.09.69-.06 23.36-.14 27.68M15.91 20.26c.75.22 1.31.53 1.61.5 2.61-.28 5.17-.95 8.39-1.57.44-.09.54-.05 1.29-.05m-11.29 8.08c.75.22 1.31.53 1.61.5 2.61-.28 5.17-.95 8.39-1.57.44-.09.54-.05 1.29-.05m-11.14 8.74c.75.22 1.31.53 1.61.5 2.61-.28 5.17-.95 8.39-1.57.44-.09.54-.05 1.29-.05"/><path d="M20.83 12.53c.43.35 1.42 1.47 1.44 3.28.07 6.25.73 21.73 1.19 27.68m11.9-24.97c.83.22 1.46.53 1.78.5 2.89-.28 4.23-.05 7.81-.68.49-.09.6-.05 1.43-.05M35.7 25.82c.83.22 1.45.47 1.78.5 2.39.18 4.06-.05 7.64-.68.49-.09.6-.05 1.43-.05m-11.36 8.36c.83.22 1.46.51 1.78.5 2.06-.05 4.73-.5 8.31-1.12.49-.09.6-.05 1.43-.05"/><path d="M41.37 12.53c.43.35.98 2.58.94 3.28-.43 7.6-.94 19.49-1.31 25.89"/><path d="M10.81 20.97c.51.4.98 2.1 1.01 2.92.17 4.71 1.1 11.14 1.17 19.69.01 1.68 1.74 2.62 3 2.37 4.51-.9 27.55-3.37 33.9-3.59m.99-26.54c.34 1 .82 2.58.77 3.28-.27 4.23-.6 19.11-1.15 24.83m-35.66 10c1.01.31 2.85.34 3.87.31C26.75 54 40 51.75 47.08 51.42c1.68-.08 2.69.15 3.53.3M18.85 62.18c.25.23.56.86.61 1.16.34 2.22 2.43 7.47 3.19 11.88m-2.84-11.76c3.79-.45 21.82-3.22 24.41-3.28 1.07-.03 1.79.58 1.55 1.87-.43 2.32-1.03 4.58-2.33 9.01m-20.59 2.58c2.8 0 18.68-2.51 22.55-2.58m-21.19 7.58c1.68 1.45 4.35 5.95 4.77 8.2m11.66-11.22c.01.25.02.65-.02 1.01-.22 2.12-1.51 6.78-3.28 9.62m-24.07 4.89c.76 1.5 3.14 1.68 3.92 1.5C26.25 90.5 40 86.5 48.37 84.21M68.43 17c.04.55.08 1.41-.07 2.19-.92 4.62-7.5 14.94-11.82 19.98"/><path d="M66.29 24.57c3.96-.32 13.01-1.73 14.89-1.99 1.62-.23 1.82 1.49 1.14 2.63-2.84 4.75-7.12 11.39-10.12 17.81"/><path d="M55.75 44.5c.58.24 1.84.43 3.5.23 8-.98 22.13-3.2 26.79-3.22 2.11-.01 2.79 2.19 2.48 3.38-.89 3.51-1.42 7.45-2.23 11.87-.18 1-.38 2.03-.6 3.08"/><path d="M72.13 44.89c.62.86.82 2.89.78 3.53-.38 6.81-.04 7.17-.2 11.2m-14.03 2.03c3.16-.06 22.48-2.55 25.49-2.47"/><path d="M57.45 45.39c0 1.11-.07 2.06-.07 3.52 0 8.58-.05 24.52-.05 29.62 0 13.79 2.05 15.09 18.82 15.09 8.57 0 14.77-1.3 16.89-3.06 1.87-1.55 1.98-3.78 2.15-6.56"/></g><g style="font-size:8;fill:gray"><text transform="translate(26 8.25)">1</text><text transform="translate(14.25 18.25)">2</text><text transform="translate(15.25 26.48)">3</text><text transform="translate(16.25 33.65)">4</text><text transform="translate(18.25 10.58)">5</text><text transform="translate(35 17)">6</text><text transform="translate(35.25 26.43)">7</text><text transform="translate(35.25 33.1)">8</text><text transform="translate(38.25 10.53)">9</text><text transform="translate(2 20.7)">10</text><text transform="translate(46.75 12.25)">11</text><text transform="translate(4.25 55.25)">12</text><text transform="translate(9 68.25)">13</text><text transform="translate(20 61.25)">14</text><text transform="translate(24.25 71.25)">15</text><text transform="translate(14.25 84.25)">16</text><text transform="translate(30.25 80.25)">17</text><text transform="translate(2 94.1)">18</text><text transform="translate(56.25 17.25)">19</text><text transform="translate(73.25 20.25)">20</text><text transform="translate(62.25 41.25)">21</text><text transform="translate(76.25 50.25)">22</text><text transform="translate(61.25 58.25)">23</text><text transform="translate(49.25 49.25)">24</text></g></svg>