<svg xmlns="http://www.w3.org/2000/svg" width="109" height="109"><g style="fill:none;stroke:#000;stroke-width:3;stroke-linecap:round;stroke-linejoin:round"><path d="M16.5 22.74c1.41.56 3.04.67 4.45.56 12.93-1.01 50.97-4.71 65.87-4.78 2.34-.01 3.75.26 4.92.54"/><path d="M36.25 11c1.75 1.43 2.31 1.87 2.5 2.75C40.5 22 40 29 40.5 32M67.25 8.75c1.12 1 1.87 2.52 1.5 4-1.12 4.5-1.88 11.5-3.5 17.25m-13.12-2.5c.11.9.49 2.36-.22 3.62-4.49 7.93-18.73 24.16-35.41 33.8m36.1-34.35c6.44 4.56 29.9 23.01 35.34 26.8 1.85 1.29 4.22 1.84 6.06 2.2m-55.186-3.021c.796.398 1.993.32 3.12.18 5.4-.66 23.3-1.76 28.7-2.24 1.157-.09 2.576.01 3.523.33M31.736 67.175c.77.752 2.11.936 3.327.95 3.09.036 41.947-4.02 43.467-4.17s4.28-.29 3.95 2.89c-.43 4.17-1.771 10.902-5.091 17.822-1.89 3.94-3.18 3.45-6.23.46"/><path d="M48.3 68.3c.87.87 1.8 2 1.8 3.5-.22 6.96-.024 17.79-.18 27.356"/></g><g style="font-size:8;fill:gray"><text transform="translate(9.5 23.5)">1</text><text transform="translate(28.66 11.85)">2</text><text transform="translate(59.71 12.85)">3</text><text transform="translate(36.5 40.5)">4</text><text transform="translate(66.5 38.5)">5</text><text transform="translate(40.8 53.4)">6</text><text transform="translate(24.8 70.5)">7</text><text transform="translate(53.8 76.1)">8</text></g></svg>