<svg xmlns="http://www.w3.org/2000/svg" width="109" height="109"><g style="fill:none;stroke:#000;stroke-width:3;stroke-linecap:round;stroke-linejoin:round"><path d="M20 24.27c1.29.53 2.8.63 4.1.53 11.9-.97 47.9-3.47 61.62-3.54 2.16-.01 3.45.25 4.53.51"/><path d="M38.25 13.5c1.75 1.43 2.39 1.85 2.5 2.75 1 8.5 1.25 11.5 1.25 17.75m25.75-21.75c.42 1.18.78 2.01.5 3.5-1.5 8-2.25 10.75-3.5 16.25m-12.98-3.25c.1.92.5 2.47-.21 3.72C46.69 41.12 35.5 56 15.23 68.02m37.64-36.63c5.55 5.89 29.46 25.14 35.59 29.45 2.08 1.46 4.74 2.09 6.82 2.51m-58.44-3.83c.64.19 3.61.21 4.25.19 6.65-.21 17.48-1.61 26.98-1.65 1.06 0 2.61.09 3.14.18M32.57 71.93c.64.56 1.42 1.91 1.58 2.65 2.16 9.63 3.09 14.67 4.55 22.7M34 73.75c16.5-1.5 30.76-2.25 38.28-2.98 2.75-.27 4.4 1.59 4.01 3.16-1.63 6.51-2.79 10.57-4.45 17.83m-33.31 2.92c10.15-.63 22.6-1.5 35.55-2.11"/></g><g style="font-size:8;fill:gray"><text transform="translate(12.5 24.5)">1</text><text transform="translate(30.5 13.5)">2</text><text transform="translate(58.5 11.5)">3</text><text transform="translate(36.5 42.5)">4</text><text transform="translate(67.5 41.33)">5</text><text transform="translate(42.5 56.25)">6</text><text transform="translate(26.5 80.5)">7</text><text transform="translate(37.5 70.5)">8</text><text transform="translate(43.5 91.5)">9</text></g></svg>