<svg xmlns="http://www.w3.org/2000/svg" width="109" height="109"><g style="fill:none;stroke:#000;stroke-width:3;stroke-linecap:round;stroke-linejoin:round"><path d="M20 23.77c3 .73 5.69.73 8.38.39 13.24-1.66 36.13-4.18 49.74-4.78 2.96-.13 5.97-.32 8.87.4"/><path d="M37 12.75c.88.88 1.84 2.11 2 3C40.12 22 41.25 27.5 41.75 30.5m27-21.5c.42 1.18.8 2.51.5 4C68.5 16.75 67 21.75 65 27.5m-6.38 1c0 .6-.33 1.49-.77 1.93-2.09 2.07-11.28 6.33-26.11 9.16m-.97 6.24c2.13 1.51 6.01 6.71 6.54 9.06m11.4-13.11c1.98 1.43 5.1 5.89 5.59 8.12m21.05-14.15c.05.43-.06 1.14-.35 1.74-1.62 3.29-5.43 7.94-11.62 12.44m-40.63 15.5c1.35.3 4.65.64 8.22.3 11.66-1.11 33.16-3.73 45.68-4.47 3.57-.21 5.99 0 8.23.3"/><path d="M52.75 53.75c.94.94 1.75 2.5 1.75 4 0 2.04.08 24.26.02 36.38-.01 2.75-.02 4.99-.02 6.37m-3.25-36.25c0 1.25-.52 2.39-1.46 3.51-7.43 8.99-20.9 19.51-32.54 24.24M55.5 65c4.13 3.01 20.22 15.6 28.09 21.35 2.58 1.89 4.91 3.27 8.29 4.27"/></g><g style="font-size:8;fill:gray"><text transform="translate(12.49 24.13)">1</text><text transform="translate(27.5 13.5)">2</text><text transform="translate(59.5 9.5)">3</text><text transform="translate(48.5 30.5)">4</text><text transform="translate(22.5 49.5)">5</text><text transform="translate(41.5 46.5)">6</text><text transform="translate(65.5 38.5)">7</text><text transform="translate(14.5 67.63)">8</text><text transform="translate(43.5 57.5)">9</text><text transform="translate(32.25 75.13)">10</text><text transform="translate(70.5 73.63)">11</text></g></svg>