<svg xmlns="http://www.w3.org/2000/svg" width="109" height="109"><g style="fill:none;stroke:#000;stroke-width:3;stroke-linecap:round;stroke-linejoin:round"><path d="M12.76 39.4c.44.51.98 1.4 1.08 2.06.83 5.79 1.29 11.54 2.97 22.43m-2.65-22.41c6.65-.97 20.23-2.83 25.04-3.2 1.88-.14 2.74 1.38 2.51 2.83-.8 4.98-1.4 9.34-2.7 17.62m-21.95 3.2c5.35-.98 16.19-2.68 24.26-3.39"/><path d="M25.92 20.25c1.08 1 2.26 2.75 2.26 4.47 0 4.78-.2 42.28-.2 55.66"/><path d="M11.57 88.77c.6 1.16 2.46 1.11 3.06.82s22.04-13.65 25.76-15.97m-3.14-6.87c2.42 3.03 6.7 10.93 7.31 15.64M67.15 12.5c.07 1.01.3 2.66-.14 4.07C64.25 25.5 55.5 43.75 45.25 54.6m21.92-37.31c4.53 5.36 21 27.04 24.82 31.5 1.3 1.51 2.96 2.16 4.26 2.59M62.2 41.83c4.14 2.1 10.71 8.62 11.74 11.88m-22.75 8.16c1.07.88 3.33 1.31 4.55 1.08 2.41-.44 27.75-4.31 30.29-4.75s3.18 1.04 1.35 3.38C83.1 67.06 70.81 82.07 69.2 83.83M57.25 76.9c4.35 2.62 15.62 12.73 17.67 19.6"/></g><g style="font-size:8;fill:gray"><text transform="translate(6.5 46.5)">1</text><text transform="translate(15.5 37.5)">2</text><text transform="translate(19.5 58.85)">3</text><text transform="translate(15.54 20.85)">4</text><text transform="translate(3.72 90.5)">5</text><text transform="translate(40.5 67.85)">6</text><text transform="translate(58.5 14.5)">7</text><text transform="translate(73.5 22.5)">8</text><text transform="translate(64.5 40.5)">9</text><text transform="translate(48.5 59.5)">10</text><text transform="translate(57.5 75.5)">11</text></g></svg>