<svg xmlns="http://www.w3.org/2000/svg" width="109" height="109"><g style="fill:none;stroke:#000;stroke-width:3;stroke-linecap:round;stroke-linejoin:round"><path d="M11.76 32.64c.39.57.87 1.56.96 2.3.74 6.45 2.1 14.82 3.17 24.45m-2.95-25.43c5.94-1.08 18.5-2.27 22.79-2.69 1.67-.16 2.45 1.54 2.24 3.16-.71 5.55-1.69 11.97-2.85 21.2"/><path d="M16.11 57.21c6.64-.46 13.14-1.21 21.05-1.78"/><path d="M22.92 12.75c1.08 1 2.26 2.75 2.26 4.47 0 4.78-.2 46.78-.2 60.16m-11.41 4.89c1.18.98 3.46.61 4.06.32s15.54-7.65 19.26-9.97"/><path d="M33 65.25c2.49 2.85 6.43 11.71 7.06 16.14m26.93-69.52c.1.24 1.37 1.23 1.47 2.73.47 7.21.29 12.38.29 14.84M49.38 16.08c3.01 1.77 7.77 7.27 8.52 10.02m29.55-11.01c.02.25.04.65-.04 1.01-.51 2.13-3.42 6.8-7.41 9.66m-33.28 4.97c-.12 3.37-2.21 11.28-3.24 13.29m4.64-11.88c6.19-1.08 31.23-2.71 43.66-3.54 7.64-.51.68 7.25-.49 8.4m-37.7 4.58c.25.19.54.34.62.59.72 2.18 2.09 11.62 2.81 14.82m-1.86-14.14c4.65-.46 22.85-2.6 27.14-3.07 1.08-.11 2.84 1.57 2.38 2.9-.75 2.17-2.25 6.98-3.52 9.92m-23.61 2.35c6.02-.63 19.37-1.74 25.61-2.08M49.92 66.45c.33 1.02 1.13 2.6 1.22 3.29.1.7.31 17.05.22 21.39m.71-23.17c2.87-.23 32.01-3.27 34.15-3.41 2.52-.17 3.97 1.45 3.97 3.91 0 4.08.12 13.11-.58 16.54-1.09 5.33-4.78 1.24-5.99-.6"/><path d="M67.97 56.45c.41.29 1.36 2.2 1.36 2.8 0 6.76-.05 37.56-.13 41.25"/></g><g style="font-size:8;fill:gray"><text transform="translate(6.5 40.5)">1</text><text transform="translate(15.5 30.5)">2</text><text transform="translate(18.21 54.85)">3</text><text transform="translate(14.5 13.5)">4</text><text transform="translate(5.5 82.5)">5</text><text transform="translate(34.5 64.5)">6</text><text transform="translate(59.25 9.5)">7</text><text transform="translate(44.25 13.5)">8</text><text transform="translate(80.25 10.03)">9</text><text transform="translate(39.5 30.5)">10</text><text transform="translate(48.5 28.5)">11</text><text transform="translate(45.25 50.5)">12</text><text transform="translate(55.5 39.5)">13</text><text transform="translate(58.5 51.5)">14</text><text transform="translate(40.5 74.5)">15</text><text transform="translate(51.5 64.5)">16</text><text transform="translate(73.5 61.43)">17</text></g></svg>