<svg xmlns="http://www.w3.org/2000/svg" width="109" height="109"><g style="fill:none;stroke:#000;stroke-width:3;stroke-linecap:round;stroke-linejoin:round"><path d="M10.05 34.31c.42.61.93 1.66 1.02 2.46.79 6.9 1.7 15.83 2.85 26.13m-2.59-26.62c6.32-1.16 17.21-2.57 21.78-3.01 1.78-.17 2.61 1.64 2.39 3.38-.76 5.93-1.8 11.22-3.04 21.08m-18.31 1.83c7.1-.81 12.1-1.06 20.49-2.04"/><path d="M20.7 16.25c1.08 1 2.26 2.75 2.26 4.47 0 4.78-.2 46.78-.2 60.16"/><path d="M10.85 84.77c.6 1.16 2.46 1.11 3.06.82S28.75 78 34.67 75.12"/><path d="M30.78 67c2.67 2.98 6.89 12.26 7.56 16.89M48.5 17.14c1.33.05 3.29.29 4.58.15 9.92-1.04 21.42-2.54 30.95-3.15 1.81-.12 3.32-.14 4.99.1M44.7 25.83c-.16 5.22-1.56 9.99-2.59 15.26m2.95-13.06c5.54-1.21 35.16-4.27 46.92-4.27 6.82 0 .87 7.49-.21 9.39"/><path d="M66.6 17.93c.65 1.4.94 2.32.95 3.69.01.49-.2 24.85-.2 26.2M52.21 33.38c2.42.9 5.73 3.6 7.05 5.09m-9.95 3.76c2.62.98 6.67 4.6 8.1 6.24m18.08-18.71c3.15 1.34 6.71 4.01 7.97 5.12m-8.12 5.25c3.42 1.13 8.09 4.54 9.96 6.43m-41.02 8.77c1.32.47 3.73.6 5.05.47 8.39-.81 32.5-3.45 40.63-2.91 2.19.15 3.51.22 4.61.46m-27.43 3.01c.01.2.03.53-.03.82-.32 1.73-2.17 5.51-4.71 7.83m-14.34.85c.43 1.12 1.65 2.92 1.41 4.92-.47 3.97.02 21.22.02 26.27m.03-28.47c5.45-.9 38.57-3.95 39.64-4.27 2.3-.67 3.63.86 3.59 3.85-.08 7.28.82 15.03-.5 22.71-1.34 7.78-4.2 3.56-5.92.65"/><path d="M61.91 69.7c.52.74 1.18 2.18 1.24 3.28.17 3.65-.3 19.68-.3 21.32m12.64-26.87c.62 1.69.88 2.81.9 4.46.08 6.39-.53 17.16-.88 22.96"/></g><g style="font-size:8;fill:gray"><text transform="translate(4.5 42.5)">1</text><text transform="translate(13.5 32.5)">2</text><text transform="translate(15.5 56.5)">3</text><text transform="translate(11.5 16.5)">4</text><text transform="translate(3.5 87.5)">5</text><text transform="translate(32.5 67.85)">6</text><text transform="translate(46.5 13.5)">7</text><text transform="translate(38.5 28.5)">8</text><text transform="translate(47.5 25.03)">9</text><text transform="translate(57.5 23.5)">10</text><text transform="translate(52.53 34.88)">11</text><text transform="translate(49.53 43.8)">12</text><text transform="translate(79.53 30.73)">13</text><text transform="translate(71.53 38.65)">14</text><text transform="translate(40.5 52.5)">15</text><text transform="translate(55.5 61.5)">16</text><text transform="translate(39.5 72.5)">17</text><text transform="translate(49.5 65.5)">18</text><text transform="translate(52.53 75.5)">19</text><text transform="translate(66.53 74.5)">20</text></g></svg>