<svg xmlns="http://www.w3.org/2000/svg" width="109" height="109"><path d="M52.11 13.25c1.38 1.38 1.98 2.88 1.98 4.66 0 2.34-.15 8.59-.15 11.15m-40.69 4.05c3.25.64 5.81.6 8.88.32 15.74-1.42 41.74-4.55 58.12-5.85 2.9-.23 6.38-.33 9.5.33m-43.03 5.98c0 1.11-.14 2.25-.68 3.39C42.56 44.65 30 59 13.81 69.72M37.5 53.75c.88.88 1.25 2.12 1.25 3.5 0 11.82.18 31.19.18 33.19 0 2.81 1.01 3.02 3.31 1.05 4.38-3.74 13.64-11.39 15.47-12.76M77 38.89c.25 1.11-.04 1.96-.75 2.86-3.5 4.38-8 8.25-18.19 15.22m-11.81-6.22c3.73.63 25.49 21.06 36.59 28.66 3.29 2.25 6.3 4.07 10.16 5.34" style="fill:none;stroke:#000;stroke-width:3;stroke-linecap:round;stroke-linejoin:round"/><g style="font-size:8;fill:gray"><text transform="translate(46.18 12.24)">1</text><text transform="translate(11.58 30.93)">2</text><text transform="translate(37.16 40.68)">3</text><text transform="translate(31.52 65.25)">4</text><text transform="translate(79.15 41.44)">5</text><text transform="translate(48.04 49.37)">6</text></g></svg>