<svg xmlns="http://www.w3.org/2000/svg" width="109" height="109"><g style="fill:none;stroke:#000;stroke-width:3;stroke-linecap:round;stroke-linejoin:round"><path d="M30.62 15c.05.5.23 1.39-.09 2.01-2.3 4.33-8.35 11.87-16.8 19.2m18.68-1.44c.06.69.21 1.88-.12 2.77-2.67 7.14-10.64 16.81-21.54 26.49m12.2-7.91c.27.24.93 2.09.98 2.58s0 34.77-.05 37.8m14.31-80.37c.2.63.5 1.1.5 1.94s-.13 25.46-.13 25.88m.56-27.01c1.15-.1 9.28-1.63 10.33-1.76.87-.1 1.56.59 1.48 1.37-.09.99-.2 22.68-.2 26.49"/><path d="M39.5 25.8c2.26-.14 9.25-1.33 11.09-1.33M39.6 33.81c3.04-.35 7.91-1.26 10.86-1.26M39.29 42.57c2.61-.19 8.37-.94 11.32-.94m7.14-27.92c.2.65.48 1.14.48 2.01S58.1 41.56 58.1 42m.07-27.44c1.1-.11 9.91-1.69 10.92-1.82.84-.11 1.5.61 1.43 1.41-.09 1.02-.19 23.48-.19 27.43"/><path d="M58.54 22.76c2.18-.15 9.88-1.38 11.65-1.38M58.62 32.03c2.93-.36 8.59-1.3 11.43-1.3M58.33 41.06c2.51-.19 9.03-.97 11.87-.97M42.19 47.3c.13.99-.04 2.29-.47 3.13-2.76 5.41-6.26 9.99-12.58 16.57m9.71-7.57c.59.54 1.04 1.71 1.08 2.54.35 7.4-.48 26.93-.19 30.78m17.4-46c.05.5-.01 1.15-.16 1.57-.94 2.71-2.14 4.8-4.29 8.1m-13.43 2.44c5.62-.91 29.53-3.36 31.94-3.83m-17.59 3.59c.33.27.59.65.59 1.12 0 4.8.04 19.97-.16 27.53"/><path d="M40.01 68.31c5.31-.78 25.01-3.3 27.29-3.7M40.37 77.52c5.6-.71 26.25-3.02 28.65-3.38M39.37 89.41c5.62-.91 29.08-3.63 31.49-4.1m4.98-66.51c.62.36 3.23.91 3.86.86 5.3-.41 12.18-2.03 15.02-1.88 1.02.06 1.64.17 2.15.35M75.09 40.71c.61.36 1.74.42 2.36.36 3.8-.33 14.3-1.08 20.03-1.62 1.02-.1 1.64.17 2.15.35m-13.38 3.36c.07.45.99 2.37 1.06 5.25.34 13.85-.22 38.8-.22 43.51 0 7.65-6.1-.48-7.37-1.67"/></g><g style="font-size:8;fill:gray"><text transform="translate(23.5 16.5)">1</text><text transform="translate(25.09 38.07)">2</text><text transform="translate(16.7 68.1)">3</text><text transform="translate(31.82 22.84)">4</text><text transform="translate(40.5 13.5)">5</text><text transform="translate(40.55 23.73)">6</text><text transform="translate(40.55 32.08)">7</text><text transform="translate(40.55 40.73)">8</text><text transform="translate(51.91 20.35)">9</text><text transform="translate(57.5 11.5)">10</text><text transform="translate(58.78 20.84)">11</text><text transform="translate(58.78 29.84)">12</text><text transform="translate(58.78 38.84)">13</text><text transform="translate(29.95 51.22)">14</text><text transform="translate(28.82 73.36)">15</text><text transform="translate(58.8 49.93)">16</text><text transform="translate(42.32 56.18)">17</text><text transform="translate(55.46 63.95)">18</text><text transform="translate(41.46 66.64)">19</text><text transform="translate(41.46 75.64)">20</text><text transform="translate(41.46 86.64)">21</text><text transform="translate(74.5 16.5)">22</text><text transform="translate(74.5 37.5)">23</text><text transform="translate(75.25 50.25)">24</text></g></svg>