<svg xmlns="http://www.w3.org/2000/svg" width="109" height="109"><g style="fill:none;stroke:#000;stroke-width:3;stroke-linecap:round;stroke-linejoin:round"><path d="M18.08 13c4.01 2.41 8.31 6.03 11.75 10.25M10.2 35.86c.94.39 4.41 1.05 5.96.61 1.9-.54 15.37-4.83 17.69-5.49 2.33-.66 4.08 1.33 2.76 3.35C28.86 46.15 23.25 55.25 11.5 66.5m14-13.89c.12.29 1.65 1.53 1.77 3.39.57 8.93.06 38.2.06 41.25m12.95-51.36c.17.93.34 1.18 0 1.86-1.04 2.05-4.25 7.08-6.33 9.5M31.08 60c2.73 2.35 5.66 5.88 8 10m7.43-35.93c1.22.72 2.63 1.3 4.48 1.21 5.51-.28 26.36-3.36 28.77-3.86 1.99-.42 3.85.55 3.24 3.33-1.5 6.85-2 13.25-3.62 19.5m-40 3.28c.79.42 2.81.65 3.68.59 8.94-.62 34.34-3.54 47.58-3.95 1.09-.03 2.65.16 5.09.89"/><path d="M63.09 13.75c.55 1 1.6 2.09 1.6 4.18 0 8.92-.29 17.67-.19 24.41.42 27.11-9.78 44.13-25.3 53.16"/><path d="M63.51 59.46C72 71.75 82 84.25 92.15 92.62c2.43 2 3.25 2.29 4.35 2.47"/></g><g style="font-size:8;fill:gray"><text transform="translate(11.5 12.5)">1</text><text transform="translate(2.5 36.5)">2</text><text transform="translate(21.25 67.5)">3</text><text transform="translate(39.25 43.4)">4</text><text transform="translate(30.5 72.5)">5</text><text transform="translate(44.5 31.5)">6</text><text transform="translate(43.5 54.5)">7</text><text transform="translate(53.5 14.5)">8</text><text transform="translate(70.5 65.5)">9</text></g></svg>