<svg xmlns="http://www.w3.org/2000/svg" width="109" height="109"><path d="M21.33 14c3.24 2.41 6.72 6.03 9.5 10.25M13.2 35.86c.94.39 2.41 1.05 3.96.61 1.9-.54 16.37-4.33 18.69-4.99 2.33-.66 4.58.83 3.26 2.85C31.36 46.15 21.9 59.02 10.5 68M26 53.61c.12.29 1.65 1.53 1.77 3.39.57 8.93.06 35.7.06 38.75m12.45-48.86c.17.81.34 1.03 0 1.62-1.04 1.78-4.25 6.14-6.33 8.24m-2.62 1.5c3.33 2.53 6.9 6.32 9.75 10.75m18.47-53.36c.03.69.15 1.81-.07 2.77-1.33 5.85-5.53 18.67-11.98 26.52m7.98-7.19c1.48.08 2.61.01 3.54-.04 12.24-.69 22.54-2.97 28.84-3.35 1.53-.09 2.46.18 3.23.37m-21.47 5.97c.07.4.99 2.11 1.06 4.67.34 12.32-.22 40.77-.22 44.97 0 9.52-6.1 1.27-7.37.21m-8.43-34.16c.03.63.06 1.63-.06 2.54-.71 5.36-4.78 17.13-10.36 24.34m38.81-25.95c4.41 4.12 11.4 16.93 12.51 23.34" style="fill:none;stroke:#000;stroke-width:3;stroke-linecap:round;stroke-linejoin:round"/><g style="font-size:8;fill:gray"><text transform="translate(13.44 12.13)">1</text><text transform="translate(5.5 36.5)">2</text><text transform="translate(20.5 67.98)">3</text><text transform="translate(39.5 44.5)">4</text><text transform="translate(31.5 70.5)">5</text><text transform="translate(50.5 14.5)">6</text><text transform="translate(60.5 34.5)">7</text><text transform="translate(62.44 47.5)">8</text><text transform="translate(46.44 56.5)">9</text><text transform="translate(78.5 53.5)">10</text></g></svg>