<svg xmlns="http://www.w3.org/2000/svg" width="109" height="109"><path d="M53.69 10.62c.72.72.99 1.76.99 3.05 0 7.4.04 10.19.04 12.7M30.27 15.08c3.54 1.66 7.86 5.67 9.54 9.13M76 12.75c-.14.89-.46 1.58-.97 2.33-2.16 3.17-3.81 4.95-7.98 9.14m-43.98 5.16c-.15 3.7-3.03 12.61-4.32 14.81m5.24-12.51c22.77-3.11 36.5-5.3 60.26-6.53 15-.78 2.34 7.94.89 9.11m-48.25 2.62c.74.74 1.11 1.8 1.36 2.74.52 2.02 1.04 4.18 1.51 6.23.32 1.38.61 2.71.87 3.9m-2.28-11.93c6.38-.61 21.24-2.9 28.03-3.69 3.67-.43 4.77.88 3.74 4.03-.75 2.27-1.19 3.62-2.24 6.15m-26.69 3.65c4.95-.54 16.23-1.61 23.82-2.31l5.79-.54m-17.76 7.14c.92.92 1 1.75 1 3.17 0 1.35-.03 2.72-.03 4.21M16.5 63.75c5.02.59 9.97.06 15-.57 15.37-1.93 35.41-4.06 49.12-4.91 4.17-.33 8.3-.12 12.4.64m-43.59 5c-.07 1.24-.52 2.05-1.33 2.92-4.27 5.26-16.22 14.55-30.54 21.07m22.91-10.23c.68.68.94 1.7.94 2.66 0 4.85-.02 9.78-.03 12.67-.01 3.25 1.26 3.89 3.92 1.86 3.24-2.47 10.03-7.88 14.41-10.99m18.27-20.5c0 .88-.3 1.8-.86 2.54C75 68.38 72.4 70.57 68 73.88m-11.96-6.05c2.34.17 17.31 13.39 25.88 19.34 2.81 1.95 5.48 3.99 8.58 5.41" style="fill:none;stroke:#000;stroke-width:3;stroke-linecap:round;stroke-linejoin:round"/><g style="font-size:8;fill:gray"><text transform="translate(43.5 11.5)">1</text><text transform="translate(22.5 15.5)">2</text><text transform="translate(65.5 11.98)">3</text><text transform="translate(15.5 31.65)">4</text><text transform="translate(26.5 27.5)">5</text><text transform="translate(30.5 44.5)">6</text><text transform="translate(41.5 36.93)">7</text><text transform="translate(43.5 44.5)">8</text><text transform="translate(43.75 56.5)">9</text><text transform="translate(6.5 64.5)">10</text><text transform="translate(34.5 71.5)">11</text><text transform="translate(31.5 89.5)">12</text><text transform="translate(66.5 67.98)">13</text><text transform="translate(50.25 75.65)">14</text></g></svg>