<svg xmlns="http://www.w3.org/2000/svg" width="109" height="109"><g style="fill:none;stroke:#000;stroke-width:3;stroke-linecap:round;stroke-linejoin:round"><path d="M50.16 8c1.74.94 4.59 3.75 5.59 6.42m-35.5 7.45c1.28.09 4.18.59 5.43.49 12.71-1.03 44.72-4.34 58.33-4.61 2.1-.04 3.18.04 4.74.63m-52.51 8.66c.26 1.28-.27 2.92-.93 4.07-4.1 7.17-8.61 14.56-21.05 23.09m15.51-12.13c.54.4.64 1.29.69 2.11.51 7.7-.44 19.35 0 24.08m19.39-40.91c.31.25.64.46.78.78 1.09 2.5 2.31 8.04 3.06 12.52M50.86 28.5c8.34-.76 23.8-2.93 27.49-3.26 1.35-.12 2.16.71 1.97 1.42-.8 2.92-2.14 5.61-3.32 9.65m-23.17 2.74c4.33-.37 19.36-1.81 25.31-2.38m-35.4 10.89c1.01 0 2.54.23 3.88.15 6.13-.39 31.01-2.22 40.3-2.96 1.34-.11 1.69-.15 2.53 0"/><path d="M65.26 40.23c.9.3 1.62 1.96 1.62 2.58 0 4.25-.18 15.63-.18 19.43 0 8.25-3.45 1.5-4.45.5m-6.49-9.1c.04.24.09.63-.08.98-1.02 2.06-6.87 6.58-14.87 9.35m36.21-12.39c4.16 1.61 10.75 6.63 11.79 9.13m-36.87 4.92c.11.62.42 1.65-.21 2.49-4.1 5.41-17.42 15.29-37.92 23.83m24.94-9.96c.48.54 1 1.06 1 2 0 2.76-.82 9.51-.82 12.69 0 2 1.18 3.14 2.68 1.64s15.35-11.34 17.35-12.84m21.43-17.6c.03.3.35 1.45.15 1.85-1.25 2.48-5.14 6.03-11.48 10.97"/><path d="M55.75 73.74c2.5-.24 5.04 2.13 5.52 2.42 7.13 4.33 24.47 15.38 29.3 17.93 1.81.96 3.37 1.37 5.18 1.65"/></g><g style="font-size:8;fill:gray"><text transform="translate(44.5 9.13)">1</text><text transform="translate(13.5 22.5)">2</text><text transform="translate(26.5 31.5)">3</text><text transform="translate(23.25 56.98)">4</text><text transform="translate(45.75 36.13)">5</text><text transform="translate(54.75 25.5)">6</text><text transform="translate(57.5 36.5)">7</text><text transform="translate(36.5 48.5)">8</text><text transform="translate(57.5 44.5)">9</text><text transform="translate(43.5 56.5)">10</text><text transform="translate(70.5 57.5)">11</text><text transform="translate(36.5 72.5)">12</text><text transform="translate(28.5 92.5)">13</text><text transform="translate(69.5 69.5)">14</text><text transform="translate(51.5 82.63)">15</text></g></svg>