<svg xmlns="http://www.w3.org/2000/svg" width="109" height="109"><g style="fill:none;stroke:#000;stroke-width:3;stroke-linecap:round;stroke-linejoin:round"><path d="M21.83 10c3.41 2.29 7.07 5.74 10 9.75M9.2 33.36c.94.39 2.38.93 3.96.61 3.59-.72 20.37-4.33 22.69-4.99 2.33-.66 3.58.83 2.26 2.85C30.36 43.65 21.4 55.02 10 64m18-14.89c.12.29 1.65 1.53 1.77 3.39.57 8.93.06 40.7.06 43.75m12.42-53.86c.2.85.4 1.08 0 1.7-1.2 1.87-4.9 6.45-7.3 8.66m-2.37.5c3.59 2.18 7.43 5.44 10.5 9.25m6.47-49.47c3.07 4.03 6.36 11.09 6.8 13.11m7.92-18c1.7 2.81 5.79 10.19 6.47 14.75m18.43-12.48c.59.86 1.19 1.73.89 3.45-.29 1.73-6.83 9.79-8.91 12.38m-29.2 8.24c.27.46.28.78.43 1.36 1.24 4.77 3.42 16.78 4.2 25.64m-3.35-25.66c10.32-1.6 28.27-3.22 35.37-4.04 2.61-.3 4.19.65 4.11 2.66-.18 4.78-4.48 21.02-4.94 23.01"/><path d="M55.8 47c7.86-.97 15.72-2.01 23.58-2.98.95-.12 1.87-.23 2.75-.34M57.06 59.29c8.99-1.52 20.96-2.34 30.79-3.28M45.92 75.04c1.38.52 3.92.73 5.29.52 10.72-1.65 29.09-3.75 43.8-5.12 2.28-.21 3.68.25 4.83.51"/><path d="M71.02 35.56c.52.35.84 1.32.85 2.5.03 6 .15 59.84.17 61.79"/></g><g style="font-size:8;fill:gray"><text transform="translate(14.5 10.5)">1</text><text transform="translate(6.5 30.5)">2</text><text transform="translate(22.75 62.5)">3</text><text transform="translate(40.5 39.5)">4</text><text transform="translate(33.75 65.5)">5</text><text transform="translate(42.5 12.5)">6</text><text transform="translate(58.5 8.5)">7</text><text transform="translate(80.5 10.5)">8</text><text transform="translate(46.5 41.5)">9</text><text transform="translate(57.5 32.5)">10</text><text transform="translate(58.75 43.5)">11</text><text transform="translate(59.75 55.5)">12</text><text transform="translate(44.5 71.23)">13</text><text transform="translate(74.5 41.15)">14</text></g></svg>