<svg xmlns="http://www.w3.org/2000/svg" width="109" height="109"><g style="fill:none;stroke:#000;stroke-width:3;stroke-linecap:round;stroke-linejoin:round"><path d="M31.18 13.51c.97.97 1.62 2.28 1.62 3.71 0 1.44.01 4.82.01 8.72m-15.99 3.25c1.12.11 2.45.15 3.55.03 5.38-.6 15.63-2.6 22.02-3.22 1.86-.18 3.24-.25 4.27.02m-24.85 7.23c2.44 3.38 4.02 7.74 4.35 10.98m14.77-13.48c.25.67.28 1.87.11 2.58-.4 3.04-2.04 7.79-2.42 9.67m-25.7 5.45c2.08.3 3.29.33 5.54.03 7.29-.98 21.04-3.98 28.37-4.49 1.43-.1 3.45-.04 4.17.01M13.76 62.95c.77.23 2.48.59 4.5.34 7.37-.91 18.57-3.05 26.1-4.48 2.01-.38 3.14-.3 4.14-.3"/><path d="M32.75 51c1 1 1.53 2.5 1.53 3.93 0 3.82.1 26.35-.11 37.82-.04 2.16-.08 3.83-.12 4.75m-1.93-35.12c0 .96-.56 2.17-.89 2.8-4.2 8.16-12.56 17.69-19.74 22.07m26.01-20.5c3.72 2.83 6.11 5.67 8.25 8.5m10.19-56.56c.75.75 1.34 2.08 1.34 3.48 0 1.14-.1 27.03-.05 37.57.01 2.41.03 3.99.05 4.25m.73-44.16c6.48-.97 21.25-3.17 23.02-3.33 1.91-.18 3.76 1.26 3.76 3.03 0 1.35-.15 28.68-.32 39.48-.04 2.5-.07 4.11-.07 4.31"/><path d="M58.48 32.92c5.27-.67 20.14-3.04 25.13-3.35M58.44 47.32c7.94-.7 17.31-2.07 24.63-2.6M58.59 61.44c6.04-.44 17.54-1.81 24.63-2.1M64 64.5c.05.75.12 1.95-.11 3.03C62.53 73.91 55.5 87.5 44 96.5m29.36-33.78c.71.71 1.27 1.9 1.3 3.61.07 4.77-.06 12.48-.06 17.94 0 9.49 1.65 10.87 10.65 10.87 9.75 0 11-.87 11-8.47"/></g><g style="font-size:8;fill:gray"><text transform="translate(26.25 10.63)">1</text><text transform="translate(15.77 25.99)">2</text><text transform="translate(15.75 39.13)">3</text><text transform="translate(33.75 36.13)">4</text><text transform="translate(9.56 46.25)">5</text><text transform="translate(7.86 61.93)">6</text><text transform="translate(26.11 55.11)">7</text><text transform="translate(21.22 70.47)">8</text><text transform="translate(40.16 67.2)">9</text><text transform="translate(44.48 22.52)">10</text><text transform="translate(57.21 16.27)">11</text><text transform="translate(58.41 29.65)">12</text><text transform="translate(58.41 44.42)">13</text><text transform="translate(58.41 58.97)">14</text><text transform="translate(50.96 72.38)">15</text><text transform="translate(76.05 71.61)">16</text></g></svg>