<svg xmlns="http://www.w3.org/2000/svg" width="109" height="109"><path d="M30.38 14.5c2.78 1.9 7.18 7.8 7.87 10.75M13.87 36.08c.63.23 3.04.27 3.67.23 7.8-.42 22.97-4.67 28.64-4.87 1.05-.04 2.64.11 3.16.23M22.23 47.06c.38.12 2.71.13 3.1.12 3.97-.14 10.3-2.56 14.21-2.55.63 0 3.29.06 3.61.12M22.23 59.13c.43.14 3.07.15 3.5.14 4.49-.16 11.8-2.5 16.22-2.49.72 0 3.72.07 4.08.13m-24.14 15.5c.38.38.82.68.95 1.17 1.09 4.36 3.48 12.52 4.58 18.92m-4.14-19.04c9.22-1.96 15.19-3.16 21.73-4.09 1.64-.23 2.63 1.07 2.4 2.14-.98 4.4-1.83 6.95-3.56 14.27m-15.64 3.43c5.29-.56 11.52-2.03 18.78-2.89m20.82-74.69c.76.45 2.36 3.35 2.51 4.25s-.1 77.15-.25 82.75m2.18-55.38c7.76 3.35 19.95 12.28 22 19" style="fill:none;stroke:#000;stroke-width:3;stroke-linecap:round;stroke-linejoin:round"/><g style="font-size:8;fill:gray"><text transform="translate(22.25 16.45)">1</text><text transform="translate(7.25 36.38)">2</text><text transform="translate(14.75 49.8)">3</text><text transform="translate(14.75 61.22)">4</text><text transform="translate(14.75 81.15)">5</text><text transform="translate(23.75 70.58)">6</text><text transform="translate(31.25 86)">7</text><text transform="translate(60.25 13.1)">8</text><text transform="translate(80.25 41.03)">9</text></g></svg>