<svg xmlns="http://www.w3.org/2000/svg" width="109" height="109"><g style="fill:none;stroke:#000;stroke-width:3;stroke-linecap:round;stroke-linejoin:round"><path d="M21.06 15.28c.4.27.81.5.99.85 1.39 2.72 3.06 10.23 4.01 15.12m-2-14.46c7.08-1.02 57.59-3.71 61.35-4.06 1.37-.12 3.24 1.38 2.87 2.84-.77 3.04-1.66 7.77-3.71 12.11"/><path d="M43.44 15.34c.22 1.73.73 10.16.94 12.1m20.87-13.18c-.21 2.81-1.29 10.16-1.73 11.89m-37.45 2.69c4.42-.39 50.93-3.09 59.01-3.37m-38.33 6.28c3.62 1.47 9.34 6.06 10.25 8.36m-41.37 6.61c1.65.58 4.68.67 6.34.58 17.2-.97 51.21-3.6 64.88-3.82 2.75-.05 4.41.28 5.78.57m-59 12.34c.7.22 3.13.25 3.83.22 7.26-.25 28.54-2.33 32.78-2.56 1.16-.06 4.18.11 4.76.22m-40.62 13.3c.75.26 3.39.29 4.15.26 7.85-.29 26.79-2.98 32.32-2.95 1.26.01 4.53.12 5.15.25M31.75 78.87c.52.5 1.06.91 1.28 1.54 1.22 3.6 2.97 12.95 3.68 18.09m-3.23-18.09c12.02-1.66 31.77-3.05 40.6-4.27 2.21-.31 3.48 1.39 3.24 2.8-.56 3.25-1.06 8.79-2.31 13.89m-37.06 3.14c8.8-.49 27.8-1.9 39.77-2.42"/></g><g style="font-size:8;fill:gray"><text transform="translate(14.5 20.5)">1</text><text transform="translate(26.5 13.5)">2</text><text transform="translate(36.5 23.5)">3</text><text transform="translate(57.5 22.5)">4</text><text transform="translate(29.5 26.5)">5</text><text transform="translate(39.25 36.5)">6</text><text transform="translate(8.5 47.5)">7</text><text transform="translate(26.5 56.5)">8</text><text transform="translate(26.5 68.5)">9</text><text transform="translate(23.25 87.5)">10</text><text transform="translate(34.5 76.5)">11</text><text transform="translate(39.5 92.5)">12</text></g></svg>