<svg xmlns="http://www.w3.org/2000/svg" width="109" height="109"><path d="M21.88 14c3.48 1.63 9.5 6.96 10.37 9.5M12.37 34.08q3.51.465 7.02 0c5.73-.47 12.22-1.35 17.12-2.11 2.23-.34 4.37-.7 6.58-.3M18.23 46.56c1.56.19 3.12.18 4.67-.01 3.01-.39 6.35-1.21 9.35-1.56 1.8-.21 3.5-.49 5.4-.49M17.73 58.33c1.54.42 3.09.73 4.65.43 3.37-.47 8.08-1.38 11.26-1.98 1.36-.31 2.74-.42 4.14-.32M16.64 71.4c.9.85 1.13 1.92 1.29 3.19.82 6.28 1.68 11.1 2.32 16.66m-1.44-18.13c6.85-1.33 10.61-2.36 15.55-3.2 2.09-.36 4.39.18 3.82 2.84-.8 3.75-1.57 6.5-3.01 12.96m-14.7 2.83c4.8-.54 9.03-1.3 16.69-2.06m30.25-74.77c.88.74 1.33 1.74 1.33 3.48v7.64m-18.02 2.7c2.62.46 5.26.21 7.91-.23 6.9-.89 16.15-2.4 24.12-2.94 2.08-.28 4.14-.24 6.2.12m-32.89 9.24c3.73 3.95 5.77 8.17 6.11 10.77M80.66 26c.22 1.12.15 1.85-.18 2.86-2.11 6.51-3.96 11.61-5.11 14.14m-27.89 5.77c3.65.61 6.69.04 10.01-.37 9.39-1.15 19.06-2.29 28-3.27 3.24-.41 6.49-.53 9.77-.38M50.82 50c.9.9.98 2.04.91 3.22C50.38 77.38 44.5 88.38 36 95.5m46.63-44.29c-.13 1.42-.83 2.24-1.87 3.05-5.39 4.24-11.39 8.49-23.11 12.49m29.56-1.99c-.08 1.36-.52 2.41-1.61 3.21-6.22 4.78-15.35 10.16-32.31 15.78m39.18-4.72c-.09 1.22-.45 2.35-2.04 3.4-7.67 5.07-21.07 12.17-40.7 16.82" style="fill:none;stroke:#000;stroke-width:3;stroke-linecap:round;stroke-linejoin:round"/><g style="font-size:8;fill:gray"><text transform="translate(15.5 14.63)">1</text><text transform="translate(5.5 35.5)">2</text><text transform="translate(11.5 47.5)">3</text><text transform="translate(11.5 59.5)">4</text><text transform="translate(10.5 78.5)">5</text><text transform="translate(20.5 70.5)">6</text><text transform="translate(23.5 84.5)">7</text><text transform="translate(58.5 11.5)">8</text><text transform="translate(47.5 22.5)">9</text><text transform="translate(46.5 36.5)">10</text><text transform="translate(69.75 32.38)">11</text><text transform="translate(45.5 46.05)">12</text><text transform="translate(41.25 58.5)">13</text><text transform="translate(68.5 55.15)">14</text><text transform="translate(75.5 67.83)">15</text><text transform="translate(81.5 80.5)">16</text></g></svg>