<svg xmlns="http://www.w3.org/2000/svg" width="109" height="109"><g style="fill:none;stroke:#000;stroke-width:3;stroke-linecap:round;stroke-linejoin:round"><path d="M20.38 12.5c3.48 1.9 9 7.8 9.87 10.75M8.87 33.58c.63.23 3.04.27 3.67.23 7.8-.42 16.71-2.31 23.14-3.37 1.04-.17 2.64.11 3.16.23M15.73 44.56c.38.12 2.71.13 3.1.12 3.97-.14 10.67-1.43 14.21-2.05.63-.11 2.79.06 3.11.12M15.23 58.83c.34.12 2.42.13 2.77.12 3.55-.13 12-1.45 15.81-2.09.56-.09 2.44.06 2.72.11M15.64 72.4c.31.44.66.79.75 1.37.87 5.08 1.98 15.76 2.86 23.23m-2.44-22.63c6.44-.89 11.98-2.6 17.92-3.5 1.49-.22 2.39 1.04 2.18 2.06-.89 4.25-2.16 11.72-3.74 18.78m-14.2 2.34c4.8-.54 10.1-.97 16.69-1.81m13.22-75.65c1.16.55 1.6.44 3.48.18 4.87-.68 6.39-1.21 11.59-2.08 3.08-.52 3.7.47 2.71 3.42-2.32 6.93-12.62 25.06-26.43 31.3"/><path d="M45.77 24.74c3.12 1.43 8.06 5.87 8.83 8.1m30.47-20.45c.02.24.04.63-.05.98-.56 2.06-3.75 5.99-8.1 8.76m-9.28-4.94c4.7 3.28 20.77 22.21 24.88 26.02 1.4 1.29 2.6 1.85 3.99 2.22M93.9 21.5c.04.23.06.59-.05.91-.68 1.92-4.54 5.69-9.84 8.27m-28.5 12.64c.93.33 2.64.37 3.58.33 4.41-.16 12.66-1.41 17.5-1.94 1.55-.17 2.49.16 3.27.33M51.73 53.45c.42.36.95.63 1.03 1.1.57 3.41 1.62 7.96 2.48 14.26m-1.91-13.73c6.36-.68 21.91-3.75 26.25-3.85 1.79-.04 2.51 1.43 2.1 3.42-.72 3.57-1.08 4.98-2.3 9.64m-23.39 2.26c6.54-.66 20.23-1.98 25.46-2.24m-28.12 9.9c2.15 2.47 5.51 8.79 6.05 12.63m19.6-15.81c.02.43.03 1.11-.03 1.73-.4 3.64-2.66 11.62-5.76 16.51m-30.16 3.56c1.4.48 3.98.56 5.38.48 14.6-.81 24.59-2.59 40.13-2.93 2.34-.05 3.74.23 4.91.48"/></g><g style="font-size:8;fill:gray"><text transform="translate(13.5 12.5)">1</text><text transform="translate(2.5 33.5)">2</text><text transform="translate(8.5 45.48)">3</text><text transform="translate(8.5 59.5)">4</text><text transform="translate(8.5 77.5)">5</text><text transform="translate(19.5 70.5)">6</text><text transform="translate(22.5 90.5)">7</text><text transform="translate(47.5 14.5)">8</text><text transform="translate(38.25 25.5)">9</text><text transform="translate(78.5 9.5)">10</text><text transform="translate(70.5 16.5)">11</text><text transform="translate(91.5 18.5)">12</text><text transform="translate(58.5 41.5)">13</text><text transform="translate(43.25 60.5)">14</text><text transform="translate(56.5 51.5)">15</text><text transform="translate(57.5 63.5)">16</text><text transform="translate(44.25 77.5)">17</text><text transform="translate(67.5 74.5)">18</text><text transform="translate(40.5 90.5)">19</text></g></svg>