<svg xmlns="http://www.w3.org/2000/svg" width="109" height="109"><g style="fill:none;stroke:#000;stroke-width:3;stroke-linecap:round;stroke-linejoin:round"><path d="M50.95 9.11c2.6.93 5.62 3.64 6.88 6.37m-30.6 6.69c1.47.29 2.77.61 4.45.4 10.06-1.22 38.73-3.47 50.45-4.06 1.72-.09 2.61.03 3.89.52M40 27.76c.3.18.6.33.73.56 1.03 1.8 1.76 6.28 2.47 9.52m-1.35-9.46c7.27-.76 21-2.75 24.76-3.01 1.37-.09 3.23.64 3 1.99-.36 2.13-1.74 3.23-3.48 6.5M44 36.15c4.41-.29 18.91-1.71 24.5-2m-44.09 8.98c0 3.48-3.53 13.05-4.91 15.37m6.74-12.26c1.39.03 49.74-5.05 56.95-5.4 12.05-.59 2.55 7.16-.45 9.28m-48.89 3.14c1 .39 2.82.41 3.83.39 6.82-.15 23.07-1.9 31.08-3.25 1.64-.28 2.66.19 3.49.38m-19.2 3.94c.06.28.13.72-.12 1.12-1.49 2.36-10.03 7.55-21.71 10.72m20.54-6.22C57.75 65 62 83.75 56.72 96.98c-2.33 5.83-5.43.7-6.21.04m.63-32.44c.07.34.14.89-.13 1.38-1.6 2.91-10.81 9.3-23.4 13.21"/><path d="M53.96 74.69c.08.43.17 1.12-.16 1.74-1.91 3.66-13.89 10.71-28.91 15.63m48.9-35.03c.04.28.09.73-.08 1.14-.99 2.41-6.65 7.71-14.41 10.95m-.87 1.6c4.43 2.76 23.87 15.84 28.69 18.56 1.63.92 3.03 1.32 4.66 1.58"/></g><g style="font-size:8;fill:gray"><text transform="translate(45.75 9.13)">1</text><text transform="translate(19.5 21.5)">2</text><text transform="translate(34.5 34.55)">3</text><text transform="translate(41.25 26.5)">4</text><text transform="translate(46.5 34.5)">5</text><text transform="translate(17.25 46.63)">6</text><text transform="translate(29.25 43.63)">7</text><text transform="translate(27.75 54.5)">8</text><text transform="translate(35.5 61.5)">9</text><text transform="translate(56.5 63.13)">10</text><text transform="translate(34.5 71.5)">11</text><text transform="translate(38.5 80.5)">12</text><text transform="translate(63.5 58.5)">13</text><text transform="translate(67.5 75.05)">14</text></g></svg>