<svg xmlns="http://www.w3.org/2000/svg" width="109" height="109"><g style="fill:none;stroke:#000;stroke-width:3;stroke-linecap:round;stroke-linejoin:round"><path d="M38.39 13c.07.48.27 1.38-.14 1.91-5.03 6.72-12.48 12.9-25.6 18.32m3.66 2.75c2.54 1.71 6.57 7.02 7.2 9.67m4.73-18.48c2.73 1.48 7.04 6.09 7.72 8.39m9.2-7.55c.08.63-.09 1.87-.67 2.52-7.99 8.97-15.74 15.72-31.13 24.08m17.58-9.94c9.93 5.75 14.83 28.48 7.52 46.25-4.26 10.36-8.51.95-9.61.05"/><path d="M34.6 51.67c.06.45.23 1.2-.13 1.8C31.75 58 23.25 64.25 11.3 70.66m26.59-8.52c.07.56.32 1.52-.15 2.25C34.31 69.78 25 78.82 11.75 85.94m40.46-66.39c.79.45 3.2.84 4.43.71 10.09-1.07 26.47-3.39 32.06-3.79 3.64-.26 5.13 1.26 5.05 3.07-.25 5.96-6.36 20.27-9.61 27.95-2.65 6.26-5.4 4.01-8.7-.39"/><path d="M68.49 21.89c.06.74.18 1.93-.13 2.99-3.16 10.74-8.82 19.75-21.48 30.4M54 63.64c.38.39.76.72.92 1.21 1.3 3.9 2.36 23.65 3.25 30.65m-1.83-30.72c8.66-1.28 25.91-3.28 32.9-3.79 2.31-.17 5.02 1.76 4.34 4.21-1.24 4.48-3.56 18.05-4.98 24.35m-30.26 2.53c5.16-.58 22.91-1.58 32.86-1.97"/></g><g style="font-size:8;fill:gray"><text transform="translate(30.5 12.5)">1</text><text transform="translate(11.5 42.5)">2</text><text transform="translate(24.5 35.5)">3</text><text transform="translate(37.54 27.5)">4</text><text transform="translate(37.5 48.5)">5</text><text transform="translate(26.5 54.85)">6</text><text transform="translate(30.5 66.5)">7</text><text transform="translate(51.5 16.5)">8</text><text transform="translate(59.25 29.5)">9</text><text transform="translate(45.5 71.5)">10</text><text transform="translate(56.5 61.5)">11</text><text transform="translate(61.5 88.5)">12</text></g></svg>