<svg xmlns="http://www.w3.org/2000/svg" width="109" height="109"><g style="fill:none;stroke:#000;stroke-width:3;stroke-linecap:round;stroke-linejoin:round"><path d="M17.75 12.5c3.84 1.59 9.93 6.55 10.89 9.03M14.75 45.48c1.65 1.06 3.79.89 4.95 0 1.12-.86 7.91-7.68 12.2-12.08M53.8 8.75c.1 1.15-.03 1.91-.51 2.96-2.33 5.05-6.75 11.06-15.92 17.26M52.89 18c1.1.16 2.95.12 4.57-.23 5.42-1.15 10.92-2.53 18.65-4 5.84-1.12 3.4 4.23-4.76 11.3m-14.06-1.16c.15 1.24-.22 2.51-.66 3.64C54.84 32.16 49.49 39.4 38.99 43m19.2-15.61c4.39 2.95 18.47 10.99 27.62 15.14 2.46 1.12 4.19 2.1 6.69 2.83m-59.84 1.12c.87.87 1.3 2.95 1.3 4.06s-.17 29.5-.17 30.05-.08 2.41-.08 4.41m1.05-36.68c10.62-.94 23.87-2.19 33.7-2.83 3.3-.21 4.61.89 4.61 4.05 0 3.46-.06 16.82-.05 29.02 0 1.25.04 2.94.04 4.88"/><path d="M34.95 59.28c15.68-1.41 26.18-2.41 36.89-2.75m-36.85 13.7c11.51-1.11 26.76-2.48 37.18-2.91M34.66 81.5c8.59-.63 28.02-2.16 37.18-2.16m-30.02 5.88c.05 1.03-.25 2.33-1.27 3.26-3.07 2.79-9.82 6.92-18.18 11.02m41.87-14.36c7.71 4.05 16.81 11.39 18.91 14.93"/></g><g style="font-size:8;fill:gray"><text transform="translate(11.25 10.63)">1</text><text transform="translate(6.5 48.5)">2</text><text transform="translate(44.5 8.5)">3</text><text transform="translate(59.5 14.5)">4</text><text transform="translate(49.5 29.5)">5</text><text transform="translate(62.5 27.5)">6</text><text transform="translate(26.25 55.41)">7</text><text transform="translate(31.5 44.83)">8</text><text transform="translate(38.7 56.75)">9</text><text transform="translate(38.7 67.5)">10</text><text transform="translate(38.7 79.1)">11</text><text transform="translate(24.5 92.53)">12</text><text transform="translate(53.7 89.45)">13</text></g></svg>