<svg xmlns="http://www.w3.org/2000/svg" width="109" height="109"><g style="fill:none;stroke:#000;stroke-width:3;stroke-linecap:round;stroke-linejoin:round"><path d="M23.04 15.58c.49.19.79.91.9 1.33s.58 31.02.53 33.66m-.44-33.98c3.18-.47 17.18-2.35 24.58-3.03 1.12-.1 1.79-.19 2.36-.1m-13.63 2.68c.49.19.79.91.9 1.33.1.42.17 5.7.12 8.34m-13.95 2.41c7.61-1.15 17.13-2.46 22.41-3.25 2.14-.32 2.75.52 2.47 1.67-.5 2.09-1.24 5.08-1.74 7.59m-22.92 3.49c3.18-.47 21.06-2.65 24.05-2.99m-11.63 1.63c.49.19.79.91.9 1.33.1.42.21 5.6.16 8.24m-13.48 2.33c3.18-.47 14.9-2.25 22.3-2.93 1.12-.1 1.79-.19 2.36-.1m8.54-28.04c.95.22 1.07.54 2.96.22s17.93-4.14 19.23-4.46 2.25 1.18 1.78 2.37C76.23 29.3 66.4 40.46 55.75 45.73"/><path d="M57.27 23.29c3.21.57 18.91 15.79 30.1 22.03 1.74.97 3.01 1.62 4.63 1.94M36.59 51.1c.54.77 1.33 1.35 1.33 2.38s-.36 31.08-.36 31.6m1.26-32.16c3.06-.13 25.86-3.28 28.65-3.43 2.32-.13 3.96 1.01 3.96 3.18 0 3.84-.58 29.95-.58 30.72"/><path d="M38.27 63.31c6.02-.53 12.02-1.23 18.03-1.85 1.61-.17 3.19-.33 4.68-.48M39.02 73.3c5.11-.6 11.73-1.14 16.86-1.63 1.38-.13 2.78-.27 4.17-.4M38.31 82.74c8.44-.74 23.84-2.04 31.7-2.04M42.3 86.72c.39.92.27 1.67-.5 2.35-2.33 2.03-9.01 6.53-13.67 8.93m36.58-11.39c5.56 2.91 12.14 8.2 13.66 10.75"/></g><g style="font-size:8;fill:gray"><text transform="translate(17.25 24.13)">1</text><text transform="translate(25.5 12.5)">2</text><text transform="translate(42.5 21.5)">3</text><text transform="translate(29.09 24.5)">4</text><text transform="translate(29.25 34.4)">5</text><text transform="translate(41.5 42.5)">6</text><text transform="translate(29.18 45.5)">7</text><text transform="translate(60.75 13.63)">8</text><text transform="translate(59.25 33.05)">9</text><text transform="translate(27.75 60.13)">10</text><text transform="translate(49.5 50.5)">11</text><text transform="translate(43.46 60.5)">12</text><text transform="translate(43.5 70.48)">13</text><text transform="translate(43.35 80.9)">14</text><text transform="translate(27.5 91.5)">15</text><text transform="translate(55.5 91.5)">16</text></g></svg>