<svg xmlns="http://www.w3.org/2000/svg" width="109" height="109"><g style="fill:none;stroke:#000;stroke-width:3;stroke-linecap:round;stroke-linejoin:round"><path d="M23.13 16.98c3.72.74 7.42.72 11.12-.05C48.64 15.5 65 14.13 77.5 13.37c3.83-.23 7.99-.49 11.62-.04M25.22 18c.95.96 1.21 2.38 1.21 3.84 0 19.59-2.61 50.71-14.12 67.38m31.38-66.99c-.02.94-.16 1.87-.59 2.69-2.48 4.7-5.85 10.08-11.88 15.72m7.94-3.9c.62.62.88 1.76.88 2.93v13.12M58.1 20.07c0 .8-.28 1.55-.65 2.22-2.37 4.25-5.13 7.85-10.56 13.03m6.36-3.82c.69.69.97 1.38.97 2.25 0 2.89-.04 8.72-.07 13.24-.02 2.52-.03 4.64-.03 5.63M72.57 19.5c.04.67-.06 1.31-.31 1.92-.71 2.05-1.64 3.21-2.77 4.96m-15.41 3.45c4.15-.32 17.2-1.48 25.05-2.19 3.01-.27 5.26-.48 5.94-.54m-16.58 2.55c.68.68.74 1.72.74 2.6 0 3.92-.11 11.09-.11 15.38"/><path d="M55.35 36.15c3.87-.26 15-1.14 21.92-1.7 2.78-.22 4.88-.39 5.54-.45m-27.62 8.48c4.05-.22 15.18-.97 22.19-1.45l5.78-.4m-27.72 9.01c4.29-.33 19.33-1.33 27.69-1.92 2.84-.2 4.91-.35 5.53-.41m-48.5 12.04c.81.81 1.13 1.87 1.13 2.72 0 1.81.05 11.91.08 19.06.01 2.45.01 4.54.01 5.84m.34-27.13c3.17-.11 26.78-1.71 30.19-1.85 2.88-.12 3.68 1.59 3.68 3.76 0 3.8-.1 13.6-.16 19.62-.03 2.7-.05 4.64-.05 4.93"/><path d="M42.59 68.11c10.41-.73 22.16-1.61 31.97-1.98M42.35 76.46c10.32-.71 19.52-1.34 31.74-1.77m-31.65 10.6c8.93-.35 22.93-1.42 31.9-1.78m-26.35 6.76c-.24 1.11-.86 1.7-1.8 2.33-2.84 1.89-10.06 5.67-15.75 7.91m37.02-11.23c6.26 2.94 13.65 8.28 15.36 10.85"/></g><g style="font-size:8;fill:gray"><text transform="translate(24.5 14.5)">1</text><text transform="translate(18.5 25.55)">2</text><text transform="translate(36.5 25.48)">3</text><text transform="translate(33.5 46.4)">4</text><text transform="translate(50.5 23.33)">5</text><text transform="translate(47.25 42.5)">6</text><text transform="translate(76.5 22.5)">7</text><text transform="translate(61.25 26.1)">8</text><text transform="translate(72.5 33.03)">9</text><text transform="translate(57.27 35.2)">10</text><text transform="translate(57.5 42.58)">11</text><text transform="translate(57.34 48.5)">12</text><text transform="translate(30.5 66.5)">13</text><text transform="translate(42.5 57.5)">14</text><text transform="translate(45.5 65.58)">15</text><text transform="translate(45.38 74.5)">16</text><text transform="translate(45.43 83.43)">17</text><text transform="translate(32.5 94.5)">18</text><text transform="translate(57.5 94.5)">19</text></g></svg>