<svg xmlns="http://www.w3.org/2000/svg" width="109" height="109"><g style="fill:none;stroke:#000;stroke-width:3;stroke-linecap:round;stroke-linejoin:round"><path d="M39.87 12.98c.46.61 1.14 2.05 1.14 2.88s.21 18.68-.34 22.18m1.11-23.39c2.62-.18 24.6-1.71 26.97-2.09 1.59-.26 2.81.76 3.05 2.08.35 1.87-.59 21.32-.59 21.94"/><path d="M41.06 21.54c4.9-.38 25.89-1.87 30.09-2m-29.87 9.27c7.39-.67 22.07-1.46 29.9-1.78m-30.24 8.88c7.39-.55 23.51-1.37 30.24-1.56m-23.54 5.89c.4.82-.3 1.62-1.08 2.22-2.37 1.8-8.6 5.66-13.34 7.79m30.4-10.75c5.16 2.56 11.26 7.19 12.67 9.43m-53.83 4.86c.4.69 1 1.19 1 2.12 0 .94.19 24.99-.3 28.92m.47-28.79c2.29-.2 18.26-2.05 20.33-2.48 1.39-.29 2.45.85 2.67 2.34.3 2.1-.51 26.58-.51 27.29"/><path d="M23.5 63.99c4.28-.43 18.89-1.67 22.56-1.81M23.69 73.31c6.46-.75 15.55-1.71 22.4-2.07M23.39 82.5c6.46-.62 16.8-1.6 22.69-1.82m-18.05 6.64c.46.96-.35 1.9-1.25 2.59-2.74 2.11-9.92 6.6-15.39 9.09m27.67-12.52c3.48 2.95 7.59 8.29 8.54 10.88m13.32-44.19c.42.66 1.04 2.13 1.04 3.03s.19 23.88-.31 27.64m1-28.95c2.38-.19 20.05-2.41 22.2-2.83 1.44-.28 2.55.82 2.77 2.23.32 2.01-.53 27.79-.53 28.46"/><path d="M62.5 63.42c4.45-.41 20.72-1.56 24.54-1.69m-24.85 10.6c6.72-.72 17.75-1.11 24.87-1.46M61.88 81.58c6.72-.6 19.06-1.01 25.18-1.22m-19.27 6.96c.38.96-.29 1.9-1.04 2.59-2.28 2.11-8.28 6.6-12.85 9.09m26.51-12.02c5.48 3.08 11.95 8.68 13.44 11.38"/></g><g style="font-size:8;fill:gray"><text transform="translate(33.75 20.13)">1</text><text transform="translate(42.5 11.8)">2</text><text transform="translate(45.49 20.23)">3</text><text transform="translate(45.32 26.5)">4</text><text transform="translate(45.5 34.5)">5</text><text transform="translate(35.5 45.5)">6</text><text transform="translate(58.5 46.93)">7</text><text transform="translate(15.5 60.5)">8</text><text transform="translate(25.25 53.03)">9</text><text transform="translate(26.24 62.95)">10</text><text transform="translate(26.5 71.5)">11</text><text transform="translate(26.31 80.5)">12</text><text transform="translate(14.5 91.5)">13</text><text transform="translate(32.75 94.5)">14</text><text transform="translate(51.5 59.5)">15</text><text transform="translate(63.25 51.5)">16</text><text transform="translate(65.5 61.5)">17</text><text transform="translate(65.46 70.5)">18</text><text transform="translate(65.46 79.1)">19</text><text transform="translate(55.5 91.5)">20</text><text transform="translate(74.5 94.5)">21</text></g></svg>