<svg xmlns="http://www.w3.org/2000/svg" width="109" height="109"><g style="fill:none;stroke:#000;stroke-width:3;stroke-linecap:round;stroke-linejoin:round"><path d="M18.76 30.17c1.87.33 3.71.38 4.99.18 5.47-.83 14.02-2.06 20.5-2.72 1.44-.15 3.12-.25 4.5.16"/><path d="M33.42 15.2c1.07 1.07 1.23 2.68 1.23 4.59v22.47M9.88 45.92c2 .58 4.69.47 6.37.23 7.39-1.06 20.83-3.3 30-4.19 2.04-.2 4.14-.57 6.13.08m-24.79 5.6c.88.88 1.4 2.23 1.32 4.52C28.5 64.75 27 78 19.59 92.25m19.98-46.42c.93.93 1.34 2.29 1.34 4.27 0 14.56-.03 33.07-.03 38.02 0 12.25-4.62 1.38-5.93.12m-15.47-27.6c.02.49.04 1.28-.04 1.98-.52 4.19-2.73 12.25-6.8 17.87m35.73-21.91c2.08 2.67 5.38 10.98 5.9 15.13m13.28-54.07c.04.79.01 2.08-.33 3.16-2.21 6.95-7.32 20.56-14.97 30.17m8.43-8.26c1.41.29 3.43.14 4.84-.15 6.35-1.31 14.03-3.28 21.01-5.3 1.72-.5 3.84-1 5.66-.71m-14.28 6.56c.45 1.14.7 1.96.23 4.05-4.32 19-14.08 35.35-28.35 43.33"/><path d="M58.56 54.1c2.06 0 17.19 19.28 26.96 29.51 2.47 2.59 5.22 4.69 8.48 6.21"/></g><g style="font-size:8;fill:gray"><text transform="translate(12.5 31.5)">1</text><text transform="translate(23.25 15.13)">2</text><text transform="translate(2.5 47.5)">3</text><text transform="translate(21.5 55.5)">4</text><text transform="translate(33.5 54.5)">5</text><text transform="translate(11.5 62.5)">6</text><text transform="translate(44.25 69.13)">7</text><text transform="translate(58.5 19.5)">8</text><text transform="translate(66.5 41.5)">9</text><text transform="translate(67.5 51.63)">10</text><text transform="translate(64.5 58.5)">11</text></g></svg>