<svg xmlns="http://www.w3.org/2000/svg" width="109" height="109"><g style="fill:none;stroke:#000;stroke-width:3;stroke-linecap:round;stroke-linejoin:round"><path d="M12.28 20.21c.46.35.93.63 1.13 1.06 1.59 3.42 2.91 16.6 4 22.73m-2.8-22.1c8.76-1.68 16.79-3 21.13-3.41 1.58-.15 2.54.89 2.31 1.77-1.04 4.06-2.15 13.85-3.43 18.5m-16.56 1.93c5.09-.46 11.65-1.34 18.64-2.05m-10.83 3.1c1.09.5 1.96 2.23 1.96 3.25 0 5.51.28 28.01.28 38m.27-22.75c3.37-.49 4.87-1.74 8.35-2 1.74-.13 2.18-.25 3.26 0m-25.12-2.25c1.09.5 1.74 2.25 1.96 3.25s.42 18.51.42 30.26"/><path d="M12 90.44c.33.87 2.77 1.01 3.57.52 7.93-4.85 15.18-9.78 23.93-15.22m16.62-53.16c.03.5.14 1.3-.05 2C54.25 31 49.71 42.04 44.64 47.7m11.02-11.91c.73.27 2.06.33 2.8.27 10.11-.78 19.59-3 26.41-3.49 1.21-.09 4.18.13 4.79.27M45.07 56.41c1.76.14 4.04.34 4.74.29 8.83-.73 36.72-4.51 42.93-4.4 1.15.02 3.94.14 4.51.28"/><path d="M67.9 12.5c.44 1.2.53 2.32.61 4.64C70.25 70.5 59.75 81.75 41 95m27.39-40.41c7.42 12.2 17.48 30.11 24.87 36.82 2.15 1.96 3.6 2.91 4.49 3.15"/></g><g style="font-size:8;fill:gray"><text transform="translate(7.5 28.5)">1</text><text transform="translate(16.5 18.5)">2</text><text transform="translate(20.5 37.5)">3</text><text transform="translate(20.5 49.5)">4</text><text transform="translate(31.5 55.5)">5</text><text transform="translate(6.5 57.5)">6</text><text transform="translate(4.5 90.5)">7</text><text transform="translate(46.5 22.5)">8</text><text transform="translate(59.5 33.5)">9</text><text transform="translate(45.25 53.5)">10</text><text transform="translate(56.5 13.5)">11</text><text transform="translate(75.25 63.5)">12</text></g></svg>