<svg xmlns="http://www.w3.org/2000/svg" width="109" height="109"><g style="fill:none;stroke:#000;stroke-width:3;stroke-linecap:round;stroke-linejoin:round"><path d="M13.78 20.71c.37.32.75.58.91.97 1.28 3.13 2.35 15.2 3.23 20.82m-2.31-20.1c8.76-1.68 17.79-3 22.13-3.41 1.58-.15 2.54.89 2.31 1.77-1.04 4.06-2.15 12.35-3.43 17m-18.06 2.43c5.09-.46 13.65-.84 20.64-1.55m-13.83 3.1c1.09.5 1.96 2.23 1.96 3.25 0 5.51.28 26.51.28 36.5m.27-24.25c3.37-.49 8.37-1.24 11.85-1.5 1.74-.13 2.18-.25 3.26 0m-28.62-2.75c1.09.5 1.74 2.25 1.96 3.25s.42 19.51.42 31.26"/><path d="M10 89.07c.75.68 2.5 1.68 4.7.4C22.78 84.77 31.94 79 41 73.99m5.68-51.97c1.48.46 4.79.58 6.26.46 18.54-1.6 26.12-2.48 40.5-3.38 2.46-.15 3.95.22 5.18.44m-31.13 4.39c.06 1.06.22 2.76-.12 4.26C63.75 44 57.25 65.5 36.25 83.5"/><path d="M54.13 58.5c.49.74 1.12 1.29 1.21 2.26.67 7.03 3.01 20.18 3.95 33.48"/><path d="M54.98 61.13c7.49-1.41 30.07-4.42 35.18-4.64 2.11-.09 3.44 2.1 3.07 4.13-1.29 7-3.33 16.41-4.42 28.39m-29.66 2.8c5.99-.71 25.11-2.01 32.75-2.22"/></g><g style="font-size:8;fill:gray"><text transform="translate(8.5 27.5)">1</text><text transform="translate(19.5 18.5)">2</text><text transform="translate(21.5 37.5)">3</text><text transform="translate(19.5 49.5)">4</text><text transform="translate(30.5 53.5)">5</text><text transform="translate(5.5 53.5)">6</text><text transform="translate(2.63 90.5)">7</text><text transform="translate(45.5 19.5)">8</text><text transform="translate(59.5 31.53)">9</text><text transform="translate(47.5 79.5)">10</text><text transform="translate(62.5 56.5)">11</text><text transform="translate(61.5 87.5)">12</text></g></svg>