<svg xmlns="http://www.w3.org/2000/svg" width="109" height="109"><g style="fill:none;stroke:#000;stroke-width:3;stroke-linecap:round;stroke-linejoin:round"><path d="M13.78 20.71c.37.32.75.58.91.97 1.28 3.13 1.85 16.7 2.73 22.32m-1.81-21.6c8.76-1.68 17.79-2.5 22.13-2.91 1.58-.15 2.54.89 2.31 1.77-1.04 4.06-2.65 13.35-3.93 18m-18.06 2.43c5.09-.46 13.65-.84 20.64-1.55m-12.83 3.1c1.09.5 1.96 2.23 1.96 3.25 0 5.51.28 27.01.28 37m.27-22.75c3.37-.49 5.87-1.49 9.35-2 1.72-.25 2.18-.25 3.26 0m-25.62-4.75c1.09.5 1.74 2.25 1.96 3.25s-.08 19.51-.08 31.26"/><path d="M10.5 90.12c1.5 1.13 3.52.79 4.39.35 8.63-4.32 16.58-8.14 26.11-12.98m15.76-59.24c.06.73.07 1.88-.13 2.96C54.86 30.64 50.75 40.25 45 47m10.13-13.89c.73.3 4.21.36 4.95.3 6.91-.6 19.16-1.94 26.98-2.87 1.22-.14 4.09.14 4.7.29"/><path d="M68.81 12.13c.94.87 1.86 3.35 2.01 4.25S70.9 46.4 70.75 52m-26.37 2.76c1.43.52 4.07.69 5.5.52C60.25 54 81.75 51.5 93.11 51.29c2.39-.04 3.83.25 5.02.5m-37.45 5.14c.57.57.4 2.29.36 3.62C60.75 70 57 91 37.39 95.15"/><path d="M73.24 52.62c.5 1.25 1.4 2.72 1.43 4.65.08 5.26.13 19.38.13 25.48C74.79 94 76.25 95.03 85 95.03c11 0 11.39-1.78 11.39-9.58"/></g><g style="font-size:8;fill:gray"><text transform="translate(8.5 27.5)">1</text><text transform="translate(17.5 18.5)">2</text><text transform="translate(20.5 38.85)">3</text><text transform="translate(20.5 50.5)">4</text><text transform="translate(31.5 56.5)">5</text><text transform="translate(6.5 54.5)">6</text><text transform="translate(3.5 93.5)">7</text><text transform="translate(48.5 17.5)">8</text><text transform="translate(59.5 30.5)">9</text><text transform="translate(61.5 9.95)">10</text><text transform="translate(46.5 52.5)">11</text><text transform="translate(50.5 63.5)">12</text><text transform="translate(64.5 63.5)">13</text></g></svg>