<svg xmlns="http://www.w3.org/2000/svg" width="109" height="109"><g style="fill:none;stroke:#000;stroke-width:3;stroke-linecap:round;stroke-linejoin:round"><path d="M14.28 22.93c.37.27.75.49.91.82 1.28 2.63 1.85 12.78 2.73 17.5m-1.81-16.9c8.76-1.41 16.29-2.52 20.63-2.87 1.58-.13 2.54.75 2.31 1.49-1.05 3.42-2.15 10.38-3.43 14.29m-17.06 2.05c5.09-.39 12.65-.7 19.64-1.3m-11.83 3.23c1.09.5 1.96 2.23 1.96 3.25 0 5.51.28 28.01.28 38m.27-22.75c3.37-.49 8.37-1.24 11.85-1.5 1.74-.13 2.18-.25 3.26 0m-28.62-2.75c1.09.5 1.74 2.25 1.96 3.25s.42 18.01.42 29.76"/><path d="M11 90.65c.34.76 2.92 1.75 3.77 1.33C23.12 87.74 31.29 83 40.5 78.25m20.99-65.96c.04.2.14.56-.07.79-2.62 2.76-6.5 5.29-13.34 7.52m-1.73-.12c.42.59.67 1.5.67 2.15 0 9.12-1.65 14.67-4.02 17.29m5.57-13.19c3.16-.11 15.19-1.88 19.16-2.16m-10.621 1.645c-.127 4.962-.017 10.694-.014 15.594M87.59 11.59c.04.17.14.5-.07.69-2.58 2.44-5.97 4.67-12.69 6.64m-2.43.35c.5.71.8 1.78.8 2.55 0 8.93-1.46 13.9-4.26 17.01m5-14.28c3.53-.12 18.08-2.02 22.52-2.31m-11.564 1.687c-.117 5.878-.224 11.397-.344 16.38M51.36 48.03c.54.77 1.32 1.85 1.32 2.87s-.18 30.08 0 31.1m.91-33.15c3.05-.13 26.26-2.78 29.03-2.93 2.31-.13 4.05.01 3.94 3.19-.13 3.98-.34 22.65-.17 30.83"/><path d="M52.63 58.11c5.39-.49 10.8-.88 16.2-1.29 1.59-.12 3.18-.24 4.74-.36M53.33 67.5c5.08-.34 10.16-.79 15.23-1.22l4.23-.36m-20.03 13.9c8.19-.9 22.4-2.18 32.35-2.55m-27.33 8.14c.45 1.18-.11 2.49-1 3.35-2.7 2.59-10.02 7.94-15.42 10.99m34.98-14.33C83.5 88.5 88.75 93 92.75 98.55"/></g><g style="font-size:8;fill:gray"><text transform="translate(8.5 29.5)">1</text><text transform="translate(18.5 20.5)">2</text><text transform="translate(20.5 36.5)">3</text><text transform="translate(21.5 48.5)">4</text><text transform="translate(31.5 56.5)">5</text><text transform="translate(8.58 58.5)">6</text><text transform="translate(3.5 93.5)">7</text><text transform="translate(54.5 12.5)">8</text><text transform="translate(42.2 17.6)">9</text><text transform="translate(51.5 24.5)">10</text><text transform="translate(57.8 33.2)">11</text><text transform="translate(77.25 10.5)">12</text><text transform="translate(64.4 17)">13</text><text transform="translate(76.5 23.5)">14</text><text transform="translate(85.8 30.9)">15</text><text transform="translate(42.5 54.5)">16</text><text transform="translate(59.5 46.5)">17</text><text transform="translate(56.51 55.35)">18</text><text transform="translate(56.5 65.5)">19</text><text transform="translate(56.5 76.5)">20</text><text transform="translate(46.5 89.13)">21</text><text transform="translate(68.5 92.5)">22</text></g></svg>