<svg xmlns="http://www.w3.org/2000/svg" width="109" height="109"><g style="fill:none;stroke:#000;stroke-width:3;stroke-linecap:round;stroke-linejoin:round"><path d="M29.63 11.39c.01.25.27 1.36.22 1.72-.3 2.1-2.66 7.79-5.04 10.61m-6.14 1.53c.59.5.95 2.25 1.07 3.25s.27 29.25.15 35.5m-.25-37.04c2.39-.62 11.76-1.97 13.73-1.98 1.65-.01 2.05.75 2.05 2.97 0 9.17-.3 53.69-.3 61.91 0 11.63-3.11 6.63-8.95 2.09"/><path d="M19.88 38.89c3.45-.44 13.72-1.42 15.33-1.53M20.28 49.64c4.22-.38 9.52-.84 14.42-1.03M11.66 65.35c.63.88 1.73 1.18 3.61.44 3.84-1.5 12.62-4.87 17.04-6.79m9.31-10c.25.87.69 2.38 0 3.81C36.85 62.67 20.19 79.98 10.03 85m37.93-63.97c1.09.22 3.1.25 4.19.22 11.39-.36 27.2-2.3 41.48-2.39 1.82-.01 2.92.1 3.83.21m-45.38 3.09c.03 1.64-.08 4.21-.08 6.57 0 26.76-4.52 51.73-12.2 62.37m27.15-61.96c.09.77.16 1.75-.08 2.7-1.5 6.02-7.28 17.65-14.26 25.81m6.96-6.11c.42.49.54 1.59.54 2.6 0 10.49-.21 33.83-.21 40.88M77.63 29.7c.12 1.37-.03 3.16-.41 4.33-2.41 7.48-5.48 13.81-11.01 22.91m4.95-7.97c.43.74.75 2.37.78 3.52.25 10.23-.35 36.7-.13 42.02m17.4-65.03c.04.8-.01 1.86-.15 2.55-.88 4.4-2.01 7.79-4.04 13.14m-13.2 4.07c4.93-.96 23.08-2.29 25.2-2.82m-12.31 3.43c.24.38.43.9.43 1.55 0 6.64.03 26.89-.12 37.34"/><path d="M72.48 62.22c4.66-.8 21.6-2.14 23.6-2.58M71.92 75.17c4.91-.67 22.35-2.04 24.46-2.41m-24.46 18.2c4.94-.96 24.79-2.36 26.9-2.88"/></g><g style="font-size:8;fill:gray"><text transform="translate(22.5 11.5)">1</text><text transform="translate(12.5 31.5)">2</text><text transform="translate(19.5 23.85)">3</text><text transform="translate(23.5 36.5)">4</text><text transform="translate(23.5 47.5)">5</text><text transform="translate(4.5 65.5)">6</text><text transform="translate(38.5 46.35)">7</text><text transform="translate(50.5 18.5)">8</text><text transform="translate(44.5 30.5)">9</text><text transform="translate(56.5 30.5)">10</text><text transform="translate(52.5 65.5)">11</text><text transform="translate(68.25 35.5)">12</text><text transform="translate(63.5 64.5)">13</text><text transform="translate(79.5 29.65)">14</text><text transform="translate(76.5 46.5)">15</text><text transform="translate(87.5 55.5)">16</text><text transform="translate(74.5 59.5)">17</text><text transform="translate(74.5 71.5)">18</text><text transform="translate(74.5 86.5)">19</text></g></svg>