<svg xmlns="http://www.w3.org/2000/svg" width="109" height="109"><g style="fill:none;stroke:#000;stroke-width:3;stroke-linecap:round;stroke-linejoin:round"><path d="M44.98 10.89c.07.23.15.58-.15.91-1.75 1.91-11.79 6.1-25.53 8.67m1.98 3.17c.02.3.05.77-.05 1.19-.59 2.51-4 8.02-8.67 11.38m17.46-13.63c1.96 1.35 5.05 5.54 5.54 7.63m5.71-11.13c3.37 1.61 8.7 6.63 9.54 9.13M20 36.15c.89.35 2.1.72 3.12.64 2-.17 19.43-3.45 21.55-3.62s2.83 1.58.95 2.83c-.97.64-10.47 7.17-11.81 7.86"/><path d="M28.91 40.89c2.02.89 7.23 4.29 8.18 6.61m-19.56 3.3c1.04.65 1.86 2.43 1.86 3.61 0 7.59.04 34.34.04 43.84m.43-45.72C26 52 45.93 49.58 47.79 49c2.17-.68 3.61 1.67 3.54 3.68-.19 4.87-.64 29.82-.64 38.93 0 8-2.43 5.39-6.34 1.44"/><path d="M33.86 52.25c.28.32.24.98-.12 1.49-1.73 2.46-5.23 7.24-5.87 8.26-.63 1.02-.21 1.79 1.48 1.37 1.88-.46 7.64-2.62 11.6-3.79m-1.9-2.94c1.54 1.03 3.97 4.25 4.35 5.85m-16.28 8.62c.76.16.86.41 2.38.16 1.52-.24 11.46-2.35 12.51-2.59s1.87.92 1.43 1.78C38.5 80 33.5 87 25.5 92.5"/><path d="M30.56 76.83c3.9 1.3 9.14 4.54 12.22 8.47m28.27-75.05c2.45 1.5 4.7 4.75 5.12 7.31M57.83 24.2c1.2.33 2.6.38 3.8.33 6.77-.28 16.56-2.53 26.8-2.77 2-.05 3.2.16 4.2.32M62.4 29.75c3.52 4.94 5.12 9.99 5.43 13.25m17.28-17.75c.58.58.65 1.96.58 2.44-.47 3.32-4.4 12.77-5.57 15.31m-23.87 4.02c1.4.63 3.03.71 4.44.63 7.06-.4 23.56-2.15 29.65-2.42 2.34-.1 3.74.3 4.91.62m-37.87 21.1c.95.47 2.68.53 3.64.47 6.5-.42 21.95-1.92 28.83-2.4 1.58-.11 2.53.22 3.32.46"/><path d="M72.64 49.63c.66.52 1.68 2.62 1.68 4.96 0 6.05-.19 43.24-.22 44.79"/></g><g style="font-size:8;fill:gray"><text transform="translate(36.5 9.5)">1</text><text transform="translate(12.5 26.5)">2</text><text transform="translate(26.5 27.5)">3</text><text transform="translate(38.25 25.5)">4</text><text transform="translate(21.25 34.5)">5</text><text transform="translate(25.5 46.5)">6</text><text transform="translate(11.5 58.5)">7</text><text transform="translate(20.5 49.5)">8</text><text transform="translate(23.5 58.5)">9</text><text transform="translate(39.25 56.5)">10</text><text transform="translate(22.5 69.5)">11</text><text transform="translate(23.25 82.5)">12</text><text transform="translate(60.25 10.5)">13</text><text transform="translate(54.5 21.65)">14</text><text transform="translate(53.25 32.58)">15</text><text transform="translate(75.5 30.5)">16</text><text transform="translate(52.25 44.43)">17</text><text transform="translate(55.5 64.35)">18</text><text transform="translate(62.5 55.5)">19</text></g></svg>