<svg xmlns="http://www.w3.org/2000/svg" width="109" height="109"><g style="fill:none;stroke:#000;stroke-width:3;stroke-linecap:round;stroke-linejoin:round"><path d="M27.62 13.75c1.01 1.31 1.51 1.31 1.51 4.35v9.65M13.1 29.58c.83.27 1.81.31 2.64.27 4.71-.23 17.89-2.46 25.01-2.66 1.39-.04 2.23.13 2.92.26m-24.22 7.8c2.4 4.66 3.49 9.43 3.71 12.5m14.1-17c.54.54.61 1.82.54 2.27-.43 3.08-4.09 11.87-5.17 14.23M11 51.8c1.11.39 2.42.53 3.52.39C20.11 51.5 34.3 49 40.86 48.7c1.85-.09 2.96.19 3.89.38M12.68 70.75c.73.88 2.06 1.1 2.79.88 9.25-2.87 20.64-7.44 27.68-10.11"/><path d="M27.23 53.13c.83.58 1.83 2.14 1.86 3.31.23 9.11.68 26.72-16.59 41.8m36.47-71.63c1.06.32 3 .38 4.06.32 8.91-.44 25.19-2.75 34.74-3.05 1.76-.06 2.83.15 3.71.32M48.74 39.45c.3.32.61.59.75.99 1.05 3.2 2.81 12.01 3.52 17.75m-2.38-17c12.12-1.69 31.89-4.03 35.44-4.35 2.21-.2 3.61 2.07 3.02 3.92-1.57 4.96-1.95 8.15-3.18 11.95m-32.75 4.1c8.76-1.21 26.86-2.54 35.05-3.14"/><path d="M65.75 12.25c1.25.5 2 2.25 2.25 3.25s0 77.75-.25 84"/><path d="M67.42 57.07C62.74 67.11 50.58 81.32 40.86 87m27.13-29.4c4.12 6.15 17.47 21.9 24.38 26.35 1.61 1.04 2.61 1.84 4.02 2.2"/></g><g style="font-size:8;fill:gray"><text transform="translate(19.75 13.5)">1</text><text transform="translate(5.5 29.5)">2</text><text transform="translate(12.5 39.5)">3</text><text transform="translate(29.75 36.5)">4</text><text transform="translate(3.75 52.5)">5</text><text transform="translate(5.75 71.5)">6</text><text transform="translate(20.5 59.5)">7</text><text transform="translate(47.5 23.5)">8</text><text transform="translate(41.5 45.5)">9</text><text transform="translate(49.5 37.5)">10</text><text transform="translate(54.5 53.5)">11</text><text transform="translate(53.5 11.5)">12</text><text transform="translate(51.5 66.5)">13</text><text transform="translate(74.5 65.5)">14</text></g></svg>