<svg xmlns="http://www.w3.org/2000/svg" width="109" height="109"><path d="M19.38 16c4.19 1.74 10.83 7.17 11.88 9.88m-17.88 9.87c4.46 1.52 11.51 6.26 12.62 8.63M11.5 58.19c2.25.85 3.78.54 4.75.21C20.38 57 26 55.16 27.5 54.74c1.5-.43 2.83 1.2 2 2.6-7.88 13.29-8.62 7.79-.5 16.98.98 1.11.75 2.1-.75 3.17s-6.5 3.65-11.12 6.02m-5.88 1.87c3.05-.38 9.08-.74 13.72-.58 8.91.32 31.59 5.75 36.05 6.91C73.25 94.88 79 95.62 89.5 95.57" style="fill:none;stroke:#000;stroke-width:3;stroke-linecap:round;stroke-linejoin:round"/><g style="font-size:8;fill:gray"><text transform="translate(11.25 15.25)">1</text><text transform="translate(6.25 36.25)">2</text><text transform="translate(4.25 58.25)">3</text><text transform="translate(4.25 85.25)">4</text></g></svg>