<svg xmlns="http://www.w3.org/2000/svg" width="109" height="109"><g style="fill:none;stroke:#000;stroke-width:3;stroke-linecap:round;stroke-linejoin:round"><path d="M59.15 16.05c0 .95-.55 1.42-1.1 1.99-3.7 3.82-6.56 6.1-12.3 9.2m-4.38 1.04c.86.86 1.25 2.22 1.25 3.69 0 5.03-.11 21.4-.11 28.06 0 1.52.7 2.03 2.37.85s7.38-6.62 16.27-13.65m6.53-23.18c.62.16 2.37.63 3.62.47s12.85-1.83 14.4-2.05c2.43-.35 4.05.15 4.05 3.08.01 7.2-1 19.2-3 30.79-1.25 7.25-5.92.81-6.39.49"/><path d="M68.02 24.73c.75.75 1.05 1.77 1.05 3.11 0 6.78.03 31.8.02 44.67 0 4.36 0 7.26-.01 7.49M19.96 21.5c3.46 1.52 8.93 6.25 9.79 8.61M13.75 52c2.05.93 3.42.46 4.34.23.91-.23 8.05-2.49 9.42-2.95s3.28 1.07 2.51 2.54C23.25 64.75 24 58.75 28.79 68.4c.69 1.38.68 2.54-.69 3.7s-5.73 4.65-9.84 7.61m-4.01 1.92c4.88-1.13 9.95-1.09 14.5-.46 6.88.96 24 4.58 34.5 7.27 13.17 3.38 18.88 4.18 27 4.1"/></g><g style="font-size:8;fill:gray"><text transform="translate(51.75 15.13)">1</text><text transform="translate(35.25 37.63)">2</text><text transform="translate(71.5 21.5)">3</text><text transform="translate(61.5 31.55)">4</text><text transform="translate(12.75 21.13)">5</text><text transform="translate(6.75 52.55)">6</text><text transform="translate(8.25 82.48)">7</text></g></svg>