<svg xmlns="http://www.w3.org/2000/svg" width="109" height="109"><g style="fill:none;stroke:#000;stroke-width:3;stroke-linecap:round;stroke-linejoin:round"><path d="M55.54 20.96c.36.54.64 2.71.64 3.65 0 5.89.04 15.25.04 21.74 0 19.43-4.52 24.59-11.25 30.4M69.7 17.37c.54.86.97 1.87 1 3.19.15 5.89-.02 40.37-.02 44.38 0 9.36 4.49 8.66 10.88 8.66 6.74 0 7.68-1.21 8.62-1.89 2-1.44 1.46-2.16 1.64-4.68M39.67 33.37c3.21 1.59 8.29 6.55 9.09 9.03"/><path d="M37.32 61.01c1.09.54 2.19.72 3.02.11 1.15-.85 9.42-7.89 13.93-11.98m29.57-23.79c.03.28.07.71-.06 1.11-.79 2.34-5.34 7.49-11.56 10.64m2.3 9.04c3.92 2.45 10.11 10.08 11.09 13.9M17.71 23c3.81 1.39 9.84 5.69 10.79 7.85m-17 23.4c2.25.92 3.75.46 4.75.23s9.5-4.22 11-4.68S31 50.95 30 52.33s-4 6.67-4.75 7.83c-.75 1.15-.5 3.22 1 4.83s2.75 3.45 3.5 4.83.75 2.53-.75 3.68-9 7.59-10.5 8.06m-4.25 1.38c3-.46 9-1.61 13.5-.69s30.07 7.1 34.5 8.29c12 3.22 21.25 4.14 30.25 2.53"/></g><g style="font-size:8;fill:gray"><text transform="translate(48.5 21.13)">1</text><text transform="translate(60.5 16.5)">2</text><text transform="translate(37.5 30.05)">3</text><text transform="translate(35.5 55.5)">4</text><text transform="translate(80.5 21.5)">5</text><text transform="translate(76.5 45.13)">6</text><text transform="translate(11.25 22.63)">7</text><text transform="translate(5.25 54.13)">8</text><text transform="translate(6.75 85.4)">9</text></g></svg>