<svg xmlns="http://www.w3.org/2000/svg" width="109" height="109"><path d="M51.46 16.51c.49.19 2.21.21 2.7.19 5.12-.22 18.25-2 21.24-2.19.82-.05 2.95.09 3.36.19M40.38 29.5c1.24.45 3.53.57 4.77.45C58.9 28.68 75 26.5 87.28 25.64c2.07-.14 3.31.22 4.35.45M52.21 41.51c.49.19 2.21.21 2.7.19 5.12-.22 17.75-2.5 20.74-2.69.82-.05 2.95.09 3.36.19m-27.3 14.4c.49.19 2.21.21 2.7.19 5.12-.22 17.96-2.71 21.56-2.69.82 0 2.95.09 3.36.19M49.38 65.85c.47.31 1.01.55 1.16.95 1.34 3.53 2.19 11.47 3.31 16.95m-2.83-16.32c8.68-1.79 22.01-3.38 29.23-4.22 1.81-.21 2.91.98 2.65 1.95-1.08 4.01-2.34 7.86-3.94 13.41m-24.41 2.16c5.84-.51 18.22-1.39 26.24-2.18M19.96 24.5c3.72 1.44 9.61 5.9 10.54 8.13M15 56.03c2.25.94 3.75.47 4.75.24s10-2.3 11.5-2.77S35 54.68 34 56.09s-6 6.83-6.75 8.01-.5 3.3 1 4.95 3.75 3.03 4.5 4.45.75 3.09-.75 4.27S22 85.53 20.5 86m-5.75 1.07c2.96-.31 8.88-1.08 13.33-.46 4.44.61 29.69 4.74 34.06 5.53C73.98 94.29 83.12 94.9 92 93.83" style="fill:none;stroke:#000;stroke-width:3;stroke-linecap:round;stroke-linejoin:round"/><g style="font-size:8;fill:gray"><text transform="translate(45.5 16.5)">1</text><text transform="translate(37.5 26.5)">2</text><text transform="translate(44.5 42.5)">3</text><text transform="translate(44.5 53.5)">4</text><text transform="translate(42.5 70.83)">5</text><text transform="translate(52.5 63.5)">6</text><text transform="translate(56.5 77.68)">7</text><text transform="translate(12.5 24.5)">8</text><text transform="translate(8.5 57.5)">9</text><text transform="translate(4.44 88.5)">10</text></g></svg>