<svg xmlns="http://www.w3.org/2000/svg" width="109" height="109"><g style="fill:none;stroke:#000;stroke-width:3;stroke-linecap:round;stroke-linejoin:round"><path d="M61.96 11.88c.55.43 1.72 2.72 1.83 3.58s-.07 11.05-.18 16.43"/><path d="M63.81 21.35c3.29-.25 16.45-1.62 18.2-1.62h3.95m-36.43 11.5c.51.86 1.25 2.49 1.25 3.67s-.03 26.85.13 35.52m.71-37.25c2.87-.26 24.23-2.07 26.84-2.35 2.18-.23 3.34.68 3.34 1.78 0 2.69-.64 36.28-.64 37.17"/><path d="M50.83 44.76c5.36-.55 25.66-2.04 30.26-2.22M51.07 56.86c8.09-.97 21.48-1.95 30.06-2.42M51.2 68.1c8.09-.8 22.55-1.37 29.93-1.66m-22.58 7.75c.36.8.05 1.72-.67 2.35-2.17 1.88-8.21 5.85-12.55 8.15m28.45-9.94c5.52 3 12.04 8.56 13.55 11.31M19.21 15c4.69 1.57 12.12 6.45 13.29 8.88M15.21 34.25c4.96 1.48 12.8 6.08 14.04 8.38M14.5 57.44c2.25.85 3.75.43 4.75.21 1-.21 9-2.49 10.5-2.92s3.75 1.07 2.75 2.35-5.5 6.69-6.25 7.76-.5 2.99 1 4.48 2.25 3.2 3 4.48c.75 1.29.75 2.36-.75 3.43s-9 5.54-10.5 5.97m-5.25 1.95c4-1.4 11-2.15 16.63-1.26 6.55 1.04 27.36 8.27 31.83 9.57 12.12 3.53 21.45 4.54 30.54 2.77"/></g><g style="font-size:8;fill:gray"><text transform="translate(54.5 12.5)">1</text><text transform="translate(67.5 17.5)">2</text><text transform="translate(43.75 41.48)">3</text><text transform="translate(52.5 29.5)">4</text><text transform="translate(55.5 41.5)">5</text><text transform="translate(55.75 53.25)">6</text><text transform="translate(55.75 65.5)">7</text><text transform="translate(48.5 78.5)">8</text><text transform="translate(69.5 81.5)">9</text><text transform="translate(8.5 15.5)">10</text><text transform="translate(6.75 35.5)">11</text><text transform="translate(4.5 57.5)">12</text><text transform="translate(3.75 85.5)">13</text></g></svg>