<svg xmlns="http://www.w3.org/2000/svg" width="109" height="109"><g style="fill:none;stroke:#000;stroke-width:3;stroke-linecap:round;stroke-linejoin:round"><path d="M61.71 9.01c.72.31 1.79 1.9 1.8 2.86.05 3.01.13 5.18.22 7.92m-24.36-.92c.11 3.33-2.49 12.6-3.74 14.87"/><path d="M39.85 22.68c9.41-1.76 42.11-5.07 49.02-5.23 8.94-.21 4.39 4.31.37 7.95"/><path d="M54.29 22.97c.05.31.17.84-.03 1.27-1.78 3.95-5.65 8.57-11.77 12.51m27.59-16c.23.3.44.66.45 1.14.04 1.27-.04 3.49.01 4.93.12 3.38 3.33 2.89 5.97 2.8 2.78-.1 5.15-.62 5.53-.88M51.27 34.5c1.75 1.37 4.52 5.62 4.95 7.75m14.53-7c.01.19.03.5-.03.78-.34 1.63-2.32 5.22-5.02 7.42m-24.24 3.52c.8.25 2.26.3 3.06.25 5.73-.39 27.9-2.64 36.9-2.74 1.33-.02 2.13.12 2.8.24M62.24 48.5c.06.32.14.84-.13 1.3-1.58 2.74-10.67 8.76-23.1 12.45"/><path d="M58.25 53.5c5.78 2.67 12.06 17.87 6.98 28.36-2.73 5.64-6.07.04-6.79-.47"/><path d="M61.26 57c.06.32.12.83-.12 1.28-1.44 2.71-9.69 8.64-20.98 12.28m23.6-5.81c.06.37.13.96-.13 1.5-1.52 3.15-10.26 10.07-22.22 14.31m40.07-29.3c.04.23.09.6-.08.94-.99 1.98-6.7 6.32-14.52 8.98m.28 1.6C75.22 65.75 83.44 74.09 87 81.5M16 16.75c4.06 1.54 10.49 6.35 11.5 8.75m-12.54 12c3.63 1.48 9.38 6.08 10.29 8.38M12.25 59c2.77.92 4.02.98 5.25.75s6.96-3.55 8.8-4.01c1.85-.46 3.24.38 2.39 2.01-1.44 2.75-2.44 5.5-3.44 8-.55 1.36-1.35 2.15.5 3.75s2.71 4.24 3.63 5.61.46 1.75-1.38 2.89c-1.85 1.14-13.4 7.54-15.25 8m-.25.78c3.13-.4 9.4-1.41 14.1-.6 4.7.8 31.42 6.21 36.04 7.26 12.54 2.82 22.2 3.63 31.6 2.22"/></g><g style="font-size:8;fill:gray"><text transform="translate(52.5 8.35)">1</text><text transform="translate(32.5 20.5)">2</text><text transform="translate(42.5 18.5)">3</text><text transform="translate(43.5 30.5)">4</text><text transform="translate(64.5 27.5)">5</text><text transform="translate(46.5 42.5)">6</text><text transform="translate(63.5 35.5)">7</text><text transform="translate(34.5 47.5)">8</text><text transform="translate(47.5 55.5)">9</text><text transform="translate(64.5 56.5)">10</text><text transform="translate(43.25 66.5)">11</text><text transform="translate(45.25 74.5)">12</text><text transform="translate(85.5 54.5)">13</text><text transform="translate(75.5 66.5)">14</text><text transform="translate(5.5 17.5)">15</text><text transform="translate(4.5 37.5)">16</text><text transform="translate(2.5 59.5)">17</text><text transform="translate(1.5 89.5)">18</text></g></svg>