<svg xmlns="http://www.w3.org/2000/svg" width="109" height="109"><g style="fill:none;stroke:#000;stroke-width:3;stroke-linecap:round;stroke-linejoin:round"><path d="M46.79 10.5c.04.55.08 1.41-.08 2.19-.91 4.62-6.13 14.76-13.27 20.97m11.48-14.7c1.47 0 9.32-1.06 12.05-1.91 1.59-.5 2.42.97 1.47 2.34-3.1 4.47-6.26 9.15-8.59 14.04m-10.07-.66c.51.6 1.01 2.29 1.01 2.93.01 1.55-.37 19.25-.46 20.61-.63 8.71-2.06 16.74-6.33 22.15"/><path d="M41.66 33.72c1.84-.18 15.78-2.17 17.15-2.37 2.46-.35 3.38 2.31 3.07 3.37-.29 1.02-.46 26.83-.46 41.19 0 10.31-4.24 3.37-5.92 1.88"/><path d="M50.52 33.44c.04.2.5 1.06.54 2.35.17 6.21-.11 20.75-.11 22.87"/><path d="M40.92 46.62c4.59-.69 9.21-1.14 13.84-1.46.42-.03.82-.06 1.22-.08M40.42 59.46c5.11-.24 13.33-1.08 20.79-1.43m6.87-41c.85.26 2.42.23 3.16.14 6.06-.73 17.76-3.39 21.12-3.66 2.19-.17 2.79 1.8 2.67 3.03-.32 3.23-2.71 10.72-5.2 14.93-3.33 5.62-3.88 1.58-5.09.16"/><path d="M77.67 19.13c.03.34.05.88-.07 1.37-1.14 4.81-4.9 9.94-10.19 13.62m5.4 5.18c.02.35.04.91-.03 1.41-.41 2.98-2.75 9.98-5.96 13.98m6.27-7.95c.44.21 2.36.25 2.81.21 5.44-.57 10.3-1.45 15.3-1.63.74-.03 2.29.1 2.66.2M67.09 60.5c.85.29 2.41.4 3.25.29 9.07-1.11 16.98-1.74 24.6-2.02 1.41-.05 2.26.14 2.97.29"/><path d="M80.33 36.11c.36.24 1.12 1.83 1.19 2.32s-.05 43.77-.12 46.82M19.71 15c3.63 1.74 9.38 7.17 10.29 9.88M13.46 35c4.34 1.7 11.21 6.99 12.29 9.63M11.5 57.44c2.25.85 3.75.43 4.75.21 1-.21 8.5-3.49 10-3.92S30 54.8 29 56.08s-4.5 7.69-5.25 8.76-.5 2.99 1 4.48 2.25 2.7 3 3.98.75 2.35-.75 3.42-9 5.04-10.5 5.47m-4.25 1.99c2.88-.51 9-1.93 13.44-1.27 4.39.65 28.32 7.92 32.57 9.25 11.5 3.6 18.74 4.6 27.49 4.32"/></g><g style="font-size:8;fill:gray"><text transform="translate(38.5 9.5)">1</text><text transform="translate(51.5 14.5)">2</text><text transform="translate(33.5 42.5)">3</text><text transform="translate(42.5 31.5)">4</text><text transform="translate(54.5 39.5)">5</text><text transform="translate(44.5 43.25)">6</text><text transform="translate(44.5 56.5)">7</text><text transform="translate(66.5 13.5)">8</text><text transform="translate(68.5 25.5)">9</text><text transform="translate(64.5 41.95)">10</text><text transform="translate(74.5 44.5)">11</text><text transform="translate(69.5 57.8)">12</text><text transform="translate(83.5 41.5)">13</text><text transform="translate(7.5 14.5)">14</text><text transform="translate(1.5 34.5)">15</text><text transform="translate(.5 57.5)">16</text><text transform="translate(2.5 84.5)">17</text></g></svg>