<svg xmlns="http://www.w3.org/2000/svg" width="109" height="109"><g style="fill:none;stroke:#000;stroke-width:3;stroke-linecap:round;stroke-linejoin:round"><path d="M20.68 27.91c1.04.36 3.12.38 4.18.25 5.39-.66 12.39-1.28 18.14-1.86 1.41-.14 3.62-.34 5-.05"/><path d="M34.63 11.67c1.04 1.04 1.45 2.37 1.54 4.05.41 8.04.22 21.42.22 24.16m-26.14 3.39c2.55.38 4.97.14 7.51-.08 9.37-.82 26.46-2.77 35.48-3.53 2.39-.2 4.57-.43 6.89.33"/><path d="M55.13 17.1c.11 1.16-.12 2.78-.98 4.15C43 39.12 31.12 54.88 13.42 68.52m14.7-11.63c.31.76.62 1.89.62 2.9 0 .78.13 16.5.07 24.7-.02 2.44-.03 4.06-.03 4.18m1.24-33.15c1.54-.11 14.72-1.61 19.11-2.09 2.37-.26 3.43.55 3.33 2.94-.14 3.26-.22 16.07-.24 26 0 1.87-.01 3.63 0 5.21"/><path d="M29.83 69.75c4.3-.5 17.17-2 21.06-2.22M29.97 84.6c4.85-.55 15.12-1.5 21.16-1.97m15.39-60.24c1.35.48 2.84.61 4.12.44 5.23-.7 11.6-2.33 14.94-3.11 3.26-.76 5.42.53 3.92 4.53-1 2.66-6.38 14.46-8.85 17.98m0 .25c18.23 12.39 17.6 39.27 2.4 32.13"/><path d="M67.87 23.64c.87.87 1.57 2.23 1.57 3.44 0 .92.01 45.03.02 64.29v7.59"/></g><g style="font-size:8;fill:gray"><text transform="translate(14.25 28.63)">1</text><text transform="translate(25.5 12.5)">2</text><text transform="translate(3.5 44.24)">3</text><text transform="translate(49.5 13.63)">4</text><text transform="translate(21.75 71.5)">5</text><text transform="translate(40.5 51.5)">6</text><text transform="translate(32.5 66.13)">7</text><text transform="translate(32.5 81.13)">8</text><text transform="translate(68.5 19.5)">9</text><text transform="translate(85.5 44.5)">10</text><text transform="translate(59.5 30.5)">11</text></g></svg>