<svg xmlns="http://www.w3.org/2000/svg" width="109" height="109"><g style="fill:none;stroke:#000;stroke-width:3;stroke-linecap:round;stroke-linejoin:round"><path d="M32 15.74c.11 1.3-.34 2.3-.84 3.49-3.41 6.39-11.45 18.16-20.43 26.89m22.41-23.66C38.5 26 42.88 30.12 46.25 36m-28 7q2.265.54 4.53.12c4.06-.47 9.9-1.9 14.35-2.41 1.37-.15 2.74-.22 4.11-.22M11.59 56.81c2.5.54 5.01.51 7.56.2 6.35-.76 14.84-1.83 20.89-2.79 1.97-.48 3.97-.56 5.99-.24"/><path d="M28.95 45.44c.87.87.99 2.06.99 3.39 0 4.35.06 29.29.06 34.98m-15.36-15.8c3.63 4.85 5.66 9.36 6.4 12.19m22.69-18.65c0 1.08-.23 1.83-.96 2.75-1.75 2.21-3.25 4.4-8.6 9.23M13.25 90.42c1.67.96 3.22 1.04 4.64.24 4.96-2.26 9.93-4.6 23.86-10.91m7.88-55.57c2.88.5 5.75.43 8.64.01 9.11-1.32 17.48-2.57 27.23-3.1 2.83-.16 5.6-.42 8.38.06m-23.67 4.22c.9.9 1.26 2.51 1.26 4.54 0 14.62-.01 53.37-.01 58.34m1.82-34.77c3.97-.36 8.35-1.11 15.24-1.81 1.4-.14 2.74-.37 4.11-.12m-38.34-4.93c.86.86 1.08 2.01 1.08 3.67 0 7.72-.12 35.72-.12 39.22m-15.5.99c3.62 1.22 7.23 1.02 11 .66 13.62-1.29 21.88-1.79 36.13-2.1 4.5-.1 8.95.31 13.37 1.44"/></g><g style="font-size:8;fill:gray"><text transform="translate(23.5 15.5)">1</text><text transform="translate(37.5 22.5)">2</text><text transform="translate(24.75 39.48)">3</text><text transform="translate(4.5 57.5)">4</text><text transform="translate(21.5 52.33)">5</text><text transform="translate(6.75 68.5)">6</text><text transform="translate(35.5 63.5)">7</text><text transform="translate(5.5 93.5)">8</text><text transform="translate(47.5 21.5)">9</text><text transform="translate(60.5 33.5)">10</text><text transform="translate(75.5 49.5)">11</text><text transform="translate(47.5 42.5)">12</text><text transform="translate(39.5 87.5)">13</text></g></svg>