<svg xmlns="http://www.w3.org/2000/svg" width="109" height="109"><g style="fill:none;stroke:#000;stroke-width:3;stroke-linecap:round;stroke-linejoin:round"><path d="M29.25 16.99c0 .82.05 1.47-.14 2.45-.95 5.1-9.94 22.13-17.64 29.69m20.17-26.67C36.2 24.25 42.03 29 44.25 33.5M20 45c1.5 0 2.18.09 2.67.06 4.33-.32 11.08-2.31 16.43-3.26.73-.13.9-.05 2.15-.05M14.09 59.31c.59.33 2.56.48 3.17.43 5.49-.49 18.49-3.49 25.28-4.67.74-.13 1.38-.13 2.49.15"/><path d="M29.45 46.19c1.24.78 1.24 2.52 1.24 3.14 0 4.35.62 32.63.31 36.98m-14.61-16.3c3.19 4.76 4.75 9.91 5.4 12.69m21.5-18.65c.23.71.35 1.75.26 2.35-.23 1.54-3.55 7.36-6.13 11.88"/><path d="M14 91.25c1 1 3.42 1.68 4.5 1.25 1.25-.5 11.75-4.75 24.75-10.75M81.61 15c.06.34-.23 2.02-.61 2.37-5.32 4.86-10.03 7.3-20.66 12.09m-4.42-.71c1.07 1.51 1.35 2.95 1.47 4.59.46 6.06 1.86 29.16 2.41 37.15m-1.42-25.36c7.84-1.12 22.15-3.17 31.66-4.58 1.42-.21 3.91-.18 4.8 0m-13.17 4.26c.4 1.18.67 2.42.61 3.8-.28 6.64-.53 9.39-1.68 19.88m-31.29 2.97c1.07.29 3.06.43 4.12.29 4.35-.57 29.56-3.2 41.01-3.73 1.79-.08 2.86.14 3.76.29m-34.77 9.53c.05.45.21 1.29-.11 1.79-3.99 6.3-9.89 12.08-20.29 17.16m37.16-18.11c5.01 2.8 12.95 11.52 14.21 15.88"/></g><g style="font-size:8;fill:gray"><text transform="translate(21.5 16.85)">1</text><text transform="translate(36.66 21.85)">2</text><text transform="translate(25.5 41.5)">3</text><text transform="translate(6.5 59.5)">4</text><text transform="translate(23.5 54.5)">5</text><text transform="translate(8.5 70.5)">6</text><text transform="translate(35.5 66.5)">7</text><text transform="translate(6.6 93.85)">8</text><text transform="translate(73 16.53)">9</text><text transform="translate(47.5 36.2)">10</text><text transform="translate(61.5 40.5)">11</text><text transform="translate(71.5 51.5)">12</text><text transform="translate(47.5 68.5)">13</text><text transform="translate(51.5 81.5)">14</text><text transform="translate(71.5 85.5)">15</text></g></svg>