<svg xmlns="http://www.w3.org/2000/svg" width="109" height="109"><g style="fill:none;stroke:#000;stroke-width:3;stroke-linecap:round;stroke-linejoin:round"><path d="M34.25 16.49c0 .71.05 1.28-.15 2.14-1.05 4.47-11.56 19.38-20.13 25.99m21.92-22.91C40.72 23.7 47.9 28.99 50.25 34M21 42.76c1.97 0 2.86.12 3.5.07 5.68-.41 11.5-2.58 18.44-3.3.96-.1 1.18-.07 2.82-.07M16.09 56.81c.59.33 2.56.48 3.17.43 5.49-.49 17.24-2.99 25.78-4.67.73-.14 2.38-.13 3.49.15"/><path d="M32.45 44.19c1.24.78 1.24 2.52 1.24 3.14 0 4.35.31 27.42.31 36.48m-16.11-16.8c4.67 4.57 6.95 9.52 7.9 12.19m20.88-18.15c.33.84.5 2.06.37 2.76-.33 1.81-2.93 5.13-6.62 10.47"/><path d="M17 90.75c2 .5 2.94.23 4-.25 5-2.25 12.5-6.25 24.75-12.25m26.21-65.38c.09.26 1.26 1.35 1.26 2.99 0 11.14.24 20.07.24 22.76M54.27 20.91c3.21 2.22 8.29 9.13 9.09 12.58m27.15-16.27c.03.36.05 1.44-.05 1.96-.61 3.09-4.14 9.36-8.96 13.51m-23.39 5.92c.48.86 1.17 1.5 1.17 2.64s.18 35.94.18 36.52m.62-37.67c2.7-.14 23.79-2.47 26.25-2.65 2.05-.14 3.02 1.29 3 2.36-.08 4.44-.8 24.46-.79 37.04"/><path d="M60.04 51.19c4.47 0 9-.72 13.44-1.16 1.45-.15 2.9-.29 4.29-.43M60.26 62.71c4.25 0 8.52-.5 12.75-.86 1.28-.11 2.58-.21 3.85-.32M60.95 74.86c5.37 0 19.74-1.72 26.69-1.72m-24.26 6.51c.38 1.53.76 1.94 0 3.06-2.29 3.36-9.36 11.61-13.94 15.58m31.21-17.22c5.98 4.08 13.04 11.47 14.67 15.04"/></g><g style="font-size:8;fill:gray"><text transform="translate(27.75 18.13)">1</text><text transform="translate(40.5 21.5)">2</text><text transform="translate(28.5 39.13)">3</text><text transform="translate(15.5 54.05)">4</text><text transform="translate(25.5 51.5)">5</text><text transform="translate(11.25 69.13)">6</text><text transform="translate(39.75 63.5)">7</text><text transform="translate(10.5 95.5)">8</text><text transform="translate(63.5 13.5)">9</text><text transform="translate(49.5 17.5)">10</text><text transform="translate(80.5 16.5)">11</text><text transform="translate(49.5 46.5)">12</text><text transform="translate(63.75 37.63)">13</text><text transform="translate(63.75 48.05)">14</text><text transform="translate(63.75 59.98)">15</text><text transform="translate(63.75 71.9)">16</text><text transform="translate(51.75 85.33)">17</text><text transform="translate(72.75 85.63)">18</text></g></svg>