<svg xmlns="http://www.w3.org/2000/svg" width="109" height="109"><g style="fill:none;stroke:#000;stroke-width:3;stroke-linecap:round;stroke-linejoin:round"><path d="M29.75 14.74c0 .73.05 1.31-.13 2.18-.95 4.55-9.94 19.72-17.64 26.45m18.91-22.66c4.65 1.91 10.6 6.98 12.86 11.79m-25.25 8c1.58 0 2.29.09 2.81.06 4.56-.31 9.82-1.53 15.19-1.75.78-.03.94-.05 2.26-.05M13.59 55.31c.59.33 2.56.48 3.17.43 5.49-.49 15.74-2.49 22.78-2.67.75-.02 2.38-.13 3.49.15"/><path d="M27.95 42.19c1.24.78 1.24 2.52 1.24 3.14 0 4.35.62 35.13.31 39.48M14.39 66.76c4.37 4.66 6.51 9.71 7.4 12.44m20.33-17.65c.37.77.56 1.9.41 2.55-.37 1.67-3.26 4.75-7.36 9.67"/><path d="M14 90.25c1.25 1 2.75.75 4.5.25 1.29-.37 11.25-5.75 24.25-11.75m26-64.5c.83.4 2.01 1.42 2 2.57-.06 3.62-.06 7.53-.06 10.83m-18.04-.84c0 3.12-2.53 12.15-3.51 14.24m4.6-11.28c.87.07 30.88-3.08 35.3-3.13 9.64-.12-.62 7.65-1.73 8.38m-26.99 6.04c.14 1.33-.04 3.08-.5 4.22-2.93 7.28-6.35 13.81-13.07 22.67m9.47-9.61c1.03.91 1.13 2.09 1.16 3.14.32 9.11-.62 29.87-.33 35.2m9.88-50c1.03.46 2.91.46 3.95.46 4.2-.02 14.51-1.93 22.46-2.47 1.71-.12 2.75.22 3.61.45m-16.02 3.96c.28.34.32.75.25 1.05-.39 1.74-1.28 4.58-4.59 9.56m-8.03.57c.4.93.68 1.4.8 2.63.7 7.49.02 27.14.18 33.24"/><path d="M69.16 62.16c2.25-.16 18.68-2.61 20.73-2.79 1.71-.16 2.81 1.04 2.68 1.95-.27 1.86-.33 24.1-.54 33.98"/><path d="M69.75 77.12c9.33-1.03 15.46-1.8 22.35-2.32M70.2 93.11c7.4-.62 14.65-1.62 21.61-1.63"/></g><g style="font-size:8;fill:gray"><text transform="translate(22.5 15.5)">1</text><text transform="translate(35.5 20.5)">2</text><text transform="translate(23.5 37.5)">3</text><text transform="translate(7.54 56.85)">4</text><text transform="translate(22.5 49.5)">5</text><text transform="translate(7.5 66.85)">6</text><text transform="translate(35.5 62.5)">7</text><text transform="translate(6.5 92.5)">8</text><text transform="translate(60.5 14.5)">9</text><text transform="translate(45.5 24.5)">10</text><text transform="translate(55.5 26.5)">11</text><text transform="translate(49.5 48.8)">12</text><text transform="translate(46.5 74.5)">13</text><text transform="translate(64.5 44.5)">14</text><text transform="translate(71.25 54.5)">15</text><text transform="translate(61.25 67.5)">16</text><text transform="translate(68.5 59.93)">17</text><text transform="translate(71.5 73.5)">18</text><text transform="translate(72.5 89.5)">19</text></g></svg>