<svg xmlns="http://www.w3.org/2000/svg" width="109" height="109"><g style="fill:none;stroke:#000;stroke-width:3;stroke-linecap:round;stroke-linejoin:round"><path d="M30.25 13.74c0 .8.05 1.43-.16 2.39-1.09 4.99-11.48 21.62-20.37 29m22.17-25.17C36 21.75 41.25 26.5 43.25 31M19 41.5c1.5 0 2.18.09 2.67.06C26 41.24 33.5 39.03 38.6 38.8c.74-.03.9-.05 2.15-.05M13.59 55.81c.59.33 2.56.48 3.17.43 5.49-.49 15.99-1.99 23.28-3.17.74-.12 2.38-.13 3.49.15"/><path d="M28.45 41.19c1.24.78 1.24 2.52 1.24 3.14 0 4.35.12 35.13-.19 39.48m-14.36-18.3c3.63 5.13 5.41 10.69 6.15 13.69m19.95-19.15c.27.85.41 2.09.3 2.82-.27 1.85-2.38 5.23-5.38 10.66"/><path d="M12 89.33c1.29.88 2.85.66 4.66.22 1.34-.32 11.64-5.04 25.09-10.3m4.41-56.68c1.17.43 2.54.51 3.72.43 10.81-.78 30.54-4.31 43-4.37 1.96-.01 3.14.2 4.12.41"/><path d="M59.91 12.7c.95.86 1.25 1.12 1.36 1.65.95 4.96.76 11.07 1.03 12.87m17.68-16.94c.17.85.39 1.48.2 2.52-1.1 6.11-1.1 8.17-2.29 13.93m-28.63 6.74c.26.22.52.4.64.68.9 2.18 1.97 8.19 2.59 12.1m-1.62-11.81c5.3-1.14 11.76-1.93 14.79-2.21 1.11-.11 1.78.62 1.62 1.23-.78 3.02-1.55 6.12-2.4 9.18m-12.27 1.7c3.57-.32 8.52-.85 13.42-1.35m6.82-12.09c.28.25.56.46.68.77.96 2.48 2.1 7.8 2.76 12.26m-1.72-11.35c5.64-1.29 12.51-2.21 15.74-2.54 1.18-.12 1.89.71 1.72 1.41-.7 2.9-1.52 4.86-2.56 8.87m-13.06 1.94c3.8-.37 9.03-1.01 14.24-1.57M56.58 50.5c.13.96-.04 2.21-.46 3.02-2.71 5.22-6.15 9.63-12.37 15.98"/><path d="M52.83 58.71c.59.56 1.04 1.8 1.08 2.67.35 7.78-.48 32.82-.19 36.87m21.7-50.5c.05.47-.01 1.09-.17 1.49-.96 2.56-2.18 4.54-4.38 7.67m-17.12 2.35c6.83-.76 37.34-2.96 40.27-3.38m-21.13 3.83c.33.3.59.7.59 1.22 0 5.22.04 22.39-.16 30.6"/><path d="M54.66 70.67c6.45-.63 34.29-2.97 37.05-3.31M54.44 81.27c6.8-.53 34.77-2.62 37.69-2.91M53.88 93.28c6.83-.76 41.62-2.24 44.56-2.65"/></g><g style="font-size:8;fill:gray"><text transform="translate(22.5 12.5)">1</text><text transform="translate(35.5 20.5)">2</text><text transform="translate(23.5 38.5)">3</text><text transform="translate(6.5 56.85)">4</text><text transform="translate(22.5 49.5)">5</text><text transform="translate(8.5 66.85)">6</text><text transform="translate(33.63 63.85)">7</text><text transform="translate(4.5 91.5)">8</text><text transform="translate(44.5 19.5)">9</text><text transform="translate(52.5 10.5)">10</text><text transform="translate(71.5 7.5)">11</text><text transform="translate(42.5 40.5)">12</text><text transform="translate(51.5 31.5)">13</text><text transform="translate(53.5 41.5)">14</text><text transform="translate(67.5 41.5)">15</text><text transform="translate(80.5 28.5)">16</text><text transform="translate(77.5 39.5)">17</text><text transform="translate(45.5 53.5)">18</text><text transform="translate(42.25 75.28)">19</text><text transform="translate(65.25 49.2)">20</text><text transform="translate(60.5 56.5)">21</text><text transform="translate(76.5 65.13)">22</text><text transform="translate(57.5 67.5)">23</text><text transform="translate(57.5 78.13)">24</text><text transform="translate(57.5 90.13)">25</text></g></svg>