<svg xmlns="http://www.w3.org/2000/svg" width="109" height="109"><g style="fill:none;stroke:#000;stroke-width:3;stroke-linecap:round;stroke-linejoin:round"><path d="M17.89 15.29c.73.46 2.28 3.48 2.43 4.4.15.93-.09 70.64-.24 76.44m.44-79.55c2.44-.1 18.77-2.16 20.99-2.28 1.85-.1 2.81.91 2.9 1.71.14 1.23-.06 12.76-.39 21.01-.04.91-.14 1.31-.14 1.91"/><path d="M20.95 27.39c3.8-.37 7.59-.81 11.38-1.26.98-.12 1.96-.23 2.93-.35m-14.74 13.2c8.11-1.15 15.89-2.03 23.06-2.56m20.36-22.91c.44.55.88 1.74.88 2.48s-.29 20.31-.29 20.67.14.37.29 1.11m.73-23.11c2.49-.11 19.71-2.79 21.99-2.92 1.9-.11 2.98 1.15 2.97 1.8-.49 19.46-.5 64.29-.5 78.4 0 6.88-5.76 3.06-8.9.36"/><path d="M64.99 24.72c5.13 0 6.27-.45 11.38-.86 1.35-.11 2.64-.22 3.82-.32M65.55 36.26C71.5 36 82.15 34.7 88.6 34.7m-40.84 8.8c.04.42.07 1.09-.07 1.69-.85 3.57-5.7 11.41-12.35 16.2m11.54-12.83c.24.02 1.27 0 1.96-.07 2.27-.22 9.28-1.1 12.52-1.77 2.22-.46 2.85.53 2.29 1.79-3.11 6.88-16.76 22.8-30.72 27.33"/><path d="M44.81 51.87c4.13 3.41 22.84 16.39 28.4 19.51 1.66.93 3 1.38 4.62 1.66m-35.34 3.93c.25.26.51.48.62.81.88 2.6 1.93 9.76 2.53 14.43m-1.57-14.06c5.75-1.16 16.19-2.27 19.17-2.61 1.08-.12 1.74.74 1.58 1.47-.64 3.04-1.39 7.29-2.35 11.48m-16.71 2.02c3.49-.39 12.99-1.05 17.78-1.65"/></g><g style="font-size:8;fill:gray"><text transform="translate(13.5 24.5)">1</text><text transform="translate(21.5 13.5)">2</text><text transform="translate(24.75 24.5)">3</text><text transform="translate(24.75 35.5)">4</text><text transform="translate(57.75 21.5)">5</text><text transform="translate(65.5 11.5)">6</text><text transform="translate(69.75 22.5)">7</text><text transform="translate(69.75 33.5)">8</text><text transform="translate(39.5 48.5)">9</text><text transform="translate(50.5 45.5)">10</text><text transform="translate(42.75 62.75)">11</text><text transform="translate(33.5 85.18)">12</text><text transform="translate(48.5 74.5)">13</text><text transform="translate(47.5 87.05)">14</text></g></svg>