<svg xmlns="http://www.w3.org/2000/svg" width="109" height="109"><g style="fill:none;stroke:#000;stroke-width:3;stroke-linecap:round;stroke-linejoin:round"><path d="M17.63 22.34c.85.14 2.13.21 3.63-.01C27 21.5 34.92 20 37.39 19.18c3.16-1.05 5.83 1.05 4.42 3.51S32.43 37.1 29.97 40.61m0 .54C46.75 49 43.75 77 31.73 70.72"/><path d="M20.37 23.25c.38 1 .24 2.25.46 3.25s0 62.25-.22 68.5m32.35-72.41c.59 1.03.98 2.05 1.18 3.06s.43 61.08.36 63.31m.8-65.23c2.27-.1 23.12-2.98 24.81-3.16 3.03-.31 4.18 3.51 3.81 4.98-.36 1.41-.18 39.21-.29 59.39"/><path d="M55.38 44.9c4.66-.6 8.82-.64 13.49-1.13 1.25-.13 2.49-.26 3.7-.37M55.84 65.36c4.28-.25 8.54-.68 12.81-1.02 1.24-.1 2.48-.2 3.71-.29M42.04 90.07c1.17.43 3.32.5 4.49.43 12.2-.73 34.72-2.91 47-2.91 1.95 0 3.13.21 4.1.42"/></g><g style="font-size:8;fill:gray"><text transform="translate(23.25 18.13)">1</text><text transform="translate(27.5 50.5)">2</text><text transform="translate(14.25 31.63)">3</text><text transform="translate(47.25 30.5)">4</text><text transform="translate(57.5 20.5)">5</text><text transform="translate(59.45 41.5)">6</text><text transform="translate(59.5 62.42)">7</text><text transform="translate(39.5 86.9)">8</text></g></svg>