<svg xmlns="http://www.w3.org/2000/svg" width="109" height="109"><g style="fill:none;stroke:#000;stroke-width:3;stroke-linecap:round;stroke-linejoin:round"><path d="M17 17.5c.98.49 2.07 1 3.2.88 6.05-.63 9.48-1.75 11.94-2.67 3.06-1.15 6.12 1.15 4.76 3.83s-8.13 16.71-10.51 20.55m-.01 0c13.59 9.58 14.93 42.33 2.7 37.34"/><path d="M18.04 19.53c.21 1.22.28 2.59.5 3.74s0 66.3-.22 73.49M63.6 12.25c.07.8.31 2.14-.14 3.21-2.86 6.82-10.94 21.15-24.48 30.77m24.8-30.87c4.12 4.9 21.88 20.89 26.43 24.48 1.54 1.22 3.52 1.74 5.07 2.08m-43.6.43c.67.29 1.9.3 2.57.29 5.99-.14 17.49-2.39 21.44-3.16 1.1-.21 1.79.14 2.35.28M43.47 53.43c.27.29.54.52.66.88.93 2.83 2.45 10.65 3.09 15.74m-2.5-15.12c6.78-1.29 13.05-2.19 16.18-2.56 1.15-.14 1.83.81 1.67 1.61-.68 3.31-1.47 8.15-2.48 12.73m-12.75 1.7c3.68-.42 9.67-.65 14.73-1.29m8.62-15.87c.27.27.55.5.67.84.95 2.69 2.08 10.11 2.73 14.95m-1.69-14.4c5.71-1.03 12.4-1.64 15.6-2 1.17-.13 1.88.77 1.71 1.52-.69 3.14-1 7.38-2.04 11.73m-13.44 2.1c3.76-.4 10.45-1.09 15.62-1.7m-36.73 9.17c.18.98.12 1.91-.13 2.54-2.13 5.53-7 12.84-15.72 19.5m16.14-16.16c3.39 1.79 7.71 6.55 9.36 11.06m15.46-18.14c.15 1.01.1 1.97-.11 2.62C76.34 80.58 72.28 88.13 65 95m13.95-14.51c4.83 2.16 10.99 7.91 13.34 13.36"/></g><g style="font-size:8;fill:gray"><text transform="translate(19.5 15.5)">1</text><text transform="translate(22.5 48.5)">2</text><text transform="translate(11.5 26.5)">3</text><text transform="translate(55.5 13.5)">4</text><text transform="translate(69.5 18.5)">5</text><text transform="translate(54.5 40.5)">6</text><text transform="translate(39.5 62.5)">7</text><text transform="translate(46.5 51.5)">8</text><text transform="translate(49.5 65.5)">9</text><text transform="translate(63.5 60.5)">10</text><text transform="translate(72.5 48.5)">11</text><text transform="translate(75.5 62.5)">12</text><text transform="translate(41.5 79.5)">13</text><text transform="translate(56.25 81.15)">14</text><text transform="translate(67.5 76.58)">15</text><text transform="translate(81.5 80.5)">16</text></g></svg>