<svg xmlns="http://www.w3.org/2000/svg" width="109" height="109"><g style="fill:none;stroke:#000;stroke-width:3;stroke-linecap:round;stroke-linejoin:round"><path d="M14.87 16.16c1.34.52 2.62 1.06 3.84.9 4.29-.56 9.91-1.53 13.43-2.85 3.06-1.15 6.12 1.15 4.76 3.83s-7.63 16.71-10.01 20.55m-.01 0c13.59 9.58 10.12 41.91.7 32.84"/><path d="M17.04 17.03c-.04.97 0 2.97 0 4.24 0 1.17 0 69.3-.22 76.49M82.4 10.43c.1.25.2.64-.19 1-2.33 2.11-15.68 6.74-33.96 9.57m.97 3.18c.02.27.05.69-.05 1.07-.58 2.26-3.89 7.22-8.42 10.25m22.46-12.88c2.22 1.44 5.74 5.9 6.29 8.13m11.21-10.63c4.43 1.88 11.44 7.72 12.54 10.63m-44.24 5.41c.62.37 2.64.49 3.27.38 2.91-.5 24.48-2.83 29.37-3.21.96-.08 1.82.07 2.61.39"/><path d="M65.71 35.15c.46.58.46.92.46 1.38 0 3.22-.01 4.72-.01 6.87m-19.69 1.95c.52.18 2.4.37 3.28.29 9.57-.89 24.74-2.89 33.27-3.8 1.42-.15 3.14.3 3.86.59m-36.94 9.62c1.06.7 2.65.5 4.29.36 7.27-.65 18.68-1.9 26.54-2.32 1.48-.08 2.93.89 2.58 2.68-.94 4.68-1.61 6.47-2.86 14.52"/><path d="M42.25 61.37c1.62.12 2.89.35 4.69.24 15.7-.96 31.1-3.63 43.55-3.99 1.99-.06 3.61.24 4.51.36M49.01 70.24c.89.11 2.51.39 3.58.33 9.83-.54 17.85-1.92 26.79-2.13 1.43-.04 2.32 0 3.4.11M44.05 82.63c.25 1.86-2.53 10.07-4.55 13.17m13.08-16.98C57.25 93.75 67.25 99.75 82 98.75c8.48-.58 9.06-2.83 1.97-7.65"/><path d="M66.86 77.82c1.69 5.25 5.66 11.5 7.47 3.46m9.56-4.48c4.98 1.67 8.72 3.19 12.77 8.36"/></g><g style="font-size:8;fill:gray"><text transform="translate(18.5 13.5)">1</text><text transform="translate(23.5 47.5)">2</text><text transform="translate(10.25 24.5)">3</text><text transform="translate(74.5 9.5)">4</text><text transform="translate(40.5 28.5)">5</text><text transform="translate(57.5 27.5)">6</text><text transform="translate(74.5 25.5)">7</text><text transform="translate(50.5 33.5)">8</text><text transform="translate(59.75 42.5)">9</text><text transform="translate(36.5 45.5)">10</text><text transform="translate(41.5 52.5)">11</text><text transform="translate(39.5 58.5)">12</text><text transform="translate(39 71.5)">13</text><text transform="translate(35.5 80.5)">14</text><text transform="translate(47.5 89.5)">15</text><text transform="translate(58 82.5)">16</text><text transform="translate(78.25 83.5)">17</text></g></svg>