<svg xmlns="http://www.w3.org/2000/svg" width="109" height="109"><g style="fill:none;stroke:#000;stroke-width:3;stroke-linecap:round;stroke-linejoin:round"><path d="M26.63 17.47c2.66.84 6.28.43 9 .1C47.75 16.12 59 15.25 75 14.1c2.94-.21 5.96-.42 8.87.13m-55.54 15.5c1.26.27 3.17.82 5.64.55C48.25 28.75 62 27 73.25 26.22c4.64-.32 6.75 1.15 5.71 4.39-1.06 3.27-1.16 4.09-2.65 9.17m-43.66 5.47c7.54-.66 28.59-3.1 41.11-4.38 1.76-.18 3.35-.09 4.74-.23m-47.48-9.96c1.28 1.28 1.48 3.03 1.39 5.15C31.38 60.12 25.75 81.25 13 93m35.12-45.25c.18 1.28-.3 2.7-.87 3.79-3.64 6.97-8.26 12.37-16.62 20.85m12.29-11.57c.57.57.92 1.37.92 2.16 0 5.35.01 20.01.01 30.15v5.88M68 45.25c.06.64-.02 1.48-.2 2.02-.95 2.78-2.35 5.05-4.16 8m-20.08 4.34c6.42-.62 28.23-2.82 38.44-3.88 2.54-.27 4.36-.46 5.05-.55M63.79 58.8c.71.71.95 1.58.95 2.99 0 5.34-.11 21.19-.11 30.09"/><path d="M44.99 69.92c6.27-.53 24.57-1.89 32.53-2.54 1.65-.14 2.86-.24 3.42-.3m-36.87 14.6c6.48-.44 24.19-1.9 32.46-2.59 1.92-.16 3.33-.28 3.97-.33M44.97 94.43c6.33-.61 27.85-2.22 38.68-2.97 1.9-.13 3.82-.21 5.72-.44"/></g><g style="font-size:8;fill:gray"><text transform="translate(20.25 16.63)">1</text><text transform="translate(32.25 27.5)">2</text><text transform="translate(38.25 41.98)">3</text><text transform="translate(23.25 39.13)">4</text><text transform="translate(38.25 54.13)">5</text><text transform="translate(36.75 76.55)">6</text><text transform="translate(61.5 50.5)">7</text><text transform="translate(52.5 55.5)">8</text><text transform="translate(57.5 65.5)">9</text><text transform="translate(47.25 67.4)">10</text><text transform="translate(47.25 79.33)">11</text><text transform="translate(47.25 91.25)">12</text></g></svg>