<svg xmlns="http://www.w3.org/2000/svg" width="109" height="109"><g style="fill:none;stroke:#000;stroke-width:3;stroke-linecap:round;stroke-linejoin:round"><path d="M23.703 8.736c6.6.663 13.254-.294 19.842-.529 12.165-.664 24.328-1.495 36.583-1.685a82 82 0 0 1 4.608.187m-72.46 11.692c2.883 1.796 2.162 4.18 2.908 6.274 1.102 6.003 2.002 12.02 2.388 18.042m-2.23-22.78c26.171-.992 52.334-2.071 78.496-3.083 4.1-.042 4.458 2.098 3.849 3.485-.792 7.403-2.702 14.824-6.955 21.987-1.233 2.328-6.009.576-7.742-.63a44 44 0 0 0-1.32-.643"/><path d="M53.244 9.315c3.116 1.525 1.571 3.755 1.904 5.626-.14 9.003-.277 18.006-.51 27.008M29.555 24.672c4.53.654 8.886 1.673 12.541 3.072m-13.098 4.735c4.93.892 9.243 2.453 13.098 4.095m27.457-14.267c5.066.974 9.756 2.347 14.068 3.901m-13.656 5.119c4.532.96 8.702 2.368 12.262 3.967M24.006 50.936c8.703.688 17.409-.549 26.108-.787 12.095-.543 24.193-1.455 36.304-1.31q1.158.046 2.314.117M13.924 64.633c8.303.83 16.611-.555 24.909-.888 17.556-1.09 35.126-2.313 52.722-2.365q2.749.066 5.489.291m-49.37 2.835c1.334 3.303-3.415 5.14-5.09 7.43-3.58 1.697-.508 5.062 2.448 3.657 8.867-1.151 17.691-2.687 26.557-3.794 5.535-.112 2.139 6.297.434 8.82-3.083 4.876-6.665 9.656-11.342 13.101-3.992 2.48-8.8.702-12.507-1.408"/></g><g style="font-size:8;fill:gray"><text transform="translate(17.3 11.2)">1</text><text transform="translate(6.25 24.5)">2</text><text transform="translate(15.5 18)">3</text><text transform="translate(47 16)">4</text><text transform="translate(23 28)">5</text><text transform="translate(23 38)">6</text><text transform="translate(63 26.3)">7</text><text transform="translate(63 36.3)">8</text><text transform="translate(16.6 53)">9</text><text transform="translate(9.3 62.4)">10</text><text transform="translate(30 72.6)">11</text></g></svg>