<svg xmlns="http://www.w3.org/2000/svg" width="109" height="109"><g style="fill:none;stroke:#000;stroke-width:3;stroke-linecap:round;stroke-linejoin:round"><path d="M30.66 13.25c1.56.06 4.43.25 5.94.17C44.25 13 66 11 72.88 10.44c2.12-.17 2.73-.16 4.68.11M19.18 22.17c-.26 4.68-2.57 9.86-4.28 14.59m4.45-11.94c7.4-1.02 52.84-4.84 68.55-4.84 9.1 0 1.17 6.33-.28 7.93"/><path d="M52.42 15.32c.91 1.36 1.31 2.26 1.33 3.6.01.48-.27 23.77-.27 25.09M32.5 28.95c2.99.85 7.08 3.38 8.71 4.79m-11.46 3.52c3 .92 7.63 4.29 9.27 5.82m27.73-17.07c3.96 1.28 8.44 3.84 10.03 4.91m-10.99 3.81c2.99.96 7.07 3.86 8.7 5.46m-53.86 7.08c3.57 1.13 9.22 4.63 10.12 6.39m-16 8.88c3.62 1.21 9.34 4.98 10.25 6.87m-10.75 26c1.38.95 3.04.99 3.9-.18 2.53-3.41 8.05-13.57 10.35-17.92m54.45-35.42c.11.25.23.65-.22 1.02-2.63 2.14-17.74 6.83-38.43 9.71m1.98 4.72c.03.32.17.86-.06 1.27-1.74 3.14-4.71 7.46-10.42 12.15m24.47-16.22c2.31 1.56 5.96 6.41 6.54 8.83m10.21-12.29c6.28 3.05 16.22 12.56 17.79 17.31m-12.27-5.28c.1.26.4.76-.21 1.06-7.58 3.73-18.79 7.15-38.55 10.16m-8.6 9.48c1.25.5 3.53.58 4.78.5 12.96-.84 35.68-3.82 50.51-3.78 2.08 0 3.32.24 4.36.49"/><path d="M63.69 72.24c.56.76 1.75 2.61 1.75 3.12 0 5.69 0 17.86-.19 20.98m-23.18 2.29c.93.36 2.64.39 3.58.36 12.34-.43 28.62-2.55 41.65-2.51 1.56 0 2.49.17 3.27.35"/></g><g style="font-size:8;fill:gray"><text transform="translate(33.85 8.85)">1</text><text transform="translate(12.5 26.5)">2</text><text transform="translate(22.5 22.5)">3</text><text transform="translate(45.54 20.5)">4</text><text transform="translate(26.5 32.5)">5</text><text transform="translate(22.5 39.85)">6</text><text transform="translate(59.63 29.5)">7</text><text transform="translate(58.5 37.5)">8</text><text transform="translate(12.5 47.5)">9</text><text transform="translate(4.25 62.5)">10</text><text transform="translate(4.25 96.5)">11</text><text transform="translate(64.5 45.5)">12</text><text transform="translate(35.25 59.5)">13</text><text transform="translate(52.25 60.5)">14</text><text transform="translate(70.5 57.58)">15</text><text transform="translate(70.5 64.5)">16</text><text transform="translate(33.5 80.5)">17</text><text transform="translate(55.25 79.5)">18</text><text transform="translate(31.5 98.5)">19</text></g></svg>