<svg xmlns="http://www.w3.org/2000/svg" width="109" height="109"><g style="fill:none;stroke:#000;stroke-width:3;stroke-linecap:round;stroke-linejoin:round"><path d="M28.44 10.27c.4.38 1.06 1.69.91 2.56-1.45 8.32-3.09 13.67-4.88 20.32"/><path d="M14.58 20.53c.73.62 1.73.8 2.34.78 9.33-.3 21.94-2.47 22.81-2.5 1.46-.05 2.24 1.38 2.05 2.44-.73 4.12-1.52 8.75-2.11 11.35M8.19 34.72c.75.26 2.59.24 3.34.16 5.71-.63 20.54-1.21 34.9-2.43 1.24-.1 2.47.05 3.09.16M15.73 42.99c.2.34.4.62.49 1.06.69 3.43 1.7 5.87 2.33 11.98M16.43 44.1c6.27-.79 20.84-2.39 23.47-2.64 1.91-.18 2.49 1.09 2.22 2.1-.5 1.89-1.64 6.09-2.04 8.42m-20.92 1.68c4.08-.53 16.94-1.15 22.89-1.52M14.51 64.63c.56.27 2.6.33 3.16.32 5.47-.08 16.84-1.96 24.9-2.97.92-.12 1.48.15 1.95.29M19.2 65.78c0 4.15-.17 8.82-.17 12.57m-8.91 1.35c.9.39 2.55.49 3.45.44 10.42-.64 17.25-2.14 31.34-3.03 1.5-.09 2.4.22 3.15.43"/><path d="M32.15 55.89c.35.4 1.09 3.04 1.16 3.86s-.04 35.46-.12 40.6M86.51 9.93c.09.34.19.87-.19 1.36-2.23 2.86-15.04 9.14-32.57 12.99m3.62 3.36c.03.45.05 1.16-.05 1.81-.6 3.81-4.07 12.18-8.82 17.3m19.45-21.78c3.5 2.99 9.04 12.3 9.92 16.95m5.63-19.1c5.29 3.19 13.68 13.13 15 18.1m-31.56 6.19c.04.34.15.98-.07 1.34-2.85 4.79-6.18 9.05-12.67 12.86m-1.67-.99c.65.72.91 2.33 1.08 3.8.59 5.38 2.44 25.42 3.04 32.7m-1.54-20.95c3.21-.33 12.09-2.64 12.85-2.64h2.45m5.39-17.02c.83.16 1.49.49 2.65.49s13.41-1.96 14.74-2.13c1.33-.16 2.42.81 2.32 1.8-.99 9.49-4.81 37.98-4.98 38.64"/><path d="M76.6 71.58c.84.16 1.51.49 2.68.49s13.24-1.31 14.58-1.47M56.8 94.03c1.99 0 31.59-2.13 33.88-2.29"/></g><g style="font-size:8;fill:gray"><text transform="translate(19.5 9.5)">1</text><text transform="translate(7.75 20.5)">2</text><text transform="translate(1.5 34.5)">3</text><text transform="translate(9.5 48.5)">4</text><text transform="translate(18.5 41.33)">5</text><text transform="translate(21.5 51.25)">6</text><text transform="translate(13.5 61.5)">7</text><text transform="translate(11.5 72.5)">8</text><text transform="translate(3.5 81.5)">9</text><text transform="translate(22.5 61.5)">10</text><text transform="translate(74.5 9.5)">11</text><text transform="translate(46.5 30.5)">12</text><text transform="translate(62.5 34.5)">13</text><text transform="translate(77.75 31.5)">14</text><text transform="translate(55.5 48.5)">15</text><text transform="translate(43.5 69.5)">16</text><text transform="translate(57.5 71.5)">17</text><text transform="translate(72.5 53.5)">18</text><text transform="translate(73.5 68.5)">19</text><text transform="translate(59.5 90.5)">20</text></g></svg>