<svg xmlns="http://www.w3.org/2000/svg" width="109" height="109"><g style="fill:none;stroke:#000;stroke-width:3;stroke-linecap:round;stroke-linejoin:round"><path d="M16.2 35.65c1.92.6 4.5.28 6.22-.01 5.2-.89 12.33-2.14 19.04-3.69.89-.21 2.61-.26 3.36.04m-13.98 5.13c.83.83 1.07 2 1.07 3.64 0 6.12-.03 21.8-.03 26.62"/><path d="M17.17 73.54c1.2.83 2.29.89 3.71.21 6.24-3 13.87-7 21.73-10.93m3.91-44.78c2.85.58 5.46.28 7.99.02 9.49-.99 21.01-2.59 30.87-3.16 2.51-.15 4.89-.14 7.36.39m-25.17 4.02c.1.66 0 1.28-.31 1.85-1.04 2.7-2.6 6-4.93 9.08m-8.6 2.12c.83.83.95 2 .95 3.33 0 .86-.03 22.65-.04 33.3v5.25m.86-40.09c6.4-.95 19.77-2.82 25.63-3.55 3.72-.46 5.07-.13 5.08 3.9 0 4.57.02 22.01.03 31.38v5.75"/><path d="M55.96 46.64C63 45.25 79.1 43.16 85.03 42.8m-29.2 16.09c6.38-.84 21.55-3.12 29.12-3.59M55.72 71.9c10.28-1.15 21.31-2.55 29.37-3.05M61.3 80.74c.32 1.13-.1 2.19-.98 3.39-2.87 3.92-9.7 9.12-18.15 14.37m37.98-19.96c6.63 4.35 14.97 14.26 16.78 18.07"/></g><g style="font-size:8;fill:gray"><text transform="translate(9.75 36.13)">1</text><text transform="translate(23.5 45.5)">2</text><text transform="translate(9.75 78.5)">3</text><text transform="translate(39.5 18.5)">4</text><text transform="translate(59.5 25.5)">5</text><text transform="translate(47.25 41.5)">6</text><text transform="translate(54.75 31.63)">7</text><text transform="translate(59.25 43.55)">8</text><text transform="translate(59.25 55.48)">9</text><text transform="translate(59.25 68.5)">10</text><text transform="translate(50.25 83.83)">11</text><text transform="translate(71.25 84.13)">12</text></g></svg>