<svg xmlns="http://www.w3.org/2000/svg" width="109" height="109"><g style="fill:none;stroke:#000;stroke-width:3;stroke-linecap:round;stroke-linejoin:round"><path d="M27.87 25.08c.01 1.04.02 2.05-.43 3C23.91 35.58 17.7 44 11.2 48.81M36.98 23C42 26.25 49.5 37.5 52.02 44.42m-33.69 5.87c1.92.33 3.51.4 5.06.08 6.45-1.33 14.86-3.14 18.21-3.58 2.42-.32 3.5.96 3.37 3.19-.35 5.9-3.97 26.52-8.48 34.42-4.18 7.32-5.99 2.98-7.46.77"/><path d="M29.25 53.27c.05.69.16 1.82-.1 2.78-2.86 10.7-7.4 20.32-16.15 28.05m42.19-65.76c1.49.86 4.32.79 5.95.53 10.12-1.62 17.62-2.24 26.24-2.78 2.31-.14 5.19-.35 7.41.43M74.68 20.4c.11.71-.01 1.38-.37 2-.99 2.5-1.87 4.96-4.65 9.24m-9.63 1.75c.98.98 1.18 2.07 1.18 3.46 0 1.1-.03 26.52-.03 37.4 0 2.83-.04 4.66-.04 4.8m.61-44.02c7.5-1.16 23.81-3.31 26.28-3.52 2.06-.17 3.68 1.93 3.51 3.22-.17 1.28.14 26.12.07 37.27-.02 3.06-.03 5.1-.03 5.32"/><path d="M62.21 48.74c8.29-1.04 22.16-2.38 27.96-2.76M62.18 62.29c7.09-1.04 20.81-2.3 28.21-2.79M62.13 75.83c8.58-1.02 20.58-1.94 28.47-2.46m-23.35 7.76c.25 1.24-.11 2.05-1 2.94C63.58 86.75 56 91.75 49.3 95.25m34.32-13.37c5.21 3.43 11.36 9.66 12.78 12.67"/></g><g style="font-size:8;fill:gray"><text transform="translate(19.5 24.5)">1</text><text transform="translate(35.25 20.13)">2</text><text transform="translate(23.25 47.5)">3</text><text transform="translate(21.5 59.5)">4</text><text transform="translate(53.5 15.13)">5</text><text transform="translate(66.5 25.5)">6</text><text transform="translate(53.5 41.5)">7</text><text transform="translate(63.5 31.5)">8</text><text transform="translate(65.25 45.05)">9</text><text transform="translate(65.25 58.48)">10</text><text transform="translate(65.25 72.5)">11</text><text transform="translate(52.5 86.5)">12</text><text transform="translate(75.75 88.5)">13</text></g></svg>