<svg xmlns="http://www.w3.org/2000/svg" width="109" height="109"><g style="fill:none;stroke:#000;stroke-width:3;stroke-linecap:round;stroke-linejoin:round"><path d="M30.75 18c0 1-.23 1.88-.61 2.85-2.64 6.65-8.39 17.03-18.87 26.86M32 22.75c6 4 10.62 9.25 13.92 14.62m-18.57 3.24c2.59 1.4 6.68 5.74 7.33 7.91m-20.07 11.6c1.14.51 2.83.51 3.77.34 1.87-.34 21.29-4.76 23.27-5.1 1.97-.34 2.9 1.5 1.55 3.37-3.7 5.15-8.45 12.02-13.15 18.09m-7.9-4.01C25.4 74.61 32.25 81 34.85 86m14.27-67.97c2.01.47 5.15.32 7.01.11 9.52-1.09 23.68-2.87 32.75-3.66 2.32-.2 4.49-.44 6.76.2m-24.45 5.81c.04.87-.04 1.72-.27 2.56-1.3 2.95-2.42 6.45-4.55 10.83m-10.21 1.01c.85.85 1.44 2.28 1.44 3.65 0 1.08-.1 24.43-.06 34.97.01 2.8.03 4.68.06 4.97m.56-42.23c2.74-.17 24.04-2.73 26.53-2.93 2.08-.17 3.54 1.06 3.54 3.15 0 2.82-.05 20.59-.05 35.03v4.99"/><path d="M58.86 48.7c7.14-.95 22.37-2.84 28.23-3.21M58.58 61.98c9.54-1.36 21.25-2.25 28.73-2.73m-28.52 16.5c8.46-.75 20.51-2.16 28.48-2.67m-22.5 9.21c0 .96-.23 1.8-1 2.74-3.02 3.72-8.52 7.72-15.17 11.47m32.79-13.96c5.7 3.64 12.44 10.24 14 13.43"/></g><g style="font-size:8;fill:gray"><text transform="translate(23.25 19.63)">1</text><text transform="translate(36.5 23.5)">2</text><text transform="translate(29.5 39.13)">3</text><text transform="translate(15.75 57.05)">4</text><text transform="translate(15.5 74.5)">5</text><text transform="translate(47.5 15.5)">6</text><text transform="translate(63.5 26.5)">7</text><text transform="translate(50.25 45.13)">8</text><text transform="translate(58.5 33.5)">9</text><text transform="translate(61.5 45.05)">10</text><text transform="translate(61.5 58.48)">11</text><text transform="translate(61.5 72.5)">12</text><text transform="translate(50.5 87.5)">13</text><text transform="translate(71.5 88.5)">14</text></g></svg>