<svg xmlns="http://www.w3.org/2000/svg" width="109" height="109"><g style="fill:none;stroke:#000;stroke-width:3;stroke-linecap:round;stroke-linejoin:round"><path d="M16.48 22.46c.53.31 1.51.35 2.04.31 5.54-.36 17.16-2.05 24.58-2.61.89-.07 1.42.15 1.86.31M12.05 44.68c.74.45 2.1.52 2.84.45 7.7-.75 26.61-4.63 34.17-5.31 1.23-.11 1.97.21 2.59.44m-27.31 6.68c.37 1.1.44 2.79.44 4.36 0 14.95-3.03 31.7-12.28 41.7m23.63-48.3c.87.8 1.48 3.2 1.5 5.47.07 10.11-.13 22.08-.13 27.33 0 10.75 1.75 10 6.73 10 2.99 0 5.96-1.22 6.42-2.34 1-2.47.73-1.59.82-5.92m4.34-58.46c1.94.22 3.33.47 4.32.38 12.63-1.16 23.13-3.91 33.15-4.21 1.66-.05 3.66 0 4.48.34m-25.38 4.22c.37 1.24.62 2.24.47 2.6-1.1 2.64-3.3 5.8-5.35 8.74m-7.69.23c.44.67 1.09 1.92 1.08 3.31s-.08 38.14-.09 38.83.15.71.28 2.11m1.08-42.69c2.54.07 23.1-2.17 25.42-2.16 1.93.01 3.44 2.25 3.27 3.52-.22 1.61-.42 21.87-.52 37.14-.01 1.57-.17 2.24-.17 3.28"/><path d="M62.01 47.34c4.26.41 8.3-.26 12.55-.54 1.43-.09 2.88-.19 4.29-.27m-16.72 14.1c4.29-.06 8.57-.28 12.85-.52 1.03-.06 2.07-.12 3.13-.17M62.68 75.47c5.87-.48 19.4-1.74 26.8-1.56m-23.17 7.3c.39 1.33.65 1.6-.02 2.58C63.75 87.5 57 93 51.53 95.75m33.72-12.62c4.19 3.49 9.12 9.56 10.25 12.37"/></g><g style="font-size:8;fill:gray"><text transform="translate(10.5 23.5)">1</text><text transform="translate(5.25 46.55)">2</text><text transform="translate(17.5 54.5)">3</text><text transform="translate(30.5 51.5)">4</text><text transform="translate(53.5 17.5)">5</text><text transform="translate(64.5 27.13)">6</text><text transform="translate(53.25 39.5)">7</text><text transform="translate(61.5 32.5)">8</text><text transform="translate(65.25 45.05)">9</text><text transform="translate(65.25 57.5)">10</text><text transform="translate(65.25 71.91)">11</text><text transform="translate(56.5 85.5)">12</text><text transform="translate(73.5 85.5)">13</text></g></svg>