<svg xmlns="http://www.w3.org/2000/svg" width="109" height="109"><g style="fill:none;stroke:#000;stroke-width:3;stroke-linecap:round;stroke-linejoin:round"><path d="M15.38 23.22c.58.24 1.63.26 2.21.24 6-.27 15.59-2.67 26.64-2.73.96-.01 1.54.11 2.02.23m-30.5 14.63c.47.34.96.62 1.16 1.04 1.64 3.35 2.6 10.6 3.71 16.62m-2.93-17.39c9.65-1.75 20.4-2.68 25.93-3.12 2.02-.16 3.23.95 2.94 1.9-1.2 3.92-1.6 7.65-3.38 13.06m-22.33 3.61c6.49-.5 15.45-2.36 24.36-3.12M22.02 60.83c2.02 2.28 5.23 9.37 5.73 12.92m14.5-18.5c.02.44.03 1.12-.03 1.75-.38 3.69-2.53 11.79-5.47 16.75"/><path d="M12.5 82.87c3.16 1.88 5.8 2.68 8.96 1.07 1.86-.95 16.88-9.38 24.79-13.94m7.63-50.61c1.08.5 3.07.58 4.15.5 11.26-.84 23.72-3.65 33.56-3.86 1.8-.04 2.89.24 3.79.49m-22.45 3.43c.01.27.03.69-.02 1.08-.28 2.27-2.89 7.25-5.09 10.3m-9.05 1.65c.49 1.01 1.2 1.77 1.2 3.11 0 1.35-.33 37.11-.33 37.79 0 .67.16.67.33 2.02m.81-41.58c2.76-.17 24.51-4.19 27.03-4.39 2.09-.17 3.75 1.87 3.57 3.12-.22 1.59-.82 21.33-.81 36.18 0 1.53-.16 2.19-.16 3.2"/><path d="M60.73 47.65c4.6 0 9.35-1.05 13.89-1.7 1.52-.22 3.06-.44 4.55-.65M60.96 60.06c4.41 0 8.86-.75 13.22-1.3l4.04-.51m-16.55 15.2c6.36-1 19.95-3.38 27.98-3.88m-23.93 9.62c.38 1.19.76 1.52 0 2.39-2.3 2.62-9.38 9.07-13.97 12.18M84.5 81.25c4.38 3.46 9.55 9.72 10.75 12.75"/></g><g style="font-size:8;fill:gray"><text transform="translate(8.5 23.5)">1</text><text transform="translate(9.5 42.5)">2</text><text transform="translate(18.5 33.13)">3</text><text transform="translate(23.5 48.13)">4</text><text transform="translate(15.5 67.5)">5</text><text transform="translate(34.5 59.5)">6</text><text transform="translate(6.5 84.13)">7</text><text transform="translate(54.5 16.5)">8</text><text transform="translate(77.5 25.63)">9</text><text transform="translate(49.5 41.5)">10</text><text transform="translate(56.5 31.63)">11</text><text transform="translate(62.5 43.5)">12</text><text transform="translate(62.5 56.5)">13</text><text transform="translate(62.5 69.13)">14</text><text transform="translate(53.5 83.5)">15</text><text transform="translate(74.25 87.5)">16</text></g></svg>