<svg xmlns="http://www.w3.org/2000/svg" width="109" height="109"><g style="fill:none;stroke:#000;stroke-width:3;stroke-linecap:round;stroke-linejoin:round"><path d="M12.25 22.39c1.29.38 3.65.45 4.94.38 9.81-.52 19.42-2.27 28.3-2.38 2.15-.03 3.44.18 4.51.37m-30.36 8.01c.11.73.13 2.23-.1 2.89-1.46 4.25-2.86 8.15-6.72 11.96-.74.74-.36.75 0 .95 4.46 2.48 7.84 6.89 10.19 11.93m10.13-28.73c.36.73.13 2.23-.1 2.89-1.46 4.25-2.79 7.6-6.72 12.46-.66.81-.36.75 0 .95 4.46 2.48 7.37 6.89 9.72 11.93m10.25-29.23c.61.29.13 2.27-.1 2.95-1.49 4.34-2.92 7.69-6.86 11.58-.76.75-.3.69 0 .97C42.75 45.5 46.5 51 47.71 55.5m-32.46 9.25c.56.37 3.59.42 4.16.34 5.84-.84 19.34-2.09 25.66-2.64.86-.07 2.46-.26 3.18.04m-18.68 2.53c.87.88 1.48 2.78 1.48 3.48 0 5.95.02 12.62-.15 16.57m-16.65 4.94c.6.15 2 1.74 3.9 1.01 5.73-2.19 22.2-8.06 31.1-11.27m6.2-59.58c1.05.37 2.98.42 4.03.37 8.68-.42 25.25-2.62 32-2.79 1.75-.04 2.8.18 3.68.36m-23.43 4.47c.01.25.03.64-.02 1-.3 2.1-3.28 6.72-5.64 9.54m-7.41.94c.47 1.05 1.17 1.83 1.17 3.23s-.32 37.87-.32 38.57m1.11-40.4c2.69-.17 23.87-2.27 26.32-2.48 2.04-.17 3.65 1.94 3.48 3.23-.22 1.64-.3 23.53-.29 38.9"/><path d="M60.58 47.69c4.5 0 9.53-.43 14.02-.73 1.48-.1 2.98-.2 4.43-.29M60.79 59.49c4.99-.24 9.98-.48 14.97-.74 1.24-.06 2.46-.13 3.65-.19M60.49 73.42c6.01 0 20.43-.93 28.25-1.46m-22.56 6.46c.38 1.44.25 2.83-.5 3.88-2.29 3.17-9.89 9.96-14.46 13.7m29.35-16.27c5.7 4.45 12.43 12.53 13.98 16.43"/></g><g style="font-size:8;fill:gray"><text transform="translate(5.5 22.5)">1</text><text transform="translate(11.5 32.5)">2</text><text transform="translate(25.25 31.5)">3</text><text transform="translate(38.5 29.5)">4</text><text transform="translate(8.5 65.5)">5</text><text transform="translate(23.5 73.5)">6</text><text transform="translate(6.25 90.5)">7</text><text transform="translate(54.5 17.85)">8</text><text transform="translate(63.59 27.5)">9</text><text transform="translate(49.5 40.5)">10</text><text transform="translate(59.2 33.5)">11</text><text transform="translate(63.46 44.5)">12</text><text transform="translate(63.5 56.5)">13</text><text transform="translate(63.35 70.5)">14</text><text transform="translate(54.5 83.85)">15</text><text transform="translate(73.5 87.5)">16</text></g></svg>