<svg xmlns="http://www.w3.org/2000/svg" width="109" height="109"><g style="fill:none;stroke:#000;stroke-width:3;stroke-linecap:round;stroke-linejoin:round"><path d="M18.73 18c2.02.25 3.7.23 5.3.09 6.65-.55 14.13-1.87 23.73-2.46 1.77-.11 3.58-.32 5.32.11M20.19 28.81c1.56.69 2.8.77 4.41.64 8.07-.64 19.57-2.41 25.54-2.98 2.72-.26 4.13.34 3.41 3.29-.45 1.87-1.06 3.09-1.99 6.55m-27.94 3.44c4.84-.46 17.14-1.68 25.62-2.62 1.66-.18 3.16-.35 4.4-.48m-31.29-6.66c.71.71.84 2.18.68 3.95C21 56.25 18.25 71 11.63 82.08m22.64-37.47c.13 1.04-.04 2.4-.47 3.28-2.75 5.67-6.24 10.46-12.55 17.36m7.14-6.54c.7.7.87 1.54.87 2.53 0 6.57-.02 19.36-.01 28.5 0 2.16.01 4.12.02 5.75m18.36-51.23c.04.6.05 1.41-.15 1.91-1.24 3.2-2.24 5.32-4.13 8.11m-14.47 3.27c4.2-.54 15.18-1.54 21.86-2.33 1.61-.19 3.24-.35 4.84-.61m-12.87 2.43c.5.75.91 1.82.75 2.71 0 6.27.04 20.99.04 28.5"/><path d="M30.65 67.79c4.16-.46 14.5-1.61 20.65-2.26 1.82-.19 3.16-.34 3.69-.42M30.5 78.4c4.59-.41 15.82-1.78 21.75-2.43 1.42-.16 2.46-.27 2.93-.33m-24.69 14.8c4.42-.56 16.3-1.31 23.03-2.02 1.97-.21 3.41-.37 3.96-.46m2.15-70.86c1.87.4 4.17.28 6.1.06 7.86-.89 18.14-1.63 25.29-2.05 1.92-.11 3.73-.3 5.6.25M78.23 19.1c.05.66-.02 1.31-.22 1.95-.73 2.64-3.14 6.71-5.76 10.08m-9.31 1.62c.84.84 1.09 1.82 1.09 3.32 0 1.22.07 28.78-.01 39.93-.02 2.58-.02 4.28.01 4.57m1-46.14c3.82-.39 19.24-2.09 23.97-2.45 2.66-.2 3.39 1.05 3.39 3.62 0 1.2.01 23.83.01 37.53v5.63"/><path d="M64.98 48.3c4.38-.47 19.77-1.92 26.28-2.33M65.11 63.18c5.79-.47 19.23-2.11 26.1-2.07M65.04 78.37C72.11 78 80.62 77 91.39 76.54m-21.31 7.64c.29.95-.22 2.18-1.15 3.04-3.56 3.29-8.31 7.04-15.59 11.29m30.95-14.3c5.12 3.33 11.58 10.59 12.97 13.32"/></g><g style="font-size:8;fill:gray"><text transform="translate(15.5 15.5)">1</text><text transform="translate(24.75 27.05)">2</text><text transform="translate(27.75 37.48)">3</text><text transform="translate(15.5 36.5)">4</text><text transform="translate(27.5 47.5)">5</text><text transform="translate(22.5 73.55)">6</text><text transform="translate(39.5 47.5)">7</text><text transform="translate(36.75 54.5)">8</text><text transform="translate(46.5 62.5)">9</text><text transform="translate(32.02 65.9)">10</text><text transform="translate(32.25 75.5)">11</text><text transform="translate(32.09 87.5)">12</text><text transform="translate(59.25 13.63)">13</text><text transform="translate(67.5 24.5)">14</text><text transform="translate(55.5 40.5)">15</text><text transform="translate(63.5 31.5)">16</text><text transform="translate(68.54 44.98)">17</text><text transform="translate(68.51 59.91)">18</text><text transform="translate(68.5 74.83)">19</text><text transform="translate(58.5 87.5)">20</text><text transform="translate(78.5 90.5)">21</text></g></svg>