<svg xmlns="http://www.w3.org/2000/svg" width="109" height="109"><g style="fill:none;stroke:#000;stroke-width:3;stroke-linecap:round;stroke-linejoin:round"><path d="M31.75 11.64c.06.78.3 2.08-.12 3.13-2.71 6.87-10.51 20.33-21.57 30.45m23.21-27.39c5.48 2.27 14.17 9.35 15.54 12.88m-24.06 2.92c.4.12 1.13.15 1.53.12 2.54-.21 10.87-1.76 13.33-1.62.66.04 1.06.06 1.39.12M20.77 42.44c.39.78.78 1.68.78 2.72s-.13 53.29 0 54.34m.14-55.43c2.2-.13 18.41-2.67 20.42-2.83 1.67-.13 2.74 1.45 2.61 2.22-.26 1.57-2.47 21.54-3.02 25.01"/><path d="M22.08 56.23c2.97 0 17.36-2.31 20.72-2.31M21.94 68.56C28 68 34.25 66.5 41.79 66.02m-19.9 14.04c3.73-.25 16.46-2.17 20.07-1.99.97.04 1.56.07 2.05.14m-22.62 14.6c4.03-.25 15.61-1.31 21.15-1.99 1.04-.13 1.69.07 2.21.14M64.25 13c.04.86.26 2.26-.08 3.45-1.92 6.8-6.37 23.26-13.78 33.05m11.33-17.01c.91.36 2.63.9 4.01.61C71 32 85.92 29.45 87.5 29.25c8-1-1.33 9.09-3 11M68.1 40c.06 1.32.14 3.38-.12 5.28-2.6 18.36-7.63 37.34-21.98 50.47m20.67-38c4.04 8.14 18.64 27.3 25.29 34.03 1.4 1.42 2.46 2.26 3.79 2.72"/></g><g style="font-size:8;fill:gray"><text transform="translate(23.5 12.5)">1</text><text transform="translate(37.5 17.5)">2</text><text transform="translate(29.5 30.5)">3</text><text transform="translate(13.75 52.5)">4</text><text transform="translate(22.5 41.5)">5</text><text transform="translate(25.63 52.5)">6</text><text transform="translate(25.68 64.5)">7</text><text transform="translate(25.64 76.5)">8</text><text transform="translate(25.64 89.5)">9</text><text transform="translate(51.5 12.5)">10</text><text transform="translate(65.5 29.5)">11</text><text transform="translate(57.5 46.5)">12</text><text transform="translate(70.5 61.73)">13</text></g></svg>