<svg xmlns="http://www.w3.org/2000/svg" width="109" height="109"><g style="fill:none;stroke:#000;stroke-width:3;stroke-linecap:round;stroke-linejoin:round"><path d="M34.82 12.42c0 1.71-.23 2.7-.97 4.01-3.59 7.99-11.79 19.98-21.09 26.42m24.55-24.53c5.81 3.75 9.56 7.78 12.94 13.08m-16-.98c.78.78 1.08 1.98 1.08 2.76 0 1.02-.11 3.6-.11 6.12m-13.35 2.05c1.5.6 3.16.55 4.9.3 4.6-.66 12.91-1.86 15.79-2.3 3.07-.47 4.09.88 3.74 3.8-.5 4.23-1.34 13.15-1.9 19.44-.33 3.73-.56 6.45-.56 6.51"/><path d="M24.39 55.07c3.65-.36 14.19-1.75 19.52-2.45M24.33 68.03c4.21-.49 11.95-1.4 18.36-2.2"/><path d="M22.75 42.12c.77.77.81 2.33.81 3.39 0 3.41.17 42.59.17 46.7 0 4.4.28 4.04 2.93 1.98C30.9 90.9 38.6 85 42.05 82.76m-1.56-7.38c2.52 2.82 6.46 10.33 7.9 16.28m5.11-66.15q3.255.765 6.54.21c7.68-.64 14.45-1.87 28.04-2.94 2.25-.42 4.49-.37 6.71.16m-34.68 5.45c.7.7 1.2 1.98 1.2 3.16 0 1.35.01 42.31.01 47.16m1.56-34.98c4.88-.66 12.63-1.66 19.81-2.1M62.51 61.48c5.93-.89 12.56-2.18 20.33-2.63M52.71 80.97c1.63.85 3.77.37 5.56-.23 6.76-1.83 29.48-8.07 36.23-9.96"/><path d="M82.62 25.79c.77.77 1.16 2.09 1.16 3.11 0 .87.13 44.69.17 63.1.01 3.27.01 5.74.01 7"/></g><g style="font-size:8;fill:gray"><text transform="translate(26.5 13.5)">1</text><text transform="translate(41.75 17.05)">2</text><text transform="translate(33.75 27.5)">3</text><text transform="translate(26.5 38.5)">4</text><text transform="translate(27.5 51.5)">5</text><text transform="translate(27.5 64.5)">6</text><text transform="translate(16.5 49.5)">7</text><text transform="translate(43.75 76.5)">8</text><text transform="translate(53.5 22.5)">9</text><text transform="translate(51.5 38.5)">10</text><text transform="translate(64.5 40.5)">11</text><text transform="translate(64.5 57.5)">12</text><text transform="translate(49.5 75.5)">13</text><text transform="translate(74 32.5)">14</text></g></svg>