<svg xmlns="http://www.w3.org/2000/svg" width="109" height="109"><g style="fill:none;stroke:#000;stroke-width:3;stroke-linecap:round;stroke-linejoin:round"><path d="M34.82 12.17c.06.71.26 1.89-.13 2.85-3.16 7.92-12.07 21-21.94 27.82m22.38-26.29c5.81 3.75 11.74 9.56 15.12 14.85m-17.89-1.07c2.75 1.17 4.39 2.93 4.94 5.27m-13.43 6.25c1.53-.11 18.33-2.7 19.71-2.91 2.35-.36 3.05 1.33 2.84 2.99-1 7.71-2.58 26.52-2.58 27.17"/><path d="M24.14 55.07c3.05 0 6.2-.62 9.21-1.01 1.05-.14 2.11-.28 3.15-.43M24.04 68.69c4.21-.49 12.24-2.06 18.64-2.86"/><path d="M22 41.37c.87.52 1.39 2.34 1.56 3.39.17 1.04.36 44.61.17 47.2-.17 2.35-1.56 5.75.52 3.93 2.09-1.82 14-11.15 18.35-13.99m-2.11-6.52c2.52 2.82 6.46 10.33 7.9 16.28m5.11-66.15c.9.44 2.53.5 3.44.44 9.87-.66 16.44-1.88 34.47-3.19 1.49-.11 2.39.21 3.14.43m-34.19 5.2c.78.5 1.2 1.81 1.2 3.16s-.24 43.31-.24 48.16m21.55-53.92c.37.82.91 1.84.91 2.86s.18 61.99.18 70.35M61.88 43.73c3.34-.45 6.69-.81 10.04-1.13.99-.1 1.99-.19 3-.28M61.51 61.73c3.45-.52 6.89-1.1 10.35-1.6.95-.14 1.92-.27 2.89-.4"/><path d="M52.71 80.97c1.28.39 3.23.4 4.4.08 4.7-1.26 30.18-8.25 37.4-10.27"/></g><g style="font-size:8;fill:gray"><text transform="translate(26.5 13.5)">1</text><text transform="translate(41.75 17.05)">2</text><text transform="translate(33.75 27.5)">3</text><text transform="translate(26.5 38.5)">4</text><text transform="translate(27.5 51.5)">5</text><text transform="translate(27.5 64.5)">6</text><text transform="translate(16.5 49.5)">7</text><text transform="translate(43.75 76.5)">8</text><text transform="translate(53.5 22.5)">9</text><text transform="translate(51.5 38.5)">10</text><text transform="translate(74 32.5)">11</text><text transform="translate(64.5 40.5)">12</text><text transform="translate(64.5 57.5)">13</text><text transform="translate(49.5 75.5)">14</text></g></svg>