<svg xmlns="http://www.w3.org/2000/svg" width="109" height="109"><g style="fill:none;stroke:#000;stroke-width:3;stroke-linecap:round;stroke-linejoin:round"><path d="M14.59 18.27c.88.88 1.07 2.19 1.07 3.72 0 7.32-.08 21.05-.12 29.88-.02 3.39-.03 5.62-.28 7.5m.87-40.06c6.06-.81 15.69-1.87 21-2.36 2.14-.43 4.29-.48 6.45-.14m-15.93 2.43c.68.68.93 1.7.93 2.69V56.5"/><path d="M16.75 32.11c4.78-.44 13-1.61 18-2.2 1.99-.23 3.91-.64 5.91-.51M16.6 44.77c4.86-.45 13.84-1.62 18.67-2.28 1.9-.29 3.81-.43 5.73-.41M15.5 59.12c6.73-1.06 17.6-2.57 23.73-3.39 4.27-.57 5.17.31 4.89 4.63-.56 8.58-2.87 19.97-5.41 27.16-1.82 5.14-4.33 7.51-7.93 2.46M11.92 72.05c.38 6.22-1.27 11.94-1.67 13.19m8.06-13.64c1.06 2.04 1.71 4.61 1.95 8.25"/><path d="M24.91 68.68c.62 1 2.82 4.04 3.09 7.3m3.74-10.19c1.22 1.95 2.98 4.22 3.42 6.8m45.31-55.84c-.47 1.38-.99 2.02-1.89 2.82C72.38 25 67.5 28 55.38 33.62m-3.51.26c1.19 1.19 1.63 2.62 1.73 4.51.49 9.6 3.12 42.06 3.67 51.36M55.5 50.62c8.64-.75 20.31-1.76 28.87-2.79 2.83-.37 5.68-.55 8.55-.53m-12.49 2.75c.89.89.92 1.67.81 3.01C80 68.62 79.62 77 78.71 88.75m-32.21 2c2.99.39 5.98.31 8.99.05 10.63-.92 21.63-1.55 33.9-2 2.86-.11 6.1-.2 8.86.49"/></g><g style="font-size:8;fill:gray"><text transform="translate(8.85 26.5)">1</text><text transform="translate(16.66 15.5)">2</text><text transform="translate(30.5 26.5)">3</text><text transform="translate(19.32 28.5)">4</text><text transform="translate(19.5 41.5)">5</text><text transform="translate(19.5 55.5)">6</text><text transform="translate(6.5 72.85)">7</text><text transform="translate(17.25 67.5)">8</text><text transform="translate(25.25 66.5)">9</text><text transform="translate(32.5 64.95)">10</text><text transform="translate(68.25 16.88)">11</text><text transform="translate(42.25 42.5)">12</text><text transform="translate(57.5 46.73)">13</text><text transform="translate(70.5 57.5)">14</text><text transform="translate(44.5 87.5)">15</text></g></svg>