<svg xmlns="http://www.w3.org/2000/svg" width="109" height="109"><g style="fill:none;stroke:#000;stroke-width:3;stroke-linecap:round;stroke-linejoin:round"><path d="M15.14 18.68c.86 1.07.99 3.45.98 5.07-.06 10.43-.31 37.23-.99 39.88m1.58-43.31c7.98-.53 21.81-2.87 24.23-3.23.96-.14 2.58-.25 3.06-.03m-15.03 2.82c.26.38.97.9.97 1.51-.02 6.29-.07 28.5-.26 38.39"/><path d="M16.57 34.41c6.39-.6 20.66-2.63 23.4-3.03.96-.14 2.58-.25 3.06-.02M16.67 46.7c6.39-.6 20.17-2.64 22.91-3.04.96-.14 2.58-.25 3.06-.03M15.88 63.01c6.3-1.44 20.99-4.11 24.46-4.72 4.42-.78 4.27 2.36 4.03 6.08-.68 10.55-2.46 22.25-5.74 29.08-2.81 5.86-5.43.42-6.34-.88M13.06 75.63c.29 6.53-1.09 12.28-1.39 13.58m8.27-13.61c1.1 2.14 2.04 4.84 2.3 8.66"/><path d="M26.41 72c.68 1.08 3.1 4.65 3.4 8.18m3.7-11.46c1.27 2.05 3.37 4.17 3.83 6.88m19.11-57.96c1.13.29 1.24.5 3.53.29 4.77-.43 20.75-3.54 22.3-3.97 1.56-.43 2.82 1.68 2.12 3.18C77 33.25 64.75 48 52.25 56.96"/><path d="M67.17 21.88c1.48 1.01 3.82 4.14 4.19 5.71m-17.01-3.82c3.83.72 22.54 20.08 35.88 28.02 2.08 1.23 3.59 2.06 5.52 2.47M51.94 34.13c1.52 1.58 3.94 6.5 4.32 8.96m-1.87 19.39c.55.38.94 1.31 1.05 1.8.75 3.59 1.51 8.33 2.56 15.14m-2.16-15.49c8.38-.72 25.87-3.29 31.93-3.57 2.37-.11 2.47 1.15 2.24 2.75-.54 3.71-.81 5.36-2.44 11.49M58.3 77.47c6.74-.72 21.84-2.34 31.28-3.01"/><path d="M70.95 50.22c.86.35 1.38 1.57 1.55 2.27s0 33.29-.17 37.66m-21.37 4.39c.88.72 2.7 1.12 3.57.94.88-.18 27.75-6.94 33.17-8.38m-3.99-6.26c3.82 2.69 9.86 11.06 10.81 15.24"/></g><g style="font-size:8;fill:gray"><text transform="translate(9.5 28.5)">1</text><text transform="translate(17.5 16.85)">2</text><text transform="translate(33.5 26.5)">3</text><text transform="translate(20.5 30.5)">4</text><text transform="translate(20.5 42.5)">5</text><text transform="translate(20.5 57.5)">6</text><text transform="translate(7.63 77.5)">7</text><text transform="translate(15.5 82.5)">8</text><text transform="translate(23.34 79.6)">9</text><text transform="translate(28.5 74.5)">10</text><text transform="translate(53.5 14.5)">11</text><text transform="translate(58.5 26.5)">12</text><text transform="translate(44.75 26.5)">13</text><text transform="translate(44.5 40.5)">14</text><text transform="translate(45.5 70.7)">15</text><text transform="translate(56.5 60.5)">16</text><text transform="translate(59.75 73.5)">17</text><text transform="translate(75.5 54.5)">18</text><text transform="translate(48.5 90.5)">19</text><text transform="translate(89.5 83.5)">20</text></g></svg>