<svg xmlns="http://www.w3.org/2000/svg" width="109" height="109"><g style="fill:none;stroke:#000;stroke-width:3;stroke-linecap:round;stroke-linejoin:round"><path d="M37.04 11.99c.31.2.64 1.29.64 1.63 0 3.46.03 17.34-.15 22.8m1.05-22.97C46.13 12.77 72 11 75.5 11.05c1.14.02 3.05.22 3.62.32m-40.88 9.28c7.55-.68 30.34-2 33.58-2.38 1.13-.13 3.05.22 3.62.32m-37.03 8.87c7.55-.68 30.34-2 33.58-2.38 1.13-.13 3.05.22 3.62.32"/><path d="M37.54 35.94c9.56-1.24 33.52-2.34 38.82-2.8 3.45-.3 4.95 1.35 4.59 3.41-1 5.86-1.95 8.95-4.2 12.45-3.41 5.29-4.75 3.51-7.38-.03M55.46 13.16c.31.2.55.47.55.81 0 3.46.03 14.25-.15 19.71m-24.14 8.26c-.72 3.81-1.97 7.31-4.38 9.63m13.64-10.18c1.61 1.24 3.14 4.65 3.55 6.59"/><path d="M52.26 39.69c1.11 1.11 2.87 4.58 3.15 6.32m9.23-7.26c1.14.76 2.94 3.13 3.22 4.32M16.81 58.49c.26.2.53 1.29.53 1.63 0 3.46.03 18.34-.13 23.8m.88-23.97c6.28-.68 22.93-3.03 25.62-3.4.94-.13 2.53-.28 3.01-.18m-15.27 3.29c.26.2.46.47.46.81 0 3.46.03 15.25-.13 20.71"/><path d="M17.81 67.65c6.28-.68 20.81-2.5 23.5-2.88.94-.13 2.53-.28 3.01-.18M17.45 75.46c6.28-.68 21.31-2.5 24-2.88.94-.13 2.53-.28 3.01-.18M17.22 83.94c7.94-1.24 23.52-3.34 27.92-3.8 2.86-.3 4.02 1.33 3.82 3.41C48.5 88.25 47 92.5 45.64 96c-2.16 5.54-3.56 2.74-6.47-.03m-26.35-7.28c.33 3.13-1.24 6.42-2.23 8.38m9.27-7.68c1.07 1.24 2.09 4.66 2.36 6.59"/><path d="M28.16 87.19c.85 1.03 2.2 4.22 2.42 5.82m6.97-7.26c.81.76 2.1 3.13 2.3 4.32m20.96-33.08c.25.2.53 1.29.53 1.63 0 3.46.03 19.84-.13 25.3m.88-25.47c6.28-.68 23.42-3.03 26.12-3.4.94-.13 2.53-.28 3.01-.18m-16.77 3.79c.25.2.46.47.46.81 0 3.46.03 16.25-.13 21.71"/><path d="M61.8 67.65c6.28-.68 21.31-2.5 24-2.88.94-.13 2.53-.28 3.01-.18M61.95 74.96c6.28-.68 21.31-2 24-2.38.94-.13 2.53-.28 3.01-.18M61.22 83.94c7.94-1.24 26.02-3.34 30.42-3.8 2.86-.3 4.11 1.35 3.82 3.41-.83 5.86-2.12 10.29-4.32 13.95-3.08 5.09-4.89 1.26-5.96-1.03m-28.96-6.78c-.22 2.06-1.75 6.53-2.79 8.38m10.43-9.43c1.07 1.19 2.09 4.48 2.36 6.34"/><path d="M72.88 87.19c.78 1.03 2.02 4.22 2.22 5.82M82.02 86c.83.72 2.14 2.95 2.35 4.07"/></g><g style="font-size:8;fill:gray"><text transform="translate(30.25 20.88)">1</text><text transform="translate(42 10.05)">2</text><text transform="translate(42.5 19.4)">3</text><text transform="translate(42.25 26.83)">4</text><text transform="translate(42 33.5)">5</text><text transform="translate(59 18.5)">6</text><text transform="translate(24.5 44.18)">7</text><text transform="translate(36.5 46.5)">8</text><text transform="translate(47 44.5)">9</text><text transform="translate(56.75 43.45)">10</text><text transform="translate(8.5 66.5)">11</text><text transform="translate(17.75 56.55)">12</text><text transform="translate(35.5 63.5)">13</text><text transform="translate(20 65.4)">14</text><text transform="translate(20.16 73.58)">15</text><text transform="translate(20.04 81)">16</text><text transform="translate(4.5 90.5)">17</text><text transform="translate(13.5 95.5)">18</text><text transform="translate(21.5 92.5)">19</text><text transform="translate(30.25 89.5)">20</text><text transform="translate(51.5 65.5)">21</text><text transform="translate(62.5 55.5)">22</text><text transform="translate(78 62.5)">23</text><text transform="translate(64.34 65.5)">24</text><text transform="translate(64.5 73.13)">25</text><text transform="translate(64.38 81.5)">26</text><text transform="translate(51.25 89.5)">27</text><text transform="translate(57.5 96.38)">28</text><text transform="translate(67.25 93.5)">29</text><text transform="translate(75.25 90.5)">30</text></g></svg>