<svg xmlns="http://www.w3.org/2000/svg" width="109" height="109"><g style="fill:none;stroke:#000;stroke-width:3;stroke-linecap:round;stroke-linejoin:round"><path d="M27.09 9.95c1.22.74 1.22.86 1.22 1.6s.41 16.54.41 17.65m.43-18.24c4.19-.13 12.67-2.11 18.12-2.17 1.27-.01 2.04.09 2.67.18m-20.21 8.39c3.7-.26 12.37-1.71 15.36-1.97 1.12-.1 2.27-.07 3.13.09m-18.7 8.05c3.7-.26 12.37-2.21 15.36-2.47 1.13-.1 2.27-.07 3.13.09m-35.49 9.97c.88.19 2.49.22 3.36.19 9.13-.32 21.64-3.08 34.1-3.33 1.46-.03 2.34.09 3.07.19M30.34 31.2c.08.46-.41 1.12-.65 1.38-2.2 2.42-4.45 4.92-6.92 7.17-1.12 1.01-.57 2 1.5 1.46 6.48-1.71 12.98-3.46 20.88-5.35m-2.51-3.24c2.2 1.28 5.68 5.28 6.23 7.27M79.41 8.5c.06.3.25.82-.12 1.2-2.89 2.94-9.3 7.21-20.85 11.05m26.48-4c.07.33.33.91-.14 1.31-3.52 2.98-11.83 8.74-24.31 12.53m29.36-4.79c.08.32.31.85-.16 1.28-3.27 2.94-13.56 8.57-29.36 12.18m-27.18 5.15c.27.22.27.37.42.65 1.22 2.28 2.36 8.35 3.11 12.61m-2.28-12.65c9.87-.77 32.44-3.06 39.46-3.63 1.66-.14 3 1.58 2.77 2.98-.37 2.31-2.11 6.47-3.29 10.31"/><path d="M36.14 50.62c3.07-.22 36.85-3.37 39.38-3.46m-38.38 9.29c6.78-.24 26.82-2.47 36.18-2.87m-48.94 9.04c.31.21.64.39.77.66 1.09 2.13 2.25 7.99 3 11.81M25.9 63.68c6.92-.83 53.75-4.05 57.43-4.33 1.34-.1 3.17.72 2.81 1.92-.75 2.5-2.1 6.78-4.1 10.34"/><path d="M44.69 62.5c.21 1.42 1.32 8.33 1.54 9.93m16.9-11.32c-.21 2.3-.35 7.18-.76 9.75"/><path d="M29.14 73.57c4.32-.31 47.45-3.28 53.39-3.77M32.25 81.7c1.72.19 1.94.48 5.39.19s29.57-3.13 31.94-3.42 4.05 1.12 2.29 2.41c-14.23 10.4-30.55 17.2-51.6 21.12"/><path d="M34.78 85.63c4.95.36 29.11 10.06 46.33 14.03 2.68.62 4.63 1.03 7.13 1.24"/></g><g style="font-size:8;fill:gray"><text transform="translate(21.5 18.63)">1</text><text transform="translate(30.5 7.5)">2</text><text transform="translate(33.5 16.5)">3</text><text transform="translate(33.5 22.5)">4</text><text transform="translate(5.5 32.5)">5</text><text transform="translate(16.5 39.5)">6</text><text transform="translate(48.5 35.5)">7</text><text transform="translate(71.5 8.5)">8</text><text transform="translate(76.5 19.5)">9</text><text transform="translate(78.5 28.5)">10</text><text transform="translate(26.5 51.88)">11</text><text transform="translate(38.5 42.5)">12</text><text transform="translate(38.5 49.5)">13</text><text transform="translate(39.5 55.5)">14</text><text transform="translate(16.5 70.58)">15</text><text transform="translate(27.5 61.5)">16</text><text transform="translate(48.25 68.5)">17</text><text transform="translate(66.5 67.5)">18</text><text transform="translate(31.25 71.28)">19</text><text transform="translate(34.5 80.5)">20</text><text transform="translate(26.5 90.5)">21</text></g></svg>