<svg xmlns="http://www.w3.org/2000/svg" width="109" height="109"><g style="fill:none;stroke:#000;stroke-width:3;stroke-linecap:round;stroke-linejoin:round"><path d="M48.3 10.89c.02.26.04.66-.04 1.03-.49 2.16-3.33 6.91-7.22 9.82m6.07-5.39c.31.13.88.15 1.19.13 3.8-.35 9.58-1.17 12.99-1.61.51-.07.83.06 1.08.12m-22.11 9.55c.5.18 1.42.21 1.92.18 5.22-.3 15.2-1.82 22.82-1.89.83-.01 1.34.08 1.75.17"/><path d="M53.11 16.58c.31.45.66.78.66 1.4 0 2.18-.03 15.57-.08 17.41"/><path d="M44.2 29.3c.25.15.5.77.5 1.07-.02 1.85-.02 1.1 0 4.61 0 .68-.12 1.34.5 1.24 1.71-.29 13.7-1.9 16.84-1.99m1.31-6.32c.25.15.54 1.11.5 1.4-.25 1.82-.5 3.19-.91 6.57M14.87 19.27c.52.09 2.1.08 3.49 0 4.88-.26 11.48-.71 16.71-.88.89-.03 1.94-.31 3.31-.18"/><path d="M28.06 10.34c.59.23.94 1.06 1.06 1.53s0 23.55-.12 26.49"/><path d="M29.4 20.03c-2.67 4.49-10.61 12.03-16.15 14.57m18.03-11.38c2.12 1.2 4.39 3.61 5.6 5.72m31.95-10.65c.33.12 1.06.18 1.95.12 3.15-.24 12.6-1.06 18.75-1.65.89-.08 1.67-.12 2.23 0"/><path d="M77.1 10.4c.59.23.94 1.06 1.06 1.53s0 21.26-.12 24.2"/><path d="M78.07 18.62c-1.53 4.22-6.28 10.08-9.83 12.25m9.78-12.33c3.84 4.51 9.99 10.29 13.1 12.07.89.51 1.39.86 2.13 1.03m-74.09 9.49c0 2.91-3.72 10.92-5.41 12.87m5.24-9.76c9.51-.99 60.24-3.03 67.95-3.4C99 40.25 89.5 48 86.5 50.11m-41.59-.58c.05.47.27 1.29-.1 1.9C42.5 55.25 34.5 65 27.1 69.61"/><path d="M29.57 52.91c5.7 2.95 14.71 12.14 16.14 16.74M33.78 47.58c1.41.79 3.63 3.24 3.99 4.47m-11.06 4.59c1.41.88 3.63 3.6 3.99 4.97m15-3.31c1.14.79 2.95 3.24 3.24 4.47m-13.43 3.01c1.19.56 3.07 2.31 3.37 3.18"/><path d="M19.46 53.75c.32.2.86.97.86 1.94 0 .41 1.67 16.44 1.64 17.41-.03.96.29 1.65 1.35 1.54 5.9-.57 25.29-1.48 28.67-1.68m.66-20.97c.62.28 1.08.85 1.08 1.94 0 2.18-.21 11.43-.95 21.2m-6.03 4.8c.17.18.28.72-.17 1-2.9 1.83-12.86 6.87-22.25 8.73"/><path d="M21.46 79.82c.59.56.63.93.83 1.67.2.75-.04 8.93-.04 11.26 0 5.99 7.88 5.06 14.59 5.06 5.2 0 9.54-.32 11.5-1.99s1.72-3.62 1.92-5.3m29.85-39.77c.06.34.22.92-.12 1.36C77 56 71.25 60.25 59.75 64.63m25.92-.24c.08.4.28 1.09-.15 1.61-2.95 3.51-16.27 11.5-27.03 15.37M91.3 79c.1.47.2 1.22-.18 1.9-2.27 3.99-15.26 12.74-33.05 18.1"/></g><g style="font-size:8;fill:gray"><text transform="translate(41.25 11.5)">1</text><text transform="translate(52.5 13.5)">2</text><text transform="translate(47.5 23.5)">3</text><text transform="translate(56.5 22.1)">4</text><text transform="translate(38.25 34.5)">5</text><text transform="translate(55.5 31.5)">6</text><text transform="translate(8.5 19.5)">7</text><text transform="translate(20.25 10.5)">8</text><text transform="translate(19.25 27.48)">9</text><text transform="translate(35.5 25.5)">10</text><text transform="translate(66.25 16.5)">11</text><text transform="translate(72.25 7.5)">12</text><text transform="translate(66.25 25.73)">13</text><text transform="translate(85.25 24.5)">14</text><text transform="translate(8.25 43.58)">15</text><text transform="translate(20.5 40.5)">16</text><text transform="translate(36.5 49.35)">17</text><text transform="translate(21.25 53.5)">18</text><text transform="translate(27.5 51.2)">19</text><text transform="translate(23.5 63.13)">20</text><text transform="translate(44.75 57.5)">21</text><text transform="translate(30.5 72.5)">22</text><text transform="translate(10.25 62.43)">23</text><text transform="translate(50.5 49.5)">24</text><text transform="translate(35.75 81.13)">25</text><text transform="translate(10.75 82.13)">26</text><text transform="translate(70.5 50.5)">27</text><text transform="translate(74.5 65.5)">28</text><text transform="translate(79.5 81.63)">29</text></g></svg>