<svg xmlns="http://www.w3.org/2000/svg" width="109" height="109"><g style="fill:none;stroke:#000;stroke-width:3;stroke-linecap:round;stroke-linejoin:round"><path d="M25.99 11.75c.05.59.24 1.57-.1 2.38-2.39 5.62-8.64 14.12-17.15 22.74"/><path d="M22.89 19.88c1.93 0 12.32-1.94 14.35-2.23 1.74-.25 2.13 2.17 1.41 3.4-3.05 5.19-5.48 7.16-10.45 15.4m-13.98 1.61c.19.53.2.89.31 1.55.88 5.41 1.82 19.95 2.36 29.9m-1.76-29.5c6.82-.46 18.43-2.3 23.52-2.77 1.87-.17 2.83 1.4 2.73 2.85-.35 5.29-.54 18.15-2.04 27.96"/><path d="M26.48 39.45c.77.76 1.36 2.99 1.39 4.7.1 7.56.02 18.24.02 21.98"/><path d="M16.83 52.8c5.31-.56 10.59-1.45 15.88-2.15.64-.08 1.25-.17 1.84-.24M17.24 67c4.91.06 15.15-1.51 21.92-1.57m-25.8 13.39c0 5.32-2.33 13.16-2.67 14.68m8.68-16.67c1.77 2.55 3.95 9.57 4.39 13.54m5.22-15.43c1.54 2.33 3.97 9.09 4.36 12.71m3.96-15.28c1.66 1.9 4.28 7.82 4.7 10.78m22.09-71.4c4.99 2.09 9.46 7.44 11.57 13.29m-29.78 8.1c1.62.36 3.45.66 4.77.52 10.66-1.1 29.45-4.17 43.93-4.93 2.23-.12 2.38.04 4.04.67m-28.1 9.92c5.76 2.04 12.09 4.38 17.43 5.24 3.02.48 4.19 1.56 3.72 3.89-1.33 6.5-12.49 41.09-16.29 46.17-4.13 5.51-8.12-1.12-9.62-3.45m3.85-56.92c.38 1.59.3 3.38-.14 5.17-3.08 12.33-11.98 37.25-25.79 48.91"/></g><g style="font-size:8;fill:gray"><text transform="translate(18.5 11.5)">1</text><text transform="translate(31.5 15.5)">2</text><text transform="translate(7.5 45.5)">3</text><text transform="translate(17.5 36.5)">4</text><text transform="translate(31.5 46.5)">5</text><text transform="translate(19.5 49.5)">6</text><text transform="translate(20.5 64.18)">7</text><text transform="translate(6.5 82.5)">8</text><text transform="translate(15.5 85.5)">9</text><text transform="translate(21.5 81.5)">10</text><text transform="translate(30.25 77.88)">11</text><text transform="translate(55.25 11.8)">12</text><text transform="translate(42.5 30.5)">13</text><text transform="translate(76.5 39.5)">14</text><text transform="translate(58.5 42.5)">15</text></g></svg>