<svg xmlns="http://www.w3.org/2000/svg" width="109" height="109"><g style="fill:none;stroke:#000;stroke-width:3;stroke-linecap:round;stroke-linejoin:round"><path d="M28.99 13.25c.05.59-.27 1.57-.59 2.38C26 21.75 20 30.5 12.74 38.12m12.9-14.99c5.8-.8 11.57-1.77 17.35-2.73 1.73-.29 2.84 1.82 1.91 2.9-3.39 3.95-8.14 9.7-13.2 16.65m-15.23 1.53c.78.78 1.42 2.06 1.67 3.4.87 4.71 1.98 13.37 2.66 20.87.13 1.45.25 2.86.34 4.19M18.56 42.9c7.37-1.11 18.9-2.91 26.81-3.83 3.17-.37 5.83-.49 5.37 3.43-.54 4.58-2.06 13.44-3.91 20.09-.5 1.81-1.03 3.46-1.57 4.82"/><path d="M32.91 42.05c.77.77.87 1.82.9 3.38.12 6.9.03 16.41.03 19.83"/><path d="M20.88 54.88c4.62-.88 22.38-3.12 27.73-3.4M22.31 68.1c5.84-.52 14.27-1.94 22.33-2.78m-28.11 12c0 6.4-2.75 15.85-3.47 17.68m11.65-17.17c1.71 2.83 3.33 10.63 3.76 15.04m6.15-16.18c1.85 2.37 4.77 9.77 5.23 13.46m5.25-15.03c2.26 2.3 5.83 9.46 6.4 13.03m18.51-73.02c1.12 1.12 1.45 2.62 1.45 4.75 0 3.99.03 38.99.03 46.5m1.03-26.13C80.41 39.5 89.17 38 90.27 38s2.36-.12 3.94 0M55.66 67.99c.82.82 1.29 1.91 1.56 2.99 1.04 4.21 2.38 12.15 3.33 19.02.29 2.09.55 4.1.75 5.91m-3.65-26.75c10.3-1.28 25.29-2.81 31.72-3.62 2.41-.3 4.88.57 4.32 3.64-1.07 5.88-2.66 12.65-4.14 20.12m-27.37 3.26c6.07-.56 16.39-1.38 24.57-2.05 2.04-.17 3.88-.33 5.36-.48"/></g><g style="font-size:8;fill:gray"><text transform="translate(21.25 13.25)">1</text><text transform="translate(34.25 19.25)">2</text><text transform="translate(11 49.25)">3</text><text transform="translate(20.25 39.25)">4</text><text transform="translate(37.25 48.08)">5</text><text transform="translate(23.5 51.25)">6</text><text transform="translate(25.25 65.25)">7</text><text transform="translate(10.25 79.25)">8</text><text transform="translate(19.25 78.25)">9</text><text transform="translate(26.25 77.25)">10</text><text transform="translate(38 75.25)">11</text><text transform="translate(57.25 15.25)">12</text><text transform="translate(75.25 36.25)">13</text><text transform="translate(46.25 74.4)">14</text><text transform="translate(57.25 66.25)">15</text><text transform="translate(63.25 89.25)">16</text></g></svg>