<svg xmlns="http://www.w3.org/2000/svg" width="109" height="109"><g style="fill:none;stroke:#000;stroke-width:3;stroke-linecap:round;stroke-linejoin:round"><path d="M24 15.5c.04.46.15 1.21-.08 1.86-1.67 4.64-6.67 11.39-13.43 17.76m12.4-14.74c1.93 0 8.86-1.38 12.85-2.73 1.66-.56 3.31 1.29 2.41 2.4-3.64 4.45-5.98 9.16-10.95 17.4m-13.48 2.13c.18.46.68 2.26.78 2.82.8 4.61 1.65 15.08 2.15 23.56m-2.1-25.22c6.2-.42 17.72-2.54 22.35-2.96 1.7-.15 2.57 1.18 2.48 2.42-.32 4.52-1.9 15.34-3.27 23.71"/><path d="M25.33 39.79c.7.65 1.24 2.54 1.26 4 .09 6.45.02 15.55.02 18.74"/><path d="M16.1 51.64c2.02-.21 19.76-1.43 21.43-1.41M16.97 63.82c4.46.03 13.28-1.92 19.44-2m-24.05 14c0 5.32-1.83 13.16-2.17 14.68m8.38-16.67c1.02 2.36 1.99 8.87 2.24 12.54m5.36-15.68c1.32 1.93 3.41 7.95 3.74 10.96m4.39-12.03c1.83 1.77 4.74 7.28 5.2 10.03M57.53 16.5c.15 1.89-.04 4.36-.51 5.98-3.02 10.32-6.85 20-13.77 32.56M50.03 46c.11.88.76 2.48.76 3.75 0 14.25-.54 31-.54 42.5m5.87-50.12c.59.23 3.1.27 4.66.2 6.72-.33 16.72-2.08 29.73-3.09 1.56-.12 2.9-.23 3.88 0"/><path d="M72.43 15c1.04.49 1.66 2.22 1.87 3.2.21.99 0 69.64-.21 75.8"/><path d="M73.68 42.07c-3.26 12.8-10.15 30.18-16.93 37.43m17.87-37.42c3.35 8.65 12.87 27.15 19.03 33.57 1.43 1.49 2.18 2.6 3.36 3.13"/></g><g style="font-size:8;fill:gray"><text transform="translate(17.5 16.5)">1</text><text transform="translate(29.5 16.5)">2</text><text transform="translate(7.5 46.5)">3</text><text transform="translate(16.5 37.5)">4</text><text transform="translate(29.5 46.5)">5</text><text transform="translate(18.5 49.5)">6</text><text transform="translate(19.5 61.85)">7</text><text transform="translate(6.5 76.5)">8</text><text transform="translate(14.5 79.5)">9</text><text transform="translate(20.5 76.85)">10</text><text transform="translate(28.5 74.5)">11</text><text transform="translate(45.5 14.5)">12</text><text transform="translate(40.75 64.5)">13</text><text transform="translate(56.5 39.5)">14</text><text transform="translate(62.5 12.5)">15</text><text transform="translate(60.25 53.5)">16</text><text transform="translate(80.5 51.5)">17</text></g></svg>