<svg xmlns="http://www.w3.org/2000/svg" width="109" height="109"><g style="fill:none;stroke:#000;stroke-width:3;stroke-linecap:round;stroke-linejoin:round"><path d="M20.13 16.73c1.52.54 4.3.65 5.82.54 17.8-1.27 36.8-4.02 56.61-4.23 2.53-.03 4.05.26 5.31.53M25 17.5c.04 1.7.08 4.38-.07 6.81-.9 14.36-1.18 47.69-12.62 64.66M56.1 20.41c.01.29.03.75-.02 1.16-.3 2.42-2.02 7.61-4.36 10.62m-9.02-.12c.41.35.74 1.31.74 1.88 0 5.79.04 28.51-.21 37.61m.73-37.43c1.92 0 26.5-3.51 28.37-3.45 1.92.07 3.42 1.07 3.38 3.71-.02.93-1.2 7.6-2.32 17.08"/><path d="M44.26 43.5c2.35.11 27.75-3.19 30.41-3.07m-31.02 11.3c4.8-.11 23.73-2.49 29.71-2.5m-29.94 11.8c10.13-.67 36.05-3.79 40.4-4.21 1.52-.15 4.09-.28 4.86-.08M43.25 71.81c12.48-1.44 36.33-4.51 43.25-4.94 4.5-.28 5.81.79 5 4.03-2.25 9.02-3.6 17.58-7.5 23.13-3.92 5.57-5.5.71-6.51-1.71M34.61 81.23c.14 4.02-3.36 10.52-6.31 12.35m17.79-14c1.82 2.21 3.55 8.01 4 11.25"/><path d="M58.08 77.22c2.01 2 5.19 8.02 5.7 10.96m5.77-12.56c2.65 1.63 6.85 6.53 7.51 8.91"/></g><g style="font-size:8;fill:gray"><text transform="translate(30.75 9.63)">1</text><text transform="translate(15.75 24.55)">2</text><text transform="translate(48.5 23.5)">3</text><text transform="translate(36.75 40.4)">4</text><text transform="translate(45.75 30.33)">5</text><text transform="translate(48.5 40.5)">6</text><text transform="translate(49.5 49.5)">7</text><text transform="translate(48.5 58.5)">8</text><text transform="translate(48.5 68.03)">9</text><text transform="translate(25.5 79.5)">10</text><text transform="translate(39.5 84.5)">11</text><text transform="translate(50.5 82.5)">12</text><text transform="translate(62.5 80.5)">13</text></g></svg>