<svg xmlns="http://www.w3.org/2000/svg" width="109" height="109"><g style="fill:none;stroke:#000;stroke-width:3;stroke-linecap:round;stroke-linejoin:round"><path d="M25.29 8.91c.02.32.04.83-.03 1.28-.42 2.67-2.85 8.4-6.17 11.72m-5.79-1.03c.33.42.6 1.99.6 2.68 0 7.05.04 34.64-.17 45.72m.58-45.61c1.55 0 21-3.09 22.51-2.98 2.24.15 3.33 2.1 3.13 3.92-.12 1.12-1.45 12.65-2.08 20.92"/><path d="M14.56 34.7c1.9.13 21.6-2.67 23.75-2.53M14.47 46.45c3.88-.13 17.55-2.42 22.38-2.44M14.19 57.38c8.18-.82 20.29-2.78 23.8-3.3 1.22-.18 3.3-.34 3.92-.1M13.74 69.5c9.1-1.59 22.63-3.33 27.67-3.8 3.28-.31 4.97.87 4.38 4.46-1.64 9.98-4.08 19.46-6.93 25.59-2.86 6.17-5.97 1.02-7.3-.23m-21.3-15.85c.25 3.62-.18 7.96-.91 10.18m5.97-11.13c1.84 1.65 3.58 5.97 4.04 8.39"/><path d="M24.2 76.81c1.34 1.38 3.46 5.54 3.8 7.57m4.16-10.32c1.71 1.32 4.43 5.28 4.86 7.21m14.73-49.2c1.1.72 2.38 1.45 4.03 1.21s26.67-2.93 28.85-3.36c3.67-.72 4.89.33 3.92 4.33-1.06 4.35-2.8 14.75-3.2 19m-38.23 3.66c.94.33 3.34.49 4.38.45 8.7-.28 28.74-2.87 42.02-4.19 2.57-.26 3.22.08 4.57.68"/><path d="M68.11 10.75c.5 1.06 1.45 2.22 1.45 4.44 0 9.46-.17 11.75-.17 18.91 0 32.16-9.64 53.16-22.97 63.41M68.8 55.96c5.95 11.29 17.45 31.54 24.26 38.75 2.13 2.25 2.76 2.67 3.69 2.89"/></g><g style="font-size:8;fill:gray"><text transform="translate(17.5 9.5)">1</text><text transform="translate(6.5 27.5)">2</text><text transform="translate(27.5 19.5)">3</text><text transform="translate(16.24 32.38)">4</text><text transform="translate(15.99 44.13)">5</text><text transform="translate(15.74 55.01)">6</text><text transform="translate(16.24 66.13)">7</text><text transform="translate(3.5 83.5)">8</text><text transform="translate(12.75 77.2)">9</text><text transform="translate(18.87 75.7)">10</text><text transform="translate(32.51 73.83)">11</text><text transform="translate(48.5 29.8)">12</text><text transform="translate(47.25 55.01)">13</text><text transform="translate(55.5 12.5)">14</text><text transform="translate(74.62 63.49)">15</text></g></svg>