<svg xmlns="http://www.w3.org/2000/svg" width="109" height="109"><g style="fill:none;stroke:#000;stroke-width:3;stroke-linecap:round;stroke-linejoin:round"><path d="M15.78 29.38c0 3.76-2.5 14.11-3.64 16.62m3.35-12.78c10.76-1.97 22.67-3.26 29.61-3.97 9.31-.95 2.95 5.75-.35 8.36"/><path d="M30.45 13.5c.66 1.74.83 2.29.84 5 .13 22.67-.17 59.8-20.38 75.67m22.08-45.8c.74 1.19 1.33 2.59 1.38 4.43.2 8.19-.11 19.7-.11 28.95 0 2 1.29 3.35 3.5 1.25C42.5 78.5 45 76 50.5 70.25m20.13-59.59c.02.3.03.79-.03 1.21-.34 2.52-2.3 7.93-4.99 11.08m-6.9.97c.35.43.63 2.02.63 2.73 0 7.23-.46 32.51-.68 43.88"/><path d="M59.27 26.17c1.63 0 23.07-2.83 24.66-2.74 2.35.14 3.5 1.92 3.29 3.59-.13 1.03-1.97 13.47-3.74 20.14"/><path d="M59.53 36.58c4.15.28 8.78-.83 12.88-1.3 1.49-.17 2.98-.34 4.4-.5M59.44 47.62c4.07-.14 19.45-2.48 24.52-2.5M59.17 59.31c9.21-1.05 29.58-3.57 33.53-4.23 1.38-.23 3.72-.44 4.41-.13m-38.44 15.8c9.83-1 28.46-2.92 33.76-3.4 3.45-.31 5.22.89 4.6 4.57-1.73 10.24-3.29 16.46-6.28 22.75-3.01 6.33-6.27 1.04-7.67-.24m-29.74-12.2c.42 3.71-.84 10.27-3.03 12.94m9.75-14.68c2.05 2.13 3.99 7.74 4.5 10.87"/><path d="M69.89 79.04c1.67 1.83 4.32 7.32 4.74 10.01m5.4-12.32c1.98 1.58 5.11 6.33 5.6 8.64"/></g><g style="font-size:8;fill:gray"><text transform="translate(10.5 30.5)">1</text><text transform="translate(19.5 28.5)">2</text><text transform="translate(20.5 11.5)">3</text><text transform="translate(38.5 52.5)">4</text><text transform="translate(62.5 10.5)">5</text><text transform="translate(51.5 28.5)">6</text><text transform="translate(60.5 21.5)">7</text><text transform="translate(63.25 34.5)">8</text><text transform="translate(63.5 44.03)">9</text><text transform="translate(62.5 55.5)">10</text><text transform="translate(62.5 66.13)">11</text><text transform="translate(44.25 85.55)">12</text><text transform="translate(53.75 88.5)">13</text><text transform="translate(65.5 87.5)">14</text><text transform="translate(75.25 84.5)">15</text></g></svg>