<svg xmlns="http://www.w3.org/2000/svg" width="109" height="109"><g style="fill:none;stroke:#000;stroke-width:3;stroke-linecap:round;stroke-linejoin:round"><path d="M29 16.25c3.5 3 7.25 8.25 7.75 9.75M48 11c1.71 2.1 5.82 7.6 6.5 11M77.29 9.75c.63.74.59 2.5-.05 3.45-1.74 2.55-6.27 7.85-8.49 10.05m-46 8.5c0 3-2.25 11.75-3.5 13.75m5-11.25c11.25-1 53.25-5.5 60.25-5.5s8.5 2.75.5 9"/><path d="M49.48 34.51c.02.23.03.58-.03.91-.39 1.91-2.63 6.1-5.7 8.67m-8.12 1.07c.46.27.82 1.71.82 2.18 0 4.73.05 22.89-.23 30.33m.8-30.61c2.13-.07 30.09-3.51 32.17-3.51 3.07 0 3.32 1.34 2.79 4.1-.14.76-1.48 6.92-2.73 12.66"/><path d="M37.36 54.34c5.31 0 10.8-1.05 16.06-1.63 1.85-.2 3.7-.41 5.46-.6m-21.64 9.78c5.31-.27 25.37-2.37 31.98-2.6M37.53 69.56c11.22-.93 39.9-3.95 44.72-4.45 1.68-.18 4.03-.38 4.88-.25m-50.9 12.96c12.48-1.49 40.83-3.99 47.77-3.99 2.75 0 4.17 1.61 3.5 4.1-1.75 6.49-6.25 13.79-9.5 18.92-2.91 4.6-5.5 1.59-7.5-.9M24.57 84.16c-.07 5.2-1.64 9.75-4.25 12.51M34.5 83.78c1.32 2.01 2.58 7.53 2.91 10.65"/><path d="M48 83.05c1.68 1.6 4.33 6.59 4.75 9.08m10-10.45c1.24 1.45 3.19 5.94 3.5 8.19"/></g><g style="font-size:8;fill:gray"><text transform="translate(22.5 15.5)">1</text><text transform="translate(40.5 10.5)">2</text><text transform="translate(69.5 10.5)">3</text><text transform="translate(15.25 33.4)">4</text><text transform="translate(26.5 30.5)">5</text><text transform="translate(40.58 39.25)">6</text><text transform="translate(28.58 54.85)">7</text><text transform="translate(37.25 44.5)">8</text><text transform="translate(41.5 52.7)">9</text><text transform="translate(40.27 60.5)">10</text><text transform="translate(40.5 67.5)">11</text><text transform="translate(40.34 75.5)">12</text><text transform="translate(14.58 85.5)">13</text><text transform="translate(27.5 91.5)">14</text><text transform="translate(41.5 90.5)">15</text><text transform="translate(55.5 88.5)">16</text></g></svg>