<svg xmlns="http://www.w3.org/2000/svg" width="109" height="109"><g style="fill:none;stroke:#000;stroke-width:3;stroke-linecap:round;stroke-linejoin:round"><path d="M15.78 26.37c0 3.36-1.68 12.62-2.45 14.86m3.63-12.89c7.79-1.34 23.89-3.85 28.93-4.16 7.87-.49 1.67 6-.29 7.77"/><path d="M33.08 12.25c.2 2.47-.27 5.63-.7 7.82-2.66 13.34-7.7 27.36-18.38 41.3m8.98-9.65c.6 5.84-.29 38.15-.02 43.28m17.96-58.29c.04.6-.01 1.38-.16 1.89-.92 3.26-2.09 5.78-4.21 9.75m-13.82 3.1c5.75-.83 24.64-2.76 27.11-3.22m-13.63 2.52c.72.85 1.3 2.02 1.3 3.49 0 8.38.05 25.97.05 32.63"/><path d="M23.75 62.8c5.43-.69 21.08-2.22 23.41-2.6M23.09 74.47c5.73-.58 22.08-2.76 24.53-3.08M23.34 88.93c5.75-.83 23.69-2.93 26.16-3.38m19.79-74.14c.02.28.04.72-.03 1.11-.41 2.32-2.74 7.29-5.93 10.18m-4.28-.03c.33.43.6 1.02.6 1.73 0 7.23-.46 34.01-.67 45.38M60.06 24c1.55 0 21-3.17 22.51-3.06 2.24.16 3.33 2.15 3.13 4.02-.12 1.15-2.2 15.55-3.58 20.96"/><path d="M60.31 34.83c3.78.27 8.06-.83 11.78-1.3l4.01-.5M60.22 46.37c3.88-.14 17.05-2.48 21.88-2.5M59.44 58.61c8.18-.84 26.29-2.86 29.8-3.38 1.22-.19 3.3-.35 3.92-.11M58.99 70c9.1-1.63 26.63-3.42 31.67-3.9 3.28-.31 4.97.89 4.38 4.57-1.64 10.24-4.08 19.96-6.93 26.25-2.86 6.33-5.97 1.04-7.3-.24m-25.79-13.7c.4 3.71-.29 8.16-1.46 10.44m8.51-13.68c1.84 1.84 3.58 6.67 4.04 9.37"/><path d="M71.95 78.04c1.34 1.42 3.46 5.68 3.8 7.76m4.66-10.07c1.71 1.35 4.43 5.41 4.86 7.39"/></g><g style="font-size:8;fill:gray"><text transform="translate(9.25 28.25)">1</text><text transform="translate(20.25 25.25)">2</text><text transform="translate(25.25 11.23)">3</text><text transform="translate(17.25 65.25)">4</text><text transform="translate(32.25 37.25)">5</text><text transform="translate(27.25 48.25)">6</text><text transform="translate(40.25 58.25)">7</text><text transform="translate(27.25 59.25)">8</text><text transform="translate(28 71.25)">9</text><text transform="translate(26.25 85.25)">10</text><text transform="translate(58.25 11.25)">11</text><text transform="translate(49.5 35.55)">12</text><text transform="translate(72.25 20.25)">13</text><text transform="translate(62.09 31.4)">14</text><text transform="translate(62.25 42.25)">15</text><text transform="translate(62.13 53.75)">16</text><text transform="translate(62.18 67.18)">17</text><text transform="translate(46.25 81.25)">18</text><text transform="translate(54.25 80.25)">19</text><text transform="translate(63.25 78.25)">20</text><text transform="translate(72.25 76.25)">21</text></g></svg>