<svg xmlns="http://www.w3.org/2000/svg" width="109" height="109"><g style="fill:none;stroke:#000;stroke-width:3;stroke-linecap:round;stroke-linejoin:round"><path d="M12.9 22.45c.88.52 2.48.61 3.36.52 9.13-.88 19.24-1.97 28.26-3.07 1.47-.18 3.22-.28 3.95-.02M24.54 30.36c.21.29.43.54.53.91.74 2.91 1.63 10.94 2.14 16.17m-1.7-15.65c5.11-1.12 13.71-2.42 16.63-2.87 1.07-.16 1.71.97 1.56 1.92-.63 3.97-1.08 6.15-2.02 11.63m-14.5 2.65c3.44-.5 11.14-1.38 15.86-2.15M20.2 56.64c.25.33.51.6.62 1.01.87 3.26 1.78 13.43 2.37 19.28m-1.73-18.08c3.18-.86 5.76-2.25 8.69-2.67 1.07-.16 1.71.93 1.56 1.85-.63 3.81-1.08 10.5-2.02 15.76m-6.55 1.19c3.44-.48 7.06-1.24 8.37-1.15m5.02-19.19c.25.36.51.66.62 1.11.86 3.55 1.56 12.88 2.15 19.25m-1.8-18.86c3.95-1.02 6.9-1.54 9.83-2 1.07-.17 1.71 1.01 1.56 2.01-.63 4.14-1.37 9.11-2.32 14.83m-7.11 2.27c3.44-.53 3.45-.03 8.18-.84"/><path d="M15.14 23.8v61.44c0 6.03.57 3.69 1.59 3.57 5.77-.67 23.3-3.39 25.17-3.39s3.46-.31 4.62.14M68.38 9.91c.02.28.04.72-.03 1.1-.42 2.3-2.85 7.23-6.16 10.09m-5.57.48c.35.43.62 1.01.62 1.71 0 7.17-.46 35.22-.67 46.49m1.1-46.89c1.62 0 21.83-3.14 23.4-3.03 2.33.16 3.46 2.13 3.25 3.98-.13 1.14-1.71 13.08-3.21 21.78"/><path d="M57.93 34.12c1.98.13 22.46-2.72 24.7-2.57m-24.8 14.51c4.03-.14 18.25-2.46 23.27-2.48M58.06 58.2c8.51-.83 27.33-2.83 30.99-3.35 1.27-.18 3.44-.35 4.08-.1M56.58 70c9.46-1.62 30.16-3.89 35.41-4.37 3.42-.31 5.17.88 4.55 4.53-1.71 10.15-4.24 19.79-7.21 26.03-2.98 6.27-6.21 1.04-7.59-.24M52.41 81.63c.46 4.13-.33 9.07-1.7 11.6m8.99-13.08c1.91 1.82 3.72 6.61 4.2 9.29"/><path d="M69.93 78.46c1.39 1.4 3.6 5.63 3.95 7.7m5.35-9.99c1.78 1.34 4.6 5.37 5.05 7.33"/></g><g style="font-size:8;fill:gray"><text transform="translate(17.5 20.5)">1</text><text transform="translate(18.5 41)">2</text><text transform="translate(27.75 29.25)">3</text><text transform="translate(29 42.25)">4</text><text transform="translate(17 69.25)">5</text><text transform="translate(23.25 56.5)">6</text><text transform="translate(24.5 71.5)">7</text><text transform="translate(33 67.75)">8</text><text transform="translate(39.5 53.25)">9</text><text transform="translate(40.75 69.25)">10</text><text transform="translate(7.25 29.4)">11</text><text transform="translate(59.5 8.33)">12</text><text transform="translate(47.5 29.25)">13</text><text transform="translate(56.25 19.5)">14</text><text transform="translate(61.25 30.5)">15</text><text transform="translate(60 42.75)">16</text><text transform="translate(60 55.25)">17</text><text transform="translate(60 66.5)">18</text><text transform="translate(47.25 80.5)">19</text><text transform="translate(56.75 78.5)">20</text><text transform="translate(66.5 76.75)">21</text><text transform="translate(76.25 75)">22</text></g></svg>