<svg xmlns="http://www.w3.org/2000/svg" width="109" height="109"><g style="fill:none;stroke:#000;stroke-width:3;stroke-linecap:round;stroke-linejoin:round"><path d="M53.06 8.38c.76.34 1.86 2.52 2.01 3.2S55 16 55 19"/><path d="M20.8 21.67c1.52.47 4.3.55 5.82.47 15.79-.79 42.81-5.04 56.76-5.96 2.52-.17 4.05.23 5.31.46m-63.52 6.14c.05 1.69.09 3.87-.09 6.31-1.08 14.34-3.5 49.14-15.09 64.6m20.2-62.23c1.7.37 3.15.61 4.92.47 12.2-1.02 43.86-4.39 47.29-4.54 2.56-.12 3.47.99 3.01 2.31-.86 2.43-2 5.58-3.15 8.19"/><path d="M44.26 24.87c.8.24 1.29 1.51 1.45 2s.62 9.78 1.07 13.15m16.91-17.07c.8.24 1.49 1.5 1.45 2-.2 2.18-1.07 11.09-1.76 14.46m-32.71 3.15c1.21.38 3.44.48 4.65.38 7.73-.66 37.41-4.74 46.08-4.6 2.02.03 3.24.18 4.25.37M37.17 51.56c4.62-.2 9.94-1.42 13.96-1.76 1.18-.1 1.93-.1 2.54-.04"/><path d="M34.43 47.5c.82.31 1.52 1.22 1.52 1.64 0 1.14-.26 9.73-.26 11.18 0 1.61 1.66 1.37 3.29.86 4.27-1.32 7.26-2.89 12.38-4.99m29.53-12.45c.19.28.04 1.22-.28 1.71-.45.7-9.32 3.5-15 5.05"/><path d="M61.53 42.53c.86.32 1.18 1.5 1.18 2.31 0 1.07-.07 7.81-.09 9.07-.1 4.57 2.95 5.56 13.14 5.45 11.74-.12 13.52-2.48 13.52-6.41M39.22 65.97c2.04 1.32 5.12 5.06 5.63 7.12m30.38-10.05c.02.25.05.65-.04 1.01-.56 2.13-3.76 6.79-8.14 9.64m-41.7 3.82c.97.15 3.58.57 6.17.45C41.5 77.5 76.5 75 88.05 74.35c2.59-.15 3.25-.15 4.87 0"/><path d="M55.58 60.5c.85.34 1.37 1.54 1.54 2.22s0 34-.17 38.28m-1.87-23.92c-5.89 7.13-20.22 17.14-33.48 21.25m36.73-21.22c4.46 2.77 24.02 15.88 28.87 18.6 1.64.92 3.05 1.32 4.69 1.58"/></g><g style="font-size:8;fill:gray"><text transform="translate(45.5 9.5)">1</text><text transform="translate(22.5 18.5)">2</text><text transform="translate(16.25 30.5)">3</text><text transform="translate(29.5 29.5)">4</text><text transform="translate(37.5 27.5)">5</text><text transform="translate(56.5 25.5)">6</text><text transform="translate(28.5 39.5)">7</text><text transform="translate(39.5 49.5)">8</text><text transform="translate(28.5 52.5)">9</text><text transform="translate(69.5 45.5)">10</text><text transform="translate(54.5 47.5)">11</text><text transform="translate(31.25 71.5)">12</text><text transform="translate(64.5 67.5)">13</text><text transform="translate(23.5 75.5)">14</text><text transform="translate(46.5 64.5)">15</text><text transform="translate(35.5 86.5)">16</text><text transform="translate(72.5 84.5)">17</text></g></svg>