<svg xmlns="http://www.w3.org/2000/svg" width="109" height="109"><g style="fill:none;stroke:#000;stroke-width:3;stroke-linecap:round;stroke-linejoin:round"><path d="M31.09 10.5c.65.51 1.17 2.25 1.17 3.29 0 5.31.17 12.92.17 17.98m-.04-9.88c4.24-.76 8.84-1.52 13.3-2.03 1.04-.12 1.3-.25 1.94 0m-28.14-2.78c.65.51 1.04 2.28 1.17 3.29s0 6.34-.13 12.67"/><path d="M8.75 33.59c.63.24 2.33.8 4.01.71 9.09-.47 25.99-2.8 34.4-3.3 1.69-.1 4.63-.49 5.59-.26m-26.28 8.82c.11.18-.05 1.82-.14 2.22-.9 4.31-3.22 11.36-6.53 15.41m6.22-9.53c1.77 1.11 4.02 4.08 4.88 6.89m8.7-16.49c.11.18-.05 1.82-.13 2.22-.88 4.3-3.17 11.34-6.43 15.39m5.86-8.77c2.04 1.24 4.64 4.52 5.63 7.64m-29.62 8.09c2.1 0 32.07-2.79 34.03-2.79m-21.97 7.58c.12.19-.06 1.98-.15 2.41-1 4.67-3.58 12.32-7.26 16.72m6.49-10.04c1.71.91 3.89 3.33 4.72 5.62m9.42-15.73c.15.21-.08 2.19-.19 2.66-1.27 5.16-4.57 13.61-9.26 18.47m7.71-10.8c2.2 1.4 5.01 5.12 6.08 8.65"/><path d="M13.3 42.26c.46.45 1.32 1.89 1.21 4.3-.04.92-.26 44.65-.3 46.03s.39 2.54 1.29 2.42c9.79-1.29 23.77-2.8 32.94-3.31m-.28-53.99c.28.45.89 3.39.94 4.3s-.12 32.25-.09 53.38m8.94-79.14c.41.48.88 1.79 1.01 2.4 1.13 5.05 1.89 11.8 3.23 20.18m-3.15-20.74c8.46-1.34 22.36-3.2 27.13-3.35 1.98-.06 2.71 2.41 2.52 3.89-.7 5.4-1.72 8.66-3.08 15.82m-23.54 2.12c5.59-.5 17.18-1.32 25.84-1.81M73.6 37.6c.34.52 1.13 2.83 1.13 3.87 0 7.11.31 33.8.24 40.31m.26-23.52c.81 0 9.26-1.27 14.6-1.86 1.09-.12 2.55.21 3.38.21m-29.66-7.05c.2 1.19.52 2.29.39 3.82-1.19 13.87-2.69 25.37-10.34 38.17"/><path d="M61.54 71.46c4.96.29 14.71 13.54 29.07 23.26 1.67 1.13 4.08.95 5.8 1.28"/></g><g style="font-size:8;fill:gray"><text transform="translate(23.5 10.5)">1</text><text transform="translate(36.5 17.5)">2</text><text transform="translate(11.5 17.5)">3</text><text transform="translate(1.5 33.5)">4</text><text transform="translate(19.5 42.5)">5</text><text transform="translate(28.5 46.5)">6</text><text transform="translate(33.5 40.5)">7</text><text transform="translate(42.5 47.1)">8</text><text transform="translate(22.75 60.5)">9</text><text transform="translate(16.5 71.5)">10</text><text transform="translate(28.5 76.5)">11</text><text transform="translate(30.75 69.5)">12</text><text transform="translate(40.5 78.73)">13</text><text transform="translate(2.5 46.5)">14</text><text transform="translate(50.5 42.58)">15</text><text transform="translate(49.5 26)">16</text><text transform="translate(60.5 14.5)">17</text><text transform="translate(64 33.5)">18</text><text transform="translate(64.75 46.53)">19</text><text transform="translate(79.5 52.95)">20</text><text transform="translate(53.25 53.88)">21</text><text transform="translate(62 84.13)">22</text></g></svg>