<svg xmlns="http://www.w3.org/2000/svg" width="109" height="109"><g style="fill:none;stroke:#000;stroke-width:3;stroke-linecap:round;stroke-linejoin:round"><path d="M33.39 22.89c5.06-.76 9.35-1.02 14.67-1.53 1.24-.12 1.55-.25 2.32 0M32.09 12c.65.51 1.17 2.25 1.17 3.29 0 5.31.17 11.92.17 16.98M19.99 18.08c.65.51 1.04 2.28 1.17 3.29s0 5.84-.13 12.17"/><path d="M11 33.54c.61.25 2.23.85 3.85.76 8.73-.51 24.76-2.55 33.03-2.55 1.62 0 4.44.01 5.37.26m-25.28 7.05c.11.19-.06 1.93-.14 2.34-.93 4.55-3.34 12-6.77 16.28m5.71-11.27c2.04.99 4.64 3.64 5.63 6.14m9.19-12.99c.15.18-.07 1.87-.19 2.28-1.22 4.42-4.37 11.67-8.87 15.83m6.62-8.52c1.76 1.11 4.02 4.08 4.88 6.89m-28.12 8.09c2.1 0 31.07-1.79 33.03-1.79m-20.48 7.08c.14.17-.07 1.77-.18 2.16-1.2 4.18-4.3 11.03-8.72 14.97m7.46-9.29c1.37.87 3.11 3.18 3.78 5.37m9.39-13.73c.15.2-.08 2.01-.19 2.44-1.27 4.73-4.57 12.48-9.26 16.94m7.46-10.8c1.93 1.28 4.39 4.68 5.33 7.9"/><path d="M14.8 41.26c.46.45 1.32 1.89 1.21 4.3-.04.92-.26 45.15-.3 46.53s.39 2.48 1.29 2.42c11-.76 22.77-1.3 31.94-1.81m-.78-54.99c.28.45.89 3.39.94 4.3s-.12 33.25-.09 54.38m13.03-77.74c.85.26 2.41.19 3.27.15 5.91-.26 19.2-1.55 24.91-2.15 1.42-.15 2.28.04 2.99.15m-18.96 3.45c.37.29.48 2.34.34 3.05-1.34 6.84-7.19 23.63-8.6 27.95"/><path d="M59.93 33.71c.79.4 2.88.51 3.53.46 9.05-.67 13.3-1.67 19.81-2.4 1.5-.17 3.21 1.23 3.21 2.93 0 2.91-1.27 8.67-2.48 15.05m-29.67 2.71c1.15.24 3.99.18 5.14.08 6.29-.54 27.8-2.29 34.24-2.52 1.92-.07 3.8-.02 4.76.09m-38.2 14.77c.36.51.72.94.88 1.58 1.24 5.09 2.72 19.14 3.57 28.28m-2.86-27.45C73.25 66 83 65.58 88.84 65.02c2.14-.21 3.42 1.22 3.11 2.43-1.27 5-2.96 15.3-4.63 22.96M64.7 92.24c6.87-.63 16.3-1.24 26.26-1.71"/></g><g style="font-size:8;fill:gray"><text transform="translate(38 17.5)">1</text><text transform="translate(25.5 13.5)">2</text><text transform="translate(12.5 19.5)">3</text><text transform="translate(4.5 34.5)">4</text><text transform="translate(21.5 41.5)">5</text><text transform="translate(30.5 47.5)">6</text><text transform="translate(35.5 40.5)">7</text><text transform="translate(42.5 50.5)">8</text><text transform="translate(23.25 60.5)">9</text><text transform="translate(18.5 70.5)">10</text><text transform="translate(29 77.5)">11</text><text transform="translate(31.25 69.5)">12</text><text transform="translate(40.5 78.73)">13</text><text transform="translate(3.5 43.5)">14</text><text transform="translate(52.5 41.5)">15</text><text transform="translate(59.5 15.5)">16</text><text transform="translate(64.5 27.43)">17</text><text transform="translate(57.5 31.5)">18</text><text transform="translate(52.5 49.5)">19</text><text transform="translate(52.5 73.5)">20</text><text transform="translate(64.5 63.5)">21</text><text transform="translate(67.5 88.5)">22</text></g></svg>