<svg xmlns="http://www.w3.org/2000/svg" width="109" height="109"><g style="fill:none;stroke:#000;stroke-width:3;stroke-linecap:round;stroke-linejoin:round"><path d="M33.14 23.78c4.91-1 8.58-1.84 13.74-2.51 1.2-.15 1.5-.33 2.25 0M31.59 11.5c.65.51 1.17 2.25 1.17 3.29 0 5.31.17 11.92.17 16.98M20.49 19.08c.65.51 1.04 2.28 1.17 3.29s0 4.34-.13 10.67"/><path d="M9.25 33.54c.49.25 1.8.85 3.1.76 7.03-.51 29.43-3.55 36.08-3.55 1.31 0 3.57.01 4.32.26m-25.78 8.05c.11.18-.05 1.88-.14 2.28-.9 4.43-3.22 11.68-6.53 15.84m5.97-10.52c1.86.95 4.23 3.49 5.13 5.89m8.69-12.99c.13.19-.07 1.98-.17 2.4-1.12 4.67-4.01 12.31-8.14 16.7M38.9 48.4c2.04 1.24 4.64 4.52 5.63 7.64m-29.12 8.09c2.1 0 31.57-2.79 33.53-2.79m-21.47 7.58c.11.17-.06 1.77-.14 2.16-.93 4.18-3.34 11.03-6.77 14.97m6.96-9.29c1.37.87 3.11 3.18 3.78 5.37m8.89-13.23c.14.19-.07 1.93-.17 2.35-1.13 4.55-4.08 12-8.28 16.28m6.96-11.05c1.93 1.28 4.39 4.68 5.33 7.9"/><path d="M14.3 40.76c.46.45 1.32 1.89 1.21 4.3-.04.92-.26 45.65-.3 47.03s.39 2.54 1.29 2.42c9.79-1.29 22.77-2.3 31.94-2.81m-.28-53.49c.28.45.89 3.39.94 4.3s-.12 31.75-.09 52.88m8.7-73.84c.75.45 3.01.84 4.17.71 9.48-1.07 23.87-3.39 29.13-3.79 3.42-.26 4.82 1.26 4.75 3.07-.24 5.96-2.09 20.04-5.77 27.45-3.23 6.51-5.48 2.76-8.15.11"/><path d="M76 23.39c.06.75.17 1.95-.12 3.01-2.94 10.82-8.21 19.9-19.99 30.63M61 65.1c.31.44.63.81.77 1.37 1.09 4.39 2.81 19.89 3.56 27.78m-3.37-27.52C70 66 83.05 65.27 88.63 64.74c1.85-.18 4.01 1.83 3.47 4.38-.99 4.67-2.84 15.08-3.97 21.64m-22.77 1.63c4.12-.6 16.59-1.14 24.54-1.55"/></g><g style="font-size:8;fill:gray"><text transform="translate(37.5 19.5)">1</text><text transform="translate(23.5 13.5)">2</text><text transform="translate(12.5 19.5)">3</text><text transform="translate(2.5 32.5)">4</text><text transform="translate(20.5 41.5)">5</text><text transform="translate(29.5 47)">6</text><text transform="translate(33.5 41)">7</text><text transform="translate(42.5 48.5)">8</text><text transform="translate(22.75 61)">9</text><text transform="translate(18.5 71.5)">10</text><text transform="translate(29.5 77)">11</text><text transform="translate(30.75 70)">12</text><text transform="translate(40.5 78.5)">13</text><text transform="translate(2.5 43.5)">14</text><text transform="translate(50.5 40.5)">15</text><text transform="translate(54.5 18.5)">16</text><text transform="translate(65.5 31.5)">17</text><text transform="translate(52.5 73.5)">18</text><text transform="translate(63.5 63.5)">19</text><text transform="translate(67.5 88.5)">20</text></g></svg>