<svg xmlns="http://www.w3.org/2000/svg" width="109" height="109"><g style="fill:none;stroke:#000;stroke-width:3;stroke-linecap:round;stroke-linejoin:round"><path d="M31.39 23.07c5.13-.92 9.49-1.74 14.89-2.35 1.25-.14 1.57-.31 2.35 0M30.09 11.5c.65.51 1.17 2.25 1.17 3.29 0 5.31.17 13.92.17 18.98M17.99 17.58c.65.51 1.04 2.28 1.17 3.29s0 7.84-.13 14.17"/><path d="M8.25 35.04c.49.25 1.8.85 3.1.76 7.03-.51 29.15-3.05 36.58-4.05 1.29-.17 3.57.01 4.32.26m-27.78 6.05c.1.19-.05 1.93-.12 2.34-.79 4.55-2.86 12-5.8 16.28m5.72-7.02c1.86.95 4.23 3.49 5.13 5.89m9.69-16.99c.13.19-.07 1.98-.17 2.4-1.12 4.67-4.01 12.31-8.14 16.7m6.62-9.26c2.04 1.24 4.64 4.52 5.63 7.64m-29.12 7.59c2.1 0 31.57-3.29 33.53-3.29m-22.47 8.08c.12.2-.06 2-.15 2.44-.96 4.73-3.46 12.48-7.02 16.93m6.99-10.28c1.62.99 3.7 3.63 4.48 6.12m9.42-17.23c.13.22-.07 2.29-.17 2.79-1.1 5.41-3.96 14.26-8.04 19.34m6.47-10.3c2.2 1.4 5.01 5.12 6.08 8.65"/><path d="M12.8 41.76c.46.45 1.32 1.89 1.21 4.3-.04.92-.26 45.65-.3 47.03s.39 2.54 1.29 2.42c9.79-1.29 23.77-2.3 32.94-2.81"/><path d="M46.66 37.71c.28.45.89 3.39.94 4.3s-.12 33.25-.09 54.38M71.17 12.5c.05.88.23 2.31-.1 3.54-2.13 7.76-8.9 23.63-16.82 33.05m17.67-31.8C75.9 21.9 90.39 40.57 93.75 44.4c1.14 1.3 2.61 1.86 3.75 2.23m-29.05-3.05c3.7 2.05 9.57 8.44 10.49 11.63M55.7 62.87c1.07.88 3.33 1.31 4.54 1.08 2.41-.44 24.75-3.81 27.29-4.25s3.18 1.04 1.35 3.38C84.6 68.56 73.31 83.57 71.7 85.33"/><path d="M61.5 78.4c4.66 2.49 16.73 12.08 18.92 18.6"/></g><g style="font-size:8;fill:gray"><text transform="translate(35.5 18.5)">1</text><text transform="translate(22.5 11.5)">2</text><text transform="translate(10.5 18.5)">3</text><text transform="translate(.5 34.5)">4</text><text transform="translate(18.5 43.5)">5</text><text transform="translate(27.5 49.5)">6</text><text transform="translate(32.5 42.5)">7</text><text transform="translate(41.5 49.5)">8</text><text transform="translate(21.75 60.5)">9</text><text transform="translate(15.5 71.5)">10</text><text transform="translate(26.5 77.5)">11</text><text transform="translate(29.5 70.5)">12</text><text transform="translate(39.5 78.73)">13</text><text transform="translate(1.5 45.5)">14</text><text transform="translate(49.5 42.58)">15</text><text transform="translate(60.5 13.5)">16</text><text transform="translate(76.5 21.5)">17</text><text transform="translate(67.5 41.5)">18</text><text transform="translate(53.5 60.53)">19</text><text transform="translate(55.5 86.5)">20</text></g></svg>